%TF.GenerationSoftware,KiCad,Pcbnew,(6.0.1)*%
%TF.CreationDate,2022-04-28T08:04:20-05:00*%
%TF.ProjectId,AddOnBoard,4164644f-6e42-46f6-9172-642e6b696361,rev?*%
%TF.SameCoordinates,Original*%
%TF.FileFunction,Soldermask,Top*%
%TF.FilePolarity,Negative*%
%FSLAX46Y46*%
G04 Gerber Fmt 4.6, Leading zero omitted, Abs format (unit mm)*
G04 Created by KiCad (PCBNEW (6.0.1)) date 2022-04-28 08:04:20*
%MOMM*%
%LPD*%
G01*
G04 APERTURE LIST*
%ADD10R,1.948000X1.700000*%
%ADD11R,1.700000X1.700000*%
%ADD12O,1.700000X1.700000*%
%ADD13R,2.100000X2.100000*%
%ADD14C,2.100000*%
%ADD15C,2.020000*%
G04 APERTURE END LIST*
D10*
%TO.C,btn_center1*%
X111355400Y-120243600D03*
X114755400Y-120243600D03*
%TD*%
D11*
%TO.C,J3*%
X108204000Y-80518000D03*
D12*
X110744000Y-80518000D03*
X113284000Y-80518000D03*
X115824000Y-80518000D03*
%TD*%
D10*
%TO.C,btn_Up1*%
X111330000Y-112953800D03*
X114730000Y-112953800D03*
%TD*%
%TO.C,btn_right1*%
X121693200Y-120472200D03*
X125093200Y-120472200D03*
%TD*%
%TO.C,btn_left1*%
X99925400Y-120472200D03*
X103325400Y-120472200D03*
%TD*%
%TO.C,btn_down1*%
X111380800Y-127736600D03*
X114780800Y-127736600D03*
%TD*%
D13*
%TO.C,J1*%
X95046800Y-71985200D03*
D14*
X95046800Y-74525200D03*
%TD*%
%TO.C,J4*%
X128955800Y-72002000D03*
X128955800Y-74502000D03*
X128955800Y-77002000D03*
X128955800Y-79502000D03*
%TD*%
%TO.C,J5*%
X128981200Y-82016600D03*
X128981200Y-84516600D03*
X128981200Y-87016600D03*
X128981200Y-89516600D03*
X128981200Y-92016600D03*
%TD*%
%TO.C,J6*%
X129006600Y-94513400D03*
X129006600Y-97013400D03*
X129006600Y-99513400D03*
X129006600Y-102013400D03*
X129006600Y-104513400D03*
%TD*%
%TO.C,J7*%
X95050000Y-77050000D03*
X95050000Y-79550000D03*
%TD*%
%TO.C,J8*%
X95000000Y-92225000D03*
X95000000Y-94725000D03*
X95000000Y-97225000D03*
%TD*%
%TO.C,J9*%
X95000000Y-99750000D03*
X95000000Y-102250000D03*
X95000000Y-104750000D03*
%TD*%
%TO.C,J12*%
X95021400Y-107416600D03*
X95021400Y-109956600D03*
X95021400Y-112496600D03*
X95021400Y-115036600D03*
%TD*%
%TO.C,J10*%
X129006600Y-107071000D03*
X129006600Y-109611000D03*
X129006600Y-112151000D03*
X129006600Y-114691000D03*
%TD*%
D15*
%TO.C,J2*%
X95050000Y-82075000D03*
X95050000Y-84615000D03*
X95050000Y-87155000D03*
X95050000Y-89695000D03*
%TD*%
M02*
