%TF.GenerationSoftware,KiCad,Pcbnew,(6.0.1)*%
%TF.CreationDate,2022-04-28T08:04:20-05:00*%
%TF.ProjectId,AddOnBoard,4164644f-6e42-46f6-9172-642e6b696361,rev?*%
%TF.SameCoordinates,Original*%
%TF.FileFunction,Legend,Top*%
%TF.FilePolarity,Positive*%
%FSLAX46Y46*%
G04 Gerber Fmt 4.6, Leading zero omitted, Abs format (unit mm)*
G04 Created by KiCad (PCBNEW (6.0.1)) date 2022-04-28 08:04:20*
%MOMM*%
%LPD*%
G01*
G04 APERTURE LIST*
%ADD10C,0.120000*%
%ADD11C,0.300000*%
%ADD12C,0.150000*%
%ADD13C,0.100000*%
G04 APERTURE END LIST*
D10*
X93751400Y-91033600D02*
X105816400Y-91033600D01*
X105816400Y-91033600D02*
X105816400Y-80848200D01*
X105816400Y-80848200D02*
X93751400Y-80848200D01*
X93751400Y-80848200D02*
X93751400Y-91033600D01*
D11*
X101098971Y-107776671D02*
X101098971Y-106276671D01*
X101456114Y-106276671D01*
X101670400Y-106348100D01*
X101813257Y-106490957D01*
X101884685Y-106633814D01*
X101956114Y-106919528D01*
X101956114Y-107133814D01*
X101884685Y-107419528D01*
X101813257Y-107562385D01*
X101670400Y-107705242D01*
X101456114Y-107776671D01*
X101098971Y-107776671D01*
X103170400Y-107705242D02*
X103027542Y-107776671D01*
X102741828Y-107776671D01*
X102598971Y-107705242D01*
X102527542Y-107562385D01*
X102527542Y-106990957D01*
X102598971Y-106848100D01*
X102741828Y-106776671D01*
X103027542Y-106776671D01*
X103170400Y-106848100D01*
X103241828Y-106990957D01*
X103241828Y-107133814D01*
X102527542Y-107276671D01*
X103741828Y-106776671D02*
X104098971Y-107776671D01*
X104456114Y-106776671D01*
X105527542Y-106990957D02*
X105741828Y-107062385D01*
X105813257Y-107133814D01*
X105884685Y-107276671D01*
X105884685Y-107490957D01*
X105813257Y-107633814D01*
X105741828Y-107705242D01*
X105598971Y-107776671D01*
X105027542Y-107776671D01*
X105027542Y-106276671D01*
X105527542Y-106276671D01*
X105670400Y-106348100D01*
X105741828Y-106419528D01*
X105813257Y-106562385D01*
X105813257Y-106705242D01*
X105741828Y-106848100D01*
X105670400Y-106919528D01*
X105527542Y-106990957D01*
X105027542Y-106990957D01*
X106741828Y-107776671D02*
X106598971Y-107705242D01*
X106527542Y-107633814D01*
X106456114Y-107490957D01*
X106456114Y-107062385D01*
X106527542Y-106919528D01*
X106598971Y-106848100D01*
X106741828Y-106776671D01*
X106956114Y-106776671D01*
X107098971Y-106848100D01*
X107170400Y-106919528D01*
X107241828Y-107062385D01*
X107241828Y-107490957D01*
X107170400Y-107633814D01*
X107098971Y-107705242D01*
X106956114Y-107776671D01*
X106741828Y-107776671D01*
X108527542Y-107776671D02*
X108527542Y-106990957D01*
X108456114Y-106848100D01*
X108313257Y-106776671D01*
X108027542Y-106776671D01*
X107884685Y-106848100D01*
X108527542Y-107705242D02*
X108384685Y-107776671D01*
X108027542Y-107776671D01*
X107884685Y-107705242D01*
X107813257Y-107562385D01*
X107813257Y-107419528D01*
X107884685Y-107276671D01*
X108027542Y-107205242D01*
X108384685Y-107205242D01*
X108527542Y-107133814D01*
X109241828Y-107776671D02*
X109241828Y-106776671D01*
X109241828Y-107062385D02*
X109313257Y-106919528D01*
X109384685Y-106848100D01*
X109527542Y-106776671D01*
X109670400Y-106776671D01*
X110813257Y-107776671D02*
X110813257Y-106276671D01*
X110813257Y-107705242D02*
X110670400Y-107776671D01*
X110384685Y-107776671D01*
X110241828Y-107705242D01*
X110170400Y-107633814D01*
X110098971Y-107490957D01*
X110098971Y-107062385D01*
X110170400Y-106919528D01*
X110241828Y-106848100D01*
X110384685Y-106776671D01*
X110670400Y-106776671D01*
X110813257Y-106848100D01*
X112670400Y-107205242D02*
X113813257Y-107205242D01*
X115598971Y-107348100D02*
X116313257Y-107348100D01*
X115456114Y-107776671D02*
X115956114Y-106276671D01*
X116456114Y-107776671D01*
X117598971Y-107776671D02*
X117598971Y-106276671D01*
X117598971Y-107705242D02*
X117456114Y-107776671D01*
X117170400Y-107776671D01*
X117027542Y-107705242D01*
X116956114Y-107633814D01*
X116884685Y-107490957D01*
X116884685Y-107062385D01*
X116956114Y-106919528D01*
X117027542Y-106848100D01*
X117170400Y-106776671D01*
X117456114Y-106776671D01*
X117598971Y-106848100D01*
X118956114Y-107776671D02*
X118956114Y-106276671D01*
X118956114Y-107705242D02*
X118813257Y-107776671D01*
X118527542Y-107776671D01*
X118384685Y-107705242D01*
X118313257Y-107633814D01*
X118241828Y-107490957D01*
X118241828Y-107062385D01*
X118313257Y-106919528D01*
X118384685Y-106848100D01*
X118527542Y-106776671D01*
X118813257Y-106776671D01*
X118956114Y-106848100D01*
X119670400Y-107205242D02*
X120813257Y-107205242D01*
X121813257Y-106276671D02*
X122098971Y-106276671D01*
X122241828Y-106348100D01*
X122384685Y-106490957D01*
X122456114Y-106776671D01*
X122456114Y-107276671D01*
X122384685Y-107562385D01*
X122241828Y-107705242D01*
X122098971Y-107776671D01*
X121813257Y-107776671D01*
X121670400Y-107705242D01*
X121527542Y-107562385D01*
X121456114Y-107276671D01*
X121456114Y-106776671D01*
X121527542Y-106490957D01*
X121670400Y-106348100D01*
X121813257Y-106276671D01*
X123098971Y-106776671D02*
X123098971Y-107776671D01*
X123098971Y-106919528D02*
X123170400Y-106848100D01*
X123313257Y-106776671D01*
X123527542Y-106776671D01*
X123670400Y-106848100D01*
X123741828Y-106990957D01*
X123741828Y-107776671D01*
X102741828Y-110120242D02*
X102956114Y-110191671D01*
X103313257Y-110191671D01*
X103456114Y-110120242D01*
X103527542Y-110048814D01*
X103598971Y-109905957D01*
X103598971Y-109763100D01*
X103527542Y-109620242D01*
X103456114Y-109548814D01*
X103313257Y-109477385D01*
X103027542Y-109405957D01*
X102884685Y-109334528D01*
X102813257Y-109263100D01*
X102741828Y-109120242D01*
X102741828Y-108977385D01*
X102813257Y-108834528D01*
X102884685Y-108763100D01*
X103027542Y-108691671D01*
X103384685Y-108691671D01*
X103598971Y-108763100D01*
X104884685Y-110120242D02*
X104741828Y-110191671D01*
X104456114Y-110191671D01*
X104313257Y-110120242D01*
X104241828Y-110048814D01*
X104170400Y-109905957D01*
X104170400Y-109477385D01*
X104241828Y-109334528D01*
X104313257Y-109263100D01*
X104456114Y-109191671D01*
X104741828Y-109191671D01*
X104884685Y-109263100D01*
X105527542Y-110191671D02*
X105527542Y-109191671D01*
X105527542Y-109477385D02*
X105598971Y-109334528D01*
X105670400Y-109263100D01*
X105813257Y-109191671D01*
X105956114Y-109191671D01*
X107027542Y-110120242D02*
X106884685Y-110191671D01*
X106598971Y-110191671D01*
X106456114Y-110120242D01*
X106384685Y-109977385D01*
X106384685Y-109405957D01*
X106456114Y-109263100D01*
X106598971Y-109191671D01*
X106884685Y-109191671D01*
X107027542Y-109263100D01*
X107098971Y-109405957D01*
X107098971Y-109548814D01*
X106384685Y-109691671D01*
X108313257Y-110120242D02*
X108170400Y-110191671D01*
X107884685Y-110191671D01*
X107741828Y-110120242D01*
X107670400Y-109977385D01*
X107670400Y-109405957D01*
X107741828Y-109263100D01*
X107884685Y-109191671D01*
X108170400Y-109191671D01*
X108313257Y-109263100D01*
X108384685Y-109405957D01*
X108384685Y-109548814D01*
X107670400Y-109691671D01*
X109027542Y-109191671D02*
X109027542Y-110191671D01*
X109027542Y-109334528D02*
X109098971Y-109263100D01*
X109241828Y-109191671D01*
X109456114Y-109191671D01*
X109598971Y-109263100D01*
X109670400Y-109405957D01*
X109670400Y-110191671D01*
X112598971Y-108620242D02*
X111313257Y-110548814D01*
X114741828Y-109405957D02*
X114956114Y-109477385D01*
X115027542Y-109548814D01*
X115098971Y-109691671D01*
X115098971Y-109905957D01*
X115027542Y-110048814D01*
X114956114Y-110120242D01*
X114813257Y-110191671D01*
X114241828Y-110191671D01*
X114241828Y-108691671D01*
X114741828Y-108691671D01*
X114884685Y-108763100D01*
X114956114Y-108834528D01*
X115027542Y-108977385D01*
X115027542Y-109120242D01*
X114956114Y-109263100D01*
X114884685Y-109334528D01*
X114741828Y-109405957D01*
X114241828Y-109405957D01*
X116384685Y-109191671D02*
X116384685Y-110191671D01*
X115741828Y-109191671D02*
X115741828Y-109977385D01*
X115813257Y-110120242D01*
X115956114Y-110191671D01*
X116170400Y-110191671D01*
X116313257Y-110120242D01*
X116384685Y-110048814D01*
X116884685Y-109191671D02*
X117456114Y-109191671D01*
X117098971Y-108691671D02*
X117098971Y-109977385D01*
X117170400Y-110120242D01*
X117313257Y-110191671D01*
X117456114Y-110191671D01*
X117741828Y-109191671D02*
X118313257Y-109191671D01*
X117956114Y-108691671D02*
X117956114Y-109977385D01*
X118027542Y-110120242D01*
X118170400Y-110191671D01*
X118313257Y-110191671D01*
X119027542Y-110191671D02*
X118884685Y-110120242D01*
X118813257Y-110048814D01*
X118741828Y-109905957D01*
X118741828Y-109477385D01*
X118813257Y-109334528D01*
X118884685Y-109263100D01*
X119027542Y-109191671D01*
X119241828Y-109191671D01*
X119384685Y-109263100D01*
X119456114Y-109334528D01*
X119527542Y-109477385D01*
X119527542Y-109905957D01*
X119456114Y-110048814D01*
X119384685Y-110120242D01*
X119241828Y-110191671D01*
X119027542Y-110191671D01*
X120170400Y-109191671D02*
X120170400Y-110191671D01*
X120170400Y-109334528D02*
X120241828Y-109263100D01*
X120384685Y-109191671D01*
X120598971Y-109191671D01*
X120741828Y-109263100D01*
X120813257Y-109405957D01*
X120813257Y-110191671D01*
X121456114Y-110120242D02*
X121598971Y-110191671D01*
X121884685Y-110191671D01*
X122027542Y-110120242D01*
X122098971Y-109977385D01*
X122098971Y-109905957D01*
X122027542Y-109763100D01*
X121884685Y-109691671D01*
X121670400Y-109691671D01*
X121527542Y-109620242D01*
X121456114Y-109477385D01*
X121456114Y-109405957D01*
X121527542Y-109263100D01*
X121670400Y-109191671D01*
X121884685Y-109191671D01*
X122027542Y-109263100D01*
D12*
%TO.C,J3*%
X105326380Y-80851333D02*
X106040666Y-80851333D01*
X106183523Y-80898952D01*
X106278761Y-80994190D01*
X106326380Y-81137047D01*
X106326380Y-81232285D01*
X105326380Y-80470380D02*
X105326380Y-79851333D01*
X105707333Y-80184666D01*
X105707333Y-80041809D01*
X105754952Y-79946571D01*
X105802571Y-79898952D01*
X105897809Y-79851333D01*
X106135904Y-79851333D01*
X106231142Y-79898952D01*
X106278761Y-79946571D01*
X106326380Y-80041809D01*
X106326380Y-80327523D01*
X106278761Y-80422761D01*
X106231142Y-80470380D01*
%TO.C,kibuzzard-626A8FA0*%
G36*
X129166487Y-129091473D02*
G01*
X129274655Y-129107518D01*
X129380730Y-129134088D01*
X129483689Y-129170928D01*
X129582542Y-129217682D01*
X129676336Y-129273899D01*
X129764168Y-129339040D01*
X129845192Y-129412476D01*
X129918628Y-129493500D01*
X129983768Y-129581332D01*
X130039986Y-129675126D01*
X130086740Y-129773979D01*
X130123579Y-129876938D01*
X130150150Y-129983012D01*
X130166195Y-130091180D01*
X130171560Y-130200400D01*
X130166195Y-130309620D01*
X130150150Y-130417788D01*
X130123579Y-130523862D01*
X130086740Y-130626821D01*
X130039986Y-130725674D01*
X129983768Y-130819468D01*
X129918628Y-130907300D01*
X129845192Y-130988324D01*
X129764168Y-131061760D01*
X129676336Y-131126901D01*
X129582542Y-131183118D01*
X129483689Y-131229872D01*
X129380730Y-131266712D01*
X129274655Y-131293282D01*
X129166487Y-131309327D01*
X129057268Y-131314693D01*
X125095132Y-131314693D01*
X124985913Y-131309327D01*
X124877745Y-131293282D01*
X124771670Y-131266712D01*
X124668711Y-131229872D01*
X124569858Y-131183118D01*
X124476064Y-131126901D01*
X124388232Y-131061760D01*
X124307208Y-130988324D01*
X124233772Y-130907300D01*
X124168632Y-130819468D01*
X124112414Y-130725674D01*
X124065660Y-130626821D01*
X124028821Y-130523862D01*
X124002250Y-130417788D01*
X123986205Y-130309620D01*
X123980840Y-130200400D01*
X123986205Y-130091180D01*
X123989549Y-130068637D01*
X125607762Y-130068637D01*
X125639512Y-130154362D01*
X125969712Y-130719513D01*
X125984000Y-130736975D01*
X126027656Y-130771106D01*
X126092744Y-130787775D01*
X126161800Y-130766344D01*
X126212600Y-130717925D01*
X126541212Y-130154362D01*
X126572962Y-130067050D01*
X126552325Y-130013075D01*
X126521368Y-129987675D01*
X126620587Y-129987675D01*
X126670594Y-130086100D01*
X126766637Y-130141662D01*
X126877762Y-130092450D01*
X126898400Y-130073400D01*
X126898400Y-130640138D01*
X126900781Y-130698081D01*
X126915862Y-130741738D01*
X126958328Y-130772694D01*
X127038100Y-130783013D01*
X127119856Y-130772297D01*
X127161925Y-130740150D01*
X127177006Y-130698081D01*
X127179388Y-130643313D01*
X127179388Y-130636963D01*
X127282575Y-130636963D01*
X127313531Y-130751263D01*
X127360759Y-130773884D01*
X127440531Y-130781425D01*
X127518517Y-130769916D01*
X127560388Y-130735388D01*
X127577056Y-130691731D01*
X127579438Y-130635375D01*
X127579438Y-130629025D01*
X127552450Y-130517900D01*
X127501055Y-130492897D01*
X127419894Y-130484563D01*
X127341908Y-130496469D01*
X127300038Y-130532188D01*
X127284956Y-130575050D01*
X127282575Y-130630613D01*
X127282575Y-130636963D01*
X127179388Y-130636963D01*
X127179388Y-130198812D01*
X127658813Y-130198812D01*
X127663928Y-130310114D01*
X127679274Y-130413301D01*
X127704850Y-130508375D01*
X127739180Y-130588147D01*
X127781844Y-130656013D01*
X127837803Y-130712964D01*
X127912019Y-130759994D01*
X128001514Y-130791545D01*
X128103313Y-130802063D01*
X128204714Y-130791744D01*
X128293019Y-130760788D01*
X128365845Y-130713956D01*
X128420813Y-130656013D01*
X128474986Y-130564434D01*
X128513681Y-130457972D01*
X128536898Y-130336627D01*
X128544638Y-130200400D01*
X128539346Y-130095449D01*
X128523471Y-129994378D01*
X128497013Y-129897187D01*
X128463873Y-129817019D01*
X128421606Y-129747962D01*
X128366044Y-129689622D01*
X128293019Y-129641600D01*
X128204317Y-129609453D01*
X128101725Y-129598737D01*
X127998736Y-129609652D01*
X127908844Y-129642394D01*
X127834827Y-129691209D01*
X127779463Y-129750344D01*
X127735608Y-129826742D01*
X127696119Y-129927350D01*
X127675393Y-130007607D01*
X127662958Y-130098094D01*
X127658813Y-130198812D01*
X127179388Y-130198812D01*
X127179388Y-129759075D01*
X127171450Y-129674937D01*
X127149225Y-129640806D01*
X127107950Y-129622550D01*
X127032544Y-129614612D01*
X126942850Y-129655887D01*
X126938087Y-129659062D01*
X126677737Y-129894012D01*
X126620587Y-129987675D01*
X126521368Y-129987675D01*
X126490412Y-129962275D01*
X126403100Y-129928937D01*
X126352300Y-129942431D01*
X126324519Y-129969419D01*
X126298325Y-130013075D01*
X126090362Y-130413125D01*
X125882400Y-130013075D01*
X125840331Y-129948781D01*
X125785562Y-129927350D01*
X125690312Y-129962275D01*
X125628400Y-130013472D01*
X125607762Y-130068637D01*
X123989549Y-130068637D01*
X124002250Y-129983012D01*
X124028821Y-129876938D01*
X124065660Y-129773979D01*
X124112414Y-129675126D01*
X124168632Y-129581332D01*
X124233772Y-129493500D01*
X124307208Y-129412476D01*
X124388232Y-129339040D01*
X124476064Y-129273899D01*
X124569858Y-129217682D01*
X124668711Y-129170928D01*
X124771670Y-129134088D01*
X124877745Y-129107518D01*
X124985913Y-129091473D01*
X125095132Y-129086107D01*
X129057268Y-129086107D01*
X129166487Y-129091473D01*
G37*
G36*
X128172567Y-129899668D02*
G01*
X128223169Y-129959497D01*
X128253530Y-130059212D01*
X128263650Y-130198812D01*
X128263650Y-130208338D01*
X128253430Y-130344466D01*
X128222772Y-130441700D01*
X128171674Y-130500041D01*
X128100138Y-130519488D01*
X128029990Y-130499495D01*
X127979884Y-130439517D01*
X127949821Y-130339554D01*
X127939800Y-130199606D01*
X127949920Y-130059658D01*
X127980281Y-129959695D01*
X128030883Y-129899718D01*
X128101725Y-129879725D01*
X128172567Y-129899668D01*
G37*
D13*
%TO.C,btn_center1*%
X111455400Y-118643600D02*
X111955400Y-118643600D01*
X114655400Y-118643600D02*
X114155400Y-118643600D01*
X114655400Y-121843600D02*
X114655400Y-121343600D01*
X111455400Y-118643600D02*
X111455400Y-119143600D01*
X111455400Y-119143600D02*
X111055400Y-119143600D01*
X114655400Y-121843600D02*
X114255400Y-121843600D01*
X114655400Y-118643600D02*
X114655400Y-119143600D01*
X111455400Y-121843600D02*
X111955400Y-121843600D01*
X111455400Y-121843600D02*
X111455400Y-121343600D01*
D10*
%TO.C,J3*%
X109474000Y-79188000D02*
X117154000Y-79188000D01*
X108204000Y-81848000D02*
X106874000Y-81848000D01*
X117154000Y-81848000D02*
X117154000Y-79188000D01*
X109474000Y-81848000D02*
X109474000Y-79188000D01*
X106874000Y-81848000D02*
X106874000Y-80518000D01*
X109474000Y-81848000D02*
X117154000Y-81848000D01*
D13*
%TO.C,btn_Up1*%
X111430000Y-111353800D02*
X111930000Y-111353800D01*
X114630000Y-111353800D02*
X114130000Y-111353800D01*
X114630000Y-114553800D02*
X114630000Y-114053800D01*
X111430000Y-111353800D02*
X111430000Y-111853800D01*
X111430000Y-111853800D02*
X111030000Y-111853800D01*
X114630000Y-114553800D02*
X114230000Y-114553800D01*
X114630000Y-111353800D02*
X114630000Y-111853800D01*
X111430000Y-114553800D02*
X111930000Y-114553800D01*
X111430000Y-114553800D02*
X111430000Y-114053800D01*
%TO.C,btn_right1*%
X121793200Y-118872200D02*
X122293200Y-118872200D01*
X124993200Y-118872200D02*
X124493200Y-118872200D01*
X124993200Y-122072200D02*
X124993200Y-121572200D01*
X121793200Y-118872200D02*
X121793200Y-119372200D01*
X121793200Y-119372200D02*
X121393200Y-119372200D01*
X124993200Y-122072200D02*
X124593200Y-122072200D01*
X124993200Y-118872200D02*
X124993200Y-119372200D01*
X121793200Y-122072200D02*
X122293200Y-122072200D01*
X121793200Y-122072200D02*
X121793200Y-121572200D01*
%TO.C,btn_left1*%
X100025400Y-118872200D02*
X100525400Y-118872200D01*
X103225400Y-118872200D02*
X102725400Y-118872200D01*
X103225400Y-122072200D02*
X103225400Y-121572200D01*
X100025400Y-118872200D02*
X100025400Y-119372200D01*
X100025400Y-119372200D02*
X99625400Y-119372200D01*
X103225400Y-122072200D02*
X102825400Y-122072200D01*
X103225400Y-118872200D02*
X103225400Y-119372200D01*
X100025400Y-122072200D02*
X100525400Y-122072200D01*
X100025400Y-122072200D02*
X100025400Y-121572200D01*
%TO.C,btn_down1*%
X111480800Y-126136600D02*
X111980800Y-126136600D01*
X114680800Y-126136600D02*
X114180800Y-126136600D01*
X114680800Y-129336600D02*
X114680800Y-128836600D01*
X111480800Y-126136600D02*
X111480800Y-126636600D01*
X111480800Y-126636600D02*
X111080800Y-126636600D01*
X114680800Y-129336600D02*
X114280800Y-129336600D01*
X114680800Y-126136600D02*
X114680800Y-126636600D01*
X111480800Y-129336600D02*
X111980800Y-129336600D01*
X111480800Y-129336600D02*
X111480800Y-128836600D01*
%TO.C,kibuzzard-6268B78D*%
G36*
X98517075Y-74745850D02*
G01*
X98364675Y-74745850D01*
X98251764Y-74724220D01*
X98154331Y-74659331D01*
X98087061Y-74562295D01*
X98064637Y-74444225D01*
X98087656Y-74326552D01*
X98156712Y-74230706D01*
X98254344Y-74167008D01*
X98363087Y-74145775D01*
X98517075Y-74145775D01*
X98517075Y-74745850D01*
G37*
G36*
X96529216Y-74447400D02*
G01*
X97271020Y-73334695D01*
X102352784Y-73334695D01*
X101610980Y-74447400D01*
X102352784Y-75560105D01*
X97271020Y-75560105D01*
X96532920Y-74452956D01*
X97783650Y-74452956D01*
X97794564Y-74569241D01*
X97827306Y-74676000D01*
X97881877Y-74773234D01*
X97958275Y-74860944D01*
X98049060Y-74933522D01*
X98146791Y-74985364D01*
X98251466Y-75016469D01*
X98363087Y-75026838D01*
X98656775Y-75028425D01*
X98738531Y-75017709D01*
X98780600Y-74985563D01*
X98795681Y-74944288D01*
X98798062Y-74888725D01*
X98798062Y-74883963D01*
X98925062Y-74883963D01*
X98934587Y-74964925D01*
X98954431Y-74998263D01*
X98995706Y-75017313D01*
X99068731Y-75025250D01*
X99144137Y-75015725D01*
X99189381Y-74978419D01*
X99204462Y-74890313D01*
X99204462Y-74353737D01*
X99248207Y-74411020D01*
X99304299Y-74485500D01*
X99372737Y-74577178D01*
X99453524Y-74686054D01*
X99546657Y-74812128D01*
X99652138Y-74955400D01*
X99688650Y-74996675D01*
X99727544Y-75016519D01*
X99802950Y-75025250D01*
X99880738Y-75015725D01*
X99925981Y-74978419D01*
X99941062Y-74890313D01*
X99941062Y-74431525D01*
X100068063Y-74431525D01*
X100083938Y-74520425D01*
X100188713Y-74564875D01*
X100468113Y-74564875D01*
X100544313Y-74550588D01*
X100570506Y-74515663D01*
X100577650Y-74448194D01*
X100571300Y-74381519D01*
X100544313Y-74344212D01*
X100474463Y-74331512D01*
X100349050Y-74331512D01*
X100349050Y-74158475D01*
X100423266Y-74137044D01*
X100506213Y-74129900D01*
X100620513Y-74153911D01*
X100722113Y-74225944D01*
X100775029Y-74294559D01*
X100806779Y-74372347D01*
X100817363Y-74459306D01*
X100793947Y-74583528D01*
X100723700Y-74681556D01*
X100623291Y-74745255D01*
X100509388Y-74766488D01*
X100423663Y-74755573D01*
X100350638Y-74722831D01*
X100253800Y-74679175D01*
X100200222Y-74700209D01*
X100141088Y-74763313D01*
X100104575Y-74853006D01*
X100147438Y-74923650D01*
X100260856Y-74992442D01*
X100378860Y-75033717D01*
X100501450Y-75047475D01*
X100618131Y-75036908D01*
X100726875Y-75005208D01*
X100827681Y-74952374D01*
X100920550Y-74878406D01*
X100998338Y-74788663D01*
X101053900Y-74688502D01*
X101087238Y-74577922D01*
X101098350Y-74456925D01*
X101087436Y-74335332D01*
X101054694Y-74222967D01*
X101000123Y-74119829D01*
X100923725Y-74025919D01*
X100832543Y-73947784D01*
X100733622Y-73891973D01*
X100626962Y-73858487D01*
X100512563Y-73847325D01*
X100387547Y-73855957D01*
X100279200Y-73881853D01*
X100187522Y-73925013D01*
X100112513Y-73985437D01*
X100068063Y-74082275D01*
X100068063Y-74431525D01*
X99941062Y-74431525D01*
X99941062Y-74004487D01*
X99938681Y-73948925D01*
X99923600Y-73906062D01*
X99882325Y-73873916D01*
X99802950Y-73863200D01*
X99721194Y-73873916D01*
X99679125Y-73906062D01*
X99664044Y-73947338D01*
X99661663Y-74002900D01*
X99661663Y-74525188D01*
X99617301Y-74467332D01*
X99559357Y-74391132D01*
X99487831Y-74296587D01*
X99402724Y-74183699D01*
X99304034Y-74052465D01*
X99191762Y-73902887D01*
X99152075Y-73872725D01*
X99066350Y-73863200D01*
X98984594Y-73873916D01*
X98942525Y-73906062D01*
X98927444Y-73947338D01*
X98925062Y-74002900D01*
X98925062Y-74883963D01*
X98798062Y-74883963D01*
X98798062Y-74006075D01*
X98779012Y-73904475D01*
X98736944Y-73874709D01*
X98658362Y-73864787D01*
X98367850Y-73864787D01*
X98250921Y-73875602D01*
X98143020Y-73908047D01*
X98044149Y-73962121D01*
X97954306Y-74037825D01*
X97879644Y-74128660D01*
X97826314Y-74228127D01*
X97794316Y-74336225D01*
X97783650Y-74452956D01*
X96532920Y-74452956D01*
X96529216Y-74447400D01*
G37*
%TO.C,kibuzzard-6268BA9E*%
G36*
X106080653Y-83134806D02*
G01*
X106096675Y-83026792D01*
X106123208Y-82920869D01*
X106159994Y-82818056D01*
X106206682Y-82719344D01*
X106262819Y-82625684D01*
X106327867Y-82537977D01*
X106401199Y-82457068D01*
X106482107Y-82383737D01*
X106569814Y-82318689D01*
X106663474Y-82262551D01*
X106762186Y-82215864D01*
X106864999Y-82179077D01*
X106970922Y-82152545D01*
X107078936Y-82136523D01*
X107188000Y-82131165D01*
X107297064Y-82136523D01*
X107405078Y-82152545D01*
X107511001Y-82179077D01*
X107613814Y-82215864D01*
X107712526Y-82262551D01*
X107806186Y-82318689D01*
X107893893Y-82383737D01*
X107974801Y-82457068D01*
X108048133Y-82537977D01*
X108113181Y-82625684D01*
X108169318Y-82719344D01*
X108216006Y-82818056D01*
X108252792Y-82920869D01*
X108279325Y-83026792D01*
X108295347Y-83134806D01*
X108300705Y-83243870D01*
X108300705Y-88561730D01*
X108295347Y-88670794D01*
X108279325Y-88778808D01*
X108252792Y-88884731D01*
X108216006Y-88987544D01*
X108169318Y-89086256D01*
X108113181Y-89179916D01*
X108048133Y-89267623D01*
X107974801Y-89348532D01*
X107893893Y-89421863D01*
X107806186Y-89486911D01*
X107712526Y-89543049D01*
X107613814Y-89589736D01*
X107511001Y-89626523D01*
X107405078Y-89653055D01*
X107297064Y-89669077D01*
X107188000Y-89674435D01*
X107078936Y-89669077D01*
X106970922Y-89653055D01*
X106864999Y-89626523D01*
X106762186Y-89589736D01*
X106663474Y-89543049D01*
X106569814Y-89486911D01*
X106482107Y-89421863D01*
X106401199Y-89348532D01*
X106327867Y-89267623D01*
X106262819Y-89179916D01*
X106206682Y-89086256D01*
X106159994Y-88987544D01*
X106123208Y-88884731D01*
X106096675Y-88778808D01*
X106080653Y-88670794D01*
X106075295Y-88561730D01*
X106075295Y-87415688D01*
X106608562Y-87415688D01*
X106638725Y-87514113D01*
X106682778Y-87537925D01*
X106760962Y-87545863D01*
X107354688Y-87545863D01*
X107464225Y-87585550D01*
X107505500Y-87686356D01*
X107492403Y-87745292D01*
X107453113Y-87799863D01*
X107400725Y-87895113D01*
X107457875Y-87993538D01*
X107557094Y-88049100D01*
X107657900Y-87993538D01*
X107670600Y-87980838D01*
X107742038Y-87879238D01*
X107776566Y-87792322D01*
X107788075Y-87693500D01*
X107773876Y-87576025D01*
X107731278Y-87473367D01*
X107660281Y-87385525D01*
X107570764Y-87318497D01*
X107472603Y-87278281D01*
X107365800Y-87264875D01*
X106751437Y-87264875D01*
X106653012Y-87282338D01*
X106618881Y-87324406D01*
X106608562Y-87415688D01*
X106075295Y-87415688D01*
X106075295Y-87061675D01*
X106606975Y-87061675D01*
X106621262Y-87142638D01*
X106655394Y-87169625D01*
X106721275Y-87177563D01*
X106787950Y-87169625D01*
X106825256Y-87137875D01*
X106837162Y-87063263D01*
X106837162Y-86758463D01*
X107634088Y-86758463D01*
X107688856Y-86756081D01*
X107730131Y-86741794D01*
X107762675Y-86700519D01*
X107772200Y-86621938D01*
X107762675Y-86542563D01*
X107730131Y-86500494D01*
X107689650Y-86486206D01*
X107635675Y-86483825D01*
X106837162Y-86483825D01*
X106837162Y-86180613D01*
X106822875Y-86099650D01*
X106788744Y-86072663D01*
X106722862Y-86064725D01*
X106656187Y-86072663D01*
X106618881Y-86104413D01*
X106606975Y-86179025D01*
X106606975Y-87061675D01*
X106075295Y-87061675D01*
X106075295Y-85432900D01*
X106608562Y-85432900D01*
X106630787Y-85508306D01*
X106689525Y-85561488D01*
X107576938Y-85990113D01*
X107657900Y-86017100D01*
X107711875Y-85994081D01*
X107759500Y-85925025D01*
X107786488Y-85840094D01*
X107771406Y-85789294D01*
X107742038Y-85760719D01*
X107696000Y-85736113D01*
X107524550Y-85653563D01*
X107524550Y-85213825D01*
X107696000Y-85131275D01*
X107743625Y-85106669D01*
X107773788Y-85078094D01*
X107788075Y-85027294D01*
X107761088Y-84942363D01*
X107712272Y-84873306D01*
X107657900Y-84850288D01*
X107576938Y-84877275D01*
X106691112Y-85305900D01*
X106629200Y-85358288D01*
X106608562Y-85432900D01*
X106075295Y-85432900D01*
X106075295Y-84189888D01*
X106587925Y-84189888D01*
X106598492Y-84306569D01*
X106630192Y-84415313D01*
X106683026Y-84516119D01*
X106756994Y-84608988D01*
X106846737Y-84686775D01*
X106946898Y-84742338D01*
X107057478Y-84775675D01*
X107178475Y-84786788D01*
X107300068Y-84775873D01*
X107412433Y-84743131D01*
X107515571Y-84688561D01*
X107609481Y-84612163D01*
X107687616Y-84520980D01*
X107743427Y-84422059D01*
X107776913Y-84315399D01*
X107788075Y-84201000D01*
X107779443Y-84075984D01*
X107753547Y-83967638D01*
X107710387Y-83875959D01*
X107649963Y-83800950D01*
X107553125Y-83756500D01*
X107203875Y-83756500D01*
X107114975Y-83772375D01*
X107070525Y-83877150D01*
X107070525Y-84156550D01*
X107084812Y-84232750D01*
X107119737Y-84258944D01*
X107187206Y-84266088D01*
X107253881Y-84259738D01*
X107291188Y-84232750D01*
X107303888Y-84162900D01*
X107303888Y-84037488D01*
X107476925Y-84037488D01*
X107498356Y-84111703D01*
X107505500Y-84194650D01*
X107481489Y-84308950D01*
X107409456Y-84410550D01*
X107340841Y-84463467D01*
X107263053Y-84495217D01*
X107176094Y-84505800D01*
X107051872Y-84482384D01*
X106953844Y-84412138D01*
X106890145Y-84311728D01*
X106868912Y-84197825D01*
X106879827Y-84112100D01*
X106912569Y-84039075D01*
X106956225Y-83942238D01*
X106935191Y-83888659D01*
X106872087Y-83829525D01*
X106782394Y-83793013D01*
X106711750Y-83835875D01*
X106642958Y-83949293D01*
X106601683Y-84067297D01*
X106587925Y-84189888D01*
X106075295Y-84189888D01*
X106075295Y-83243870D01*
X106080653Y-83134806D01*
G37*
G36*
X107289600Y-85539263D02*
G01*
X107072112Y-85434488D01*
X107289600Y-85328125D01*
X107289600Y-85539263D01*
G37*
%TO.C,kibuzzard-6268B8A3*%
G36*
X98368644Y-107163394D02*
G01*
X98383725Y-107198319D01*
X98387694Y-107244356D01*
X98355150Y-107303887D01*
X98261487Y-107333256D01*
X98172587Y-107301506D01*
X98144806Y-107233244D01*
X98175366Y-107153472D01*
X98267044Y-107126881D01*
X98368644Y-107163394D01*
G37*
G36*
X96612031Y-107467400D02*
G01*
X96761785Y-107242769D01*
X97866994Y-107242769D01*
X97879429Y-107326642D01*
X97916735Y-107404694D01*
X97978912Y-107476925D01*
X98058552Y-107534692D01*
X98148246Y-107569353D01*
X98247994Y-107580906D01*
X98365469Y-107553919D01*
X98357531Y-107576144D01*
X98328162Y-107631706D01*
X98271806Y-107693619D01*
X98175762Y-107747594D01*
X98049556Y-107769819D01*
X97957481Y-107779344D01*
X97925731Y-107799981D01*
X97906681Y-107841256D01*
X97898744Y-107914281D01*
X97908269Y-107990481D01*
X97945575Y-108035725D01*
X98033681Y-108050806D01*
X98148013Y-108042678D01*
X98252248Y-108018294D01*
X98346387Y-107977654D01*
X98430429Y-107920758D01*
X98504375Y-107847606D01*
X98566383Y-107762326D01*
X98614611Y-107669044D01*
X98649060Y-107567762D01*
X98669729Y-107458478D01*
X98676619Y-107341194D01*
X98664977Y-107210049D01*
X98630052Y-107096013D01*
X98587098Y-107024487D01*
X98740119Y-107024487D01*
X98749644Y-107105450D01*
X98786950Y-107151487D01*
X98879819Y-107166569D01*
X99170331Y-107166569D01*
X99170331Y-107174506D01*
X99130644Y-107190381D01*
X99032219Y-107243959D01*
X98921094Y-107331669D01*
X98869500Y-107388819D01*
X98825844Y-107461844D01*
X98796078Y-107545188D01*
X98786156Y-107633294D01*
X98799385Y-107742390D01*
X98839073Y-107843197D01*
X98905219Y-107935713D01*
X98992619Y-108009355D01*
X99096072Y-108053540D01*
X99215575Y-108068269D01*
X99334990Y-108053717D01*
X99438178Y-108010060D01*
X99525138Y-107937300D01*
X99590842Y-107846195D01*
X99630265Y-107747506D01*
X99643406Y-107641231D01*
X99635469Y-107560269D01*
X99592209Y-107515025D01*
X99503706Y-107499944D01*
X99422744Y-107509469D01*
X99379881Y-107538044D01*
X99364800Y-107577731D01*
X99362419Y-107630119D01*
X99362419Y-107639644D01*
X99356069Y-107676156D01*
X99314000Y-107749975D01*
X99225894Y-107787281D01*
X99146519Y-107772994D01*
X99104450Y-107742038D01*
X99079844Y-107699175D01*
X99068731Y-107658694D01*
X99083614Y-107589241D01*
X99128263Y-107523756D01*
X99193945Y-107463630D01*
X99271931Y-107410250D01*
X99356069Y-107359847D01*
X99440206Y-107308650D01*
X99518192Y-107251897D01*
X99583875Y-107184825D01*
X99628523Y-107109220D01*
X99643406Y-107026869D01*
X99602131Y-106926856D01*
X99503706Y-106883994D01*
X98882994Y-106883994D01*
X98784569Y-106903044D01*
X98750437Y-106944319D01*
X98740119Y-107024487D01*
X98587098Y-107024487D01*
X98571844Y-106999087D01*
X98490705Y-106925445D01*
X98386988Y-106881260D01*
X98260694Y-106866531D01*
X98157065Y-106878526D01*
X98064197Y-106914509D01*
X97982087Y-106974481D01*
X97918147Y-107052269D01*
X97879782Y-107141698D01*
X97866994Y-107242769D01*
X96761785Y-107242769D01*
X97354364Y-106353901D01*
X100898369Y-106353901D01*
X100156036Y-107467400D01*
X100898369Y-108580899D01*
X97354364Y-108580899D01*
X96612031Y-107467400D01*
G37*
%TO.C,kibuzzard-6268BA03*%
G36*
X99479894Y-115686681D02*
G01*
X99327494Y-115686681D01*
X99214583Y-115665052D01*
X99117150Y-115600163D01*
X99049880Y-115503127D01*
X99027456Y-115385056D01*
X99050475Y-115267383D01*
X99119531Y-115171537D01*
X99217162Y-115107839D01*
X99325906Y-115086606D01*
X99479894Y-115086606D01*
X99479894Y-115686681D01*
G37*
G36*
X101816694Y-115688269D02*
G01*
X101594444Y-115688269D01*
X101515863Y-115672394D01*
X101489669Y-115616831D01*
X101494431Y-115559681D01*
X101570631Y-115526344D01*
X101668263Y-115504119D01*
X101697631Y-115412838D01*
X101669056Y-115321556D01*
X101583331Y-115299331D01*
X101494431Y-115286631D01*
X101465063Y-115254881D01*
X101456331Y-115194556D01*
X101481334Y-115113594D01*
X101556344Y-115086606D01*
X101816694Y-115086606D01*
X101816694Y-115688269D01*
G37*
G36*
X104688349Y-115214400D02*
G01*
X105544982Y-116499349D01*
X97546451Y-116499349D01*
X96809410Y-115393788D01*
X98746469Y-115393788D01*
X98757383Y-115510072D01*
X98790125Y-115616831D01*
X98844695Y-115714066D01*
X98921094Y-115801775D01*
X99011879Y-115874354D01*
X99109609Y-115926195D01*
X99214285Y-115957300D01*
X99325906Y-115967669D01*
X99619594Y-115969256D01*
X99701350Y-115958541D01*
X99743419Y-115926394D01*
X99758500Y-115885119D01*
X99760881Y-115829556D01*
X99760881Y-115178681D01*
X101175344Y-115178681D01*
X101185751Y-115267758D01*
X101216972Y-115350837D01*
X101269006Y-115427919D01*
X101223763Y-115519597D01*
X101208681Y-115620006D01*
X101220147Y-115711728D01*
X101254542Y-115794278D01*
X101311869Y-115867656D01*
X101382777Y-115924101D01*
X101464269Y-115957967D01*
X101556344Y-115969256D01*
X101956394Y-115969256D01*
X102038150Y-115958541D01*
X102080219Y-115926394D01*
X102095300Y-115885119D01*
X102097681Y-115829556D01*
X102097681Y-115175506D01*
X102200869Y-115175506D01*
X102210989Y-115270558D01*
X102241350Y-115349338D01*
X102286792Y-115409464D01*
X102342156Y-115448556D01*
X102405259Y-115474948D01*
X102473919Y-115496975D01*
X102542578Y-115514239D01*
X102605681Y-115526344D01*
X102706488Y-115562856D01*
X102746969Y-115633500D01*
X102712838Y-115701763D01*
X102627113Y-115726369D01*
X102542181Y-115705731D01*
X102517575Y-115685094D01*
X102499319Y-115669219D01*
X102416769Y-115637469D01*
X102360413Y-115657313D01*
X102305644Y-115716844D01*
X102267544Y-115804156D01*
X102316756Y-115881944D01*
X102356444Y-115912106D01*
X102465188Y-115962113D01*
X102547936Y-115980567D01*
X102639019Y-115986719D01*
X102750232Y-115975165D01*
X102844688Y-115940505D01*
X102922388Y-115882738D01*
X102966808Y-115826381D01*
X103150194Y-115826381D01*
X103159719Y-115908931D01*
X103180356Y-115942269D01*
X103221631Y-115961319D01*
X103293863Y-115969256D01*
X103369269Y-115959731D01*
X103415306Y-115924806D01*
X103431181Y-115837494D01*
X103431181Y-115351719D01*
X103445469Y-115245753D01*
X103488331Y-115153281D01*
X103560166Y-115088987D01*
X103661369Y-115067556D01*
X103774081Y-115094544D01*
X103845519Y-115165981D01*
X103881238Y-115255675D01*
X103893144Y-115350131D01*
X103893144Y-115826381D01*
X103912194Y-115926394D01*
X103953469Y-115959731D01*
X104034431Y-115969256D01*
X104115394Y-115959731D01*
X104158256Y-115926394D01*
X104173338Y-115884325D01*
X104175719Y-115827969D01*
X104175719Y-115350131D01*
X104167682Y-115246547D01*
X104143572Y-115148519D01*
X104103388Y-115056047D01*
X104047131Y-114969131D01*
X103975892Y-114894519D01*
X103886000Y-114835781D01*
X103781225Y-114797681D01*
X103665338Y-114784981D01*
X103549252Y-114797483D01*
X103443881Y-114834987D01*
X103352997Y-114892733D01*
X103280369Y-114965956D01*
X103223417Y-115054062D01*
X103182738Y-115146931D01*
X103158330Y-115244563D01*
X103150194Y-115346956D01*
X103150194Y-115826381D01*
X102966808Y-115826381D01*
X102980155Y-115809448D01*
X103014815Y-115728221D01*
X103026369Y-115639056D01*
X103016248Y-115544798D01*
X102985888Y-115465225D01*
X102940445Y-115402717D01*
X102885081Y-115359656D01*
X102822375Y-115328502D01*
X102754906Y-115301713D01*
X102687438Y-115280480D01*
X102624731Y-115265994D01*
X102523925Y-115230275D01*
X102483444Y-115169156D01*
X102499848Y-115102128D01*
X102549060Y-115061912D01*
X102631081Y-115048506D01*
X102707281Y-115073112D01*
X102770781Y-115124706D01*
X102841425Y-115184237D01*
X102894606Y-115204081D01*
X102978744Y-115165981D01*
X103029941Y-115105855D01*
X103047006Y-115058825D01*
X103005731Y-114967544D01*
X102991444Y-114950081D01*
X102945406Y-114901662D01*
X102873969Y-114851656D01*
X102766019Y-114806412D01*
X102697359Y-114792720D01*
X102624731Y-114788156D01*
X102529305Y-114797505D01*
X102437759Y-114825551D01*
X102350094Y-114872294D01*
X102289769Y-114924086D01*
X102242144Y-114993737D01*
X102211188Y-115078470D01*
X102200869Y-115175506D01*
X102097681Y-115175506D01*
X102097681Y-114948494D01*
X102088156Y-114865944D01*
X102046088Y-114820700D01*
X101957981Y-114805619D01*
X101540469Y-114805619D01*
X101444954Y-114817525D01*
X101359494Y-114853244D01*
X101284088Y-114912775D01*
X101225085Y-114989945D01*
X101188838Y-115078581D01*
X101175344Y-115178681D01*
X99760881Y-115178681D01*
X99760881Y-114946906D01*
X99741831Y-114845306D01*
X99699762Y-114815541D01*
X99621181Y-114805619D01*
X99330669Y-114805619D01*
X99213739Y-114816434D01*
X99105839Y-114848878D01*
X99006968Y-114902952D01*
X98917125Y-114978656D01*
X98842463Y-115069491D01*
X98789133Y-115168958D01*
X98757135Y-115277057D01*
X98746469Y-115393788D01*
X96809410Y-115393788D01*
X96689818Y-115214400D01*
X96732681Y-115150106D01*
X98059081Y-115150106D01*
X98068606Y-115223131D01*
X98102737Y-115262422D01*
X98173381Y-115275519D01*
X98551206Y-115275519D01*
X98627406Y-115261231D01*
X98657569Y-115223131D01*
X98667094Y-115151694D01*
X98659156Y-115078669D01*
X98623834Y-115038187D01*
X98552794Y-115024694D01*
X98174969Y-115024694D01*
X98095594Y-115038981D01*
X98067812Y-115077875D01*
X98059081Y-115150106D01*
X96732681Y-115150106D01*
X97132202Y-114550825D01*
X99848194Y-114550825D01*
X99856131Y-114613531D01*
X99945031Y-114661156D01*
X101013419Y-114661156D01*
X101081681Y-114648456D01*
X101104700Y-114615119D01*
X101111844Y-114551619D01*
X101103906Y-114488119D01*
X101015006Y-114442081D01*
X99946619Y-114442081D01*
X99878356Y-114454781D01*
X99855337Y-114488119D01*
X99848194Y-114550825D01*
X97132202Y-114550825D01*
X97546451Y-113929451D01*
X105544982Y-113929451D01*
X104688349Y-115214400D01*
G37*
%TO.C,kibuzzard-6268B63E*%
G36*
X123910064Y-82016600D02*
G01*
X123167202Y-80902307D01*
X126737136Y-80902307D01*
X127479998Y-82016600D01*
X126737136Y-83130893D01*
X123167202Y-83130893D01*
X123613731Y-82461100D01*
X124422694Y-82461100D01*
X124425075Y-82516662D01*
X124440156Y-82558731D01*
X124483019Y-82592069D01*
X124563187Y-82602388D01*
X124644150Y-82593656D01*
X124687806Y-82562700D01*
X124702887Y-82523013D01*
X124705269Y-82469038D01*
X124705269Y-82035650D01*
X124964031Y-82035650D01*
X124867194Y-82423000D01*
X124865606Y-82427763D01*
X124854494Y-82494438D01*
X124882275Y-82555556D01*
X124965619Y-82596038D01*
X125038644Y-82607150D01*
X125093412Y-82589688D01*
X125121987Y-82553175D01*
X125138656Y-82497613D01*
X125257833Y-82016600D01*
X125338681Y-82016600D01*
X125343973Y-82121551D01*
X125359848Y-82222622D01*
X125386306Y-82319813D01*
X125419445Y-82399981D01*
X125461713Y-82469038D01*
X125517275Y-82527378D01*
X125590300Y-82575400D01*
X125679002Y-82607547D01*
X125781594Y-82618263D01*
X125884583Y-82607348D01*
X125974475Y-82574606D01*
X126048492Y-82525791D01*
X126103856Y-82466656D01*
X126147711Y-82390258D01*
X126187200Y-82289650D01*
X126207926Y-82209393D01*
X126220361Y-82118906D01*
X126224506Y-82018188D01*
X126219391Y-81906886D01*
X126204045Y-81803699D01*
X126178469Y-81708625D01*
X126144139Y-81628853D01*
X126101475Y-81560987D01*
X126045516Y-81504036D01*
X125971300Y-81457006D01*
X125881805Y-81425455D01*
X125780006Y-81414937D01*
X125678605Y-81425256D01*
X125590300Y-81456212D01*
X125517473Y-81503044D01*
X125462506Y-81560987D01*
X125408333Y-81652566D01*
X125369638Y-81759028D01*
X125346420Y-81880373D01*
X125338681Y-82016600D01*
X125257833Y-82016600D01*
X125270419Y-81965800D01*
X125275181Y-81902300D01*
X125267244Y-81834037D01*
X125223984Y-81788794D01*
X125135481Y-81773712D01*
X124705269Y-81773712D01*
X124705269Y-81580037D01*
X124695744Y-81497487D01*
X124675106Y-81465737D01*
X124633831Y-81446687D01*
X124560806Y-81438750D01*
X124483812Y-81448275D01*
X124437775Y-81487169D01*
X124422694Y-81578450D01*
X124422694Y-82461100D01*
X123613731Y-82461100D01*
X123910064Y-82016600D01*
G37*
G36*
X125853329Y-81717505D02*
G01*
X125903434Y-81777483D01*
X125933498Y-81877446D01*
X125943519Y-82017394D01*
X125933398Y-82157342D01*
X125903038Y-82257305D01*
X125852436Y-82317282D01*
X125781594Y-82337275D01*
X125710752Y-82317332D01*
X125660150Y-82257503D01*
X125629789Y-82157788D01*
X125619669Y-82018188D01*
X125619669Y-82008662D01*
X125629888Y-81872534D01*
X125660547Y-81775300D01*
X125711645Y-81716959D01*
X125783181Y-81697512D01*
X125853329Y-81717505D01*
G37*
%TO.C,kibuzzard-6268B6D1*%
G36*
X124180732Y-101981000D02*
G01*
X123879636Y-101529356D01*
X124693362Y-101529356D01*
X124702887Y-101610319D01*
X124740194Y-101656356D01*
X124833062Y-101671437D01*
X125123575Y-101671437D01*
X125123575Y-101679375D01*
X125083887Y-101695250D01*
X124985462Y-101748828D01*
X124874337Y-101836537D01*
X124822744Y-101893687D01*
X124779087Y-101966712D01*
X124749322Y-102050056D01*
X124739400Y-102138163D01*
X124752629Y-102247259D01*
X124792317Y-102348065D01*
X124858462Y-102440581D01*
X124945863Y-102514224D01*
X125049315Y-102558409D01*
X125168819Y-102573138D01*
X125288234Y-102558585D01*
X125391422Y-102514929D01*
X125478381Y-102442169D01*
X125499562Y-102412800D01*
X125699838Y-102412800D01*
X125707775Y-102496938D01*
X125730000Y-102531069D01*
X125771275Y-102549325D01*
X125846681Y-102557263D01*
X125936375Y-102515988D01*
X125941138Y-102512813D01*
X126201488Y-102277863D01*
X126258638Y-102184200D01*
X126208631Y-102085775D01*
X126112588Y-102030213D01*
X126001463Y-102079425D01*
X125980825Y-102098475D01*
X125980825Y-101531737D01*
X125978444Y-101473794D01*
X125963363Y-101430137D01*
X125920897Y-101399181D01*
X125841125Y-101388862D01*
X125759369Y-101399578D01*
X125717300Y-101431725D01*
X125702219Y-101473794D01*
X125699838Y-101528562D01*
X125699838Y-102412800D01*
X125499562Y-102412800D01*
X125544086Y-102351064D01*
X125583509Y-102252374D01*
X125596650Y-102146100D01*
X125588713Y-102065138D01*
X125545453Y-102019894D01*
X125456950Y-102004813D01*
X125375987Y-102014338D01*
X125333125Y-102042913D01*
X125318044Y-102082600D01*
X125315662Y-102134988D01*
X125315662Y-102144513D01*
X125309312Y-102181025D01*
X125267244Y-102254844D01*
X125179137Y-102292150D01*
X125099762Y-102277863D01*
X125057694Y-102246906D01*
X125033087Y-102204044D01*
X125021975Y-102163563D01*
X125036858Y-102094109D01*
X125081506Y-102028625D01*
X125147189Y-101968498D01*
X125225175Y-101915119D01*
X125309312Y-101864716D01*
X125393450Y-101813519D01*
X125471436Y-101756766D01*
X125537119Y-101689694D01*
X125581767Y-101614089D01*
X125596650Y-101531737D01*
X125555375Y-101431725D01*
X125456950Y-101388862D01*
X124836237Y-101388862D01*
X124737812Y-101407912D01*
X124703681Y-101449187D01*
X124693362Y-101529356D01*
X123879636Y-101529356D01*
X123444220Y-100876232D01*
X126771268Y-100876232D01*
X127507780Y-101981000D01*
X126771268Y-103085768D01*
X123444220Y-103085768D01*
X124180732Y-101981000D01*
G37*
%TO.C,kibuzzard-6268B865*%
G36*
X96585308Y-99771200D02*
G01*
X96719187Y-99570381D01*
X97840800Y-99570381D01*
X97854206Y-99674274D01*
X97894422Y-99766878D01*
X97961450Y-99848194D01*
X98045235Y-99911253D01*
X98135722Y-99949088D01*
X98232912Y-99961700D01*
X98288475Y-99958525D01*
X98272600Y-100079175D01*
X97994787Y-100079175D01*
X97943194Y-100081556D01*
X97904300Y-100096638D01*
X97874534Y-100135928D01*
X97864612Y-100212525D01*
X97875328Y-100296663D01*
X97907475Y-100339525D01*
X97948750Y-100354606D01*
X98004312Y-100356988D01*
X98153537Y-100356988D01*
X98394837Y-100358575D01*
X98459131Y-100343494D01*
X98500406Y-100309363D01*
X98523425Y-100266500D01*
X98534537Y-100233163D01*
X98543666Y-100167281D01*
X98567875Y-99988688D01*
X98591687Y-99807316D01*
X98599625Y-99733100D01*
X98582162Y-99694206D01*
X98508344Y-99645787D01*
X98408331Y-99615625D01*
X98321812Y-99652137D01*
X98245612Y-99680712D01*
X98160681Y-99649756D01*
X98123375Y-99565619D01*
X98125000Y-99561650D01*
X98682175Y-99561650D01*
X98695272Y-99642612D01*
X98734563Y-99714050D01*
X98784569Y-99765644D01*
X98831400Y-99799775D01*
X98831400Y-99810888D01*
X98762608Y-99860717D01*
X98721333Y-99927657D01*
X98707575Y-100011706D01*
X98720099Y-100101224D01*
X98757669Y-100184567D01*
X98820288Y-100261738D01*
X98904601Y-100323474D01*
X99007260Y-100360515D01*
X99128263Y-100372863D01*
X99207042Y-100367306D01*
X99278281Y-100350638D01*
X99383056Y-100301425D01*
X99448938Y-100238719D01*
X99483863Y-100188713D01*
X99520375Y-100080763D01*
X99500531Y-100024009D01*
X99441000Y-99974400D01*
X99353688Y-99945825D01*
X99293363Y-99965669D01*
X99248913Y-100025200D01*
X99239388Y-100044250D01*
X99198113Y-100082350D01*
X99108419Y-100101400D01*
X99020313Y-100071238D01*
X98988563Y-100007738D01*
X99018725Y-99961303D01*
X99109213Y-99945825D01*
X99191763Y-99937888D01*
X99235816Y-99894628D01*
X99250500Y-99806125D01*
X99239784Y-99724766D01*
X99207638Y-99683887D01*
X99166363Y-99668012D01*
X99094131Y-99664837D01*
X99002056Y-99632294D01*
X98963163Y-99556887D01*
X99002850Y-99479894D01*
X99053650Y-99454295D01*
X99126675Y-99445762D01*
X99193350Y-99455287D01*
X99280663Y-99531487D01*
X99328288Y-99614037D01*
X99412425Y-99629912D01*
X99529106Y-99606894D01*
X99568000Y-99537837D01*
X99550538Y-99452112D01*
X99547363Y-99436237D01*
X99529900Y-99394962D01*
X99490609Y-99331859D01*
X99445763Y-99282250D01*
X99354040Y-99220514D01*
X99248207Y-99183472D01*
X99128263Y-99171125D01*
X99007436Y-99183384D01*
X98901074Y-99220161D01*
X98809175Y-99281456D01*
X98738619Y-99361625D01*
X98696286Y-99455023D01*
X98682175Y-99561650D01*
X98125000Y-99561650D01*
X98157506Y-99482275D01*
X98262281Y-99452112D01*
X98361500Y-99485450D01*
X98467862Y-99536250D01*
X98559937Y-99483862D01*
X98618675Y-99380675D01*
X98558350Y-99285425D01*
X98545650Y-99274312D01*
X98505962Y-99244150D01*
X98423412Y-99202699D01*
X98334512Y-99177828D01*
X98239262Y-99169537D01*
X98132194Y-99182678D01*
X98037474Y-99222101D01*
X97955100Y-99287806D01*
X97891600Y-99371767D01*
X97853500Y-99465959D01*
X97840800Y-99570381D01*
X96719187Y-99570381D01*
X97328170Y-98656907D01*
X100823492Y-98656907D01*
X100080630Y-99771200D01*
X100823492Y-100885493D01*
X97328170Y-100885493D01*
X96585308Y-99771200D01*
G37*
%TO.C,kibuzzard-6268B705*%
G36*
X124320432Y-114706400D02*
G01*
X123589212Y-113609570D01*
X126834768Y-113609570D01*
X127565988Y-114706400D01*
X126834768Y-115803230D01*
X123589212Y-115803230D01*
X124032565Y-115138200D01*
X124833062Y-115138200D01*
X124842587Y-115227100D01*
X124884656Y-115272344D01*
X124972762Y-115287425D01*
X125544262Y-115287425D01*
X125636338Y-115268375D01*
X125666500Y-115227100D01*
X125676025Y-115147725D01*
X125675835Y-115146138D01*
X125763338Y-115146138D01*
X125771275Y-115230275D01*
X125793500Y-115264406D01*
X125834775Y-115282663D01*
X125910181Y-115290600D01*
X125999875Y-115249325D01*
X126004638Y-115246150D01*
X126264988Y-115011200D01*
X126322138Y-114917538D01*
X126272131Y-114819113D01*
X126176088Y-114763550D01*
X126064963Y-114812763D01*
X126044325Y-114831813D01*
X126044325Y-114265075D01*
X126041944Y-114207131D01*
X126026863Y-114163475D01*
X125984397Y-114132519D01*
X125904625Y-114122200D01*
X125822869Y-114132916D01*
X125780800Y-114165062D01*
X125765719Y-114207131D01*
X125763338Y-114261900D01*
X125763338Y-115146138D01*
X125675835Y-115146138D01*
X125666500Y-115068350D01*
X125628400Y-115022313D01*
X125536325Y-115006438D01*
X125174375Y-115006438D01*
X125209300Y-114934206D01*
X125247797Y-114877453D01*
X125293437Y-114810381D01*
X125342650Y-114734777D01*
X125391862Y-114652425D01*
X125437503Y-114560945D01*
X125476000Y-114457956D01*
X125502194Y-114350602D01*
X125510925Y-114246025D01*
X125508544Y-114192844D01*
X125493462Y-114157125D01*
X125451394Y-114131725D01*
X125371225Y-114125375D01*
X125291056Y-114131725D01*
X125248987Y-114156331D01*
X125233112Y-114191256D01*
X125229937Y-114242850D01*
X125221206Y-114317462D01*
X125195012Y-114403187D01*
X125151356Y-114500025D01*
X125090237Y-114607975D01*
X125031698Y-114701241D01*
X124973556Y-114793713D01*
X124919780Y-114886383D01*
X124874337Y-114980244D01*
X124843381Y-115066961D01*
X124833062Y-115138200D01*
X124032565Y-115138200D01*
X124320432Y-114706400D01*
G37*
%TO.C,kibuzzard-6268B8B3*%
G36*
X96700402Y-109956600D02*
G01*
X97436914Y-108851832D01*
X100708398Y-108851832D01*
X99971886Y-109956600D01*
X100708398Y-111061368D01*
X97436914Y-111061368D01*
X96988269Y-110388400D01*
X97949544Y-110388400D01*
X97957481Y-110472538D01*
X97979706Y-110506669D01*
X98020981Y-110524925D01*
X98096387Y-110532863D01*
X98186081Y-110491588D01*
X98190844Y-110488413D01*
X98451194Y-110253463D01*
X98508344Y-110159800D01*
X98458337Y-110061375D01*
X98362294Y-110005813D01*
X98251169Y-110055025D01*
X98230531Y-110074075D01*
X98230531Y-109507337D01*
X98230433Y-109504956D01*
X98555969Y-109504956D01*
X98565494Y-109585919D01*
X98602800Y-109631956D01*
X98695669Y-109647037D01*
X98986181Y-109647037D01*
X98986181Y-109654975D01*
X98946494Y-109670850D01*
X98848069Y-109724428D01*
X98736944Y-109812137D01*
X98685350Y-109869287D01*
X98641694Y-109942312D01*
X98611928Y-110025656D01*
X98602006Y-110113763D01*
X98615235Y-110222859D01*
X98654923Y-110323665D01*
X98721069Y-110416181D01*
X98808469Y-110489824D01*
X98911922Y-110534009D01*
X99031425Y-110548738D01*
X99150840Y-110534185D01*
X99254028Y-110490529D01*
X99340988Y-110417769D01*
X99406692Y-110326664D01*
X99446115Y-110227974D01*
X99459256Y-110121700D01*
X99451319Y-110040738D01*
X99408059Y-109995494D01*
X99319556Y-109980413D01*
X99238594Y-109989938D01*
X99195731Y-110018513D01*
X99180650Y-110058200D01*
X99178269Y-110110588D01*
X99178269Y-110120113D01*
X99171919Y-110156625D01*
X99129850Y-110230444D01*
X99041744Y-110267750D01*
X98962369Y-110253463D01*
X98920300Y-110222506D01*
X98895694Y-110179644D01*
X98884581Y-110139163D01*
X98899464Y-110069709D01*
X98944113Y-110004225D01*
X99009795Y-109944098D01*
X99087781Y-109890719D01*
X99171919Y-109840316D01*
X99256056Y-109789119D01*
X99334042Y-109732366D01*
X99399725Y-109665294D01*
X99444373Y-109589689D01*
X99459256Y-109507337D01*
X99417981Y-109407325D01*
X99319556Y-109364462D01*
X98698844Y-109364462D01*
X98600419Y-109383512D01*
X98566287Y-109424787D01*
X98555969Y-109504956D01*
X98230433Y-109504956D01*
X98228150Y-109449394D01*
X98213069Y-109405737D01*
X98170603Y-109374781D01*
X98090831Y-109364462D01*
X98009075Y-109375178D01*
X97967006Y-109407325D01*
X97951925Y-109449394D01*
X97949544Y-109504162D01*
X97949544Y-110388400D01*
X96988269Y-110388400D01*
X96700402Y-109956600D01*
G37*
%TO.C,kibuzzard-6268B85C*%
G36*
X96612825Y-97231200D02*
G01*
X96762579Y-97006569D01*
X97867787Y-97006569D01*
X97880223Y-97090442D01*
X97917529Y-97168494D01*
X97979706Y-97240725D01*
X98059346Y-97298492D01*
X98149040Y-97333153D01*
X98248787Y-97344706D01*
X98366262Y-97317719D01*
X98358325Y-97339944D01*
X98328956Y-97395506D01*
X98272600Y-97457419D01*
X98176556Y-97511394D01*
X98050350Y-97533619D01*
X97958275Y-97543144D01*
X97926525Y-97563781D01*
X97907475Y-97605056D01*
X97899537Y-97678081D01*
X97909062Y-97754281D01*
X97946369Y-97799525D01*
X98034475Y-97814606D01*
X98148807Y-97806478D01*
X98253042Y-97782094D01*
X98347181Y-97741454D01*
X98431223Y-97684558D01*
X98505169Y-97611406D01*
X98567176Y-97526126D01*
X98615405Y-97432844D01*
X98649853Y-97331562D01*
X98670523Y-97222278D01*
X98677412Y-97104994D01*
X98669944Y-97020856D01*
X98756788Y-97020856D01*
X98769884Y-97101819D01*
X98809175Y-97173256D01*
X98859181Y-97224850D01*
X98906013Y-97258981D01*
X98906013Y-97270094D01*
X98837221Y-97319924D01*
X98795946Y-97386863D01*
X98782188Y-97470913D01*
X98794711Y-97560430D01*
X98832282Y-97643774D01*
X98894900Y-97720944D01*
X98979214Y-97782680D01*
X99081872Y-97819722D01*
X99202875Y-97832069D01*
X99281655Y-97826513D01*
X99352894Y-97809844D01*
X99457669Y-97760631D01*
X99523550Y-97697925D01*
X99558475Y-97647919D01*
X99594988Y-97539969D01*
X99575144Y-97483216D01*
X99515613Y-97433606D01*
X99428300Y-97405031D01*
X99367975Y-97424875D01*
X99323525Y-97484406D01*
X99314000Y-97503456D01*
X99272725Y-97541556D01*
X99183031Y-97560606D01*
X99094925Y-97530444D01*
X99063175Y-97466944D01*
X99093338Y-97420509D01*
X99183825Y-97405031D01*
X99266375Y-97397094D01*
X99310428Y-97353834D01*
X99325113Y-97265331D01*
X99314397Y-97183972D01*
X99282250Y-97143094D01*
X99240975Y-97127219D01*
X99168744Y-97124044D01*
X99076669Y-97091500D01*
X99037775Y-97016094D01*
X99077463Y-96939100D01*
X99128263Y-96913502D01*
X99201288Y-96904969D01*
X99267963Y-96914494D01*
X99355275Y-96990694D01*
X99402900Y-97073244D01*
X99487038Y-97089119D01*
X99603719Y-97066100D01*
X99642613Y-96997044D01*
X99625150Y-96911319D01*
X99621975Y-96895444D01*
X99604513Y-96854169D01*
X99565222Y-96791066D01*
X99520375Y-96741456D01*
X99428653Y-96679720D01*
X99322819Y-96642678D01*
X99202875Y-96630331D01*
X99082049Y-96642590D01*
X98975686Y-96679367D01*
X98883788Y-96740662D01*
X98813232Y-96820831D01*
X98770899Y-96914229D01*
X98756788Y-97020856D01*
X98669944Y-97020856D01*
X98665771Y-96973849D01*
X98630846Y-96859813D01*
X98572637Y-96762887D01*
X98491499Y-96689245D01*
X98387782Y-96645060D01*
X98261487Y-96630331D01*
X98157859Y-96642326D01*
X98064990Y-96678309D01*
X97982881Y-96738281D01*
X97918940Y-96816069D01*
X97880576Y-96905498D01*
X97867787Y-97006569D01*
X96762579Y-97006569D01*
X97355157Y-96117701D01*
X100897575Y-96117701D01*
X100155243Y-97231200D01*
X100897575Y-98344699D01*
X97355157Y-98344699D01*
X96612825Y-97231200D01*
G37*
G36*
X98369437Y-96927194D02*
G01*
X98384519Y-96962119D01*
X98388487Y-97008156D01*
X98355944Y-97067687D01*
X98262281Y-97097056D01*
X98173381Y-97065306D01*
X98145600Y-96997044D01*
X98176159Y-96917272D01*
X98267837Y-96890681D01*
X98369437Y-96927194D01*
G37*
%TO.C,kibuzzard-6268BA2C*%
G36*
X96315168Y-82143600D02*
G01*
X96451693Y-81938812D01*
X97612994Y-81938812D01*
X97623114Y-82033864D01*
X97653475Y-82112644D01*
X97698917Y-82172770D01*
X97754281Y-82211863D01*
X97817384Y-82238255D01*
X97886044Y-82260281D01*
X97954703Y-82277545D01*
X98017806Y-82289650D01*
X98118612Y-82326163D01*
X98159094Y-82396806D01*
X98124962Y-82465069D01*
X98039237Y-82489675D01*
X97954306Y-82469038D01*
X97929700Y-82448400D01*
X97911444Y-82432525D01*
X97828894Y-82400775D01*
X97772537Y-82420619D01*
X97717769Y-82480150D01*
X97679669Y-82567463D01*
X97728881Y-82645250D01*
X97768569Y-82675413D01*
X97877312Y-82725419D01*
X97960061Y-82743873D01*
X98051144Y-82750025D01*
X98162357Y-82738472D01*
X98256813Y-82703811D01*
X98334512Y-82646044D01*
X98380184Y-82588100D01*
X98562319Y-82588100D01*
X98564700Y-82643662D01*
X98579781Y-82686525D01*
X98621652Y-82718672D01*
X98702812Y-82729388D01*
X98785164Y-82718672D01*
X98830606Y-82686525D01*
X98873977Y-82631090D01*
X98931698Y-82556223D01*
X99003771Y-82461926D01*
X99090194Y-82348197D01*
X99190969Y-82215038D01*
X99551331Y-82688113D01*
X99560856Y-82697638D01*
X99601337Y-82719069D01*
X99675156Y-82729388D01*
X99756119Y-82719069D01*
X99798981Y-82688113D01*
X99814062Y-82646044D01*
X99815339Y-82616675D01*
X99903756Y-82616675D01*
X99911694Y-82683350D01*
X99943444Y-82720656D01*
X100018056Y-82732563D01*
X100900706Y-82732563D01*
X100981669Y-82718275D01*
X101001752Y-82692875D01*
X101064219Y-82692875D01*
X101085650Y-82740103D01*
X101149944Y-82783363D01*
X101230113Y-82808763D01*
X101267419Y-82802413D01*
X101321394Y-82732563D01*
X101813201Y-81704656D01*
X101899244Y-81704656D01*
X101908769Y-81785619D01*
X101946075Y-81831656D01*
X102038944Y-81846737D01*
X102329456Y-81846737D01*
X102329456Y-81854675D01*
X102289769Y-81870550D01*
X102191344Y-81924128D01*
X102080219Y-82011837D01*
X102028625Y-82068987D01*
X101984969Y-82142012D01*
X101955203Y-82225356D01*
X101945281Y-82313463D01*
X101958510Y-82422559D01*
X101998198Y-82523365D01*
X102064344Y-82615881D01*
X102151744Y-82689524D01*
X102255197Y-82733709D01*
X102374700Y-82748438D01*
X102494115Y-82733885D01*
X102597303Y-82690229D01*
X102684263Y-82617469D01*
X102703154Y-82591275D01*
X102905719Y-82591275D01*
X102908100Y-82646838D01*
X102923181Y-82688906D01*
X102966044Y-82722244D01*
X103046213Y-82732563D01*
X103127175Y-82723831D01*
X103170831Y-82692875D01*
X103185913Y-82653188D01*
X103188294Y-82599213D01*
X103188294Y-82165825D01*
X103447056Y-82165825D01*
X103350219Y-82553175D01*
X103348631Y-82557938D01*
X103337519Y-82624613D01*
X103365300Y-82685731D01*
X103448644Y-82726213D01*
X103521669Y-82737325D01*
X103576438Y-82719863D01*
X103605013Y-82683350D01*
X103621681Y-82627788D01*
X103753444Y-82095975D01*
X103758206Y-82032475D01*
X103750269Y-81964212D01*
X103707009Y-81918969D01*
X103618506Y-81903887D01*
X103188294Y-81903887D01*
X103188294Y-81710212D01*
X103178769Y-81627662D01*
X103158131Y-81595912D01*
X103116856Y-81576862D01*
X103043831Y-81568925D01*
X102966838Y-81578450D01*
X102920800Y-81617344D01*
X102905719Y-81708625D01*
X102905719Y-82591275D01*
X102703154Y-82591275D01*
X102749967Y-82526364D01*
X102789390Y-82427674D01*
X102802531Y-82321400D01*
X102794594Y-82240438D01*
X102751334Y-82195194D01*
X102662831Y-82180113D01*
X102581869Y-82189638D01*
X102539006Y-82218213D01*
X102523925Y-82257900D01*
X102521544Y-82310288D01*
X102521544Y-82319813D01*
X102515194Y-82356325D01*
X102473125Y-82430144D01*
X102385019Y-82467450D01*
X102305644Y-82453163D01*
X102263575Y-82422206D01*
X102238969Y-82379344D01*
X102227856Y-82338863D01*
X102242739Y-82269409D01*
X102287388Y-82203925D01*
X102353070Y-82143798D01*
X102431056Y-82090419D01*
X102515194Y-82040016D01*
X102599331Y-81988819D01*
X102677317Y-81932066D01*
X102743000Y-81864994D01*
X102787648Y-81789389D01*
X102802531Y-81707037D01*
X102761256Y-81607025D01*
X102662831Y-81564162D01*
X102042119Y-81564162D01*
X101943694Y-81583212D01*
X101909563Y-81624487D01*
X101899244Y-81704656D01*
X101813201Y-81704656D01*
X101832569Y-81664175D01*
X101851619Y-81584800D01*
X101833363Y-81544319D01*
X101762719Y-81502250D01*
X101683344Y-81478437D01*
X101639688Y-81490344D01*
X101615875Y-81514950D01*
X101596031Y-81554637D01*
X101086444Y-82613500D01*
X101064219Y-82692875D01*
X101001752Y-82692875D01*
X101008656Y-82684144D01*
X101016594Y-82618263D01*
X101008656Y-82551588D01*
X100976906Y-82514281D01*
X100902294Y-82502375D01*
X100597494Y-82502375D01*
X100597494Y-81705450D01*
X100595112Y-81650681D01*
X100580825Y-81609406D01*
X100539550Y-81576862D01*
X100460969Y-81567337D01*
X100381594Y-81576862D01*
X100339525Y-81609406D01*
X100325237Y-81649887D01*
X100322856Y-81703862D01*
X100322856Y-82502375D01*
X100019644Y-82502375D01*
X99938681Y-82516663D01*
X99911694Y-82550794D01*
X99903756Y-82616675D01*
X99815339Y-82616675D01*
X99816444Y-82591275D01*
X99816444Y-81710212D01*
X99814062Y-81653062D01*
X99798981Y-81611787D01*
X99756912Y-81579641D01*
X99678331Y-81568925D01*
X99597369Y-81579641D01*
X99554506Y-81611787D01*
X99539425Y-81652269D01*
X99537044Y-81707037D01*
X99537044Y-82242025D01*
X99507675Y-82202536D01*
X99435444Y-82103119D01*
X99357259Y-81996161D01*
X99310031Y-81934050D01*
X99297331Y-81916587D01*
X99255262Y-81884044D01*
X99190175Y-81867375D01*
X99123500Y-81885631D01*
X99084606Y-81914206D01*
X99056031Y-81951512D01*
X99021503Y-81998542D01*
X98959194Y-82085656D01*
X98892122Y-82178327D01*
X98843306Y-82242025D01*
X98843306Y-81710212D01*
X98835369Y-81627662D01*
X98813144Y-81595912D01*
X98771869Y-81576862D01*
X98698844Y-81568925D01*
X98622644Y-81578450D01*
X98577400Y-81620122D01*
X98562319Y-81707037D01*
X98562319Y-82588100D01*
X98380184Y-82588100D01*
X98392280Y-82572754D01*
X98426940Y-82491527D01*
X98438494Y-82402363D01*
X98428373Y-82308105D01*
X98398012Y-82228531D01*
X98352570Y-82166023D01*
X98297206Y-82122962D01*
X98234500Y-82091808D01*
X98167031Y-82065019D01*
X98099562Y-82043786D01*
X98036856Y-82029300D01*
X97936050Y-81993581D01*
X97895569Y-81932462D01*
X97911973Y-81865435D01*
X97961185Y-81825218D01*
X98043206Y-81811812D01*
X98119406Y-81836419D01*
X98182906Y-81888012D01*
X98253550Y-81947544D01*
X98306731Y-81967387D01*
X98390869Y-81929287D01*
X98442066Y-81869161D01*
X98459131Y-81822131D01*
X98417856Y-81730850D01*
X98403569Y-81713387D01*
X98357531Y-81664969D01*
X98286094Y-81614962D01*
X98178144Y-81569719D01*
X98109484Y-81556027D01*
X98036856Y-81551462D01*
X97941430Y-81560811D01*
X97849884Y-81588857D01*
X97762219Y-81635600D01*
X97701894Y-81687392D01*
X97654269Y-81757044D01*
X97623312Y-81841777D01*
X97612994Y-81938812D01*
X96451693Y-81938812D01*
X97100364Y-80965807D01*
X105056032Y-80965807D01*
X104270836Y-82143600D01*
X105056032Y-83321393D01*
X97100364Y-83321393D01*
X96315168Y-82143600D01*
G37*
%TO.C,kibuzzard-6268B841*%
G36*
X98324194Y-92465525D02*
G01*
X98351975Y-92526644D01*
X98326575Y-92586175D01*
X98247994Y-92613163D01*
X98167825Y-92585381D01*
X98140837Y-92525850D01*
X98167031Y-92465525D01*
X98244819Y-92436950D01*
X98324194Y-92465525D01*
G37*
G36*
X96567316Y-92278200D02*
G01*
X96707016Y-92068650D01*
X97824925Y-92068650D01*
X97833855Y-92134928D01*
X97860644Y-92200412D01*
X97917794Y-92286931D01*
X97953512Y-92319475D01*
X97929700Y-92344875D01*
X97882869Y-92419488D01*
X97859850Y-92516325D01*
X97872550Y-92616867D01*
X97910650Y-92704708D01*
X97974150Y-92779850D01*
X98054936Y-92837176D01*
X98144894Y-92871572D01*
X98244025Y-92883038D01*
X98343508Y-92871749D01*
X98434525Y-92837882D01*
X98517075Y-92781438D01*
X98582339Y-92707707D01*
X98621497Y-92621982D01*
X98634550Y-92524263D01*
X98608356Y-92413931D01*
X98566287Y-92344875D01*
X98539300Y-92319475D01*
X98572637Y-92289313D01*
X98636931Y-92198031D01*
X98661339Y-92134333D01*
X98669475Y-92068650D01*
X98669066Y-92065475D01*
X98748850Y-92065475D01*
X98761947Y-92146437D01*
X98801238Y-92217875D01*
X98851244Y-92269469D01*
X98898075Y-92303600D01*
X98898075Y-92314713D01*
X98829283Y-92364542D01*
X98788008Y-92431482D01*
X98774250Y-92515531D01*
X98786774Y-92605049D01*
X98824344Y-92688392D01*
X98886963Y-92765563D01*
X98971276Y-92827299D01*
X99073935Y-92864340D01*
X99194938Y-92876688D01*
X99273717Y-92871131D01*
X99344956Y-92854463D01*
X99449731Y-92805250D01*
X99515613Y-92742544D01*
X99550538Y-92692538D01*
X99587050Y-92584588D01*
X99567206Y-92527834D01*
X99507675Y-92478225D01*
X99420363Y-92449650D01*
X99360038Y-92469494D01*
X99315588Y-92529025D01*
X99306063Y-92548075D01*
X99264788Y-92586175D01*
X99175094Y-92605225D01*
X99086988Y-92575063D01*
X99055238Y-92511563D01*
X99085400Y-92465128D01*
X99175888Y-92449650D01*
X99258438Y-92441713D01*
X99302491Y-92398453D01*
X99317175Y-92309950D01*
X99306459Y-92228591D01*
X99274313Y-92187712D01*
X99233038Y-92171837D01*
X99160806Y-92168662D01*
X99068731Y-92136119D01*
X99029838Y-92060712D01*
X99069525Y-91983719D01*
X99120325Y-91958120D01*
X99193350Y-91949587D01*
X99260025Y-91959112D01*
X99347338Y-92035312D01*
X99394963Y-92117862D01*
X99479100Y-92133737D01*
X99595781Y-92110719D01*
X99634675Y-92041662D01*
X99617213Y-91955937D01*
X99614038Y-91940062D01*
X99596575Y-91898787D01*
X99557284Y-91835684D01*
X99512438Y-91786075D01*
X99420715Y-91724339D01*
X99314882Y-91687297D01*
X99194938Y-91674950D01*
X99074111Y-91687209D01*
X98967749Y-91723986D01*
X98875850Y-91785281D01*
X98805294Y-91865450D01*
X98762961Y-91958848D01*
X98748850Y-92065475D01*
X98669066Y-92065475D01*
X98655099Y-91956996D01*
X98611972Y-91861217D01*
X98540094Y-91781312D01*
X98450047Y-91721340D01*
X98352416Y-91685357D01*
X98247200Y-91673362D01*
X98141984Y-91685445D01*
X98044353Y-91721693D01*
X97954306Y-91782106D01*
X97882428Y-91862275D01*
X97839301Y-91957790D01*
X97824925Y-92068650D01*
X96707016Y-92068650D01*
X97312295Y-91160732D01*
X100892284Y-91160732D01*
X100147305Y-92278200D01*
X100892284Y-93395668D01*
X97312295Y-93395668D01*
X96567316Y-92278200D01*
G37*
G36*
X98351975Y-91979750D02*
G01*
X98388487Y-92062300D01*
X98351975Y-92144056D01*
X98246406Y-92181362D01*
X98141631Y-92143262D01*
X98105912Y-92061506D01*
X98140837Y-91979750D01*
X98245612Y-91941650D01*
X98351975Y-91979750D01*
G37*
%TO.C,kibuzzard-6268B895*%
G36*
X96600125Y-104724200D02*
G01*
X96740354Y-104513856D01*
X97855087Y-104513856D01*
X97868184Y-104594819D01*
X97907475Y-104666256D01*
X97957481Y-104717850D01*
X98004312Y-104751981D01*
X98004312Y-104763094D01*
X97935521Y-104812924D01*
X97894246Y-104879863D01*
X97880487Y-104963913D01*
X97893011Y-105053430D01*
X97930582Y-105136774D01*
X97993200Y-105213944D01*
X98077514Y-105275680D01*
X98180172Y-105312722D01*
X98301175Y-105325069D01*
X98379955Y-105319513D01*
X98451194Y-105302844D01*
X98555969Y-105253631D01*
X98621850Y-105190925D01*
X98656775Y-105140919D01*
X98693287Y-105032969D01*
X98673444Y-104976216D01*
X98613912Y-104926606D01*
X98526600Y-104898031D01*
X98466275Y-104917875D01*
X98421825Y-104977406D01*
X98412300Y-104996456D01*
X98371025Y-105034556D01*
X98281331Y-105053606D01*
X98193225Y-105023444D01*
X98161475Y-104959944D01*
X98191637Y-104913509D01*
X98282125Y-104898031D01*
X98364675Y-104890094D01*
X98408728Y-104846834D01*
X98423412Y-104758331D01*
X98412697Y-104676972D01*
X98380550Y-104636094D01*
X98339275Y-104620219D01*
X98267044Y-104617044D01*
X98174969Y-104584500D01*
X98136075Y-104509094D01*
X98175762Y-104432100D01*
X98226562Y-104406502D01*
X98299587Y-104397969D01*
X98366262Y-104407494D01*
X98453575Y-104483694D01*
X98501200Y-104566244D01*
X98585337Y-104582119D01*
X98702019Y-104559100D01*
X98727501Y-104513856D01*
X98820288Y-104513856D01*
X98833384Y-104594819D01*
X98872675Y-104666256D01*
X98922681Y-104717850D01*
X98969513Y-104751981D01*
X98969513Y-104763094D01*
X98900721Y-104812924D01*
X98859446Y-104879863D01*
X98845688Y-104963913D01*
X98858211Y-105053430D01*
X98895782Y-105136774D01*
X98958400Y-105213944D01*
X99042714Y-105275680D01*
X99145372Y-105312722D01*
X99266375Y-105325069D01*
X99345155Y-105319513D01*
X99416394Y-105302844D01*
X99521169Y-105253631D01*
X99587050Y-105190925D01*
X99621975Y-105140919D01*
X99658488Y-105032969D01*
X99638644Y-104976216D01*
X99579113Y-104926606D01*
X99491800Y-104898031D01*
X99431475Y-104917875D01*
X99387025Y-104977406D01*
X99377500Y-104996456D01*
X99336225Y-105034556D01*
X99246531Y-105053606D01*
X99158425Y-105023444D01*
X99126675Y-104959944D01*
X99156838Y-104913509D01*
X99247325Y-104898031D01*
X99329875Y-104890094D01*
X99373928Y-104846834D01*
X99388613Y-104758331D01*
X99377897Y-104676972D01*
X99345750Y-104636094D01*
X99304475Y-104620219D01*
X99232244Y-104617044D01*
X99140169Y-104584500D01*
X99101275Y-104509094D01*
X99140963Y-104432100D01*
X99191763Y-104406502D01*
X99264788Y-104397969D01*
X99331463Y-104407494D01*
X99418775Y-104483694D01*
X99466400Y-104566244D01*
X99550538Y-104582119D01*
X99667219Y-104559100D01*
X99706113Y-104490044D01*
X99688650Y-104404319D01*
X99685475Y-104388444D01*
X99668013Y-104347169D01*
X99628722Y-104284066D01*
X99583875Y-104234456D01*
X99492153Y-104172720D01*
X99386319Y-104135678D01*
X99266375Y-104123331D01*
X99145549Y-104135590D01*
X99039186Y-104172367D01*
X98947288Y-104233662D01*
X98876732Y-104313831D01*
X98834399Y-104407229D01*
X98820288Y-104513856D01*
X98727501Y-104513856D01*
X98740912Y-104490044D01*
X98723450Y-104404319D01*
X98720275Y-104388444D01*
X98702812Y-104347169D01*
X98663522Y-104284066D01*
X98618675Y-104234456D01*
X98526953Y-104172720D01*
X98421119Y-104135678D01*
X98301175Y-104123331D01*
X98180349Y-104135590D01*
X98073986Y-104172367D01*
X97982087Y-104233662D01*
X97911532Y-104313831D01*
X97869199Y-104407229D01*
X97855087Y-104513856D01*
X96740354Y-104513856D01*
X97342457Y-103610701D01*
X100961075Y-103610701D01*
X100218743Y-104724200D01*
X100961075Y-105837699D01*
X97342457Y-105837699D01*
X96600125Y-104724200D01*
G37*
%TO.C,kibuzzard-6268B612*%
G36*
X125886666Y-76713705D02*
G01*
X125936772Y-76773683D01*
X125966835Y-76873646D01*
X125976856Y-77013594D01*
X125966736Y-77153542D01*
X125936375Y-77253505D01*
X125885773Y-77313482D01*
X125814931Y-77333475D01*
X125744089Y-77313532D01*
X125693488Y-77253703D01*
X125663127Y-77153988D01*
X125653006Y-77014388D01*
X125653006Y-77004862D01*
X125663226Y-76868734D01*
X125693884Y-76771500D01*
X125744982Y-76713159D01*
X125816519Y-76693712D01*
X125886666Y-76713705D01*
G37*
G36*
X123876726Y-77012800D02*
G01*
X123581980Y-76570681D01*
X124389356Y-76570681D01*
X124398881Y-76651644D01*
X124436187Y-76697681D01*
X124529056Y-76712762D01*
X124819569Y-76712762D01*
X124819569Y-76720700D01*
X124779881Y-76736575D01*
X124681456Y-76790153D01*
X124570331Y-76877862D01*
X124518737Y-76935012D01*
X124475081Y-77008037D01*
X124445316Y-77091381D01*
X124435394Y-77179488D01*
X124448623Y-77288584D01*
X124488310Y-77389390D01*
X124554456Y-77481906D01*
X124641857Y-77555549D01*
X124745309Y-77599734D01*
X124864812Y-77614463D01*
X124984228Y-77599910D01*
X125087415Y-77556254D01*
X125174375Y-77483494D01*
X125240080Y-77392389D01*
X125279503Y-77293699D01*
X125292644Y-77187425D01*
X125284706Y-77106463D01*
X125241447Y-77061219D01*
X125152944Y-77046138D01*
X125071981Y-77055663D01*
X125029119Y-77084238D01*
X125014037Y-77123925D01*
X125011656Y-77176313D01*
X125011656Y-77185838D01*
X125005306Y-77222350D01*
X124963237Y-77296169D01*
X124875131Y-77333475D01*
X124795756Y-77319188D01*
X124753687Y-77288231D01*
X124729081Y-77245369D01*
X124717969Y-77204888D01*
X124732852Y-77135434D01*
X124777500Y-77069950D01*
X124839931Y-77012800D01*
X125372019Y-77012800D01*
X125377310Y-77117751D01*
X125393185Y-77218822D01*
X125419644Y-77316013D01*
X125452783Y-77396181D01*
X125495050Y-77465238D01*
X125550613Y-77523578D01*
X125623638Y-77571600D01*
X125712339Y-77603747D01*
X125814931Y-77614463D01*
X125917920Y-77603548D01*
X126007813Y-77570806D01*
X126081830Y-77521991D01*
X126137194Y-77462856D01*
X126181048Y-77386458D01*
X126220538Y-77285850D01*
X126241263Y-77205593D01*
X126253699Y-77115106D01*
X126257844Y-77014388D01*
X126252728Y-76903086D01*
X126237383Y-76799899D01*
X126211806Y-76704825D01*
X126177477Y-76625053D01*
X126134813Y-76557187D01*
X126078853Y-76500236D01*
X126004638Y-76453206D01*
X125915142Y-76421655D01*
X125813344Y-76411137D01*
X125711942Y-76421456D01*
X125623638Y-76452412D01*
X125550811Y-76499244D01*
X125495844Y-76557187D01*
X125441670Y-76648766D01*
X125402975Y-76755228D01*
X125379758Y-76876573D01*
X125372019Y-77012800D01*
X124839931Y-77012800D01*
X124843183Y-77009823D01*
X124921169Y-76956444D01*
X125005306Y-76906041D01*
X125089444Y-76854844D01*
X125167430Y-76798091D01*
X125233112Y-76731019D01*
X125277761Y-76655414D01*
X125292644Y-76573062D01*
X125251369Y-76473050D01*
X125152944Y-76430187D01*
X124532231Y-76430187D01*
X124433806Y-76449237D01*
X124399675Y-76490512D01*
X124389356Y-76570681D01*
X123581980Y-76570681D01*
X123133864Y-75898507D01*
X126770474Y-75898507D01*
X127513336Y-77012800D01*
X126770474Y-78127093D01*
X123133864Y-78127093D01*
X123876726Y-77012800D01*
G37*
%TO.C,kibuzzard-6268B9F3*%
G36*
X96615206Y-112522000D02*
G01*
X97057590Y-111858425D01*
X99922806Y-111858425D01*
X99930744Y-111921131D01*
X100019644Y-111968756D01*
X101088031Y-111968756D01*
X101156294Y-111956056D01*
X101179313Y-111922719D01*
X101186456Y-111859219D01*
X101178519Y-111795719D01*
X101089619Y-111749681D01*
X100021231Y-111749681D01*
X99952969Y-111762381D01*
X99929950Y-111795719D01*
X99922806Y-111858425D01*
X97057590Y-111858425D01*
X97471839Y-111237051D01*
X105619594Y-111237051D01*
X104762961Y-112522000D01*
X105619594Y-113806949D01*
X97471839Y-113806949D01*
X96631081Y-112545813D01*
X97984469Y-112545813D01*
X97993200Y-112618044D01*
X98027331Y-112658525D01*
X98108294Y-112672019D01*
X98236881Y-112672019D01*
X98236881Y-112799019D01*
X98251169Y-112886331D01*
X98290062Y-112915700D01*
X98362294Y-112924431D01*
X98434525Y-112915700D01*
X98475006Y-112881569D01*
X98487706Y-112800606D01*
X98487706Y-112701388D01*
X98821081Y-112701388D01*
X98831995Y-112817672D01*
X98864737Y-112924431D01*
X98919308Y-113021666D01*
X98995706Y-113109375D01*
X99086491Y-113181954D01*
X99184222Y-113233795D01*
X99288898Y-113264900D01*
X99400519Y-113275269D01*
X99694206Y-113276856D01*
X99775962Y-113266141D01*
X99818031Y-113233994D01*
X99833112Y-113192719D01*
X99835494Y-113137156D01*
X99835494Y-112486281D01*
X101249956Y-112486281D01*
X101260363Y-112575358D01*
X101291584Y-112658437D01*
X101343619Y-112735519D01*
X101298375Y-112827197D01*
X101283294Y-112927606D01*
X101294759Y-113019328D01*
X101329155Y-113101878D01*
X101386481Y-113175256D01*
X101457390Y-113231701D01*
X101538881Y-113265567D01*
X101630956Y-113276856D01*
X102031006Y-113276856D01*
X102112763Y-113266141D01*
X102154831Y-113233994D01*
X102169913Y-113192719D01*
X102172294Y-113137156D01*
X102172294Y-112483106D01*
X102275481Y-112483106D01*
X102285602Y-112578158D01*
X102315963Y-112656938D01*
X102361405Y-112717064D01*
X102416769Y-112756156D01*
X102479872Y-112782548D01*
X102548531Y-112804575D01*
X102617191Y-112821839D01*
X102680294Y-112833944D01*
X102781100Y-112870456D01*
X102821581Y-112941100D01*
X102787450Y-113009363D01*
X102701725Y-113033969D01*
X102616794Y-113013331D01*
X102592188Y-112992694D01*
X102573931Y-112976819D01*
X102491381Y-112945069D01*
X102435025Y-112964913D01*
X102380256Y-113024444D01*
X102342156Y-113111756D01*
X102391369Y-113189544D01*
X102431056Y-113219706D01*
X102539800Y-113269713D01*
X102622548Y-113288167D01*
X102713631Y-113294319D01*
X102824844Y-113282765D01*
X102919301Y-113248105D01*
X102997000Y-113190338D01*
X103041420Y-113133981D01*
X103224806Y-113133981D01*
X103234331Y-113216531D01*
X103254969Y-113249869D01*
X103296244Y-113268919D01*
X103368475Y-113276856D01*
X103443881Y-113267331D01*
X103489919Y-113232406D01*
X103505794Y-113145094D01*
X103505794Y-112659319D01*
X103520081Y-112553353D01*
X103562944Y-112460881D01*
X103634778Y-112396587D01*
X103735981Y-112375156D01*
X103848694Y-112402144D01*
X103920131Y-112473581D01*
X103955850Y-112563275D01*
X103967756Y-112657731D01*
X103967756Y-113133981D01*
X103986806Y-113233994D01*
X104028081Y-113267331D01*
X104109044Y-113276856D01*
X104190006Y-113267331D01*
X104232869Y-113233994D01*
X104247950Y-113191925D01*
X104250331Y-113135569D01*
X104250331Y-112657731D01*
X104242295Y-112554147D01*
X104218184Y-112456119D01*
X104178001Y-112363647D01*
X104121744Y-112276731D01*
X104050505Y-112202119D01*
X103960613Y-112143381D01*
X103855838Y-112105281D01*
X103739950Y-112092581D01*
X103623864Y-112105083D01*
X103518494Y-112142587D01*
X103427609Y-112200333D01*
X103354981Y-112273556D01*
X103298030Y-112361662D01*
X103257350Y-112454531D01*
X103232942Y-112552163D01*
X103224806Y-112654556D01*
X103224806Y-113133981D01*
X103041420Y-113133981D01*
X103054767Y-113117048D01*
X103089428Y-113035821D01*
X103100981Y-112946656D01*
X103090861Y-112852398D01*
X103060500Y-112772825D01*
X103015058Y-112710317D01*
X102959694Y-112667256D01*
X102896988Y-112636102D01*
X102829519Y-112609313D01*
X102762050Y-112588080D01*
X102699344Y-112573594D01*
X102598538Y-112537875D01*
X102558056Y-112476756D01*
X102574460Y-112409728D01*
X102623673Y-112369512D01*
X102705694Y-112356106D01*
X102781894Y-112380712D01*
X102845394Y-112432306D01*
X102916038Y-112491837D01*
X102969219Y-112511681D01*
X103053356Y-112473581D01*
X103104553Y-112413455D01*
X103121619Y-112366425D01*
X103080344Y-112275144D01*
X103066056Y-112257681D01*
X103020019Y-112209262D01*
X102948581Y-112159256D01*
X102840631Y-112114012D01*
X102771972Y-112100320D01*
X102699344Y-112095756D01*
X102603917Y-112105105D01*
X102512372Y-112133151D01*
X102424706Y-112179894D01*
X102364381Y-112231686D01*
X102316756Y-112301337D01*
X102285800Y-112386070D01*
X102275481Y-112483106D01*
X102172294Y-112483106D01*
X102172294Y-112256094D01*
X102162769Y-112173544D01*
X102120700Y-112128300D01*
X102032594Y-112113219D01*
X101615081Y-112113219D01*
X101519567Y-112125125D01*
X101434106Y-112160844D01*
X101358700Y-112220375D01*
X101299698Y-112297545D01*
X101263450Y-112386181D01*
X101249956Y-112486281D01*
X99835494Y-112486281D01*
X99835494Y-112254506D01*
X99816444Y-112152906D01*
X99774375Y-112123141D01*
X99695794Y-112113219D01*
X99405281Y-112113219D01*
X99288352Y-112124034D01*
X99180452Y-112156478D01*
X99081580Y-112210552D01*
X98991737Y-112286256D01*
X98917075Y-112377091D01*
X98863745Y-112476558D01*
X98831747Y-112584657D01*
X98821081Y-112701388D01*
X98487706Y-112701388D01*
X98487706Y-112672019D01*
X98614706Y-112672019D01*
X98702019Y-112657731D01*
X98732975Y-112618838D01*
X98741706Y-112546606D01*
X98733769Y-112474375D01*
X98702019Y-112433894D01*
X98625819Y-112421194D01*
X98487706Y-112421194D01*
X98487706Y-112294194D01*
X98473419Y-112206881D01*
X98435319Y-112177512D01*
X98363087Y-112168781D01*
X98290856Y-112177512D01*
X98250375Y-112211644D01*
X98236881Y-112292606D01*
X98236881Y-112421194D01*
X98100356Y-112421194D01*
X98019394Y-112435481D01*
X97992406Y-112473581D01*
X97984469Y-112545813D01*
X96631081Y-112545813D01*
X96615206Y-112522000D01*
G37*
G36*
X101891306Y-112995869D02*
G01*
X101669056Y-112995869D01*
X101590475Y-112979994D01*
X101564281Y-112924431D01*
X101569044Y-112867281D01*
X101645244Y-112833944D01*
X101742875Y-112811719D01*
X101772244Y-112720438D01*
X101743669Y-112629156D01*
X101657944Y-112606931D01*
X101569044Y-112594231D01*
X101539675Y-112562481D01*
X101530944Y-112502156D01*
X101555947Y-112421194D01*
X101630956Y-112394206D01*
X101891306Y-112394206D01*
X101891306Y-112995869D01*
G37*
G36*
X99554506Y-112994281D02*
G01*
X99402106Y-112994281D01*
X99289195Y-112972652D01*
X99191762Y-112907763D01*
X99124492Y-112810727D01*
X99102069Y-112692656D01*
X99125087Y-112574983D01*
X99194144Y-112479137D01*
X99291775Y-112415439D01*
X99400519Y-112394206D01*
X99554506Y-112394206D01*
X99554506Y-112994281D01*
G37*
%TO.C,kibuzzard-6268B6C4*%
G36*
X124538714Y-99466400D02*
G01*
X123807493Y-98369570D01*
X126768886Y-98369570D01*
X127500107Y-99466400D01*
X126768886Y-100563230D01*
X123807493Y-100563230D01*
X124245555Y-99906138D01*
X125051344Y-99906138D01*
X125059281Y-99990275D01*
X125081506Y-100024406D01*
X125122781Y-100042663D01*
X125198187Y-100050600D01*
X125287881Y-100009325D01*
X125292644Y-100006150D01*
X125403468Y-99906138D01*
X125697456Y-99906138D01*
X125705394Y-99990275D01*
X125727619Y-100024406D01*
X125768894Y-100042663D01*
X125844300Y-100050600D01*
X125933994Y-100009325D01*
X125938756Y-100006150D01*
X126199106Y-99771200D01*
X126256256Y-99677538D01*
X126206250Y-99579113D01*
X126110206Y-99523550D01*
X125999081Y-99572763D01*
X125978444Y-99591813D01*
X125978444Y-99025075D01*
X125976063Y-98967131D01*
X125960981Y-98923475D01*
X125918516Y-98892519D01*
X125838744Y-98882200D01*
X125756988Y-98892916D01*
X125714919Y-98925062D01*
X125699838Y-98967131D01*
X125697456Y-99021900D01*
X125697456Y-99906138D01*
X125403468Y-99906138D01*
X125552994Y-99771200D01*
X125610144Y-99677538D01*
X125560137Y-99579113D01*
X125464094Y-99523550D01*
X125352969Y-99572763D01*
X125332331Y-99591813D01*
X125332331Y-99025075D01*
X125329950Y-98967131D01*
X125314869Y-98923475D01*
X125272403Y-98892519D01*
X125192631Y-98882200D01*
X125110875Y-98892916D01*
X125068806Y-98925062D01*
X125053725Y-98967131D01*
X125051344Y-99021900D01*
X125051344Y-99906138D01*
X124245555Y-99906138D01*
X124538714Y-99466400D01*
G37*
%TO.C,kibuzzard-6268B6DC*%
G36*
X124265664Y-104521000D02*
G01*
X124125435Y-104310656D01*
X124778294Y-104310656D01*
X124791391Y-104391619D01*
X124830681Y-104463056D01*
X124880687Y-104514650D01*
X124927519Y-104548781D01*
X124927519Y-104559894D01*
X124858727Y-104609724D01*
X124817452Y-104676663D01*
X124803694Y-104760713D01*
X124816217Y-104850230D01*
X124853788Y-104933574D01*
X124916406Y-105010744D01*
X125000720Y-105072480D01*
X125103378Y-105109522D01*
X125224381Y-105121869D01*
X125303161Y-105116313D01*
X125374400Y-105099644D01*
X125479175Y-105050431D01*
X125545056Y-104987725D01*
X125563350Y-104961531D01*
X125767306Y-104961531D01*
X125775244Y-105045669D01*
X125797469Y-105079800D01*
X125838744Y-105098056D01*
X125914150Y-105105994D01*
X126003844Y-105064719D01*
X126008606Y-105061544D01*
X126268956Y-104826594D01*
X126326106Y-104732931D01*
X126276100Y-104634506D01*
X126180056Y-104578944D01*
X126068931Y-104628156D01*
X126048294Y-104647206D01*
X126048294Y-104080469D01*
X126045913Y-104022525D01*
X126030831Y-103978869D01*
X125988366Y-103947912D01*
X125908594Y-103937594D01*
X125826838Y-103948309D01*
X125784769Y-103980456D01*
X125769688Y-104022525D01*
X125767306Y-104077294D01*
X125767306Y-104961531D01*
X125563350Y-104961531D01*
X125579981Y-104937719D01*
X125616494Y-104829769D01*
X125596650Y-104773016D01*
X125537119Y-104723406D01*
X125449806Y-104694831D01*
X125389481Y-104714675D01*
X125345031Y-104774206D01*
X125335506Y-104793256D01*
X125294231Y-104831356D01*
X125204537Y-104850406D01*
X125116431Y-104820244D01*
X125084681Y-104756744D01*
X125114844Y-104710309D01*
X125205331Y-104694831D01*
X125287881Y-104686894D01*
X125331934Y-104643634D01*
X125346619Y-104555131D01*
X125335903Y-104473772D01*
X125303756Y-104432894D01*
X125262481Y-104417019D01*
X125190250Y-104413844D01*
X125098175Y-104381300D01*
X125059281Y-104305894D01*
X125098969Y-104228900D01*
X125149769Y-104203302D01*
X125222794Y-104194769D01*
X125289469Y-104204294D01*
X125376781Y-104280494D01*
X125424406Y-104363044D01*
X125508544Y-104378919D01*
X125625225Y-104355900D01*
X125664119Y-104286844D01*
X125646656Y-104201119D01*
X125643481Y-104185244D01*
X125626019Y-104143969D01*
X125586728Y-104080866D01*
X125541881Y-104031256D01*
X125450159Y-103969520D01*
X125344326Y-103932478D01*
X125224381Y-103920131D01*
X125103555Y-103932390D01*
X124997192Y-103969167D01*
X124905294Y-104030462D01*
X124834738Y-104110631D01*
X124792405Y-104204029D01*
X124778294Y-104310656D01*
X124125435Y-104310656D01*
X123523331Y-103407501D01*
X126838736Y-103407501D01*
X127581069Y-104521000D01*
X126838736Y-105634499D01*
X123523331Y-105634499D01*
X124265664Y-104521000D01*
G37*
%TO.C,kibuzzard-6268B75E*%
G36*
X122508301Y-71983600D02*
G01*
X121769673Y-70875657D01*
X126868899Y-70875657D01*
X127607527Y-71983600D01*
X126868899Y-73091543D01*
X121769673Y-73091543D01*
X122242131Y-72382856D01*
X123020931Y-72382856D01*
X123062206Y-72458263D01*
X123106656Y-72486838D01*
X123144756Y-72509063D01*
X123261437Y-72555894D01*
X123337836Y-72573158D01*
X123413044Y-72578913D01*
X123517642Y-72569388D01*
X123621888Y-72540813D01*
X123725781Y-72493188D01*
X123803767Y-72443380D01*
X123872625Y-72382856D01*
X124098844Y-72382856D01*
X124140119Y-72458263D01*
X124184569Y-72486838D01*
X124222669Y-72509063D01*
X124339350Y-72555894D01*
X124415748Y-72573158D01*
X124490956Y-72578913D01*
X124595555Y-72569388D01*
X124699801Y-72540813D01*
X124803694Y-72493188D01*
X124873291Y-72448738D01*
X125160881Y-72448738D01*
X125184297Y-72501919D01*
X125254544Y-72550338D01*
X125348206Y-72577325D01*
X125418056Y-72534463D01*
X125440281Y-72486838D01*
X125757781Y-71791512D01*
X125775045Y-71828223D01*
X125814138Y-71912956D01*
X125865731Y-72025073D01*
X125920500Y-72143938D01*
X125975070Y-72262802D01*
X126026069Y-72374919D01*
X126065955Y-72462231D01*
X126087188Y-72506681D01*
X126113381Y-72548750D01*
X126140369Y-72570975D01*
X126182438Y-72577325D01*
X126262606Y-72550338D01*
X126332853Y-72501919D01*
X126356269Y-72448738D01*
X126332456Y-72372538D01*
X125894306Y-71483538D01*
X125841125Y-71427181D01*
X125765719Y-71405750D01*
X125749844Y-71405750D01*
X125676025Y-71427181D01*
X125622844Y-71483538D01*
X125184694Y-72372538D01*
X125160881Y-72448738D01*
X124873291Y-72448738D01*
X124881680Y-72443380D01*
X124950538Y-72382856D01*
X125009077Y-72308244D01*
X125056106Y-72216169D01*
X125087063Y-72109608D01*
X125097381Y-71991538D01*
X125086864Y-71872277D01*
X125055313Y-71762144D01*
X125007489Y-71666100D01*
X124948156Y-71589106D01*
X124878902Y-71526797D01*
X124801313Y-71474806D01*
X124720747Y-71434722D01*
X124642562Y-71408131D01*
X124565966Y-71393248D01*
X124490162Y-71388287D01*
X124413367Y-71394637D01*
X124333794Y-71413687D01*
X124226637Y-71454962D01*
X124171869Y-71488300D01*
X124121862Y-71527987D01*
X124100431Y-71583550D01*
X124135356Y-71672450D01*
X124190522Y-71739125D01*
X124241719Y-71761350D01*
X124317919Y-71729600D01*
X124346494Y-71708962D01*
X124409200Y-71683562D01*
X124502069Y-71670862D01*
X124604859Y-71688325D01*
X124703681Y-71740712D01*
X124784644Y-71840725D01*
X124808456Y-71908392D01*
X124816394Y-71984394D01*
X124808456Y-72060395D01*
X124784644Y-72128063D01*
X124705269Y-72226488D01*
X124604462Y-72280066D01*
X124502069Y-72297925D01*
X124402056Y-72284431D01*
X124324269Y-72243950D01*
X124243306Y-72209025D01*
X124190919Y-72230456D01*
X124132181Y-72294750D01*
X124098844Y-72382856D01*
X123872625Y-72382856D01*
X123931164Y-72308244D01*
X123978194Y-72216169D01*
X124009150Y-72109608D01*
X124019469Y-71991538D01*
X124008952Y-71872277D01*
X123977400Y-71762144D01*
X123929577Y-71666100D01*
X123870244Y-71589106D01*
X123800989Y-71526797D01*
X123723400Y-71474806D01*
X123642834Y-71434722D01*
X123564650Y-71408131D01*
X123488053Y-71393248D01*
X123412250Y-71388287D01*
X123335455Y-71394637D01*
X123255881Y-71413687D01*
X123148725Y-71454962D01*
X123093956Y-71488300D01*
X123043950Y-71527987D01*
X123022519Y-71583550D01*
X123057444Y-71672450D01*
X123112609Y-71739125D01*
X123163806Y-71761350D01*
X123240006Y-71729600D01*
X123268581Y-71708962D01*
X123331287Y-71683562D01*
X123424156Y-71670862D01*
X123526947Y-71688325D01*
X123625769Y-71740712D01*
X123706731Y-71840725D01*
X123730544Y-71908392D01*
X123738481Y-71984394D01*
X123730544Y-72060395D01*
X123706731Y-72128063D01*
X123627356Y-72226488D01*
X123526550Y-72280066D01*
X123424156Y-72297925D01*
X123324144Y-72284431D01*
X123246356Y-72243950D01*
X123165394Y-72209025D01*
X123113006Y-72230456D01*
X123054269Y-72294750D01*
X123020931Y-72382856D01*
X122242131Y-72382856D01*
X122508301Y-71983600D01*
G37*
%TO.C,kibuzzard-6268B622*%
G36*
X123885457Y-79527400D02*
G01*
X123745757Y-79317850D01*
X124398087Y-79317850D01*
X124411184Y-79398812D01*
X124450475Y-79470250D01*
X124500481Y-79521844D01*
X124547312Y-79555975D01*
X124547312Y-79567088D01*
X124478521Y-79616917D01*
X124437246Y-79683857D01*
X124423487Y-79767906D01*
X124436011Y-79857424D01*
X124473582Y-79940767D01*
X124536200Y-80017938D01*
X124620514Y-80079674D01*
X124723172Y-80116715D01*
X124844175Y-80129063D01*
X124922955Y-80123506D01*
X124994194Y-80106838D01*
X125098969Y-80057625D01*
X125164850Y-79994919D01*
X125199775Y-79944913D01*
X125236287Y-79836963D01*
X125216444Y-79780209D01*
X125156912Y-79730600D01*
X125069600Y-79702025D01*
X125009275Y-79721869D01*
X124964825Y-79781400D01*
X124955300Y-79800450D01*
X124914025Y-79838550D01*
X124824331Y-79857600D01*
X124736225Y-79827438D01*
X124704475Y-79763938D01*
X124734637Y-79717503D01*
X124825125Y-79702025D01*
X124907675Y-79694088D01*
X124951728Y-79650828D01*
X124966412Y-79562325D01*
X124961812Y-79527400D01*
X125363288Y-79527400D01*
X125368579Y-79632351D01*
X125384454Y-79733422D01*
X125410913Y-79830613D01*
X125444052Y-79910781D01*
X125486319Y-79979838D01*
X125541881Y-80038178D01*
X125614906Y-80086200D01*
X125703608Y-80118347D01*
X125806200Y-80129063D01*
X125909189Y-80118148D01*
X125999081Y-80085406D01*
X126073098Y-80036591D01*
X126128463Y-79977456D01*
X126172317Y-79901058D01*
X126211806Y-79800450D01*
X126232532Y-79720193D01*
X126244967Y-79629706D01*
X126249113Y-79528988D01*
X126243997Y-79417686D01*
X126228651Y-79314499D01*
X126203075Y-79219425D01*
X126168745Y-79139653D01*
X126126081Y-79071787D01*
X126070122Y-79014836D01*
X125995906Y-78967806D01*
X125906411Y-78936255D01*
X125804613Y-78925737D01*
X125703211Y-78936056D01*
X125614906Y-78967012D01*
X125542080Y-79013844D01*
X125487113Y-79071787D01*
X125432939Y-79163366D01*
X125394244Y-79269828D01*
X125371027Y-79391173D01*
X125363288Y-79527400D01*
X124961812Y-79527400D01*
X124955697Y-79480966D01*
X124923550Y-79440087D01*
X124882275Y-79424212D01*
X124810044Y-79421037D01*
X124717969Y-79388494D01*
X124679075Y-79313087D01*
X124718762Y-79236094D01*
X124769562Y-79210495D01*
X124842587Y-79201962D01*
X124909262Y-79211487D01*
X124996575Y-79287687D01*
X125044200Y-79370237D01*
X125128337Y-79386112D01*
X125245019Y-79363094D01*
X125283912Y-79294037D01*
X125266450Y-79208312D01*
X125263275Y-79192437D01*
X125245812Y-79151162D01*
X125206522Y-79088059D01*
X125161675Y-79038450D01*
X125069953Y-78976714D01*
X124964119Y-78939672D01*
X124844175Y-78927325D01*
X124723349Y-78939584D01*
X124616986Y-78976361D01*
X124525087Y-79037656D01*
X124454532Y-79117825D01*
X124412199Y-79211223D01*
X124398087Y-79317850D01*
X123745757Y-79317850D01*
X123142595Y-78413107D01*
X126761743Y-78413107D01*
X127504605Y-79527400D01*
X126761743Y-80641693D01*
X123142595Y-80641693D01*
X123885457Y-79527400D01*
G37*
G36*
X125877935Y-79228305D02*
G01*
X125928041Y-79288283D01*
X125958104Y-79388246D01*
X125968125Y-79528194D01*
X125958005Y-79668142D01*
X125927644Y-79768105D01*
X125877042Y-79828082D01*
X125806200Y-79848075D01*
X125735358Y-79828132D01*
X125684756Y-79768303D01*
X125654395Y-79668588D01*
X125644275Y-79528988D01*
X125644275Y-79519462D01*
X125654495Y-79383334D01*
X125685153Y-79286100D01*
X125736251Y-79227759D01*
X125807788Y-79208312D01*
X125877935Y-79228305D01*
G37*
%TO.C,kibuzzard-6268B781*%
G36*
X96448783Y-71882000D02*
G01*
X97186882Y-70774851D01*
X100756817Y-70774851D01*
X100018718Y-71882000D01*
X100756817Y-72989149D01*
X97186882Y-72989149D01*
X96542446Y-72022494D01*
X97699512Y-72022494D01*
X97720150Y-72076469D01*
X97782062Y-72127269D01*
X97869375Y-72160606D01*
X97920175Y-72147113D01*
X97947956Y-72120125D01*
X97974150Y-72076469D01*
X98182112Y-71676419D01*
X98390075Y-72076469D01*
X98432144Y-72140763D01*
X98486912Y-72162194D01*
X98582162Y-72127269D01*
X98644075Y-72076072D01*
X98664713Y-72020906D01*
X98632963Y-71935181D01*
X98488732Y-71688325D01*
X98728213Y-71688325D01*
X98741618Y-71792218D01*
X98781835Y-71884822D01*
X98848863Y-71966138D01*
X98932647Y-72029197D01*
X99023135Y-72067032D01*
X99120325Y-72079644D01*
X99175888Y-72076469D01*
X99160013Y-72197119D01*
X98882200Y-72197119D01*
X98830606Y-72199500D01*
X98791713Y-72214581D01*
X98761947Y-72253872D01*
X98752025Y-72330469D01*
X98762741Y-72414606D01*
X98794888Y-72457469D01*
X98836163Y-72472550D01*
X98891725Y-72474931D01*
X99040950Y-72474931D01*
X99282250Y-72476519D01*
X99346544Y-72461438D01*
X99387819Y-72427306D01*
X99410838Y-72384444D01*
X99421950Y-72351106D01*
X99431078Y-72285225D01*
X99455288Y-72106631D01*
X99479100Y-71925259D01*
X99487038Y-71851044D01*
X99469575Y-71812150D01*
X99395756Y-71763731D01*
X99295744Y-71733569D01*
X99209225Y-71770081D01*
X99133025Y-71798656D01*
X99048094Y-71767700D01*
X99010788Y-71683562D01*
X99044919Y-71600219D01*
X99149694Y-71570056D01*
X99248913Y-71603394D01*
X99355275Y-71654194D01*
X99447350Y-71601806D01*
X99506088Y-71498619D01*
X99445763Y-71403369D01*
X99433063Y-71392256D01*
X99393375Y-71362094D01*
X99310825Y-71320642D01*
X99221925Y-71295772D01*
X99126675Y-71287481D01*
X99019607Y-71300622D01*
X98924886Y-71340045D01*
X98842513Y-71405750D01*
X98779013Y-71489711D01*
X98740913Y-71583903D01*
X98728213Y-71688325D01*
X98488732Y-71688325D01*
X98302762Y-71370031D01*
X98288475Y-71352569D01*
X98244819Y-71318437D01*
X98179731Y-71301769D01*
X98110675Y-71323200D01*
X98059875Y-71371619D01*
X97731262Y-71935181D01*
X97699512Y-72022494D01*
X96542446Y-72022494D01*
X96448783Y-71882000D01*
G37*
%TO.C,kibuzzard-6268BA3D*%
G36*
X98734562Y-84989988D02*
G01*
X98582162Y-84989988D01*
X98469252Y-84968358D01*
X98371819Y-84903469D01*
X98304548Y-84806433D01*
X98282125Y-84688363D01*
X98305144Y-84570689D01*
X98374200Y-84474844D01*
X98471831Y-84411145D01*
X98580575Y-84389912D01*
X98734562Y-84389912D01*
X98734562Y-84989988D01*
G37*
G36*
X96319137Y-84683600D02*
G01*
X97104332Y-83505807D01*
X103934463Y-83505807D01*
X103149268Y-84683600D01*
X103934463Y-85861393D01*
X97104332Y-85861393D01*
X96616529Y-85129688D01*
X97616962Y-85129688D01*
X97624900Y-85212238D01*
X97668159Y-85256291D01*
X97756662Y-85270975D01*
X97838419Y-85260259D01*
X97880487Y-85228113D01*
X97895569Y-85186044D01*
X97897950Y-85131275D01*
X97897950Y-84697094D01*
X98001137Y-84697094D01*
X98012052Y-84813378D01*
X98044794Y-84920138D01*
X98099364Y-85017372D01*
X98175762Y-85105081D01*
X98266548Y-85177660D01*
X98364278Y-85229502D01*
X98468954Y-85260607D01*
X98580575Y-85270975D01*
X98874262Y-85272563D01*
X98956019Y-85261847D01*
X98998087Y-85229700D01*
X99013169Y-85188425D01*
X99014530Y-85156675D01*
X99102862Y-85156675D01*
X99110800Y-85223350D01*
X99142550Y-85260656D01*
X99217162Y-85272563D01*
X100099812Y-85272563D01*
X100180775Y-85258275D01*
X100200859Y-85232875D01*
X100263325Y-85232875D01*
X100284756Y-85280103D01*
X100349050Y-85323363D01*
X100429219Y-85348763D01*
X100466525Y-85342413D01*
X100520500Y-85272563D01*
X100589619Y-85128100D01*
X101138038Y-85128100D01*
X101145975Y-85212238D01*
X101168200Y-85246369D01*
X101209475Y-85264625D01*
X101284881Y-85272563D01*
X101374575Y-85231288D01*
X101379338Y-85228113D01*
X101486645Y-85131275D01*
X101784150Y-85131275D01*
X101786531Y-85186838D01*
X101801613Y-85228906D01*
X101844475Y-85262244D01*
X101924644Y-85272563D01*
X102005606Y-85263831D01*
X102049263Y-85232875D01*
X102064344Y-85193188D01*
X102066725Y-85139213D01*
X102066725Y-84705825D01*
X102325488Y-84705825D01*
X102228650Y-85093175D01*
X102227063Y-85097938D01*
X102215950Y-85164613D01*
X102243731Y-85225731D01*
X102327075Y-85266213D01*
X102400100Y-85277325D01*
X102454869Y-85259863D01*
X102483444Y-85223350D01*
X102500113Y-85167788D01*
X102631875Y-84635975D01*
X102636638Y-84572475D01*
X102628700Y-84504212D01*
X102585441Y-84458969D01*
X102496938Y-84443887D01*
X102066725Y-84443887D01*
X102066725Y-84250212D01*
X102057200Y-84167662D01*
X102036563Y-84135912D01*
X101995288Y-84116862D01*
X101922263Y-84108925D01*
X101845269Y-84118450D01*
X101799231Y-84157344D01*
X101784150Y-84248625D01*
X101784150Y-85131275D01*
X101486645Y-85131275D01*
X101639688Y-84993163D01*
X101696838Y-84899500D01*
X101646831Y-84801075D01*
X101550788Y-84745513D01*
X101439663Y-84794725D01*
X101419025Y-84813775D01*
X101419025Y-84247037D01*
X101416644Y-84189094D01*
X101401563Y-84145437D01*
X101359097Y-84114481D01*
X101279325Y-84104162D01*
X101197569Y-84114878D01*
X101155500Y-84147025D01*
X101140419Y-84189094D01*
X101138038Y-84243862D01*
X101138038Y-85128100D01*
X100589619Y-85128100D01*
X101031675Y-84204175D01*
X101050725Y-84124800D01*
X101032469Y-84084319D01*
X100961825Y-84042250D01*
X100882450Y-84018437D01*
X100838794Y-84030344D01*
X100814981Y-84054950D01*
X100795138Y-84094637D01*
X100285550Y-85153500D01*
X100263325Y-85232875D01*
X100200859Y-85232875D01*
X100207763Y-85224144D01*
X100215700Y-85158263D01*
X100207763Y-85091588D01*
X100176013Y-85054281D01*
X100101400Y-85042375D01*
X99796600Y-85042375D01*
X99796600Y-84245450D01*
X99794219Y-84190681D01*
X99779931Y-84149406D01*
X99738656Y-84116862D01*
X99660075Y-84107337D01*
X99580700Y-84116862D01*
X99538631Y-84149406D01*
X99524344Y-84189887D01*
X99521962Y-84243862D01*
X99521962Y-85042375D01*
X99218750Y-85042375D01*
X99137787Y-85056663D01*
X99110800Y-85090794D01*
X99102862Y-85156675D01*
X99014530Y-85156675D01*
X99015550Y-85132863D01*
X99015550Y-84250212D01*
X98996500Y-84148612D01*
X98954431Y-84118847D01*
X98875850Y-84108925D01*
X98585337Y-84108925D01*
X98468408Y-84119740D01*
X98360508Y-84152184D01*
X98261636Y-84206259D01*
X98171794Y-84281962D01*
X98097132Y-84372797D01*
X98043802Y-84472264D01*
X98011804Y-84580363D01*
X98001137Y-84697094D01*
X97897950Y-84697094D01*
X97897950Y-84248625D01*
X97888425Y-84167662D01*
X97846356Y-84122419D01*
X97758250Y-84107337D01*
X97676494Y-84118053D01*
X97634425Y-84150200D01*
X97619344Y-84191475D01*
X97616962Y-84247037D01*
X97616962Y-85129688D01*
X96616529Y-85129688D01*
X96319137Y-84683600D01*
G37*
%TO.C,kibuzzard-6268B659*%
G36*
X124023570Y-84480400D02*
G01*
X123889691Y-84279581D01*
X124536200Y-84279581D01*
X124549606Y-84383474D01*
X124589822Y-84476078D01*
X124656850Y-84557394D01*
X124740635Y-84620453D01*
X124831122Y-84658288D01*
X124928312Y-84670900D01*
X124983875Y-84667725D01*
X124968000Y-84788375D01*
X124690187Y-84788375D01*
X124638594Y-84790756D01*
X124599700Y-84805838D01*
X124569934Y-84845128D01*
X124560012Y-84921725D01*
X124570728Y-85005863D01*
X124602875Y-85048725D01*
X124644150Y-85063806D01*
X124699712Y-85066188D01*
X124848937Y-85066188D01*
X125090237Y-85067775D01*
X125154531Y-85052694D01*
X125195806Y-85018563D01*
X125218825Y-84975700D01*
X125229937Y-84942363D01*
X125239066Y-84876481D01*
X125263275Y-84697888D01*
X125287087Y-84516516D01*
X125290950Y-84480400D01*
X125377575Y-84480400D01*
X125382867Y-84585351D01*
X125398742Y-84686422D01*
X125425200Y-84783613D01*
X125458339Y-84863781D01*
X125500606Y-84932838D01*
X125556169Y-84991178D01*
X125629194Y-85039200D01*
X125717895Y-85071347D01*
X125820488Y-85082063D01*
X125923477Y-85071148D01*
X126013369Y-85038406D01*
X126087386Y-84989591D01*
X126142750Y-84930456D01*
X126186605Y-84854058D01*
X126226094Y-84753450D01*
X126246819Y-84673193D01*
X126259255Y-84582706D01*
X126263400Y-84481988D01*
X126258285Y-84370686D01*
X126242939Y-84267499D01*
X126217363Y-84172425D01*
X126183033Y-84092653D01*
X126140369Y-84024787D01*
X126084409Y-83967836D01*
X126010194Y-83920806D01*
X125920698Y-83889255D01*
X125818900Y-83878737D01*
X125717498Y-83889056D01*
X125629194Y-83920012D01*
X125556367Y-83966844D01*
X125501400Y-84024787D01*
X125447227Y-84116366D01*
X125408531Y-84222828D01*
X125385314Y-84344173D01*
X125377575Y-84480400D01*
X125290950Y-84480400D01*
X125295025Y-84442300D01*
X125277562Y-84403406D01*
X125203744Y-84354987D01*
X125103731Y-84324825D01*
X125017212Y-84361337D01*
X124941012Y-84389912D01*
X124856081Y-84358956D01*
X124818775Y-84274819D01*
X124852906Y-84191475D01*
X124957681Y-84161312D01*
X125056900Y-84194650D01*
X125163262Y-84245450D01*
X125255337Y-84193062D01*
X125314075Y-84089875D01*
X125253750Y-83994625D01*
X125241050Y-83983512D01*
X125201362Y-83953350D01*
X125118812Y-83911899D01*
X125029912Y-83887028D01*
X124934662Y-83878737D01*
X124827594Y-83891878D01*
X124732874Y-83931301D01*
X124650500Y-83997006D01*
X124587000Y-84080967D01*
X124548900Y-84175159D01*
X124536200Y-84279581D01*
X123889691Y-84279581D01*
X123280708Y-83366107D01*
X126776030Y-83366107D01*
X127518892Y-84480400D01*
X126776030Y-85594693D01*
X123280708Y-85594693D01*
X124023570Y-84480400D01*
G37*
G36*
X125892223Y-84181305D02*
G01*
X125942328Y-84241283D01*
X125972391Y-84341246D01*
X125982413Y-84481194D01*
X125972292Y-84621142D01*
X125941931Y-84721105D01*
X125891330Y-84781082D01*
X125820488Y-84801075D01*
X125749645Y-84781132D01*
X125699044Y-84721303D01*
X125668683Y-84621588D01*
X125658563Y-84481988D01*
X125658563Y-84472462D01*
X125668782Y-84336334D01*
X125699441Y-84239100D01*
X125750538Y-84180759D01*
X125822075Y-84161312D01*
X125892223Y-84181305D01*
G37*
%TO.C,kibuzzard-6268BA5F*%
G36*
X103994611Y-89712800D02*
G01*
X104779807Y-90890593D01*
X97122589Y-90890593D01*
X96337393Y-89712800D01*
X96632139Y-89270681D01*
X97635219Y-89270681D01*
X97687606Y-89369900D01*
X97747237Y-89435880D01*
X97824528Y-89516347D01*
X97919480Y-89611299D01*
X98032094Y-89720738D01*
X97968594Y-89781063D01*
X97878106Y-89868970D01*
X97800319Y-89946956D01*
X97735231Y-90015020D01*
X97682844Y-90073163D01*
X97635219Y-90169206D01*
X97698719Y-90264456D01*
X97803494Y-90319225D01*
X97900331Y-90254138D01*
X97956973Y-90188415D01*
X98020219Y-90115708D01*
X98090069Y-90036015D01*
X98166523Y-89949338D01*
X98249581Y-89855675D01*
X98249581Y-90158888D01*
X98257519Y-90241438D01*
X98300778Y-90285491D01*
X98389281Y-90300175D01*
X98471037Y-90289459D01*
X98513106Y-90257313D01*
X98528187Y-90215244D01*
X98530569Y-90160475D01*
X98530569Y-90115231D01*
X98633756Y-90115231D01*
X98675031Y-90190638D01*
X98719481Y-90219213D01*
X98757581Y-90241438D01*
X98874262Y-90288269D01*
X98950661Y-90305533D01*
X99025869Y-90311288D01*
X99130467Y-90301763D01*
X99234713Y-90273188D01*
X99338606Y-90225563D01*
X99400747Y-90185875D01*
X99695794Y-90185875D01*
X99703731Y-90252550D01*
X99735481Y-90289856D01*
X99810094Y-90301763D01*
X100692744Y-90301763D01*
X100773706Y-90287475D01*
X100793790Y-90262075D01*
X100856256Y-90262075D01*
X100877688Y-90309303D01*
X100941981Y-90352563D01*
X101022150Y-90377963D01*
X101059456Y-90371613D01*
X101113431Y-90301763D01*
X101332180Y-89844563D01*
X101707156Y-89844563D01*
X101718798Y-89975708D01*
X101753723Y-90089743D01*
X101811931Y-90186669D01*
X101893247Y-90260311D01*
X101997492Y-90304497D01*
X102124669Y-90319225D01*
X102228209Y-90307231D01*
X102320813Y-90271247D01*
X102402481Y-90211275D01*
X102465981Y-90133488D01*
X102504081Y-90044058D01*
X102516781Y-89942988D01*
X102504346Y-89859115D01*
X102467040Y-89781063D01*
X102404863Y-89708831D01*
X102325399Y-89651064D01*
X102236235Y-89616403D01*
X102137369Y-89604850D01*
X102018306Y-89631837D01*
X102026244Y-89609612D01*
X102057597Y-89554050D01*
X102100642Y-89506425D01*
X102596156Y-89506425D01*
X102609253Y-89587387D01*
X102648544Y-89658825D01*
X102698550Y-89710419D01*
X102745381Y-89744550D01*
X102745381Y-89755663D01*
X102676590Y-89805492D01*
X102635315Y-89872432D01*
X102621556Y-89956481D01*
X102634080Y-90045999D01*
X102671651Y-90129342D01*
X102734269Y-90206513D01*
X102818583Y-90268249D01*
X102921241Y-90305290D01*
X103042244Y-90317638D01*
X103121023Y-90312081D01*
X103192263Y-90295413D01*
X103297038Y-90246200D01*
X103362919Y-90183494D01*
X103397844Y-90133488D01*
X103434356Y-90025538D01*
X103414513Y-89968784D01*
X103354981Y-89919175D01*
X103267669Y-89890600D01*
X103207344Y-89910444D01*
X103162894Y-89969975D01*
X103153369Y-89989025D01*
X103112094Y-90027125D01*
X103022400Y-90046175D01*
X102934294Y-90016013D01*
X102902544Y-89952513D01*
X102932706Y-89906078D01*
X103023194Y-89890600D01*
X103105744Y-89882663D01*
X103149797Y-89839403D01*
X103164481Y-89750900D01*
X103153766Y-89669541D01*
X103121619Y-89628662D01*
X103080344Y-89612787D01*
X103008113Y-89609612D01*
X102916038Y-89577069D01*
X102877144Y-89501662D01*
X102916831Y-89424669D01*
X102967631Y-89399070D01*
X103040656Y-89390537D01*
X103107331Y-89400062D01*
X103194644Y-89476262D01*
X103242269Y-89558812D01*
X103326406Y-89574687D01*
X103443088Y-89551669D01*
X103481981Y-89482612D01*
X103464519Y-89396887D01*
X103461344Y-89381012D01*
X103443881Y-89339737D01*
X103404591Y-89276634D01*
X103359744Y-89227025D01*
X103268022Y-89165289D01*
X103162188Y-89128247D01*
X103042244Y-89115900D01*
X102921417Y-89128159D01*
X102815055Y-89164936D01*
X102723156Y-89226231D01*
X102652601Y-89306400D01*
X102610267Y-89399798D01*
X102596156Y-89506425D01*
X102100642Y-89506425D01*
X102113556Y-89492137D01*
X102208013Y-89438162D01*
X102334219Y-89415937D01*
X102426294Y-89406412D01*
X102471538Y-89364344D01*
X102486619Y-89276237D01*
X102475506Y-89195672D01*
X102442169Y-89150825D01*
X102356444Y-89134950D01*
X102346919Y-89134950D01*
X102233190Y-89143078D01*
X102129495Y-89167462D01*
X102035832Y-89208102D01*
X101952203Y-89264998D01*
X101878606Y-89338150D01*
X101816884Y-89423430D01*
X101768878Y-89516712D01*
X101734588Y-89617994D01*
X101714014Y-89727278D01*
X101707156Y-89844563D01*
X101332180Y-89844563D01*
X101624606Y-89233375D01*
X101643656Y-89154000D01*
X101625400Y-89113519D01*
X101554756Y-89071450D01*
X101475381Y-89047637D01*
X101431725Y-89059544D01*
X101407913Y-89084150D01*
X101388069Y-89123837D01*
X100878481Y-90182700D01*
X100856256Y-90262075D01*
X100793790Y-90262075D01*
X100800694Y-90253344D01*
X100808631Y-90187463D01*
X100800694Y-90120788D01*
X100768944Y-90083481D01*
X100694331Y-90071575D01*
X100389531Y-90071575D01*
X100389531Y-89274650D01*
X100387150Y-89219881D01*
X100372862Y-89178606D01*
X100331587Y-89146062D01*
X100253006Y-89136537D01*
X100173631Y-89146062D01*
X100131562Y-89178606D01*
X100117275Y-89219087D01*
X100114894Y-89273062D01*
X100114894Y-90071575D01*
X99811681Y-90071575D01*
X99730719Y-90085863D01*
X99703731Y-90119994D01*
X99695794Y-90185875D01*
X99400747Y-90185875D01*
X99416592Y-90175755D01*
X99485450Y-90115231D01*
X99543989Y-90040619D01*
X99591019Y-89948544D01*
X99621975Y-89841983D01*
X99632294Y-89723913D01*
X99621777Y-89604652D01*
X99590225Y-89494519D01*
X99542402Y-89398475D01*
X99483069Y-89321481D01*
X99413814Y-89259172D01*
X99336225Y-89207181D01*
X99255659Y-89167097D01*
X99177475Y-89140506D01*
X99100878Y-89125623D01*
X99025075Y-89120662D01*
X98948280Y-89127012D01*
X98868706Y-89146062D01*
X98761550Y-89187337D01*
X98706781Y-89220675D01*
X98656775Y-89260362D01*
X98635344Y-89315925D01*
X98670269Y-89404825D01*
X98725434Y-89471500D01*
X98776631Y-89493725D01*
X98852831Y-89461975D01*
X98881406Y-89441337D01*
X98944112Y-89415937D01*
X99036981Y-89403237D01*
X99139772Y-89420700D01*
X99238594Y-89473087D01*
X99319556Y-89573100D01*
X99343369Y-89640767D01*
X99351306Y-89716769D01*
X99343369Y-89792770D01*
X99319556Y-89860438D01*
X99240181Y-89958863D01*
X99139375Y-90012441D01*
X99036981Y-90030300D01*
X98936969Y-90016806D01*
X98859181Y-89976325D01*
X98778219Y-89941400D01*
X98725831Y-89962831D01*
X98667094Y-90027125D01*
X98633756Y-90115231D01*
X98530569Y-90115231D01*
X98530569Y-89277825D01*
X98521044Y-89196862D01*
X98478975Y-89151619D01*
X98390869Y-89136537D01*
X98309112Y-89147253D01*
X98267044Y-89179400D01*
X98251962Y-89220675D01*
X98249581Y-89276237D01*
X98249581Y-89585800D01*
X97900331Y-89187337D01*
X97802700Y-89120662D01*
X97698719Y-89175431D01*
X97635219Y-89270681D01*
X96632139Y-89270681D01*
X97122589Y-88535007D01*
X104779807Y-88535007D01*
X103994611Y-89712800D01*
G37*
G36*
X102212775Y-89884250D02*
G01*
X102240556Y-89952513D01*
X102209997Y-90032284D01*
X102118319Y-90058875D01*
X102016719Y-90022363D01*
X102000050Y-89986644D01*
X101996081Y-89940606D01*
X102028625Y-89881869D01*
X102123081Y-89852500D01*
X102212775Y-89884250D01*
G37*
%TO.C,kibuzzard-6268B673*%
G36*
X125890635Y-86695905D02*
G01*
X125940741Y-86755883D01*
X125970804Y-86855846D01*
X125980825Y-86995794D01*
X125970705Y-87135742D01*
X125940344Y-87235705D01*
X125889742Y-87295682D01*
X125818900Y-87315675D01*
X125748058Y-87295732D01*
X125697456Y-87235903D01*
X125667095Y-87136188D01*
X125656975Y-86996588D01*
X125656975Y-86987062D01*
X125667195Y-86850934D01*
X125697853Y-86753700D01*
X125748951Y-86695359D01*
X125820488Y-86675912D01*
X125890635Y-86695905D01*
G37*
G36*
X124988637Y-86691787D02*
G01*
X125003719Y-86726712D01*
X125007687Y-86772750D01*
X124975144Y-86832281D01*
X124881481Y-86861650D01*
X124792581Y-86829900D01*
X124764800Y-86761637D01*
X124795359Y-86681866D01*
X124887037Y-86655275D01*
X124988637Y-86691787D01*
G37*
G36*
X123974357Y-86995000D02*
G01*
X123825132Y-86771162D01*
X124486987Y-86771162D01*
X124499423Y-86855035D01*
X124536729Y-86933087D01*
X124598906Y-87005319D01*
X124678546Y-87063086D01*
X124768240Y-87097747D01*
X124867987Y-87109300D01*
X124985462Y-87082313D01*
X124977525Y-87104538D01*
X124948156Y-87160100D01*
X124891800Y-87222013D01*
X124795756Y-87275988D01*
X124669550Y-87298213D01*
X124577475Y-87307738D01*
X124545725Y-87328375D01*
X124526675Y-87369650D01*
X124518737Y-87442675D01*
X124528262Y-87518875D01*
X124565569Y-87564119D01*
X124653675Y-87579200D01*
X124768007Y-87571072D01*
X124872242Y-87546688D01*
X124966381Y-87506048D01*
X125050423Y-87449152D01*
X125124369Y-87376000D01*
X125186376Y-87290720D01*
X125234605Y-87197438D01*
X125269053Y-87096156D01*
X125288186Y-86995000D01*
X125375988Y-86995000D01*
X125381279Y-87099951D01*
X125397154Y-87201022D01*
X125423613Y-87298213D01*
X125456752Y-87378381D01*
X125499019Y-87447438D01*
X125554581Y-87505778D01*
X125627606Y-87553800D01*
X125716308Y-87585947D01*
X125818900Y-87596663D01*
X125921889Y-87585748D01*
X126011781Y-87553006D01*
X126085798Y-87504191D01*
X126141163Y-87445056D01*
X126185017Y-87368658D01*
X126224506Y-87268050D01*
X126245232Y-87187793D01*
X126257667Y-87097306D01*
X126261813Y-86996588D01*
X126256697Y-86885286D01*
X126241351Y-86782099D01*
X126215775Y-86687025D01*
X126181445Y-86607253D01*
X126138781Y-86539387D01*
X126082822Y-86482436D01*
X126008606Y-86435406D01*
X125919111Y-86403855D01*
X125817313Y-86393337D01*
X125715911Y-86403656D01*
X125627606Y-86434612D01*
X125554780Y-86481444D01*
X125499813Y-86539387D01*
X125445639Y-86630966D01*
X125406944Y-86737428D01*
X125383727Y-86858773D01*
X125375988Y-86995000D01*
X125288186Y-86995000D01*
X125289723Y-86986872D01*
X125296612Y-86869587D01*
X125284971Y-86738442D01*
X125250046Y-86624407D01*
X125191837Y-86527481D01*
X125110699Y-86453839D01*
X125006982Y-86409653D01*
X124880687Y-86394925D01*
X124777059Y-86406919D01*
X124684190Y-86442903D01*
X124602081Y-86502875D01*
X124538140Y-86580662D01*
X124499776Y-86670092D01*
X124486987Y-86771162D01*
X123825132Y-86771162D01*
X123231495Y-85880707D01*
X126774443Y-85880707D01*
X127517305Y-86995000D01*
X126774443Y-88109293D01*
X123231495Y-88109293D01*
X123974357Y-86995000D01*
G37*
%TO.C,kibuzzard-6268B874*%
G36*
X96624731Y-102285800D02*
G01*
X97367064Y-101172301D01*
X100936469Y-101172301D01*
X100194136Y-102285800D01*
X100936469Y-103399299D01*
X97367064Y-103399299D01*
X96920535Y-102729506D01*
X97879694Y-102729506D01*
X97882075Y-102785069D01*
X97897156Y-102827138D01*
X97940019Y-102860475D01*
X98020187Y-102870794D01*
X98101150Y-102862063D01*
X98144806Y-102831106D01*
X98159887Y-102791419D01*
X98162269Y-102737444D01*
X98162269Y-102304056D01*
X98421031Y-102304056D01*
X98324194Y-102691406D01*
X98322606Y-102696169D01*
X98311494Y-102762844D01*
X98339275Y-102823963D01*
X98422619Y-102864444D01*
X98495644Y-102875556D01*
X98550412Y-102858094D01*
X98578987Y-102821581D01*
X98595656Y-102766019D01*
X98727419Y-102234206D01*
X98732181Y-102170706D01*
X98724244Y-102102444D01*
X98698439Y-102075456D01*
X98795681Y-102075456D01*
X98808778Y-102156419D01*
X98848069Y-102227856D01*
X98898075Y-102279450D01*
X98944906Y-102313581D01*
X98944906Y-102324694D01*
X98876115Y-102374524D01*
X98834840Y-102441463D01*
X98821081Y-102525513D01*
X98833605Y-102615030D01*
X98871176Y-102698374D01*
X98933794Y-102775544D01*
X99018108Y-102837280D01*
X99120766Y-102874322D01*
X99241769Y-102886669D01*
X99320548Y-102881113D01*
X99391788Y-102864444D01*
X99496563Y-102815231D01*
X99562444Y-102752525D01*
X99597369Y-102702519D01*
X99633881Y-102594569D01*
X99614038Y-102537816D01*
X99554506Y-102488206D01*
X99467194Y-102459631D01*
X99406869Y-102479475D01*
X99362419Y-102539006D01*
X99352894Y-102558056D01*
X99311619Y-102596156D01*
X99221925Y-102615206D01*
X99133819Y-102585044D01*
X99102069Y-102521544D01*
X99132231Y-102475109D01*
X99222719Y-102459631D01*
X99305269Y-102451694D01*
X99349322Y-102408434D01*
X99364006Y-102319931D01*
X99353291Y-102238572D01*
X99321144Y-102197694D01*
X99279869Y-102181819D01*
X99207638Y-102178644D01*
X99115563Y-102146100D01*
X99076669Y-102070694D01*
X99116356Y-101993700D01*
X99167156Y-101968102D01*
X99240181Y-101959569D01*
X99306856Y-101969094D01*
X99394169Y-102045294D01*
X99441794Y-102127844D01*
X99525931Y-102143719D01*
X99642613Y-102120700D01*
X99681506Y-102051644D01*
X99664044Y-101965919D01*
X99660869Y-101950044D01*
X99643406Y-101908769D01*
X99604116Y-101845666D01*
X99559269Y-101796056D01*
X99467547Y-101734320D01*
X99361713Y-101697278D01*
X99241769Y-101684931D01*
X99120942Y-101697190D01*
X99014580Y-101733967D01*
X98922681Y-101795262D01*
X98852126Y-101875431D01*
X98809792Y-101968829D01*
X98795681Y-102075456D01*
X98698439Y-102075456D01*
X98680984Y-102057200D01*
X98592481Y-102042119D01*
X98162269Y-102042119D01*
X98162269Y-101848444D01*
X98152744Y-101765894D01*
X98132106Y-101734144D01*
X98090831Y-101715094D01*
X98017806Y-101707156D01*
X97940812Y-101716681D01*
X97894775Y-101755575D01*
X97879694Y-101846856D01*
X97879694Y-102729506D01*
X96920535Y-102729506D01*
X96624731Y-102285800D01*
G37*
%TO.C,kibuzzard-6268BA4E*%
G36*
X102501998Y-86927680D02*
G01*
X102552103Y-86987658D01*
X102582166Y-87087621D01*
X102592188Y-87227569D01*
X102582067Y-87367517D01*
X102551706Y-87467480D01*
X102501105Y-87527457D01*
X102430263Y-87547450D01*
X102359420Y-87527507D01*
X102308819Y-87467678D01*
X102278458Y-87367963D01*
X102268338Y-87228363D01*
X102268338Y-87218837D01*
X102278557Y-87082709D01*
X102309216Y-86985475D01*
X102360313Y-86927134D01*
X102431850Y-86907687D01*
X102501998Y-86927680D01*
G37*
G36*
X96346125Y-87223600D02*
G01*
X97131320Y-86045807D01*
X105126675Y-86045807D01*
X104341480Y-87223600D01*
X105126675Y-88401393D01*
X97131320Y-88401393D01*
X96353004Y-87233919D01*
X97643950Y-87233919D01*
X97654765Y-87354618D01*
X97687209Y-87465098D01*
X97741284Y-87565359D01*
X97816987Y-87655400D01*
X97907376Y-87729715D01*
X98005503Y-87782797D01*
X98111370Y-87814646D01*
X98224975Y-87825263D01*
X98332925Y-87814150D01*
X98437700Y-87780813D01*
X98534934Y-87728028D01*
X98620262Y-87658575D01*
X98691700Y-87571461D01*
X98747262Y-87465694D01*
X98782981Y-87346433D01*
X98793183Y-87237094D01*
X98874262Y-87237094D01*
X98885177Y-87353378D01*
X98917919Y-87460138D01*
X98972489Y-87557372D01*
X99048887Y-87645081D01*
X99139673Y-87717660D01*
X99237403Y-87769502D01*
X99342079Y-87800607D01*
X99453700Y-87810975D01*
X99747387Y-87812563D01*
X99829144Y-87801847D01*
X99871212Y-87769700D01*
X99886294Y-87728425D01*
X99887655Y-87696675D01*
X99975987Y-87696675D01*
X99983925Y-87763350D01*
X100015675Y-87800656D01*
X100090287Y-87812563D01*
X100972938Y-87812563D01*
X101053900Y-87798275D01*
X101073984Y-87772875D01*
X101136450Y-87772875D01*
X101157881Y-87820103D01*
X101222175Y-87863363D01*
X101302344Y-87888763D01*
X101339650Y-87882413D01*
X101393625Y-87812563D01*
X101673898Y-87226775D01*
X101987350Y-87226775D01*
X101992642Y-87331726D01*
X102008517Y-87432797D01*
X102034975Y-87529988D01*
X102068114Y-87610156D01*
X102110381Y-87679213D01*
X102165944Y-87737553D01*
X102238969Y-87785575D01*
X102327670Y-87817722D01*
X102430263Y-87828438D01*
X102533252Y-87817523D01*
X102623144Y-87784781D01*
X102697161Y-87735966D01*
X102752525Y-87676831D01*
X102755714Y-87671275D01*
X102976363Y-87671275D01*
X102978744Y-87726838D01*
X102993825Y-87768906D01*
X103036688Y-87802244D01*
X103116856Y-87812563D01*
X103197819Y-87803831D01*
X103241475Y-87772875D01*
X103256556Y-87733188D01*
X103258938Y-87679213D01*
X103258938Y-87245825D01*
X103517700Y-87245825D01*
X103420863Y-87633175D01*
X103419275Y-87637938D01*
X103408163Y-87704613D01*
X103435944Y-87765731D01*
X103519288Y-87806213D01*
X103592313Y-87817325D01*
X103647081Y-87799863D01*
X103675656Y-87763350D01*
X103692325Y-87707788D01*
X103824088Y-87175975D01*
X103828850Y-87112475D01*
X103820913Y-87044212D01*
X103777653Y-86998969D01*
X103689150Y-86983887D01*
X103258938Y-86983887D01*
X103258938Y-86790212D01*
X103249413Y-86707662D01*
X103228775Y-86675912D01*
X103187500Y-86656862D01*
X103114475Y-86648925D01*
X103037481Y-86658450D01*
X102991444Y-86697344D01*
X102976363Y-86788625D01*
X102976363Y-87671275D01*
X102755714Y-87671275D01*
X102796380Y-87600433D01*
X102835869Y-87499825D01*
X102856594Y-87419568D01*
X102869030Y-87329081D01*
X102873175Y-87228363D01*
X102868060Y-87117061D01*
X102852714Y-87013874D01*
X102827138Y-86918800D01*
X102792808Y-86839028D01*
X102750144Y-86771162D01*
X102694184Y-86714211D01*
X102619969Y-86667181D01*
X102530473Y-86635630D01*
X102428675Y-86625112D01*
X102327273Y-86635431D01*
X102238969Y-86666387D01*
X102166142Y-86713219D01*
X102111175Y-86771162D01*
X102057002Y-86862741D01*
X102018306Y-86969203D01*
X101995089Y-87090548D01*
X101987350Y-87226775D01*
X101673898Y-87226775D01*
X101904800Y-86744175D01*
X101923850Y-86664800D01*
X101905594Y-86624319D01*
X101834950Y-86582250D01*
X101755575Y-86558437D01*
X101711919Y-86570344D01*
X101688106Y-86594950D01*
X101668263Y-86634637D01*
X101158675Y-87693500D01*
X101136450Y-87772875D01*
X101073984Y-87772875D01*
X101080888Y-87764144D01*
X101088825Y-87698263D01*
X101080888Y-87631588D01*
X101049138Y-87594281D01*
X100974525Y-87582375D01*
X100669725Y-87582375D01*
X100669725Y-86785450D01*
X100667344Y-86730681D01*
X100653056Y-86689406D01*
X100611781Y-86656862D01*
X100533200Y-86647337D01*
X100453825Y-86656862D01*
X100411756Y-86689406D01*
X100397469Y-86729887D01*
X100395087Y-86783862D01*
X100395087Y-87582375D01*
X100091875Y-87582375D01*
X100010912Y-87596663D01*
X99983925Y-87630794D01*
X99975987Y-87696675D01*
X99887655Y-87696675D01*
X99888675Y-87672863D01*
X99888675Y-86790212D01*
X99869625Y-86688612D01*
X99827556Y-86658847D01*
X99748975Y-86648925D01*
X99458462Y-86648925D01*
X99341533Y-86659740D01*
X99233633Y-86692184D01*
X99134761Y-86746259D01*
X99044919Y-86821962D01*
X98970257Y-86912797D01*
X98916927Y-87012264D01*
X98884929Y-87120363D01*
X98874262Y-87237094D01*
X98793183Y-87237094D01*
X98794887Y-87218837D01*
X98784321Y-87102355D01*
X98752620Y-86994206D01*
X98699786Y-86894392D01*
X98625819Y-86802912D01*
X98536770Y-86726514D01*
X98438692Y-86671944D01*
X98331586Y-86639202D01*
X98215450Y-86628287D01*
X98099562Y-86639350D01*
X97993200Y-86672539D01*
X97896362Y-86727854D01*
X97809050Y-86805294D01*
X97736819Y-86898460D01*
X97685225Y-87000953D01*
X97654269Y-87112773D01*
X97643950Y-87233919D01*
X96353004Y-87233919D01*
X96346125Y-87223600D01*
G37*
G36*
X99607687Y-87529988D02*
G01*
X99455287Y-87529988D01*
X99342377Y-87508358D01*
X99244944Y-87443469D01*
X99177673Y-87346433D01*
X99155250Y-87228363D01*
X99178269Y-87110689D01*
X99247325Y-87014844D01*
X99344956Y-86951145D01*
X99453700Y-86929912D01*
X99607687Y-86929912D01*
X99607687Y-87529988D01*
G37*
G36*
X98325980Y-86931302D02*
G01*
X98422619Y-86997381D01*
X98473331Y-87062028D01*
X98503758Y-87138492D01*
X98513900Y-87226775D01*
X98503846Y-87315058D01*
X98473683Y-87391522D01*
X98423412Y-87456169D01*
X98327369Y-87522248D01*
X98220212Y-87544275D01*
X98112858Y-87522447D01*
X98016219Y-87456963D01*
X97965507Y-87392404D01*
X97935080Y-87315146D01*
X97924937Y-87225188D01*
X97934992Y-87135406D01*
X97965154Y-87058676D01*
X98015425Y-86995000D01*
X98111469Y-86930706D01*
X98218625Y-86909275D01*
X98325980Y-86931302D01*
G37*
%TO.C,kibuzzard-6268B6E6*%
G36*
X124341070Y-107035600D02*
G01*
X123608262Y-105936389D01*
X126864930Y-105936389D01*
X127597738Y-107035600D01*
X126864930Y-108134811D01*
X123608262Y-108134811D01*
X124047382Y-107476131D01*
X124853700Y-107476131D01*
X124856081Y-107531694D01*
X124871162Y-107573763D01*
X124914025Y-107607100D01*
X124994194Y-107617419D01*
X125075156Y-107608688D01*
X125118812Y-107577731D01*
X125133894Y-107538044D01*
X125136275Y-107484069D01*
X125136275Y-107050681D01*
X125395037Y-107050681D01*
X125298200Y-107438031D01*
X125296612Y-107442794D01*
X125285500Y-107509469D01*
X125313281Y-107570588D01*
X125396625Y-107611069D01*
X125469650Y-107622181D01*
X125524419Y-107604719D01*
X125552994Y-107568206D01*
X125569662Y-107512644D01*
X125579495Y-107472956D01*
X125793500Y-107472956D01*
X125801438Y-107557094D01*
X125823663Y-107591225D01*
X125864938Y-107609481D01*
X125940344Y-107617419D01*
X126030038Y-107576144D01*
X126034800Y-107572969D01*
X126295150Y-107338019D01*
X126352300Y-107244356D01*
X126302294Y-107145931D01*
X126206250Y-107090369D01*
X126095125Y-107139581D01*
X126074488Y-107158631D01*
X126074488Y-106591894D01*
X126072106Y-106533950D01*
X126057025Y-106490294D01*
X126014559Y-106459337D01*
X125934788Y-106449019D01*
X125853031Y-106459734D01*
X125810963Y-106491881D01*
X125795881Y-106533950D01*
X125793500Y-106588719D01*
X125793500Y-107472956D01*
X125579495Y-107472956D01*
X125701425Y-106980831D01*
X125706188Y-106917331D01*
X125698250Y-106849069D01*
X125654991Y-106803825D01*
X125566487Y-106788744D01*
X125136275Y-106788744D01*
X125136275Y-106595069D01*
X125126750Y-106512519D01*
X125106112Y-106480769D01*
X125064837Y-106461719D01*
X124991812Y-106453781D01*
X124914819Y-106463306D01*
X124868781Y-106502200D01*
X124853700Y-106593481D01*
X124853700Y-107476131D01*
X124047382Y-107476131D01*
X124341070Y-107035600D01*
G37*
%TO.C,kibuzzard-6268B6A0*%
G36*
X125094206Y-94655481D02*
G01*
X125121987Y-94723744D01*
X125091428Y-94803516D01*
X124999750Y-94830106D01*
X124898150Y-94793594D01*
X124881481Y-94757875D01*
X124877512Y-94711838D01*
X124910056Y-94653100D01*
X125004512Y-94623731D01*
X125094206Y-94655481D01*
G37*
G36*
X125992235Y-94188111D02*
G01*
X126042341Y-94248089D01*
X126072404Y-94348052D01*
X126082425Y-94488000D01*
X126072305Y-94627948D01*
X126041944Y-94727911D01*
X125991342Y-94787889D01*
X125920500Y-94807881D01*
X125849658Y-94787938D01*
X125799056Y-94728109D01*
X125768695Y-94628395D01*
X125758575Y-94488794D01*
X125758575Y-94479269D01*
X125768795Y-94343141D01*
X125799453Y-94245906D01*
X125850551Y-94187566D01*
X125922088Y-94168119D01*
X125992235Y-94188111D01*
G37*
G36*
X124075957Y-94488000D02*
G01*
X123332566Y-93372914D01*
X126876043Y-93372914D01*
X127619434Y-94488000D01*
X126876043Y-95603086D01*
X123332566Y-95603086D01*
X123990761Y-94615794D01*
X124588587Y-94615794D01*
X124600229Y-94746939D01*
X124635154Y-94860974D01*
X124693362Y-94957900D01*
X124774678Y-95031542D01*
X124878924Y-95075728D01*
X125006100Y-95090456D01*
X125109640Y-95078462D01*
X125202244Y-95042478D01*
X125283912Y-94982506D01*
X125347412Y-94904719D01*
X125385512Y-94815290D01*
X125398212Y-94714219D01*
X125385777Y-94630346D01*
X125348471Y-94552294D01*
X125292444Y-94487206D01*
X125477588Y-94487206D01*
X125482879Y-94592158D01*
X125498754Y-94693228D01*
X125525213Y-94790419D01*
X125558352Y-94870588D01*
X125600619Y-94939644D01*
X125656181Y-94997984D01*
X125729206Y-95046006D01*
X125817908Y-95078153D01*
X125920500Y-95088869D01*
X126023489Y-95077955D01*
X126113381Y-95045213D01*
X126187398Y-94996397D01*
X126242763Y-94937263D01*
X126286617Y-94860864D01*
X126326106Y-94760256D01*
X126346832Y-94679999D01*
X126359267Y-94589512D01*
X126363413Y-94488794D01*
X126358297Y-94377492D01*
X126342951Y-94274305D01*
X126317375Y-94179231D01*
X126283045Y-94099459D01*
X126240381Y-94031594D01*
X126184422Y-93974642D01*
X126110206Y-93927612D01*
X126020711Y-93896061D01*
X125918913Y-93885544D01*
X125817511Y-93895862D01*
X125729206Y-93926819D01*
X125656380Y-93973650D01*
X125601413Y-94031594D01*
X125547239Y-94123173D01*
X125508544Y-94229634D01*
X125485327Y-94350979D01*
X125477588Y-94487206D01*
X125292444Y-94487206D01*
X125286294Y-94480062D01*
X125206831Y-94422295D01*
X125117666Y-94387635D01*
X125018800Y-94376081D01*
X124899737Y-94403069D01*
X124907675Y-94380844D01*
X124939028Y-94325281D01*
X124994987Y-94263369D01*
X125089444Y-94209394D01*
X125215650Y-94187169D01*
X125307725Y-94177644D01*
X125352969Y-94135575D01*
X125368050Y-94047469D01*
X125356937Y-93966903D01*
X125323600Y-93922056D01*
X125237875Y-93906181D01*
X125228350Y-93906181D01*
X125114621Y-93914309D01*
X125010926Y-93938693D01*
X124917263Y-93979333D01*
X124833634Y-94036229D01*
X124760037Y-94109381D01*
X124698315Y-94194662D01*
X124650309Y-94287943D01*
X124616019Y-94389226D01*
X124595445Y-94498509D01*
X124588587Y-94615794D01*
X123990761Y-94615794D01*
X124075957Y-94488000D01*
G37*
%TO.C,kibuzzard-6268B6F0*%
G36*
X124403776Y-109601000D02*
G01*
X124274659Y-109407325D01*
X124916406Y-109407325D01*
X124929812Y-109511218D01*
X124970028Y-109603822D01*
X125037056Y-109685138D01*
X125120841Y-109748197D01*
X125211328Y-109786032D01*
X125308519Y-109798644D01*
X125364081Y-109795469D01*
X125348206Y-109916119D01*
X125070394Y-109916119D01*
X125018800Y-109918500D01*
X124979906Y-109933581D01*
X124950141Y-109972872D01*
X124940219Y-110049469D01*
X124950934Y-110133606D01*
X124983081Y-110176469D01*
X125024356Y-110191550D01*
X125079919Y-110193931D01*
X125229144Y-110193931D01*
X125470444Y-110195519D01*
X125534737Y-110180438D01*
X125576012Y-110146306D01*
X125599031Y-110103444D01*
X125610144Y-110070106D01*
X125613003Y-110049469D01*
X125781594Y-110049469D01*
X125789531Y-110133606D01*
X125811756Y-110167738D01*
X125853031Y-110185994D01*
X125928438Y-110193931D01*
X126018131Y-110152656D01*
X126022894Y-110149481D01*
X126283244Y-109914531D01*
X126340394Y-109820869D01*
X126290388Y-109722444D01*
X126194344Y-109666881D01*
X126083219Y-109716094D01*
X126062581Y-109735144D01*
X126062581Y-109168406D01*
X126060200Y-109110462D01*
X126045119Y-109066806D01*
X126002653Y-109035850D01*
X125922881Y-109025531D01*
X125841125Y-109036247D01*
X125799056Y-109068394D01*
X125783975Y-109110462D01*
X125781594Y-109165231D01*
X125781594Y-110049469D01*
X125613003Y-110049469D01*
X125619272Y-110004225D01*
X125643481Y-109825631D01*
X125667294Y-109644259D01*
X125675231Y-109570044D01*
X125657769Y-109531150D01*
X125583950Y-109482731D01*
X125483937Y-109452569D01*
X125397419Y-109489081D01*
X125321219Y-109517656D01*
X125236287Y-109486700D01*
X125198981Y-109402562D01*
X125233112Y-109319219D01*
X125337887Y-109289056D01*
X125437106Y-109322394D01*
X125543469Y-109373194D01*
X125635544Y-109320806D01*
X125694281Y-109217619D01*
X125633956Y-109122369D01*
X125621256Y-109111256D01*
X125581569Y-109081094D01*
X125499019Y-109039642D01*
X125410119Y-109014772D01*
X125314869Y-109006481D01*
X125207801Y-109019622D01*
X125113080Y-109059045D01*
X125030706Y-109124750D01*
X124967206Y-109208711D01*
X124929106Y-109302903D01*
X124916406Y-109407325D01*
X124274659Y-109407325D01*
X123665677Y-108493851D01*
X126853024Y-108493851D01*
X127591123Y-109601000D01*
X126853024Y-110708149D01*
X123665677Y-110708149D01*
X124403776Y-109601000D01*
G37*
%TO.C,kibuzzard-6268B6B8*%
G36*
X125267541Y-96652705D02*
G01*
X125317647Y-96712683D01*
X125347710Y-96812646D01*
X125357731Y-96952594D01*
X125347611Y-97092542D01*
X125317250Y-97192505D01*
X125266648Y-97252482D01*
X125195806Y-97272475D01*
X125124964Y-97252532D01*
X125074362Y-97192703D01*
X125044002Y-97092988D01*
X125033881Y-96953388D01*
X125033881Y-96943862D01*
X125044101Y-96807734D01*
X125074759Y-96710500D01*
X125125857Y-96652159D01*
X125197394Y-96632712D01*
X125267541Y-96652705D01*
G37*
G36*
X124240264Y-96951800D02*
G01*
X124752894Y-96951800D01*
X124758185Y-97056751D01*
X124774060Y-97157822D01*
X124800519Y-97255013D01*
X124833658Y-97335181D01*
X124875925Y-97404238D01*
X124931487Y-97462578D01*
X125004512Y-97510600D01*
X125093214Y-97542747D01*
X125195806Y-97553463D01*
X125298795Y-97542548D01*
X125388687Y-97509806D01*
X125462705Y-97460991D01*
X125518069Y-97401856D01*
X125523081Y-97393125D01*
X125741906Y-97393125D01*
X125749844Y-97477263D01*
X125772069Y-97511394D01*
X125813344Y-97529650D01*
X125888750Y-97537588D01*
X125978444Y-97496313D01*
X125983206Y-97493138D01*
X126243556Y-97258188D01*
X126300706Y-97164525D01*
X126250700Y-97066100D01*
X126154656Y-97010538D01*
X126043531Y-97059750D01*
X126022894Y-97078800D01*
X126022894Y-96512062D01*
X126020513Y-96454119D01*
X126005431Y-96410462D01*
X125962966Y-96379506D01*
X125883194Y-96369187D01*
X125801438Y-96379903D01*
X125759369Y-96412050D01*
X125744288Y-96454119D01*
X125741906Y-96508887D01*
X125741906Y-97393125D01*
X125523081Y-97393125D01*
X125561923Y-97325458D01*
X125601413Y-97224850D01*
X125622138Y-97144593D01*
X125634574Y-97054106D01*
X125638719Y-96953388D01*
X125633603Y-96842086D01*
X125618258Y-96738899D01*
X125592681Y-96643825D01*
X125558352Y-96564053D01*
X125515687Y-96496187D01*
X125459728Y-96439236D01*
X125385512Y-96392206D01*
X125296017Y-96360655D01*
X125194219Y-96350137D01*
X125092817Y-96360456D01*
X125004512Y-96391412D01*
X124931686Y-96438244D01*
X124876719Y-96496187D01*
X124822545Y-96587766D01*
X124783850Y-96694228D01*
X124760633Y-96815573D01*
X124752894Y-96951800D01*
X124240264Y-96951800D01*
X123497402Y-95837507D01*
X126813336Y-95837507D01*
X127556198Y-96951800D01*
X126813336Y-98066093D01*
X123497402Y-98066093D01*
X124240264Y-96951800D01*
G37*
%TO.C,kibuzzard-6268B850*%
G36*
X96553293Y-94742000D02*
G01*
X97295626Y-93628501D01*
X100855507Y-93628501D01*
X100113174Y-94742000D01*
X100855507Y-95855499D01*
X97295626Y-95855499D01*
X96841689Y-95174594D01*
X97808256Y-95174594D01*
X97817781Y-95263494D01*
X97859850Y-95308738D01*
X97947956Y-95323819D01*
X98519456Y-95323819D01*
X98611531Y-95304769D01*
X98641694Y-95263494D01*
X98651219Y-95184119D01*
X98641694Y-95104744D01*
X98603594Y-95058706D01*
X98511519Y-95042831D01*
X98149569Y-95042831D01*
X98184494Y-94970600D01*
X98222991Y-94913847D01*
X98268631Y-94846775D01*
X98317844Y-94771170D01*
X98367056Y-94688819D01*
X98412697Y-94597339D01*
X98437249Y-94531656D01*
X98714719Y-94531656D01*
X98727816Y-94612619D01*
X98767106Y-94684056D01*
X98817113Y-94735650D01*
X98863944Y-94769781D01*
X98863944Y-94780894D01*
X98795152Y-94830724D01*
X98753877Y-94897663D01*
X98740119Y-94981713D01*
X98752642Y-95071230D01*
X98790213Y-95154574D01*
X98852831Y-95231744D01*
X98937145Y-95293480D01*
X99039803Y-95330522D01*
X99160806Y-95342869D01*
X99239586Y-95337313D01*
X99310825Y-95320644D01*
X99415600Y-95271431D01*
X99481481Y-95208725D01*
X99516406Y-95158719D01*
X99552919Y-95050769D01*
X99533075Y-94994016D01*
X99473544Y-94944406D01*
X99386231Y-94915831D01*
X99325906Y-94935675D01*
X99281456Y-94995206D01*
X99271931Y-95014256D01*
X99230656Y-95052356D01*
X99140963Y-95071406D01*
X99052856Y-95041244D01*
X99021106Y-94977744D01*
X99051269Y-94931309D01*
X99141756Y-94915831D01*
X99224306Y-94907894D01*
X99268359Y-94864634D01*
X99283044Y-94776131D01*
X99272328Y-94694772D01*
X99240181Y-94653894D01*
X99198906Y-94638019D01*
X99126675Y-94634844D01*
X99034600Y-94602300D01*
X98995706Y-94526894D01*
X99035394Y-94449900D01*
X99086194Y-94424302D01*
X99159219Y-94415769D01*
X99225894Y-94425294D01*
X99313206Y-94501494D01*
X99360831Y-94584044D01*
X99444969Y-94599919D01*
X99561650Y-94576900D01*
X99600544Y-94507844D01*
X99583081Y-94422119D01*
X99579906Y-94406244D01*
X99562444Y-94364969D01*
X99523153Y-94301866D01*
X99478306Y-94252256D01*
X99386584Y-94190520D01*
X99280751Y-94153478D01*
X99160806Y-94141131D01*
X99039980Y-94153390D01*
X98933617Y-94190167D01*
X98841719Y-94251462D01*
X98771163Y-94331631D01*
X98728830Y-94425029D01*
X98714719Y-94531656D01*
X98437249Y-94531656D01*
X98451194Y-94494350D01*
X98477387Y-94386995D01*
X98486119Y-94282419D01*
X98483737Y-94229237D01*
X98468656Y-94193519D01*
X98426587Y-94168119D01*
X98346419Y-94161769D01*
X98266250Y-94168119D01*
X98224181Y-94192725D01*
X98208306Y-94227650D01*
X98205131Y-94279244D01*
X98196400Y-94353856D01*
X98170206Y-94439581D01*
X98126550Y-94536419D01*
X98065431Y-94644369D01*
X98006892Y-94737634D01*
X97948750Y-94830106D01*
X97894973Y-94922777D01*
X97849531Y-95016638D01*
X97818575Y-95103355D01*
X97808256Y-95174594D01*
X96841689Y-95174594D01*
X96553293Y-94742000D01*
G37*
%TO.C,kibuzzard-6268B7B0*%
G36*
X96492175Y-79425800D02*
G01*
X96622350Y-79230537D01*
X97743962Y-79230537D01*
X97757368Y-79334431D01*
X97797585Y-79427035D01*
X97864612Y-79508350D01*
X97948397Y-79571409D01*
X98038885Y-79609244D01*
X98136075Y-79621856D01*
X98191637Y-79618681D01*
X98175762Y-79739331D01*
X97897950Y-79739331D01*
X97846356Y-79741713D01*
X97807462Y-79756794D01*
X97777697Y-79796084D01*
X97767775Y-79872681D01*
X97778491Y-79956819D01*
X97810637Y-79999681D01*
X97851912Y-80014763D01*
X97907475Y-80017144D01*
X98056700Y-80017144D01*
X98298000Y-80018731D01*
X98362294Y-80003650D01*
X98403569Y-79969519D01*
X98426587Y-79926656D01*
X98437700Y-79893319D01*
X98440120Y-79875856D01*
X98609150Y-79875856D01*
X98611531Y-79931419D01*
X98626613Y-79973488D01*
X98669475Y-80006825D01*
X98749644Y-80017144D01*
X98830606Y-80008413D01*
X98874263Y-79977456D01*
X98889344Y-79937769D01*
X98891725Y-79883794D01*
X98891725Y-79450406D01*
X99150488Y-79450406D01*
X99053650Y-79837756D01*
X99052063Y-79842519D01*
X99040950Y-79909194D01*
X99068731Y-79970313D01*
X99152075Y-80010794D01*
X99225100Y-80021906D01*
X99279869Y-80004444D01*
X99308444Y-79967931D01*
X99325113Y-79912369D01*
X99456875Y-79380556D01*
X99461638Y-79317056D01*
X99453700Y-79248794D01*
X99410441Y-79203550D01*
X99321938Y-79188469D01*
X98891725Y-79188469D01*
X98891725Y-78994794D01*
X98882200Y-78912244D01*
X98861563Y-78880494D01*
X98820288Y-78861444D01*
X98747263Y-78853506D01*
X98670269Y-78863031D01*
X98624231Y-78901925D01*
X98609150Y-78993206D01*
X98609150Y-79875856D01*
X98440120Y-79875856D01*
X98446828Y-79827438D01*
X98471037Y-79648844D01*
X98494850Y-79467472D01*
X98502787Y-79393256D01*
X98485325Y-79354362D01*
X98411506Y-79305944D01*
X98311494Y-79275781D01*
X98224975Y-79312294D01*
X98148775Y-79340869D01*
X98063844Y-79309912D01*
X98026537Y-79225775D01*
X98060669Y-79142431D01*
X98165444Y-79112269D01*
X98264662Y-79145606D01*
X98371025Y-79196406D01*
X98463100Y-79144019D01*
X98521837Y-79040831D01*
X98461512Y-78945581D01*
X98448812Y-78934469D01*
X98409125Y-78904306D01*
X98326575Y-78862855D01*
X98237675Y-78837984D01*
X98142425Y-78829694D01*
X98035357Y-78842835D01*
X97940636Y-78882258D01*
X97858262Y-78947962D01*
X97794762Y-79031924D01*
X97756662Y-79126115D01*
X97743962Y-79230537D01*
X96622350Y-79230537D01*
X97231332Y-78317064D01*
X100713425Y-78317064D01*
X99974268Y-79425800D01*
X100713425Y-80534536D01*
X97231332Y-80534536D01*
X96492175Y-79425800D01*
G37*
%TO.C,kibuzzard-6268B680*%
G36*
X125924766Y-89185105D02*
G01*
X125974872Y-89245083D01*
X126004935Y-89345046D01*
X126014956Y-89484994D01*
X126004836Y-89624942D01*
X125974475Y-89724905D01*
X125923873Y-89784882D01*
X125853031Y-89804875D01*
X125782189Y-89784932D01*
X125731588Y-89725103D01*
X125701227Y-89625388D01*
X125691106Y-89485788D01*
X125691106Y-89476262D01*
X125701326Y-89340134D01*
X125731984Y-89242900D01*
X125783082Y-89184559D01*
X125854619Y-89165112D01*
X125924766Y-89185105D01*
G37*
G36*
X123991026Y-89484200D02*
G01*
X123248164Y-88369907D01*
X126808574Y-88369907D01*
X127551436Y-89484200D01*
X126808574Y-90598493D01*
X123248164Y-90598493D01*
X123702101Y-89917588D01*
X124503656Y-89917588D01*
X124513181Y-90006488D01*
X124555250Y-90051731D01*
X124643356Y-90066813D01*
X125214856Y-90066813D01*
X125306931Y-90047763D01*
X125337094Y-90006488D01*
X125346619Y-89927113D01*
X125337094Y-89847738D01*
X125298994Y-89801700D01*
X125206919Y-89785825D01*
X124844969Y-89785825D01*
X124879894Y-89713594D01*
X124918391Y-89656841D01*
X124964031Y-89589769D01*
X125013244Y-89514164D01*
X125031150Y-89484200D01*
X125410119Y-89484200D01*
X125415410Y-89589151D01*
X125431285Y-89690222D01*
X125457744Y-89787413D01*
X125490883Y-89867581D01*
X125533150Y-89936638D01*
X125588713Y-89994978D01*
X125661738Y-90043000D01*
X125750439Y-90075147D01*
X125853031Y-90085863D01*
X125956020Y-90074948D01*
X126045913Y-90042206D01*
X126119930Y-89993391D01*
X126175294Y-89934256D01*
X126219148Y-89857858D01*
X126258638Y-89757250D01*
X126279363Y-89676993D01*
X126291799Y-89586506D01*
X126295944Y-89485788D01*
X126290828Y-89374486D01*
X126275483Y-89271299D01*
X126249906Y-89176225D01*
X126215577Y-89096453D01*
X126172913Y-89028587D01*
X126116953Y-88971636D01*
X126042738Y-88924606D01*
X125953242Y-88893055D01*
X125851444Y-88882537D01*
X125750042Y-88892856D01*
X125661738Y-88923812D01*
X125588911Y-88970644D01*
X125533944Y-89028587D01*
X125479770Y-89120166D01*
X125441075Y-89226628D01*
X125417858Y-89347973D01*
X125410119Y-89484200D01*
X125031150Y-89484200D01*
X125062456Y-89431812D01*
X125108097Y-89340333D01*
X125146594Y-89237344D01*
X125172787Y-89129989D01*
X125181519Y-89025412D01*
X125179137Y-88972231D01*
X125164056Y-88936512D01*
X125121987Y-88911112D01*
X125041819Y-88904762D01*
X124961650Y-88911112D01*
X124919581Y-88935719D01*
X124903706Y-88970644D01*
X124900531Y-89022237D01*
X124891800Y-89096850D01*
X124865606Y-89182575D01*
X124821950Y-89279412D01*
X124760831Y-89387362D01*
X124702292Y-89480628D01*
X124644150Y-89573100D01*
X124590373Y-89665770D01*
X124544931Y-89759631D01*
X124513975Y-89846348D01*
X124503656Y-89917588D01*
X123702101Y-89917588D01*
X123991026Y-89484200D01*
G37*
%TO.C,kibuzzard-6268B68E*%
G36*
X125958898Y-91696530D02*
G01*
X126009003Y-91756508D01*
X126039066Y-91856471D01*
X126049088Y-91996419D01*
X126038967Y-92136367D01*
X126008606Y-92236330D01*
X125958005Y-92296307D01*
X125887163Y-92316300D01*
X125816320Y-92296357D01*
X125765719Y-92236528D01*
X125735358Y-92136813D01*
X125725238Y-91997212D01*
X125725238Y-91987687D01*
X125735457Y-91851559D01*
X125766116Y-91754325D01*
X125817213Y-91695984D01*
X125888750Y-91676537D01*
X125958898Y-91696530D01*
G37*
G36*
X125019594Y-92186125D02*
G01*
X125047375Y-92247244D01*
X125021975Y-92306775D01*
X124943394Y-92333763D01*
X124863225Y-92305981D01*
X124836237Y-92246450D01*
X124862431Y-92186125D01*
X124940219Y-92157550D01*
X125019594Y-92186125D01*
G37*
G36*
X125047375Y-91700350D02*
G01*
X125083887Y-91782900D01*
X125047375Y-91864656D01*
X124941806Y-91901962D01*
X124837031Y-91863862D01*
X124801312Y-91782106D01*
X124836237Y-91700350D01*
X124941012Y-91662250D01*
X125047375Y-91700350D01*
G37*
G36*
X124007695Y-91998800D02*
G01*
X123867995Y-91789250D01*
X124520325Y-91789250D01*
X124529255Y-91855528D01*
X124556044Y-91921012D01*
X124613194Y-92007531D01*
X124648912Y-92040075D01*
X124625100Y-92065475D01*
X124578269Y-92140088D01*
X124555250Y-92236925D01*
X124567950Y-92337467D01*
X124606050Y-92425308D01*
X124669550Y-92500450D01*
X124750336Y-92557776D01*
X124840294Y-92592172D01*
X124939425Y-92603638D01*
X125038908Y-92592349D01*
X125129925Y-92558482D01*
X125212475Y-92502038D01*
X125277739Y-92428307D01*
X125316897Y-92342582D01*
X125329950Y-92244863D01*
X125303756Y-92134531D01*
X125261687Y-92065475D01*
X125234700Y-92040075D01*
X125268037Y-92009913D01*
X125278101Y-91995625D01*
X125444250Y-91995625D01*
X125449542Y-92100576D01*
X125465417Y-92201647D01*
X125491875Y-92298838D01*
X125525014Y-92379006D01*
X125567281Y-92448063D01*
X125622844Y-92506403D01*
X125695869Y-92554425D01*
X125784570Y-92586572D01*
X125887163Y-92597288D01*
X125990152Y-92586373D01*
X126080044Y-92553631D01*
X126154061Y-92504816D01*
X126209425Y-92445681D01*
X126253280Y-92369283D01*
X126292769Y-92268675D01*
X126313494Y-92188418D01*
X126325930Y-92097931D01*
X126330075Y-91997212D01*
X126324960Y-91885911D01*
X126309614Y-91782724D01*
X126284038Y-91687650D01*
X126249708Y-91607878D01*
X126207044Y-91540012D01*
X126151084Y-91483061D01*
X126076869Y-91436031D01*
X125987373Y-91404480D01*
X125885575Y-91393962D01*
X125784173Y-91404281D01*
X125695869Y-91435237D01*
X125623042Y-91482069D01*
X125568075Y-91540012D01*
X125513902Y-91631591D01*
X125475206Y-91738053D01*
X125451989Y-91859398D01*
X125444250Y-91995625D01*
X125278101Y-91995625D01*
X125332331Y-91918631D01*
X125356739Y-91854933D01*
X125364875Y-91789250D01*
X125350499Y-91677596D01*
X125307372Y-91581817D01*
X125235494Y-91501912D01*
X125145447Y-91441940D01*
X125047816Y-91405957D01*
X124942600Y-91393962D01*
X124837384Y-91406045D01*
X124739753Y-91442293D01*
X124649706Y-91502706D01*
X124577828Y-91582875D01*
X124534701Y-91678390D01*
X124520325Y-91789250D01*
X123867995Y-91789250D01*
X123262716Y-90881332D01*
X126842705Y-90881332D01*
X127587684Y-91998800D01*
X126842705Y-93116268D01*
X123262716Y-93116268D01*
X124007695Y-91998800D01*
G37*
%TO.C,kibuzzard-6268B79A*%
G36*
X98221800Y-76714350D02*
G01*
X98236881Y-76749275D01*
X98240850Y-76795312D01*
X98208306Y-76854844D01*
X98114644Y-76884212D01*
X98025744Y-76852462D01*
X97997962Y-76784200D01*
X98028522Y-76704428D01*
X98120200Y-76677837D01*
X98221800Y-76714350D01*
G37*
G36*
X96468891Y-77012800D02*
G01*
X96614941Y-76793725D01*
X97720150Y-76793725D01*
X97732585Y-76877598D01*
X97769892Y-76955650D01*
X97832069Y-77027881D01*
X97911708Y-77085649D01*
X98001402Y-77120309D01*
X98101150Y-77131863D01*
X98218625Y-77104875D01*
X98210687Y-77127100D01*
X98181319Y-77182663D01*
X98124962Y-77244575D01*
X98028919Y-77298550D01*
X97902712Y-77320775D01*
X97810637Y-77330300D01*
X97778887Y-77350938D01*
X97759837Y-77392213D01*
X97751900Y-77465238D01*
X97761425Y-77541438D01*
X97798731Y-77586681D01*
X97886837Y-77601763D01*
X98001169Y-77593635D01*
X98105404Y-77569251D01*
X98199543Y-77528610D01*
X98283585Y-77471715D01*
X98293342Y-77462063D01*
X98632963Y-77462063D01*
X98635344Y-77517625D01*
X98650425Y-77559694D01*
X98693288Y-77593031D01*
X98773456Y-77603350D01*
X98854419Y-77594619D01*
X98898075Y-77563663D01*
X98913156Y-77523975D01*
X98915538Y-77470000D01*
X98915538Y-77036613D01*
X99174300Y-77036613D01*
X99077463Y-77423963D01*
X99075875Y-77428725D01*
X99064763Y-77495400D01*
X99092544Y-77556519D01*
X99175888Y-77597000D01*
X99248913Y-77608113D01*
X99303681Y-77590650D01*
X99332256Y-77554138D01*
X99348925Y-77498575D01*
X99480688Y-76966762D01*
X99485450Y-76903262D01*
X99477513Y-76835000D01*
X99434253Y-76789756D01*
X99345750Y-76774675D01*
X98915538Y-76774675D01*
X98915538Y-76581000D01*
X98906013Y-76498450D01*
X98885375Y-76466700D01*
X98844100Y-76447650D01*
X98771075Y-76439712D01*
X98694081Y-76449237D01*
X98648044Y-76488131D01*
X98632963Y-76579412D01*
X98632963Y-77462063D01*
X98293342Y-77462063D01*
X98357531Y-77398563D01*
X98419539Y-77313282D01*
X98467767Y-77220001D01*
X98502216Y-77118718D01*
X98522885Y-77009434D01*
X98529775Y-76892150D01*
X98518133Y-76761005D01*
X98483208Y-76646969D01*
X98425000Y-76550044D01*
X98343861Y-76476401D01*
X98240144Y-76432216D01*
X98113850Y-76417487D01*
X98010222Y-76429482D01*
X97917353Y-76465465D01*
X97835244Y-76525437D01*
X97771303Y-76603225D01*
X97732938Y-76692654D01*
X97720150Y-76793725D01*
X96614941Y-76793725D01*
X97207520Y-75904857D01*
X100736709Y-75904857D01*
X99998080Y-77012800D01*
X100736709Y-78120743D01*
X97207520Y-78120743D01*
X96468891Y-77012800D01*
G37*
%TO.C,kibuzzard-6268B6FB*%
G36*
X124354564Y-112191800D02*
G01*
X124210101Y-111975106D01*
X124867194Y-111975106D01*
X124879629Y-112058979D01*
X124916935Y-112137031D01*
X124979112Y-112209263D01*
X125058752Y-112267030D01*
X125148446Y-112301690D01*
X125248194Y-112313244D01*
X125365669Y-112286256D01*
X125357731Y-112308481D01*
X125328362Y-112364044D01*
X125272006Y-112425956D01*
X125175962Y-112479931D01*
X125049756Y-112502156D01*
X124957681Y-112511681D01*
X124925931Y-112532319D01*
X124906881Y-112573594D01*
X124898944Y-112646619D01*
X124908469Y-112722819D01*
X124945775Y-112768063D01*
X125033881Y-112783144D01*
X125148213Y-112775016D01*
X125252448Y-112750632D01*
X125346587Y-112709992D01*
X125430629Y-112653096D01*
X125443595Y-112640269D01*
X125780006Y-112640269D01*
X125787944Y-112724406D01*
X125810169Y-112758538D01*
X125851444Y-112776794D01*
X125926850Y-112784731D01*
X126016544Y-112743456D01*
X126021306Y-112740281D01*
X126281656Y-112505331D01*
X126338806Y-112411669D01*
X126288800Y-112313244D01*
X126192756Y-112257681D01*
X126081631Y-112306894D01*
X126060994Y-112325944D01*
X126060994Y-111759206D01*
X126058613Y-111701262D01*
X126043531Y-111657606D01*
X126001066Y-111626650D01*
X125921294Y-111616331D01*
X125839538Y-111627047D01*
X125797469Y-111659194D01*
X125782388Y-111701262D01*
X125780006Y-111756031D01*
X125780006Y-112640269D01*
X125443595Y-112640269D01*
X125504575Y-112579944D01*
X125566583Y-112494663D01*
X125614811Y-112401382D01*
X125649260Y-112300099D01*
X125669929Y-112190816D01*
X125676819Y-112073531D01*
X125665177Y-111942386D01*
X125630252Y-111828351D01*
X125572044Y-111731425D01*
X125490905Y-111657783D01*
X125387188Y-111613597D01*
X125260894Y-111598869D01*
X125157265Y-111610863D01*
X125064397Y-111646847D01*
X124982287Y-111706819D01*
X124918347Y-111784606D01*
X124879982Y-111874035D01*
X124867194Y-111975106D01*
X124210101Y-111975106D01*
X123617523Y-111086239D01*
X126851436Y-111086239D01*
X127588477Y-112191800D01*
X126851436Y-113297361D01*
X123617523Y-113297361D01*
X124354564Y-112191800D01*
G37*
G36*
X125368844Y-111895731D02*
G01*
X125383925Y-111930656D01*
X125387894Y-111976694D01*
X125355350Y-112036225D01*
X125261687Y-112065594D01*
X125172787Y-112033844D01*
X125145006Y-111965581D01*
X125175566Y-111885809D01*
X125267244Y-111859219D01*
X125368844Y-111895731D01*
G37*
%TO.C,kibuzzard-6268B5BC*%
G36*
X124209307Y-74549000D02*
G01*
X123466445Y-73434707D01*
X126742693Y-73434707D01*
X127485555Y-74549000D01*
X126742693Y-75663293D01*
X123466445Y-75663293D01*
X123915090Y-74990325D01*
X124721937Y-74990325D01*
X124729875Y-75074463D01*
X124752100Y-75108594D01*
X124793375Y-75126850D01*
X124868781Y-75134788D01*
X124958475Y-75093513D01*
X124963237Y-75090338D01*
X125223588Y-74855388D01*
X125280737Y-74761725D01*
X125230731Y-74663300D01*
X125134687Y-74607738D01*
X125023562Y-74656950D01*
X125002925Y-74676000D01*
X125002925Y-74549000D01*
X125344237Y-74549000D01*
X125349529Y-74653951D01*
X125365404Y-74755022D01*
X125391862Y-74852213D01*
X125425002Y-74932381D01*
X125467269Y-75001438D01*
X125522831Y-75059778D01*
X125595856Y-75107800D01*
X125684558Y-75139947D01*
X125787150Y-75150663D01*
X125890139Y-75139748D01*
X125980031Y-75107006D01*
X126054048Y-75058191D01*
X126109413Y-74999056D01*
X126153267Y-74922658D01*
X126192756Y-74822050D01*
X126213482Y-74741793D01*
X126225917Y-74651306D01*
X126230063Y-74550588D01*
X126224947Y-74439286D01*
X126209601Y-74336099D01*
X126184025Y-74241025D01*
X126149695Y-74161253D01*
X126107031Y-74093387D01*
X126051072Y-74036436D01*
X125976856Y-73989406D01*
X125887361Y-73957855D01*
X125785563Y-73947337D01*
X125684161Y-73957656D01*
X125595856Y-73988612D01*
X125523030Y-74035444D01*
X125468062Y-74093387D01*
X125413889Y-74184966D01*
X125375194Y-74291428D01*
X125351977Y-74412773D01*
X125344237Y-74549000D01*
X125002925Y-74549000D01*
X125002925Y-74109262D01*
X125000544Y-74051319D01*
X124985462Y-74007662D01*
X124942997Y-73976706D01*
X124863225Y-73966387D01*
X124781469Y-73977103D01*
X124739400Y-74009250D01*
X124724319Y-74051319D01*
X124721937Y-74106087D01*
X124721937Y-74990325D01*
X123915090Y-74990325D01*
X124209307Y-74549000D01*
G37*
G36*
X125858885Y-74249905D02*
G01*
X125908991Y-74309883D01*
X125939054Y-74409846D01*
X125949075Y-74549794D01*
X125938955Y-74689742D01*
X125908594Y-74789705D01*
X125857992Y-74849682D01*
X125787150Y-74869675D01*
X125716308Y-74849732D01*
X125665706Y-74789903D01*
X125635345Y-74690188D01*
X125625225Y-74550588D01*
X125625225Y-74541062D01*
X125635445Y-74404934D01*
X125666103Y-74307700D01*
X125717201Y-74249359D01*
X125788738Y-74229912D01*
X125858885Y-74249905D01*
G37*
%TD*%
M02*
