M48
; DRILL file {KiCad (6.0.1)} date Thu Apr 28 08:04:18 2022
; FORMAT={-:-/ absolute / inch / decimal}
; #@! TF.CreationDate,2022-04-28T08:04:18-05:00
; #@! TF.GenerationSoftware,Kicad,Pcbnew,(6.0.1)
; #@! TF.FileFunction,Plated,1,2,PTH
FMAT,2
INCH
; #@! TA.AperFunction,Plated,PTH,ViaDrill
T1C0.0157
; #@! TA.AperFunction,Plated,PTH,ComponentDrill
T2C0.0394
; #@! TA.AperFunction,Plated,PTH,ComponentDrill
T3C0.0402
; #@! TA.AperFunction,Plated,PTH,ComponentDrill
T4C0.0433
%
G90
G05
T1
X4.513Y-4.354
X4.658Y-4.835
X4.661Y-4.739
X4.746Y-4.41
X4.846Y-4.41
T2
X4.26Y-3.17
X4.36Y-3.17
X4.46Y-3.17
X4.56Y-3.17
T3
X3.7421Y-3.2313
X3.7421Y-3.3313
X3.7421Y-3.4313
X3.7421Y-3.5313
T4
X3.7402Y-3.6309
X3.7402Y-3.7293
X3.7402Y-3.8278
X3.7402Y-3.9272
X3.7402Y-4.0256
X3.7402Y-4.124
X3.741Y-4.229
X3.741Y-4.329
X3.741Y-4.429
X3.741Y-4.529
X3.742Y-2.8341
X3.742Y-2.9341
X3.7421Y-3.0335
X3.7421Y-3.1319
X5.077Y-2.8347
X5.077Y-2.9331
X5.077Y-3.0316
X5.077Y-3.13
X5.078Y-3.229
X5.078Y-3.3274
X5.078Y-3.4259
X5.078Y-3.5243
X5.078Y-3.6227
X5.079Y-3.721
X5.079Y-3.8194
X5.079Y-3.9179
X5.079Y-4.0163
X5.079Y-4.1147
X5.079Y-4.2154
X5.079Y-4.3154
X5.079Y-4.4154
X5.079Y-4.5154
T0
M30
