%TF.GenerationSoftware,KiCad,Pcbnew,(6.0.1)*%
%TF.CreationDate,2022-04-26T22:40:30-05:00*%
%TF.ProjectId,LEDStripBoards,4c454453-7472-4697-9042-6f617264732e,rev?*%
%TF.SameCoordinates,Original*%
%TF.FileFunction,Paste,Bot*%
%TF.FilePolarity,Positive*%
%FSLAX46Y46*%
G04 Gerber Fmt 4.6, Leading zero omitted, Abs format (unit mm)*
G04 Created by KiCad (PCBNEW (6.0.1)) date 2022-04-26 22:40:30*
%MOMM*%
%LPD*%
G01*
G04 APERTURE LIST*
G04 Aperture macros list*
%AMRoundRect*
0 Rectangle with rounded corners*
0 $1 Rounding radius*
0 $2 $3 $4 $5 $6 $7 $8 $9 X,Y pos of 4 corners*
0 Add a 4 corners polygon primitive as box body*
4,1,4,$2,$3,$4,$5,$6,$7,$8,$9,$2,$3,0*
0 Add four circle primitives for the rounded corners*
1,1,$1+$1,$2,$3*
1,1,$1+$1,$4,$5*
1,1,$1+$1,$6,$7*
1,1,$1+$1,$8,$9*
0 Add four rect primitives between the rounded corners*
20,1,$1+$1,$2,$3,$4,$5,0*
20,1,$1+$1,$4,$5,$6,$7,0*
20,1,$1+$1,$6,$7,$8,$9,0*
20,1,$1+$1,$8,$9,$2,$3,0*%
G04 Aperture macros list end*
%ADD10RoundRect,0.243750X0.456250X-0.243750X0.456250X0.243750X-0.456250X0.243750X-0.456250X-0.243750X0*%
%ADD11RoundRect,0.250000X0.625000X-0.375000X0.625000X0.375000X-0.625000X0.375000X-0.625000X-0.375000X0*%
%ADD12RoundRect,0.250000X-0.625000X0.375000X-0.625000X-0.375000X0.625000X-0.375000X0.625000X0.375000X0*%
%ADD13R,1.100000X1.100000*%
%ADD14R,1.500000X0.900000*%
%ADD15R,0.900000X1.500000*%
%ADD16R,3.800000X2.200000*%
%ADD17R,1.500000X2.200000*%
%ADD18R,0.650000X1.750000*%
%ADD19R,1.250000X2.500000*%
%ADD20R,0.450000X1.300000*%
%ADD21R,1.700000X1.948000*%
G04 APERTURE END LIST*
D10*
%TO.C,0.1uF*%
X120802400Y-109580200D03*
X120802400Y-111455200D03*
%TD*%
%TO.C,22uF*%
X117144800Y-109631000D03*
X117144800Y-111506000D03*
%TD*%
D11*
%TO.C,Pwr*%
X107086400Y-103428800D03*
X107086400Y-106228800D03*
%TD*%
%TO.C,1k*%
X109875000Y-103425000D03*
X109875000Y-106225000D03*
%TD*%
%TO.C,1k*%
X116306600Y-103505000D03*
X116306600Y-106305000D03*
%TD*%
D12*
%TO.C,10k*%
X119675000Y-106275000D03*
X119675000Y-103475000D03*
%TD*%
D13*
%TO.C,U2*%
X111990000Y-85225000D03*
X114990000Y-83675000D03*
X111990000Y-86725000D03*
X111990000Y-83675000D03*
X113490000Y-86725000D03*
X113490000Y-85225000D03*
X114990000Y-85225000D03*
X113490000Y-83675000D03*
X114990000Y-86725000D03*
D14*
X103550000Y-77175000D03*
X103550000Y-78675000D03*
X103550000Y-80175000D03*
X103550000Y-81675000D03*
X103550000Y-83175000D03*
X103550000Y-84675000D03*
X103550000Y-86175000D03*
X103550000Y-87675000D03*
X103550000Y-89175000D03*
X103550000Y-90675000D03*
X103550000Y-92175000D03*
X103550000Y-93675000D03*
X103550000Y-95175000D03*
X103550000Y-96675000D03*
X103550000Y-98175000D03*
X103550000Y-99675000D03*
D15*
X105550000Y-100425000D03*
X107050000Y-100425000D03*
X108550000Y-100425000D03*
X110050000Y-100425000D03*
X111550000Y-100425000D03*
X113050000Y-100425000D03*
X114550000Y-100425000D03*
X116050000Y-100425000D03*
X117550000Y-100425000D03*
X119050000Y-100425000D03*
D14*
X121050000Y-99675000D03*
X121050000Y-98175000D03*
X121050000Y-96675000D03*
X121050000Y-95175000D03*
X121050000Y-93675000D03*
X121050000Y-92175000D03*
X121050000Y-90675000D03*
X121050000Y-89175000D03*
X121050000Y-87675000D03*
X121050000Y-86175000D03*
X121050000Y-84675000D03*
X121050000Y-83175000D03*
X121050000Y-81675000D03*
X121050000Y-80175000D03*
X121050000Y-78675000D03*
X121050000Y-77175000D03*
%TD*%
D10*
%TO.C,470uF*%
X112674400Y-109707200D03*
X112674400Y-111582200D03*
%TD*%
D16*
%TO.C,TLV1117-33*%
X106925000Y-121450000D03*
D17*
X109225000Y-115150000D03*
X106925000Y-115150000D03*
X104625000Y-115150000D03*
%TD*%
D18*
%TO.C,CH330N*%
X119480000Y-115225000D03*
X118210000Y-115225000D03*
X116940000Y-115225000D03*
X115670000Y-115225000D03*
X115670000Y-120725000D03*
X116940000Y-120725000D03*
X118210000Y-120725000D03*
X119480000Y-120725000D03*
%TD*%
D10*
%TO.C,1uF*%
X109118400Y-109626400D03*
X109118400Y-111501400D03*
%TD*%
D19*
%TO.C,0/1*%
X119115200Y-126790000D03*
X121615200Y-126790000D03*
X124115200Y-126790000D03*
%TD*%
D20*
%TO.C,J3*%
X110266960Y-126336980D03*
X110916960Y-126336980D03*
X111566960Y-126336980D03*
X112216960Y-126336980D03*
X112866960Y-126336980D03*
%TD*%
D21*
%TO.C,Reset*%
X103276400Y-126620800D03*
X103276400Y-130020800D03*
%TD*%
%TO.C,Boot*%
X128447800Y-126798600D03*
X128447800Y-130198600D03*
%TD*%
M02*
