%TF.GenerationSoftware,KiCad,Pcbnew,(6.0.1)*%
%TF.CreationDate,2022-04-26T22:40:30-05:00*%
%TF.ProjectId,LEDStripBoards,4c454453-7472-4697-9042-6f617264732e,rev?*%
%TF.SameCoordinates,Original*%
%TF.FileFunction,Soldermask,Top*%
%TF.FilePolarity,Negative*%
%FSLAX46Y46*%
G04 Gerber Fmt 4.6, Leading zero omitted, Abs format (unit mm)*
G04 Created by KiCad (PCBNEW (6.0.1)) date 2022-04-26 22:40:30*
%MOMM*%
%LPD*%
G01*
G04 APERTURE LIST*
%ADD10C,2.100000*%
%ADD11R,2.100000X2.100000*%
%ADD12O,1.700000X1.700000*%
%ADD13R,1.700000X1.700000*%
%ADD14C,2.020000*%
%ADD15C,0.900000*%
%ADD16O,1.450000X2.000000*%
%ADD17O,1.150000X1.800000*%
%ADD18O,0.800000X0.800000*%
G04 APERTURE END LIST*
D10*
%TO.C,J1*%
X95046800Y-74525200D03*
D11*
X95046800Y-71985200D03*
%TD*%
D10*
%TO.C,J4*%
X128955800Y-79502000D03*
X128955800Y-77002000D03*
X128955800Y-74502000D03*
X128955800Y-72002000D03*
%TD*%
%TO.C,J5*%
X128981200Y-92016600D03*
X128981200Y-89516600D03*
X128981200Y-87016600D03*
X128981200Y-84516600D03*
X128981200Y-82016600D03*
%TD*%
%TO.C,J6*%
X129006600Y-104513400D03*
X129006600Y-102013400D03*
X129006600Y-99513400D03*
X129006600Y-97013400D03*
X129006600Y-94513400D03*
%TD*%
%TO.C,J7*%
X95050000Y-79550000D03*
X95050000Y-77050000D03*
%TD*%
%TO.C,J8*%
X95000000Y-97225000D03*
X95000000Y-94725000D03*
X95000000Y-92225000D03*
%TD*%
%TO.C,J9*%
X95000000Y-104750000D03*
X95000000Y-102250000D03*
X95000000Y-99750000D03*
%TD*%
D12*
%TO.C,J11*%
X128341200Y-121945400D03*
D13*
X125801200Y-121945400D03*
%TD*%
D10*
%TO.C,J12*%
X95021400Y-115036600D03*
X95021400Y-112496600D03*
X95021400Y-109956600D03*
X95021400Y-107416600D03*
%TD*%
%TO.C,J10*%
X129006600Y-114691000D03*
X129006600Y-112151000D03*
X129006600Y-109611000D03*
X129006600Y-107071000D03*
%TD*%
D14*
%TO.C,J2*%
X95050000Y-89695000D03*
X95050000Y-87155000D03*
X95050000Y-84615000D03*
X95050000Y-82075000D03*
%TD*%
D15*
%TO.C,0/1*%
X118215200Y-129540000D03*
X125015200Y-129540000D03*
%TD*%
D16*
%TO.C,J3*%
X115291960Y-126386980D03*
D17*
X107691960Y-130186980D03*
X115441960Y-130186980D03*
D16*
X107841960Y-126386980D03*
D18*
X114066960Y-127436980D03*
X109066960Y-127436980D03*
%TD*%
M02*
