%TF.GenerationSoftware,KiCad,Pcbnew,(6.0.1)*%
%TF.CreationDate,2022-04-26T22:40:30-05:00*%
%TF.ProjectId,LEDStripBoards,4c454453-7472-4697-9042-6f617264732e,rev?*%
%TF.SameCoordinates,Original*%
%TF.FileFunction,Copper,L2,Bot*%
%TF.FilePolarity,Positive*%
%FSLAX46Y46*%
G04 Gerber Fmt 4.6, Leading zero omitted, Abs format (unit mm)*
G04 Created by KiCad (PCBNEW (6.0.1)) date 2022-04-26 22:40:30*
%MOMM*%
%LPD*%
G01*
G04 APERTURE LIST*
G04 Aperture macros list*
%AMRoundRect*
0 Rectangle with rounded corners*
0 $1 Rounding radius*
0 $2 $3 $4 $5 $6 $7 $8 $9 X,Y pos of 4 corners*
0 Add a 4 corners polygon primitive as box body*
4,1,4,$2,$3,$4,$5,$6,$7,$8,$9,$2,$3,0*
0 Add four circle primitives for the rounded corners*
1,1,$1+$1,$2,$3*
1,1,$1+$1,$4,$5*
1,1,$1+$1,$6,$7*
1,1,$1+$1,$8,$9*
0 Add four rect primitives between the rounded corners*
20,1,$1+$1,$2,$3,$4,$5,0*
20,1,$1+$1,$4,$5,$6,$7,0*
20,1,$1+$1,$6,$7,$8,$9,0*
20,1,$1+$1,$8,$9,$2,$3,0*%
G04 Aperture macros list end*
%TA.AperFunction,ComponentPad*%
%ADD10C,2.100000*%
%TD*%
%TA.AperFunction,ComponentPad*%
%ADD11R,2.100000X2.100000*%
%TD*%
%TA.AperFunction,ComponentPad*%
%ADD12O,1.700000X1.700000*%
%TD*%
%TA.AperFunction,ComponentPad*%
%ADD13R,1.700000X1.700000*%
%TD*%
%TA.AperFunction,SMDPad,CuDef*%
%ADD14RoundRect,0.243750X0.456250X-0.243750X0.456250X0.243750X-0.456250X0.243750X-0.456250X-0.243750X0*%
%TD*%
%TA.AperFunction,SMDPad,CuDef*%
%ADD15RoundRect,0.250000X0.625000X-0.375000X0.625000X0.375000X-0.625000X0.375000X-0.625000X-0.375000X0*%
%TD*%
%TA.AperFunction,ComponentPad*%
%ADD16C,2.020000*%
%TD*%
%TA.AperFunction,SMDPad,CuDef*%
%ADD17RoundRect,0.250000X-0.625000X0.375000X-0.625000X-0.375000X0.625000X-0.375000X0.625000X0.375000X0*%
%TD*%
%TA.AperFunction,SMDPad,CuDef*%
%ADD18R,1.100000X1.100000*%
%TD*%
%TA.AperFunction,SMDPad,CuDef*%
%ADD19R,1.500000X0.900000*%
%TD*%
%TA.AperFunction,SMDPad,CuDef*%
%ADD20R,0.900000X1.500000*%
%TD*%
%TA.AperFunction,SMDPad,CuDef*%
%ADD21R,3.800000X2.200000*%
%TD*%
%TA.AperFunction,SMDPad,CuDef*%
%ADD22R,1.500000X2.200000*%
%TD*%
%TA.AperFunction,SMDPad,CuDef*%
%ADD23R,0.650000X1.750000*%
%TD*%
%TA.AperFunction,SMDPad,CuDef*%
%ADD24R,1.250000X2.500000*%
%TD*%
%TA.AperFunction,ComponentPad*%
%ADD25O,1.450000X2.000000*%
%TD*%
%TA.AperFunction,ComponentPad*%
%ADD26O,1.150000X1.800000*%
%TD*%
%TA.AperFunction,SMDPad,CuDef*%
%ADD27R,0.450000X1.300000*%
%TD*%
%TA.AperFunction,SMDPad,CuDef*%
%ADD28R,1.700000X1.948000*%
%TD*%
%TA.AperFunction,ViaPad*%
%ADD29C,0.800000*%
%TD*%
%TA.AperFunction,Conductor*%
%ADD30C,0.250000*%
%TD*%
%TA.AperFunction,Conductor*%
%ADD31C,0.200000*%
%TD*%
G04 APERTURE END LIST*
D10*
%TO.P,J1,2,Pin_2*%
%TO.N,GND*%
X95046800Y-74525200D03*
D11*
%TO.P,J1,1,Pin_1*%
%TO.N,VBUS*%
X95046800Y-71985200D03*
%TD*%
D10*
%TO.P,J4,4,Pin_4*%
%TO.N,IO03*%
X128955800Y-79502000D03*
%TO.P,J4,3,Pin_3*%
%TO.N,IO02*%
X128955800Y-77002000D03*
%TO.P,J4,2,Pin_2*%
%TO.N,IO01*%
X128955800Y-74502000D03*
%TO.P,J4,1,Pin_1*%
%TO.N,VCC*%
X128955800Y-72002000D03*
%TD*%
%TO.P,J5,5,Pin_5*%
%TO.N,IO08*%
X128981200Y-92016600D03*
%TO.P,J5,4,Pin_4*%
%TO.N,IO07*%
X128981200Y-89516600D03*
%TO.P,J5,3,Pin_3*%
%TO.N,IO06*%
X128981200Y-87016600D03*
%TO.P,J5,2,Pin_2*%
%TO.N,IO05*%
X128981200Y-84516600D03*
%TO.P,J5,1,Pin_1*%
%TO.N,IO04*%
X128981200Y-82016600D03*
%TD*%
%TO.P,J6,5,Pin_5*%
%TO.N,IO13*%
X129006600Y-104513400D03*
%TO.P,J6,4,Pin_4*%
%TO.N,IO12*%
X129006600Y-102013400D03*
%TO.P,J6,3,Pin_3*%
%TO.N,IO11*%
X129006600Y-99513400D03*
%TO.P,J6,2,Pin_2*%
%TO.N,IO10*%
X129006600Y-97013400D03*
%TO.P,J6,1,Pin_1*%
%TO.N,IO09*%
X129006600Y-94513400D03*
%TD*%
%TO.P,J7,2,Pin_2*%
%TO.N,IO45*%
X95050000Y-79550000D03*
%TO.P,J7,1,Pin_1*%
%TO.N,IO46*%
X95050000Y-77050000D03*
%TD*%
%TO.P,J8,3,Pin_3*%
%TO.N,IO36*%
X95000000Y-97225000D03*
%TO.P,J8,2,Pin_2*%
%TO.N,IO37*%
X95000000Y-94725000D03*
%TO.P,J8,1,Pin_1*%
%TO.N,IO38*%
X95000000Y-92225000D03*
%TD*%
%TO.P,J9,3,Pin_3*%
%TO.N,IO33*%
X95000000Y-104750000D03*
%TO.P,J9,2,Pin_2*%
%TO.N,IO34*%
X95000000Y-102250000D03*
%TO.P,J9,1,Pin_1*%
%TO.N,IO35*%
X95000000Y-99750000D03*
%TD*%
D12*
%TO.P,J11,2,Pin_2*%
%TO.N,Boot*%
X128341200Y-121945400D03*
D13*
%TO.P,J11,1,Pin_1*%
%TO.N,GND*%
X125801200Y-121945400D03*
%TD*%
D10*
%TO.P,J12,4,Pin_4*%
%TO.N,USB_D-*%
X95021400Y-115036600D03*
%TO.P,J12,3,Pin_3*%
%TO.N,USB_D+*%
X95021400Y-112496600D03*
%TO.P,J12,2,Pin_2*%
%TO.N,IO21*%
X95021400Y-109956600D03*
%TO.P,J12,1,Pin_1*%
%TO.N,IO26*%
X95021400Y-107416600D03*
%TD*%
%TO.P,J10,4,Pin_4*%
%TO.N,IO17*%
X129006600Y-114691000D03*
%TO.P,J10,3,Pin_3*%
%TO.N,IO16*%
X129006600Y-112151000D03*
%TO.P,J10,2,Pin_2*%
%TO.N,IO15*%
X129006600Y-109611000D03*
%TO.P,J10,1,Pin_1*%
%TO.N,IO14*%
X129006600Y-107071000D03*
%TD*%
D14*
%TO.P,0.1uF,2*%
%TO.N,GND*%
X120802400Y-109580200D03*
%TO.P,0.1uF,1*%
%TO.N,VCC*%
X120802400Y-111455200D03*
%TD*%
%TO.P,22uF,2*%
%TO.N,GND*%
X117144800Y-109631000D03*
%TO.P,22uF,1*%
%TO.N,VCC*%
X117144800Y-111506000D03*
%TD*%
D15*
%TO.P,Pwr,2,A*%
%TO.N,Net-(D1-Pad2)*%
X107086400Y-103428800D03*
%TO.P,Pwr,1,K*%
%TO.N,GND*%
X107086400Y-106228800D03*
%TD*%
D16*
%TO.P,J2,4,Pin_4*%
%TO.N,IO39*%
X95050000Y-89695000D03*
%TO.P,J2,3,Pin_3*%
%TO.N,IO40*%
X95050000Y-87155000D03*
%TO.P,J2,2,Pin_2*%
%TO.N,IO41*%
X95050000Y-84615000D03*
%TO.P,J2,1,Pin_1*%
%TO.N,IO42*%
X95050000Y-82075000D03*
%TD*%
D15*
%TO.P,1k,2*%
%TO.N,Net-(D1-Pad2)*%
X109875000Y-103425000D03*
%TO.P,1k,1*%
%TO.N,VCC*%
X109875000Y-106225000D03*
%TD*%
%TO.P,1k,2*%
%TO.N,RESET*%
X116306600Y-103505000D03*
%TO.P,1k,1*%
%TO.N,VCC*%
X116306600Y-106305000D03*
%TD*%
D17*
%TO.P,10k,2*%
%TO.N,VCC*%
X119675000Y-106275000D03*
%TO.P,10k,1*%
%TO.N,Net-(R5-Pad1)*%
X119675000Y-103475000D03*
%TD*%
D18*
%TO.P,U2,43,GND*%
%TO.N,GND*%
X111990000Y-85225000D03*
X114990000Y-83675000D03*
X111990000Y-86725000D03*
X111990000Y-83675000D03*
X113490000Y-86725000D03*
X113490000Y-85225000D03*
X114990000Y-85225000D03*
X113490000Y-83675000D03*
X114990000Y-86725000D03*
D19*
%TO.P,U2,42,GND*%
X103550000Y-77175000D03*
%TO.P,U2,41,EN*%
%TO.N,RESET*%
X103550000Y-78675000D03*
%TO.P,U2,40,IO46*%
%TO.N,IO46*%
X103550000Y-80175000D03*
%TO.P,U2,39,IO45*%
%TO.N,IO45*%
X103550000Y-81675000D03*
%TO.P,U2,38,RXD0*%
%TO.N,USB_TX_ESP_RX*%
X103550000Y-83175000D03*
%TO.P,U2,37,TXD0*%
%TO.N,USB_RX_ESP_TX*%
X103550000Y-84675000D03*
%TO.P,U2,36,IO42*%
%TO.N,IO42*%
X103550000Y-86175000D03*
%TO.P,U2,35,IO41*%
%TO.N,IO41*%
X103550000Y-87675000D03*
%TO.P,U2,34,IO40*%
%TO.N,IO40*%
X103550000Y-89175000D03*
%TO.P,U2,33,IO39*%
%TO.N,IO39*%
X103550000Y-90675000D03*
%TO.P,U2,32,IO38*%
%TO.N,IO38*%
X103550000Y-92175000D03*
%TO.P,U2,31,IO37*%
%TO.N,IO37*%
X103550000Y-93675000D03*
%TO.P,U2,30,IO36*%
%TO.N,IO36*%
X103550000Y-95175000D03*
%TO.P,U2,29,IO35*%
%TO.N,IO35*%
X103550000Y-96675000D03*
%TO.P,U2,28,IO34*%
%TO.N,IO34*%
X103550000Y-98175000D03*
%TO.P,U2,27,IO33*%
%TO.N,IO33*%
X103550000Y-99675000D03*
D20*
%TO.P,U2,26,GND*%
%TO.N,GND*%
X105550000Y-100425000D03*
%TO.P,U2,25,IO26*%
%TO.N,IO26*%
X107050000Y-100425000D03*
%TO.P,U2,24,IO21*%
%TO.N,IO21*%
X108550000Y-100425000D03*
%TO.P,U2,23,USB_D+*%
%TO.N,USB_D+*%
X110050000Y-100425000D03*
%TO.P,U2,22,USB_D-*%
%TO.N,USB_D-*%
X111550000Y-100425000D03*
%TO.P,U2,21,IO18*%
%TO.N,Net-(R5-Pad1)*%
X113050000Y-100425000D03*
%TO.P,U2,20,IO17*%
%TO.N,IO17*%
X114550000Y-100425000D03*
%TO.P,U2,19,IO16*%
%TO.N,IO16*%
X116050000Y-100425000D03*
%TO.P,U2,18,IO15*%
%TO.N,IO15*%
X117550000Y-100425000D03*
%TO.P,U2,17,IO14*%
%TO.N,IO14*%
X119050000Y-100425000D03*
D19*
%TO.P,U2,16,IO13*%
%TO.N,IO13*%
X121050000Y-99675000D03*
%TO.P,U2,15,IO12*%
%TO.N,IO12*%
X121050000Y-98175000D03*
%TO.P,U2,14,IO11*%
%TO.N,IO11*%
X121050000Y-96675000D03*
%TO.P,U2,13,IO10*%
%TO.N,IO10*%
X121050000Y-95175000D03*
%TO.P,U2,12,IO09*%
%TO.N,IO09*%
X121050000Y-93675000D03*
%TO.P,U2,11,IO08*%
%TO.N,IO08*%
X121050000Y-92175000D03*
%TO.P,U2,10,IO07*%
%TO.N,IO07*%
X121050000Y-90675000D03*
%TO.P,U2,9,IO06*%
%TO.N,IO06*%
X121050000Y-89175000D03*
%TO.P,U2,8,IO05*%
%TO.N,IO05*%
X121050000Y-87675000D03*
%TO.P,U2,7,IO04*%
%TO.N,IO04*%
X121050000Y-86175000D03*
%TO.P,U2,6,IO03*%
%TO.N,IO03*%
X121050000Y-84675000D03*
%TO.P,U2,5,IO02*%
%TO.N,IO02*%
X121050000Y-83175000D03*
%TO.P,U2,4,IO01*%
%TO.N,IO01*%
X121050000Y-81675000D03*
%TO.P,U2,3,IO00*%
%TO.N,Boot*%
X121050000Y-80175000D03*
%TO.P,U2,2,3V3*%
%TO.N,VCC*%
X121050000Y-78675000D03*
%TO.P,U2,1,GND*%
%TO.N,GND*%
X121050000Y-77175000D03*
%TD*%
D14*
%TO.P,470uF,2*%
%TO.N,GND*%
X112674400Y-109707200D03*
%TO.P,470uF,1*%
%TO.N,VCC*%
X112674400Y-111582200D03*
%TD*%
D21*
%TO.P,TLV1117-33,4*%
%TO.N,N/C*%
X106925000Y-121450000D03*
D22*
%TO.P,TLV1117-33,3,VI*%
%TO.N,VBUS*%
X109225000Y-115150000D03*
%TO.P,TLV1117-33,2,VO*%
%TO.N,VCC*%
X106925000Y-115150000D03*
%TO.P,TLV1117-33,1,GND*%
%TO.N,GND*%
X104625000Y-115150000D03*
%TD*%
D23*
%TO.P,CH330N,8,V3*%
%TO.N,VCC*%
X119480000Y-115225000D03*
%TO.P,CH330N,7,RXD*%
%TO.N,USB_RX_ESP_TX*%
X118210000Y-115225000D03*
%TO.P,CH330N,6,TXD*%
%TO.N,USB_TX_ESP_RX*%
X116940000Y-115225000D03*
%TO.P,CH330N,5,VCC*%
%TO.N,VCC*%
X115670000Y-115225000D03*
%TO.P,CH330N,4,~{RTS}*%
%TO.N,unconnected-(U3-Pad4)*%
X115670000Y-120725000D03*
%TO.P,CH330N,3,GND*%
%TO.N,GND*%
X116940000Y-120725000D03*
%TO.P,CH330N,2,UD-*%
%TO.N,D-*%
X118210000Y-120725000D03*
%TO.P,CH330N,1,UD+*%
%TO.N,D+*%
X119480000Y-120725000D03*
%TD*%
D14*
%TO.P,1uF,2*%
%TO.N,GND*%
X109118400Y-109626400D03*
%TO.P,1uF,1*%
%TO.N,VBUS*%
X109118400Y-111501400D03*
%TD*%
D24*
%TO.P,0/1,3,C*%
%TO.N,VBUS*%
X119115200Y-126790000D03*
%TO.P,0/1,2,B*%
%TO.N,+5V*%
X121615200Y-126790000D03*
%TO.P,0/1,1,A*%
%TO.N,unconnected-(SW1-Pad1)*%
X124115200Y-126790000D03*
%TD*%
D25*
%TO.P,J3,6,Shield*%
%TO.N,unconnected-(J3-Pad6)*%
X115291960Y-126386980D03*
D26*
X107691960Y-130186980D03*
X115441960Y-130186980D03*
D25*
X107841960Y-126386980D03*
D27*
%TO.P,J3,5,GND*%
%TO.N,GND*%
X110266960Y-126336980D03*
%TO.P,J3,4,ID*%
%TO.N,unconnected-(J3-Pad4)*%
X110916960Y-126336980D03*
%TO.P,J3,3,D+*%
%TO.N,D+*%
X111566960Y-126336980D03*
%TO.P,J3,2,D-*%
%TO.N,D-*%
X112216960Y-126336980D03*
%TO.P,J3,1,VBUS*%
%TO.N,+5V*%
X112866960Y-126336980D03*
%TD*%
D28*
%TO.P,Reset,2,D*%
%TO.N,RESET*%
X103276400Y-126620800D03*
%TO.P,Reset,1,C*%
%TO.N,GND*%
X103276400Y-130020800D03*
%TD*%
%TO.P,Boot,2,D*%
%TO.N,Boot*%
X128447800Y-126798600D03*
%TO.P,Boot,1,C*%
%TO.N,GND*%
X128447800Y-130198600D03*
%TD*%
D29*
%TO.N,GND*%
X120929400Y-130302000D03*
X97358200Y-123875800D03*
X121945400Y-107162600D03*
X103886000Y-103428800D03*
X105181400Y-107086400D03*
X113125000Y-123600000D03*
X110350000Y-123675000D03*
X125399800Y-103632000D03*
X125247400Y-107086400D03*
X105867200Y-98729800D03*
%TO.N,VCC*%
X123075000Y-106025000D03*
X123063000Y-77114400D03*
%TO.N,VBUS*%
X118999000Y-124815600D03*
X109225000Y-112923400D03*
%TO.N,IO26*%
X104610500Y-102295100D03*
X107035600Y-100076000D03*
%TO.N,IO21*%
X105611900Y-103180991D03*
X108559600Y-100076000D03*
%TO.N,IO17*%
X114554000Y-100177600D03*
%TO.N,IO16*%
X116052600Y-100177600D03*
%TO.N,IO15*%
X117551200Y-100152200D03*
%TO.N,IO14*%
X119049800Y-100203000D03*
%TO.N,USB_TX_ESP_RX*%
X101149998Y-83150000D03*
X103475000Y-111550000D03*
%TO.N,USB_RX_ESP_TX*%
X102108000Y-84582000D03*
X102387500Y-108966000D03*
%TO.N,USB_D+*%
X104800400Y-111556800D03*
X110058200Y-100076000D03*
X106400600Y-107975400D03*
%TO.N,USB_D-*%
X111556800Y-100076000D03*
X104800400Y-112877600D03*
X107797600Y-108280200D03*
%TD*%
D30*
%TO.N,GND*%
X116940000Y-120725000D02*
X116940000Y-121566000D01*
X109118400Y-108260800D02*
X109118400Y-109626400D01*
X110266960Y-123758040D02*
X110350000Y-123675000D01*
X110266960Y-126336980D02*
X110266960Y-123758040D01*
X105867200Y-100107800D02*
X105550000Y-100425000D01*
X107086400Y-106228800D02*
X107310900Y-106228800D01*
X104625000Y-114800000D02*
X105924431Y-113500569D01*
X105924431Y-113500569D02*
X105924431Y-111905969D01*
X107086400Y-106228800D02*
X109118400Y-108260800D01*
X104625000Y-115150000D02*
X104625000Y-114800000D01*
X116940000Y-121566000D02*
X114906000Y-123600000D01*
X114906000Y-123600000D02*
X113125000Y-123600000D01*
X105924431Y-111905969D02*
X108204000Y-109626400D01*
X108204000Y-109626400D02*
X109118400Y-109626400D01*
X105867200Y-98729800D02*
X105867200Y-100107800D01*
%TO.N,VCC*%
X119480000Y-112777600D02*
X120802400Y-111455200D01*
X117144800Y-111506000D02*
X117068600Y-111582200D01*
X123843400Y-77114400D02*
X128955800Y-72002000D01*
X111530620Y-110438420D02*
X108677725Y-110438420D01*
X121502400Y-78675000D02*
X121050000Y-78675000D01*
X119480000Y-115225000D02*
X119480000Y-112777600D01*
X117144800Y-111506000D02*
X120751600Y-111506000D01*
X123063000Y-77114400D02*
X121502400Y-78675000D01*
X106925000Y-112191145D02*
X106925000Y-115150000D01*
X109925000Y-106275000D02*
X109875000Y-106225000D01*
X123063000Y-77114400D02*
X123843400Y-77114400D01*
X115670000Y-115225000D02*
X115670000Y-111583800D01*
X112674400Y-111582200D02*
X111530620Y-110438420D01*
X108677725Y-110438420D02*
X106925000Y-112191145D01*
X120802400Y-111455200D02*
X122807300Y-111455200D01*
X124312500Y-107262500D02*
X123075000Y-106025000D01*
X122807300Y-111455200D02*
X124312500Y-109950000D01*
X124312500Y-109950000D02*
X124312500Y-107262500D01*
X119675000Y-106275000D02*
X109925000Y-106275000D01*
X123075000Y-106025000D02*
X119925000Y-106025000D01*
X117068600Y-111582200D02*
X112674400Y-111582200D01*
X120751600Y-111506000D02*
X120802400Y-111455200D01*
%TO.N,VBUS*%
X109225000Y-115150000D02*
X109225000Y-112923400D01*
X119115200Y-124931800D02*
X119115200Y-126790000D01*
X118999000Y-124815600D02*
X119115200Y-124931800D01*
X109225000Y-112923400D02*
X109225000Y-111608000D01*
X109225000Y-111608000D02*
X109118400Y-111501400D01*
%TO.N,D+*%
X119404999Y-119524999D02*
X119480000Y-119600000D01*
X111592360Y-126286260D02*
X111574580Y-122801380D01*
X119480000Y-119600000D02*
X119480000Y-120725000D01*
X115084999Y-119524999D02*
X119404999Y-119524999D01*
X111574580Y-122801380D02*
X115084999Y-119524999D01*
%TO.N,D-*%
X118210000Y-121275000D02*
X114517000Y-124968000D01*
X112216960Y-125526978D02*
X112216960Y-126336980D01*
X118210000Y-120725000D02*
X118210000Y-121275000D01*
X114517000Y-124968000D02*
X112775938Y-124968000D01*
X112775938Y-124968000D02*
X112216960Y-125526978D01*
%TO.N,Net-(D1-Pad2)*%
X109875000Y-103425000D02*
X107090200Y-103425000D01*
%TO.N,IO10*%
X121050000Y-95175000D02*
X121075000Y-95150000D01*
X127063400Y-97013400D02*
X129006600Y-97013400D01*
X125200000Y-95150000D02*
X127063400Y-97013400D01*
X121075000Y-95150000D02*
X125200000Y-95150000D01*
%TO.N,IO11*%
X124691200Y-96675000D02*
X127529600Y-99513400D01*
X121050000Y-96675000D02*
X124691200Y-96675000D01*
X127529600Y-99513400D02*
X129006600Y-99513400D01*
%TO.N,IO12*%
X124158800Y-98200000D02*
X127972200Y-102013400D01*
X121075000Y-98200000D02*
X124158800Y-98200000D01*
X121050000Y-98175000D02*
X121075000Y-98200000D01*
X127972200Y-102013400D02*
X129006600Y-102013400D01*
%TO.N,IO13*%
X123982800Y-99675000D02*
X128821200Y-104513400D01*
X128821200Y-104513400D02*
X129006600Y-104513400D01*
X121050000Y-99675000D02*
X123982800Y-99675000D01*
%TO.N,Boot*%
X128320800Y-126798600D02*
X127025400Y-125503200D01*
X127050800Y-121945400D02*
X127025400Y-121920000D01*
X119975489Y-80900489D02*
X120700978Y-80175000D01*
X128341200Y-121945400D02*
X127050800Y-121945400D01*
X120700978Y-80175000D02*
X121050000Y-80175000D01*
X121050000Y-80175000D02*
X120764998Y-80175000D01*
X127025400Y-125503200D02*
X127025400Y-121920000D01*
X127025400Y-107499422D02*
X119975489Y-100449511D01*
X119975489Y-100449511D02*
X119975489Y-80900489D01*
X127025400Y-121920000D02*
X127025400Y-107499422D01*
%TO.N,IO39*%
X103550000Y-90675000D02*
X96030000Y-90675000D01*
X96030000Y-90675000D02*
X95050000Y-89695000D01*
%TO.N,IO40*%
X97070000Y-89175000D02*
X95050000Y-87155000D01*
X103550000Y-89175000D02*
X97070000Y-89175000D01*
%TO.N,IO41*%
X98110000Y-87675000D02*
X95050000Y-84615000D01*
X103550000Y-87675000D02*
X98110000Y-87675000D01*
%TO.N,IO42*%
X99150000Y-86175000D02*
X95050000Y-82075000D01*
X103550000Y-86175000D02*
X99150000Y-86175000D01*
%TO.N,IO01*%
X121050000Y-81675000D02*
X121350000Y-81675000D01*
X128523000Y-74502000D02*
X128955800Y-74502000D01*
X121350000Y-81675000D02*
X128523000Y-74502000D01*
%TO.N,IO02*%
X121050000Y-83175000D02*
X121925000Y-83175000D01*
X128098000Y-77002000D02*
X128955800Y-77002000D01*
X121925000Y-83175000D02*
X128098000Y-77002000D01*
%TO.N,IO03*%
X122925000Y-84675000D02*
X128098000Y-79502000D01*
X121050000Y-84675000D02*
X122925000Y-84675000D01*
X128098000Y-79502000D02*
X128955800Y-79502000D01*
%TO.N,IO04*%
X123950000Y-86175000D02*
X128108400Y-82016600D01*
X121050000Y-86175000D02*
X123950000Y-86175000D01*
X128108400Y-82016600D02*
X128981200Y-82016600D01*
%TO.N,IO05*%
X121050000Y-87675000D02*
X125000000Y-87675000D01*
X128158400Y-84516600D02*
X128981200Y-84516600D01*
X125000000Y-87675000D02*
X128158400Y-84516600D01*
%TO.N,IO46*%
X98175000Y-80175000D02*
X95050000Y-77050000D01*
X103550000Y-80175000D02*
X98175000Y-80175000D01*
%TO.N,IO45*%
X103550000Y-81675000D02*
X97175000Y-81675000D01*
X97175000Y-81675000D02*
X95050000Y-79550000D01*
%TO.N,IO38*%
X103550000Y-92175000D02*
X95050000Y-92175000D01*
X95050000Y-92175000D02*
X95000000Y-92225000D01*
%TO.N,IO37*%
X96050000Y-93675000D02*
X95000000Y-94725000D01*
X103550000Y-93675000D02*
X96050000Y-93675000D01*
%TO.N,IO36*%
X103550000Y-95175000D02*
X97050000Y-95175000D01*
X97050000Y-95175000D02*
X95000000Y-97225000D01*
%TO.N,IO35*%
X98075000Y-96675000D02*
X95000000Y-99750000D01*
X103550000Y-96675000D02*
X98075000Y-96675000D01*
%TO.N,IO34*%
X103550000Y-98175000D02*
X99075000Y-98175000D01*
X99075000Y-98175000D02*
X95000000Y-102250000D01*
%TO.N,IO33*%
X95000000Y-104525000D02*
X95000000Y-104750000D01*
X99850000Y-99675000D02*
X95000000Y-104525000D01*
X103550000Y-99675000D02*
X99850000Y-99675000D01*
%TO.N,IO26*%
X101870100Y-102295100D02*
X104610500Y-102295100D01*
X96748600Y-107416600D02*
X101870100Y-102295100D01*
X95021400Y-107416600D02*
X96748600Y-107416600D01*
%TO.N,IO21*%
X98836291Y-109956600D02*
X105611900Y-103180991D01*
X95021400Y-109956600D02*
X98836291Y-109956600D01*
%TO.N,IO06*%
X121050000Y-89175000D02*
X126822800Y-89175000D01*
X126822800Y-89175000D02*
X128981200Y-87016600D01*
%TO.N,IO07*%
X121050000Y-90675000D02*
X127822800Y-90675000D01*
X127822800Y-90675000D02*
X128981200Y-89516600D01*
%TO.N,IO08*%
X128822800Y-92175000D02*
X128981200Y-92016600D01*
X121050000Y-92175000D02*
X128822800Y-92175000D01*
%TO.N,IO09*%
X128168200Y-93675000D02*
X129006600Y-94513400D01*
X121050000Y-93675000D02*
X128168200Y-93675000D01*
%TO.N,unconnected-(J3-Pad6)*%
X107841960Y-126386980D02*
X107841960Y-130036980D01*
X107841960Y-130036980D02*
X107691960Y-130186980D01*
%TO.N,RESET*%
X110319693Y-102057200D02*
X105397198Y-102057200D01*
X104775489Y-101435491D02*
X104775489Y-78900489D01*
X101662989Y-108665897D02*
X105503086Y-104825800D01*
X115968720Y-102557520D02*
X110820013Y-102557520D01*
X116306600Y-102895400D02*
X115968720Y-102557520D01*
X115849400Y-104825800D02*
X116306600Y-104368600D01*
X110820013Y-102557520D02*
X110319693Y-102057200D01*
X101662989Y-125159789D02*
X101662989Y-108665897D01*
X104775489Y-78900489D02*
X104550000Y-78675000D01*
X103225600Y-126722400D02*
X101662989Y-125159789D01*
X116306600Y-103505000D02*
X116306600Y-102895400D01*
X105503086Y-104825800D02*
X115849400Y-104825800D01*
X105397198Y-102057200D02*
X104775489Y-101435491D01*
X104550000Y-78675000D02*
X103550000Y-78675000D01*
X116306600Y-104368600D02*
X116306600Y-103505000D01*
%TO.N,USB_TX_ESP_RX*%
X103475000Y-116435002D02*
X103475000Y-111550000D01*
X103550000Y-83175000D02*
X101174998Y-83175000D01*
X103614999Y-116575001D02*
X103475000Y-116435002D01*
X116940000Y-115225000D02*
X116940000Y-115804022D01*
X116940000Y-115804022D02*
X116169021Y-116575001D01*
X101174998Y-83175000D02*
X101149998Y-83150000D01*
X116169021Y-116575001D02*
X103614999Y-116575001D01*
%TO.N,USB_RX_ESP_TX*%
X102108000Y-84582000D02*
X103457000Y-84582000D01*
X102387500Y-115983912D02*
X103428598Y-117025010D01*
X103428598Y-117025010D02*
X117534990Y-117025010D01*
X118210000Y-116350000D02*
X118210000Y-115225000D01*
X117534990Y-117025010D02*
X118210000Y-116350000D01*
X102387500Y-108966000D02*
X102387500Y-115983912D01*
%TO.N,+5V*%
X119881200Y-128524000D02*
X121615200Y-126790000D01*
X113284000Y-128524000D02*
X119881200Y-128524000D01*
X112866960Y-126336980D02*
X112866960Y-128106960D01*
X112866960Y-128106960D02*
X113284000Y-128524000D01*
%TO.N,Net-(R5-Pad1)*%
X119227600Y-102108000D02*
X119675000Y-102555400D01*
X113050000Y-100425000D02*
X113050000Y-102108000D01*
X113050000Y-102108000D02*
X119227600Y-102108000D01*
X119675000Y-102555400D02*
X119675000Y-103475000D01*
D31*
%TO.N,USB_D+*%
X106400600Y-109143800D02*
X104800400Y-110744000D01*
X104800400Y-110744000D02*
X104800400Y-111556800D01*
X106400600Y-107975400D02*
X106400600Y-109143800D01*
%TO.N,USB_D-*%
X107797600Y-108280200D02*
X107797600Y-108813600D01*
X105499911Y-112178089D02*
X104800400Y-112877600D01*
X105499911Y-111111289D02*
X105499911Y-112178089D01*
X107797600Y-108813600D02*
X105499911Y-111111289D01*
%TD*%
%TA.AperFunction,Conductor*%
%TO.N,GND*%
G36*
X124075391Y-105445317D02*
G01*
X125217981Y-106587908D01*
X126354995Y-107724922D01*
X126389021Y-107787234D01*
X126391900Y-107814017D01*
X126391900Y-120461400D01*
X126371898Y-120529521D01*
X126318242Y-120576014D01*
X126265900Y-120587400D01*
X126073315Y-120587400D01*
X126058076Y-120591875D01*
X126056871Y-120593265D01*
X126055200Y-120600948D01*
X126055200Y-123285284D01*
X126059675Y-123300523D01*
X126061065Y-123301728D01*
X126068748Y-123303399D01*
X126265900Y-123303399D01*
X126334021Y-123323401D01*
X126380514Y-123377057D01*
X126391900Y-123429399D01*
X126391900Y-125424433D01*
X126391373Y-125435616D01*
X126389698Y-125443109D01*
X126389947Y-125451035D01*
X126389947Y-125451036D01*
X126391838Y-125511186D01*
X126391900Y-125515145D01*
X126391900Y-125543056D01*
X126392397Y-125546990D01*
X126392397Y-125546991D01*
X126392405Y-125547056D01*
X126393338Y-125558893D01*
X126394727Y-125603089D01*
X126400378Y-125622539D01*
X126404387Y-125641900D01*
X126406926Y-125661997D01*
X126409845Y-125669368D01*
X126409845Y-125669370D01*
X126423204Y-125703112D01*
X126427049Y-125714342D01*
X126430872Y-125727500D01*
X126439382Y-125756793D01*
X126443415Y-125763612D01*
X126443417Y-125763617D01*
X126449693Y-125774228D01*
X126458388Y-125791976D01*
X126465848Y-125810817D01*
X126470510Y-125817233D01*
X126470510Y-125817234D01*
X126491836Y-125846587D01*
X126498352Y-125856507D01*
X126520858Y-125894562D01*
X126535179Y-125908883D01*
X126548019Y-125923916D01*
X126559928Y-125940307D01*
X126566034Y-125945358D01*
X126594005Y-125968498D01*
X126602784Y-125976488D01*
X127052395Y-126426099D01*
X127086421Y-126488411D01*
X127089300Y-126515194D01*
X127089300Y-127820734D01*
X127096055Y-127882916D01*
X127147185Y-128019305D01*
X127234539Y-128135861D01*
X127351095Y-128223215D01*
X127487484Y-128274345D01*
X127549666Y-128281100D01*
X129345934Y-128281100D01*
X129408116Y-128274345D01*
X129544505Y-128223215D01*
X129661061Y-128135861D01*
X129748415Y-128019305D01*
X129799545Y-127882916D01*
X129806300Y-127820734D01*
X129806300Y-125776466D01*
X129799545Y-125714284D01*
X129748415Y-125577895D01*
X129661061Y-125461339D01*
X129544505Y-125373985D01*
X129408116Y-125322855D01*
X129345934Y-125316100D01*
X127786395Y-125316100D01*
X127718274Y-125296098D01*
X127697300Y-125279195D01*
X127695805Y-125277700D01*
X127661779Y-125215388D01*
X127658900Y-125188605D01*
X127658900Y-123322099D01*
X127678902Y-123253978D01*
X127732558Y-123207485D01*
X127802832Y-123197381D01*
X127829846Y-123204388D01*
X127960892Y-123254430D01*
X127965960Y-123255461D01*
X127965963Y-123255462D01*
X128073217Y-123277283D01*
X128179797Y-123298967D01*
X128184972Y-123299157D01*
X128184974Y-123299157D01*
X128397873Y-123306964D01*
X128397877Y-123306964D01*
X128403037Y-123307153D01*
X128408157Y-123306497D01*
X128408159Y-123306497D01*
X128619488Y-123279425D01*
X128619489Y-123279425D01*
X128624616Y-123278768D01*
X128629566Y-123277283D01*
X128833629Y-123216061D01*
X128833634Y-123216059D01*
X128838584Y-123214574D01*
X129039194Y-123116296D01*
X129221060Y-122986573D01*
X129288567Y-122919302D01*
X129375635Y-122832537D01*
X129379296Y-122828889D01*
X129384300Y-122821926D01*
X129506635Y-122651677D01*
X129509653Y-122647477D01*
X129535729Y-122594717D01*
X129606336Y-122451853D01*
X129606337Y-122451851D01*
X129608630Y-122447211D01*
X129673570Y-122233469D01*
X129702729Y-122011990D01*
X129704356Y-121945400D01*
X129686052Y-121722761D01*
X129631631Y-121506102D01*
X129542554Y-121301240D01*
X129421214Y-121113677D01*
X129270870Y-120948451D01*
X129266819Y-120945252D01*
X129266815Y-120945248D01*
X129099614Y-120813200D01*
X129099610Y-120813198D01*
X129095559Y-120809998D01*
X128899989Y-120702038D01*
X128895120Y-120700314D01*
X128895116Y-120700312D01*
X128694287Y-120629195D01*
X128694283Y-120629194D01*
X128689412Y-120627469D01*
X128684319Y-120626562D01*
X128684316Y-120626561D01*
X128474573Y-120589200D01*
X128474567Y-120589199D01*
X128469484Y-120588294D01*
X128395652Y-120587392D01*
X128251281Y-120585628D01*
X128251279Y-120585628D01*
X128246111Y-120585565D01*
X128025291Y-120619355D01*
X127824043Y-120685133D01*
X127753082Y-120687284D01*
X127692220Y-120650728D01*
X127660783Y-120587071D01*
X127658900Y-120565368D01*
X127658900Y-115854313D01*
X127678902Y-115786192D01*
X127732558Y-115739699D01*
X127802832Y-115729595D01*
X127867412Y-115759089D01*
X127880711Y-115772483D01*
X127897954Y-115792672D01*
X127897959Y-115792677D01*
X127901167Y-115796433D01*
X127904923Y-115799641D01*
X128031483Y-115907734D01*
X128087704Y-115955752D01*
X128091927Y-115958340D01*
X128091930Y-115958342D01*
X128093433Y-115959263D01*
X128296868Y-116083927D01*
X128306868Y-116088069D01*
X128518935Y-116175911D01*
X128518937Y-116175912D01*
X128523508Y-116177805D01*
X128606163Y-116197649D01*
X128757230Y-116233917D01*
X128757236Y-116233918D01*
X128762043Y-116235072D01*
X129006600Y-116254319D01*
X129251157Y-116235072D01*
X129255964Y-116233918D01*
X129255970Y-116233917D01*
X129407037Y-116197649D01*
X129489692Y-116177805D01*
X129494263Y-116175912D01*
X129494265Y-116175911D01*
X129706332Y-116088069D01*
X129716332Y-116083927D01*
X129919767Y-115959263D01*
X129921270Y-115958342D01*
X129921273Y-115958340D01*
X129925496Y-115955752D01*
X129981718Y-115907734D01*
X130108277Y-115799641D01*
X130112033Y-115796433D01*
X130169162Y-115729545D01*
X130228612Y-115690736D01*
X130299606Y-115690230D01*
X130359605Y-115728186D01*
X130389558Y-115792555D01*
X130390972Y-115811449D01*
X130382622Y-130292915D01*
X130382603Y-130325562D01*
X130381102Y-130344877D01*
X130378769Y-130359855D01*
X130378769Y-130359861D01*
X130377388Y-130368730D01*
X130379059Y-130381510D01*
X130379653Y-130408715D01*
X130366059Y-130565624D01*
X130362319Y-130587045D01*
X130316067Y-130761434D01*
X130308697Y-130781897D01*
X130244311Y-130921515D01*
X130233142Y-130945734D01*
X130222362Y-130964626D01*
X130119756Y-131113026D01*
X130105889Y-131129781D01*
X130021572Y-131215394D01*
X129959521Y-131249894D01*
X129888669Y-131245369D01*
X129831511Y-131203257D01*
X129806193Y-131136928D01*
X129805800Y-131126981D01*
X129805800Y-130470715D01*
X129801325Y-130455476D01*
X129799935Y-130454271D01*
X129792252Y-130452600D01*
X127107916Y-130452600D01*
X127092677Y-130457075D01*
X127091472Y-130458465D01*
X127089801Y-130466148D01*
X127089801Y-131217269D01*
X127090171Y-131224090D01*
X127095695Y-131274952D01*
X127099321Y-131290203D01*
X127119377Y-131343702D01*
X127124560Y-131414509D01*
X127090640Y-131476878D01*
X127028385Y-131511007D01*
X127001242Y-131513932D01*
X116290102Y-131500914D01*
X116222005Y-131480829D01*
X116175578Y-131427117D01*
X116165559Y-131356831D01*
X116199238Y-131287783D01*
X116291980Y-131190904D01*
X116291985Y-131190898D01*
X116296133Y-131186565D01*
X116323718Y-131143844D01*
X116405028Y-131017915D01*
X116408283Y-131012874D01*
X116413345Y-131000315D01*
X116483322Y-130826679D01*
X116483323Y-130826676D01*
X116485566Y-130821110D01*
X116512740Y-130681961D01*
X116524325Y-130622638D01*
X116524325Y-130622635D01*
X116525193Y-130618192D01*
X116525460Y-130612733D01*
X116525460Y-129810329D01*
X116510751Y-129656163D01*
X116452550Y-129457773D01*
X116415804Y-129386425D01*
X116392507Y-129341192D01*
X116379098Y-129271473D01*
X116405511Y-129205573D01*
X116463360Y-129164414D01*
X116504523Y-129157500D01*
X117161314Y-129157500D01*
X117229435Y-129177502D01*
X117275928Y-129231158D01*
X117286032Y-129301432D01*
X117283245Y-129315261D01*
X117269859Y-129366653D01*
X117263098Y-129392607D01*
X117262764Y-129398986D01*
X117254197Y-129562454D01*
X117252907Y-129587064D01*
X117272579Y-129717140D01*
X117279247Y-129761227D01*
X117282025Y-129779599D01*
X117284228Y-129785585D01*
X117284229Y-129785591D01*
X117347060Y-129956360D01*
X117347062Y-129956365D01*
X117349263Y-129962346D01*
X117352625Y-129967768D01*
X117425961Y-130086046D01*
X117451874Y-130127840D01*
X117585666Y-130269322D01*
X117590896Y-130272984D01*
X117590897Y-130272985D01*
X117612838Y-130288348D01*
X117745175Y-130381011D01*
X117777694Y-130395083D01*
X117918025Y-130455810D01*
X117918029Y-130455811D01*
X117923884Y-130458345D01*
X117930131Y-130459650D01*
X117930134Y-130459651D01*
X118109757Y-130497176D01*
X118109762Y-130497177D01*
X118114493Y-130498165D01*
X118120885Y-130498500D01*
X118263863Y-130498500D01*
X118333151Y-130491462D01*
X118402578Y-130484410D01*
X118402579Y-130484410D01*
X118408927Y-130483765D01*
X118485876Y-130459651D01*
X118588651Y-130427444D01*
X118588656Y-130427442D01*
X118594741Y-130425535D01*
X118697219Y-130368730D01*
X118759471Y-130334223D01*
X118759474Y-130334221D01*
X118765050Y-130331130D01*
X118769891Y-130326981D01*
X118769895Y-130326978D01*
X118908055Y-130208560D01*
X118912898Y-130204409D01*
X119032246Y-130050547D01*
X119043758Y-130027153D01*
X119115400Y-129881556D01*
X119118218Y-129875829D01*
X119119889Y-129869414D01*
X119165692Y-129693575D01*
X119165692Y-129693572D01*
X119167302Y-129687393D01*
X119173847Y-129562500D01*
X122049876Y-129562500D01*
X122089723Y-129619407D01*
X122100705Y-129638428D01*
X122190626Y-129831265D01*
X122198138Y-129851903D01*
X122253208Y-130057425D01*
X122257022Y-130079056D01*
X122258764Y-130098974D01*
X122625337Y-130465547D01*
X123092853Y-129998031D01*
X123080539Y-129937504D01*
X123079427Y-129931226D01*
X123050309Y-129738691D01*
X123049515Y-129732365D01*
X123041857Y-129655644D01*
X123041384Y-129649284D01*
X123040140Y-129623849D01*
X123039990Y-129617475D01*
X123040124Y-129540371D01*
X123040297Y-129533995D01*
X123042233Y-129497056D01*
X123031410Y-129493755D01*
X123023941Y-129491219D01*
X122887552Y-129440089D01*
X122879280Y-129436648D01*
X122865200Y-129430194D01*
X122851120Y-129436648D01*
X122842848Y-129440089D01*
X122706459Y-129491219D01*
X122698990Y-129493755D01*
X122607774Y-129521578D01*
X122600159Y-129523643D01*
X122569537Y-129530924D01*
X122561809Y-129532507D01*
X122467836Y-129548717D01*
X122460026Y-129549814D01*
X122397844Y-129556569D01*
X122394452Y-129556891D01*
X122353367Y-129560233D01*
X122349965Y-129560464D01*
X122336357Y-129561201D01*
X122332951Y-129561339D01*
X122291742Y-129562454D01*
X122288334Y-129562500D01*
X122049876Y-129562500D01*
X119173847Y-129562500D01*
X119173908Y-129561339D01*
X119177159Y-129499317D01*
X119177159Y-129499313D01*
X119177493Y-129492936D01*
X119176538Y-129486618D01*
X119161385Y-129386425D01*
X119148668Y-129302340D01*
X119158258Y-129231996D01*
X119204358Y-129178002D01*
X119273251Y-129157500D01*
X119802433Y-129157500D01*
X119813616Y-129158027D01*
X119821109Y-129159702D01*
X119829035Y-129159453D01*
X119829036Y-129159453D01*
X119889186Y-129157562D01*
X119893145Y-129157500D01*
X119921056Y-129157500D01*
X119924991Y-129157003D01*
X119925056Y-129156995D01*
X119936893Y-129156062D01*
X119969151Y-129155048D01*
X119973170Y-129154922D01*
X119981089Y-129154673D01*
X120000543Y-129149021D01*
X120019900Y-129145013D01*
X120032130Y-129143468D01*
X120032131Y-129143468D01*
X120039997Y-129142474D01*
X120047368Y-129139555D01*
X120047370Y-129139555D01*
X120081112Y-129126196D01*
X120092342Y-129122351D01*
X120127183Y-129112229D01*
X120127184Y-129112229D01*
X120134793Y-129110018D01*
X120141612Y-129105985D01*
X120141617Y-129105983D01*
X120152228Y-129099707D01*
X120169976Y-129091012D01*
X120188817Y-129083552D01*
X120224587Y-129057564D01*
X120234507Y-129051048D01*
X120265735Y-129032580D01*
X120265738Y-129032578D01*
X120272562Y-129028542D01*
X120286883Y-129014221D01*
X120301917Y-129001380D01*
X120303631Y-129000135D01*
X120318307Y-128989472D01*
X120346498Y-128955395D01*
X120354488Y-128946616D01*
X120734859Y-128566245D01*
X120797171Y-128532219D01*
X120868187Y-128537360D01*
X120879884Y-128541745D01*
X120887732Y-128542598D01*
X120887734Y-128542598D01*
X120938669Y-128548131D01*
X120942066Y-128548500D01*
X122288334Y-128548500D01*
X122350516Y-128541745D01*
X122486905Y-128490615D01*
X122603461Y-128403261D01*
X122690815Y-128286705D01*
X122741945Y-128150316D01*
X122742739Y-128143010D01*
X122777835Y-128081576D01*
X122840790Y-128048756D01*
X122911495Y-128055182D01*
X122967502Y-128098814D01*
X122987654Y-128142940D01*
X122988455Y-128150316D01*
X123039585Y-128286705D01*
X123126939Y-128403261D01*
X123243495Y-128490615D01*
X123379884Y-128541745D01*
X123442066Y-128548500D01*
X124358503Y-128548500D01*
X124426624Y-128568502D01*
X124473117Y-128622158D01*
X124483221Y-128692432D01*
X124453727Y-128757012D01*
X124440501Y-128770168D01*
X124322345Y-128871440D01*
X124317502Y-128875591D01*
X124313591Y-128880633D01*
X124313590Y-128880634D01*
X124274508Y-128931018D01*
X124198154Y-129029453D01*
X124195338Y-129035176D01*
X124195336Y-129035179D01*
X124122569Y-129183062D01*
X124112182Y-129204171D01*
X124110573Y-129210349D01*
X124110572Y-129210351D01*
X124069859Y-129366653D01*
X124063098Y-129392607D01*
X124062764Y-129398986D01*
X124054197Y-129562454D01*
X124052907Y-129587064D01*
X124072579Y-129717140D01*
X124079247Y-129761227D01*
X124082025Y-129779599D01*
X124084228Y-129785585D01*
X124084229Y-129785591D01*
X124147060Y-129956360D01*
X124147062Y-129956365D01*
X124149263Y-129962346D01*
X124152625Y-129967768D01*
X124225961Y-130086046D01*
X124251874Y-130127840D01*
X124385666Y-130269322D01*
X124390896Y-130272984D01*
X124390897Y-130272985D01*
X124412838Y-130288348D01*
X124545175Y-130381011D01*
X124577694Y-130395083D01*
X124718025Y-130455810D01*
X124718029Y-130455811D01*
X124723884Y-130458345D01*
X124730131Y-130459650D01*
X124730134Y-130459651D01*
X124909757Y-130497176D01*
X124909762Y-130497177D01*
X124914493Y-130498165D01*
X124920885Y-130498500D01*
X125063863Y-130498500D01*
X125133151Y-130491462D01*
X125202578Y-130484410D01*
X125202579Y-130484410D01*
X125208927Y-130483765D01*
X125285876Y-130459651D01*
X125388651Y-130427444D01*
X125388656Y-130427442D01*
X125394741Y-130425535D01*
X125497219Y-130368730D01*
X125559471Y-130334223D01*
X125559474Y-130334221D01*
X125565050Y-130331130D01*
X125569891Y-130326981D01*
X125569895Y-130326978D01*
X125708055Y-130208560D01*
X125712898Y-130204409D01*
X125832246Y-130050547D01*
X125843758Y-130027153D01*
X125893292Y-129926485D01*
X127089800Y-129926485D01*
X127094275Y-129941724D01*
X127095665Y-129942929D01*
X127103348Y-129944600D01*
X128175685Y-129944600D01*
X128190924Y-129940125D01*
X128192129Y-129938735D01*
X128193800Y-129931052D01*
X128193800Y-129926485D01*
X128701800Y-129926485D01*
X128706275Y-129941724D01*
X128707665Y-129942929D01*
X128715348Y-129944600D01*
X129787684Y-129944600D01*
X129802923Y-129940125D01*
X129804128Y-129938735D01*
X129805799Y-129931052D01*
X129805799Y-129179931D01*
X129805429Y-129173110D01*
X129799905Y-129122248D01*
X129796279Y-129106996D01*
X129751124Y-128986546D01*
X129742586Y-128970951D01*
X129666085Y-128868876D01*
X129653524Y-128856315D01*
X129551449Y-128779814D01*
X129535854Y-128771276D01*
X129415406Y-128726122D01*
X129400151Y-128722495D01*
X129349286Y-128716969D01*
X129342472Y-128716600D01*
X128719915Y-128716600D01*
X128704676Y-128721075D01*
X128703471Y-128722465D01*
X128701800Y-128730148D01*
X128701800Y-129926485D01*
X128193800Y-129926485D01*
X128193800Y-128734716D01*
X128189325Y-128719477D01*
X128187935Y-128718272D01*
X128180252Y-128716601D01*
X127553131Y-128716601D01*
X127546310Y-128716971D01*
X127495448Y-128722495D01*
X127480196Y-128726121D01*
X127359746Y-128771276D01*
X127344151Y-128779814D01*
X127242076Y-128856315D01*
X127229515Y-128868876D01*
X127153014Y-128970951D01*
X127144476Y-128986546D01*
X127099322Y-129106994D01*
X127095695Y-129122249D01*
X127090169Y-129173114D01*
X127089800Y-129179928D01*
X127089800Y-129926485D01*
X125893292Y-129926485D01*
X125915400Y-129881556D01*
X125918218Y-129875829D01*
X125919889Y-129869414D01*
X125965692Y-129693575D01*
X125965692Y-129693572D01*
X125967302Y-129687393D01*
X125973908Y-129561339D01*
X125977159Y-129499317D01*
X125977159Y-129499313D01*
X125977493Y-129492936D01*
X125948375Y-129300401D01*
X125946172Y-129294415D01*
X125946171Y-129294409D01*
X125883340Y-129123640D01*
X125883338Y-129123635D01*
X125881137Y-129117654D01*
X125809777Y-129002562D01*
X125781888Y-128957582D01*
X125781887Y-128957581D01*
X125778526Y-128952160D01*
X125718547Y-128888733D01*
X125649119Y-128815315D01*
X125644734Y-128810678D01*
X125600656Y-128779814D01*
X125490459Y-128702654D01*
X125485225Y-128698989D01*
X125437213Y-128678212D01*
X125312375Y-128624190D01*
X125312371Y-128624189D01*
X125306516Y-128621655D01*
X125300269Y-128620350D01*
X125300266Y-128620349D01*
X125241353Y-128608042D01*
X125183216Y-128595896D01*
X125120626Y-128562388D01*
X125086088Y-128500359D01*
X125090568Y-128429503D01*
X125108157Y-128396995D01*
X125122402Y-128377988D01*
X125190815Y-128286705D01*
X125241945Y-128150316D01*
X125248700Y-128088134D01*
X125248700Y-125491866D01*
X125241945Y-125429684D01*
X125190815Y-125293295D01*
X125103461Y-125176739D01*
X124986905Y-125089385D01*
X124850516Y-125038255D01*
X124788334Y-125031500D01*
X123442066Y-125031500D01*
X123379884Y-125038255D01*
X123243495Y-125089385D01*
X123126939Y-125176739D01*
X123039585Y-125293295D01*
X122988455Y-125429684D01*
X122987661Y-125436990D01*
X122952565Y-125498424D01*
X122889610Y-125531244D01*
X122818905Y-125524818D01*
X122762898Y-125481186D01*
X122742746Y-125437060D01*
X122741945Y-125429684D01*
X122690815Y-125293295D01*
X122603461Y-125176739D01*
X122486905Y-125089385D01*
X122350516Y-125038255D01*
X122288334Y-125031500D01*
X120942066Y-125031500D01*
X120879884Y-125038255D01*
X120743495Y-125089385D01*
X120626939Y-125176739D01*
X120539585Y-125293295D01*
X120488455Y-125429684D01*
X120487661Y-125436990D01*
X120452565Y-125498424D01*
X120389610Y-125531244D01*
X120318905Y-125524818D01*
X120262898Y-125481186D01*
X120242746Y-125437060D01*
X120241945Y-125429684D01*
X120190815Y-125293295D01*
X120103461Y-125176739D01*
X120061185Y-125145055D01*
X119994087Y-125094767D01*
X119994084Y-125094765D01*
X119986905Y-125089385D01*
X119978502Y-125086235D01*
X119970626Y-125081923D01*
X119971307Y-125080679D01*
X119922140Y-125043741D01*
X119897444Y-124977178D01*
X119897828Y-124955235D01*
X119911814Y-124822165D01*
X119912504Y-124815600D01*
X119898776Y-124684987D01*
X119893232Y-124632235D01*
X119893232Y-124632233D01*
X119892542Y-124625672D01*
X119833527Y-124444044D01*
X119738040Y-124278656D01*
X119682131Y-124216562D01*
X119614675Y-124141645D01*
X119614674Y-124141644D01*
X119610253Y-124136734D01*
X119455752Y-124024482D01*
X119449724Y-124021798D01*
X119449722Y-124021797D01*
X119287319Y-123949491D01*
X119287318Y-123949491D01*
X119281288Y-123946806D01*
X119187887Y-123926953D01*
X119100944Y-123908472D01*
X119100939Y-123908472D01*
X119094487Y-123907100D01*
X118903513Y-123907100D01*
X118897061Y-123908472D01*
X118897056Y-123908472D01*
X118810113Y-123926953D01*
X118716712Y-123946806D01*
X118710682Y-123949491D01*
X118710681Y-123949491D01*
X118548278Y-124021797D01*
X118548276Y-124021798D01*
X118542248Y-124024482D01*
X118387747Y-124136734D01*
X118383326Y-124141644D01*
X118383325Y-124141645D01*
X118315870Y-124216562D01*
X118259960Y-124278656D01*
X118164473Y-124444044D01*
X118105458Y-124625672D01*
X118104768Y-124632233D01*
X118104768Y-124632235D01*
X118099224Y-124684987D01*
X118085496Y-124815600D01*
X118086186Y-124822165D01*
X118101057Y-124963653D01*
X118105458Y-125005528D01*
X118107499Y-125011810D01*
X118107500Y-125011814D01*
X118130556Y-125082772D01*
X118132584Y-125153739D01*
X118111549Y-125197273D01*
X118044971Y-125286108D01*
X118044970Y-125286110D01*
X118039585Y-125293295D01*
X117988455Y-125429684D01*
X117981700Y-125491866D01*
X117981700Y-127764500D01*
X117961698Y-127832621D01*
X117908042Y-127879114D01*
X117855700Y-127890500D01*
X116088487Y-127890500D01*
X116020366Y-127870498D01*
X115973873Y-127816842D01*
X115963769Y-127746568D01*
X115993263Y-127681988D01*
X116011783Y-127664537D01*
X116044390Y-127639517D01*
X116130261Y-127573626D01*
X116278451Y-127410768D01*
X116395459Y-127224241D01*
X116477587Y-127019942D01*
X116522238Y-126804328D01*
X116525460Y-126748450D01*
X116525460Y-126056114D01*
X116525211Y-126053321D01*
X116511371Y-125898250D01*
X116511370Y-125898246D01*
X116510872Y-125892663D01*
X116452771Y-125680278D01*
X116447568Y-125669370D01*
X116360389Y-125486595D01*
X116360387Y-125486591D01*
X116357977Y-125481539D01*
X116266914Y-125354811D01*
X116232765Y-125307288D01*
X116232763Y-125307286D01*
X116229488Y-125302728D01*
X116071364Y-125149496D01*
X116031880Y-125122964D01*
X115893265Y-125029817D01*
X115893262Y-125029815D01*
X115888605Y-125026686D01*
X115686987Y-124938182D01*
X115687961Y-124935964D01*
X115638246Y-124901193D01*
X115611302Y-124835508D01*
X115624147Y-124765683D01*
X115647530Y-124733374D01*
X116959515Y-123421389D01*
X120327199Y-123421389D01*
X120359262Y-123453452D01*
X120363802Y-123458237D01*
X120491589Y-123600159D01*
X120495873Y-123605174D01*
X120546062Y-123667151D01*
X120550077Y-123672384D01*
X120565560Y-123693694D01*
X120569297Y-123699131D01*
X120612742Y-123766030D01*
X120616189Y-123771655D01*
X120711676Y-123937043D01*
X120714824Y-123942841D01*
X120751034Y-124013908D01*
X120753874Y-124019861D01*
X120759216Y-124031860D01*
X120762564Y-124031283D01*
X120770374Y-124030186D01*
X120832556Y-124023431D01*
X120835948Y-124023109D01*
X120877033Y-124019767D01*
X120880435Y-124019536D01*
X120894043Y-124018799D01*
X120897449Y-124018661D01*
X120938658Y-124017546D01*
X120942066Y-124017500D01*
X121889180Y-124017500D01*
X121908332Y-123998348D01*
X120829286Y-122919302D01*
X120327199Y-123421389D01*
X116959515Y-123421389D01*
X118178608Y-122202296D01*
X121546291Y-122202296D01*
X122625337Y-123281342D01*
X123066610Y-122840069D01*
X124443201Y-122840069D01*
X124443571Y-122846890D01*
X124449095Y-122897752D01*
X124452721Y-122913004D01*
X124497876Y-123033454D01*
X124506414Y-123049049D01*
X124582915Y-123151124D01*
X124595476Y-123163685D01*
X124697551Y-123240186D01*
X124713146Y-123248724D01*
X124833594Y-123293878D01*
X124848849Y-123297505D01*
X124899714Y-123303031D01*
X124906528Y-123303400D01*
X125529085Y-123303400D01*
X125544324Y-123298925D01*
X125545529Y-123297535D01*
X125547200Y-123289852D01*
X125547200Y-122217515D01*
X125542725Y-122202276D01*
X125541335Y-122201071D01*
X125533652Y-122199400D01*
X124461316Y-122199400D01*
X124446077Y-122203875D01*
X124444872Y-122205265D01*
X124443201Y-122212948D01*
X124443201Y-122840069D01*
X123066610Y-122840069D01*
X123429201Y-122477478D01*
X123429201Y-122199400D01*
X123429923Y-122185932D01*
X123447336Y-122023961D01*
X123449493Y-122010646D01*
X123460792Y-121958706D01*
X123175371Y-121673285D01*
X124443200Y-121673285D01*
X124447675Y-121688524D01*
X124449065Y-121689729D01*
X124456748Y-121691400D01*
X125529085Y-121691400D01*
X125544324Y-121686925D01*
X125545529Y-121685535D01*
X125547200Y-121677852D01*
X125547200Y-120605516D01*
X125542725Y-120590277D01*
X125541335Y-120589072D01*
X125533652Y-120587401D01*
X124906531Y-120587401D01*
X124899710Y-120587771D01*
X124848848Y-120593295D01*
X124833596Y-120596921D01*
X124713146Y-120642076D01*
X124697551Y-120650614D01*
X124595476Y-120727115D01*
X124582915Y-120739676D01*
X124506414Y-120841751D01*
X124497876Y-120857346D01*
X124452722Y-120977794D01*
X124449095Y-120993049D01*
X124443569Y-121043914D01*
X124443200Y-121050728D01*
X124443200Y-121673285D01*
X123175371Y-121673285D01*
X122625337Y-121123251D01*
X121546291Y-122202296D01*
X118178608Y-122202296D01*
X118235499Y-122145405D01*
X118297811Y-122111379D01*
X118324594Y-122108500D01*
X118583134Y-122108500D01*
X118645316Y-122101745D01*
X118692586Y-122084024D01*
X118773301Y-122053766D01*
X118773304Y-122053764D01*
X118781705Y-122050615D01*
X118786164Y-122047273D01*
X118853848Y-122032470D01*
X118903561Y-122047067D01*
X118908295Y-122050615D01*
X118916696Y-122053764D01*
X118916699Y-122053766D01*
X118997414Y-122084024D01*
X119044684Y-122101745D01*
X119106866Y-122108500D01*
X119853134Y-122108500D01*
X119915316Y-122101745D01*
X120051705Y-122050615D01*
X120168261Y-121963261D01*
X120255615Y-121846705D01*
X120306745Y-121710316D01*
X120313500Y-121648134D01*
X120313500Y-119801866D01*
X120306745Y-119739684D01*
X120255615Y-119603295D01*
X120221292Y-119557498D01*
X120173645Y-119493922D01*
X120173642Y-119493919D01*
X120168261Y-119486739D01*
X120161080Y-119481357D01*
X120161075Y-119481352D01*
X120123363Y-119453088D01*
X120080848Y-119396228D01*
X120077932Y-119387415D01*
X120068229Y-119354018D01*
X120066018Y-119346406D01*
X120061985Y-119339587D01*
X120061983Y-119339582D01*
X120055707Y-119328971D01*
X120047010Y-119311221D01*
X120039552Y-119292383D01*
X120013571Y-119256623D01*
X120007053Y-119246701D01*
X119988578Y-119215460D01*
X119988574Y-119215455D01*
X119984542Y-119208637D01*
X119970218Y-119194313D01*
X119957376Y-119179278D01*
X119945472Y-119162893D01*
X119939362Y-119157838D01*
X119914703Y-119137438D01*
X119900044Y-119122779D01*
X119896999Y-119117981D01*
X119847347Y-119071355D01*
X119844506Y-119068601D01*
X119824769Y-119048864D01*
X119821572Y-119046384D01*
X119812550Y-119038679D01*
X119780320Y-119008413D01*
X119773374Y-119004594D01*
X119773371Y-119004592D01*
X119762565Y-118998651D01*
X119746046Y-118987800D01*
X119745582Y-118987440D01*
X119730040Y-118975385D01*
X119722771Y-118972240D01*
X119722767Y-118972237D01*
X119689462Y-118957825D01*
X119678812Y-118952608D01*
X119640059Y-118931304D01*
X119629684Y-118928640D01*
X119620437Y-118926266D01*
X119601733Y-118919862D01*
X119590419Y-118914966D01*
X119590418Y-118914966D01*
X119583144Y-118911818D01*
X119575321Y-118910579D01*
X119575311Y-118910576D01*
X119539475Y-118904900D01*
X119527855Y-118902494D01*
X119492710Y-118893471D01*
X119492709Y-118893471D01*
X119485029Y-118891499D01*
X119464775Y-118891499D01*
X119445064Y-118889948D01*
X119432885Y-118888019D01*
X119425056Y-118886779D01*
X119417164Y-118887525D01*
X119381038Y-118890940D01*
X119369180Y-118891499D01*
X115086173Y-118891499D01*
X115085788Y-118891498D01*
X115014834Y-118891281D01*
X115014832Y-118891281D01*
X115006904Y-118891257D01*
X114999220Y-118893205D01*
X114974511Y-118899469D01*
X114959344Y-118902338D01*
X114951664Y-118903308D01*
X114926202Y-118906525D01*
X114918836Y-118909442D01*
X114918830Y-118909443D01*
X114897306Y-118917965D01*
X114881887Y-118922949D01*
X114859440Y-118928640D01*
X114859438Y-118928641D01*
X114851753Y-118930589D01*
X114844797Y-118934385D01*
X114844793Y-118934387D01*
X114822426Y-118946595D01*
X114808445Y-118953148D01*
X114784755Y-118962527D01*
X114784750Y-118962530D01*
X114777382Y-118965447D01*
X114757019Y-118980241D01*
X114752236Y-118983716D01*
X114738543Y-118992376D01*
X114718215Y-119003471D01*
X114718210Y-119003475D01*
X114711258Y-119007269D01*
X114705468Y-119012673D01*
X114705465Y-119012675D01*
X114686830Y-119030068D01*
X114674933Y-119039880D01*
X114647892Y-119059527D01*
X114628074Y-119083482D01*
X114616973Y-119095267D01*
X111192530Y-122291404D01*
X111174618Y-122305327D01*
X111165057Y-122311463D01*
X111159660Y-122317269D01*
X111159658Y-122317271D01*
X111128931Y-122350329D01*
X111122615Y-122356658D01*
X111113195Y-122365450D01*
X111110654Y-122368503D01*
X111100987Y-122380116D01*
X111096439Y-122385286D01*
X111056086Y-122428699D01*
X111052303Y-122435664D01*
X111047675Y-122442103D01*
X111047627Y-122442068D01*
X111045783Y-122444787D01*
X111045834Y-122444819D01*
X111041564Y-122451502D01*
X111036495Y-122457591D01*
X111033101Y-122464747D01*
X111033097Y-122464753D01*
X111011100Y-122511130D01*
X111007981Y-122517268D01*
X110979693Y-122569352D01*
X110977759Y-122577045D01*
X110974882Y-122584423D01*
X110974826Y-122584401D01*
X110973717Y-122587494D01*
X110973773Y-122587512D01*
X110971299Y-122595047D01*
X110967903Y-122602208D01*
X110956617Y-122660406D01*
X110955135Y-122667067D01*
X110940680Y-122724583D01*
X110940720Y-122732508D01*
X110939767Y-122740376D01*
X110939708Y-122740369D01*
X110939402Y-122743645D01*
X110939462Y-122743649D01*
X110938941Y-122751554D01*
X110937431Y-122759339D01*
X110939668Y-122796705D01*
X110940972Y-122818494D01*
X110941195Y-122825366D01*
X110952126Y-124967874D01*
X110952554Y-125051837D01*
X110932900Y-125120059D01*
X110879482Y-125166825D01*
X110826556Y-125178480D01*
X110643826Y-125178480D01*
X110603240Y-125182889D01*
X110576027Y-125182889D01*
X110543443Y-125179349D01*
X110536632Y-125178980D01*
X110510075Y-125178980D01*
X110494836Y-125183455D01*
X110472571Y-125209150D01*
X110472042Y-125208692D01*
X110465278Y-125221080D01*
X110445121Y-125236187D01*
X110445255Y-125236365D01*
X110328699Y-125323719D01*
X110271459Y-125400095D01*
X110268786Y-125403661D01*
X110211927Y-125446176D01*
X110141109Y-125451202D01*
X110078815Y-125417142D01*
X110044825Y-125354811D01*
X110041960Y-125328096D01*
X110041960Y-125197096D01*
X110037485Y-125181857D01*
X110036095Y-125180652D01*
X110028412Y-125178981D01*
X109997291Y-125178981D01*
X109990470Y-125179351D01*
X109939608Y-125184875D01*
X109924356Y-125188501D01*
X109803906Y-125233656D01*
X109788311Y-125242194D01*
X109686236Y-125318695D01*
X109673675Y-125331256D01*
X109597174Y-125433331D01*
X109588636Y-125448926D01*
X109543482Y-125569374D01*
X109539855Y-125584629D01*
X109534329Y-125635494D01*
X109533960Y-125642308D01*
X109533960Y-126093865D01*
X109538435Y-126109104D01*
X109539825Y-126110309D01*
X109547508Y-126111980D01*
X110041960Y-126111980D01*
X110041960Y-126112532D01*
X110092960Y-126112533D01*
X110152685Y-126150918D01*
X110182178Y-126215499D01*
X110183460Y-126233429D01*
X110183460Y-126439352D01*
X110163458Y-126507473D01*
X110109802Y-126553966D01*
X110039528Y-126564070D01*
X110030675Y-126562472D01*
X110028413Y-126561980D01*
X109552076Y-126561980D01*
X109525333Y-126569832D01*
X109484963Y-126595777D01*
X109413966Y-126595777D01*
X109398214Y-126589987D01*
X109355283Y-126570872D01*
X109355275Y-126570869D01*
X109349248Y-126568186D01*
X109212788Y-126539180D01*
X109175263Y-126531204D01*
X109112789Y-126497475D01*
X109078468Y-126435326D01*
X109075460Y-126407957D01*
X109075460Y-126056114D01*
X109075211Y-126053321D01*
X109061371Y-125898250D01*
X109061370Y-125898246D01*
X109060872Y-125892663D01*
X109002771Y-125680278D01*
X108997568Y-125669370D01*
X108910389Y-125486595D01*
X108910387Y-125486591D01*
X108907977Y-125481539D01*
X108816914Y-125354811D01*
X108782765Y-125307288D01*
X108782763Y-125307286D01*
X108779488Y-125302728D01*
X108621364Y-125149496D01*
X108581880Y-125122964D01*
X108443265Y-125029817D01*
X108443262Y-125029815D01*
X108438605Y-125026686D01*
X108236987Y-124938182D01*
X108231536Y-124936873D01*
X108231532Y-124936872D01*
X108028339Y-124888090D01*
X108028338Y-124888090D01*
X108022882Y-124886780D01*
X107937964Y-124881884D01*
X107808665Y-124874428D01*
X107808662Y-124874428D01*
X107803058Y-124874105D01*
X107584464Y-124900558D01*
X107374009Y-124965302D01*
X107178346Y-125066292D01*
X107003659Y-125200334D01*
X106855469Y-125363192D01*
X106738461Y-125549719D01*
X106736367Y-125554928D01*
X106736366Y-125554930D01*
X106732128Y-125565472D01*
X106656333Y-125754018D01*
X106655196Y-125759509D01*
X106655195Y-125759512D01*
X106643242Y-125817234D01*
X106611682Y-125969632D01*
X106608460Y-126025510D01*
X106608460Y-126717846D01*
X106608709Y-126720633D01*
X106608709Y-126720639D01*
X106616179Y-126804328D01*
X106623048Y-126881297D01*
X106681149Y-127093682D01*
X106683565Y-127098747D01*
X106683566Y-127098750D01*
X106760763Y-127260595D01*
X106775943Y-127292421D01*
X106904432Y-127471232D01*
X107062556Y-127624464D01*
X107067220Y-127627598D01*
X107152736Y-127685063D01*
X107198121Y-127739659D01*
X107208460Y-127789644D01*
X107208460Y-128812223D01*
X107188458Y-128880344D01*
X107149013Y-128917890D01*
X107149392Y-128918425D01*
X106980759Y-129038045D01*
X106976621Y-129042368D01*
X106976616Y-129042372D01*
X106864536Y-129159453D01*
X106837787Y-129187395D01*
X106834533Y-129192434D01*
X106834531Y-129192437D01*
X106764155Y-129301432D01*
X106725637Y-129361086D01*
X106723395Y-129366649D01*
X106723393Y-129366653D01*
X106653383Y-129540371D01*
X106648354Y-129552850D01*
X106608727Y-129755768D01*
X106608460Y-129761227D01*
X106608460Y-130563631D01*
X106623169Y-130717797D01*
X106681370Y-130916187D01*
X106684114Y-130921514D01*
X106684114Y-130921515D01*
X106744866Y-131039472D01*
X106776036Y-131099993D01*
X106903751Y-131262581D01*
X106908280Y-131266511D01*
X106910282Y-131268248D01*
X106911000Y-131269367D01*
X106912417Y-131270855D01*
X106912130Y-131271128D01*
X106948624Y-131328001D01*
X106948574Y-131398998D01*
X106910149Y-131458697D01*
X106845548Y-131488145D01*
X106827553Y-131489415D01*
X104644316Y-131486761D01*
X104576222Y-131466677D01*
X104529794Y-131412965D01*
X104519775Y-131342679D01*
X104543644Y-131285198D01*
X104571187Y-131248448D01*
X104579724Y-131232854D01*
X104624878Y-131112406D01*
X104628505Y-131097151D01*
X104634031Y-131046286D01*
X104634400Y-131039472D01*
X104634400Y-130292915D01*
X104629925Y-130277676D01*
X104628535Y-130276471D01*
X104620852Y-130274800D01*
X101936516Y-130274800D01*
X101921277Y-130279275D01*
X101920072Y-130280665D01*
X101918401Y-130288348D01*
X101918401Y-131039469D01*
X101918771Y-131046290D01*
X101924295Y-131097152D01*
X101927921Y-131112404D01*
X101973076Y-131232854D01*
X101981612Y-131248444D01*
X102006661Y-131281867D01*
X102031509Y-131348373D01*
X102016457Y-131417756D01*
X101966283Y-131467986D01*
X101905682Y-131483433D01*
X99546410Y-131480566D01*
X95075055Y-131475132D01*
X95055828Y-131473632D01*
X95050881Y-131472862D01*
X95040640Y-131471267D01*
X95040637Y-131471267D01*
X95031768Y-131469886D01*
X95022867Y-131471050D01*
X95022861Y-131471050D01*
X95017503Y-131471751D01*
X94991455Y-131472440D01*
X94855430Y-131461924D01*
X94836237Y-131458939D01*
X94679684Y-131422041D01*
X94661178Y-131416141D01*
X94512165Y-131355623D01*
X94494786Y-131346949D01*
X94356834Y-131264241D01*
X94341003Y-131253005D01*
X94217405Y-131150078D01*
X94203484Y-131136537D01*
X94097175Y-131015839D01*
X94085497Y-131000315D01*
X94066042Y-130969812D01*
X93999004Y-130864710D01*
X93989853Y-130847578D01*
X93956686Y-130771986D01*
X93925231Y-130700295D01*
X93918825Y-130681972D01*
X93887634Y-130564323D01*
X93883427Y-130532154D01*
X93882352Y-129386501D01*
X96401574Y-129386501D01*
X97479126Y-130464053D01*
X97482110Y-130464057D01*
X98559666Y-129386501D01*
X99993677Y-129386501D01*
X100904401Y-130297225D01*
X100904401Y-130274800D01*
X100905123Y-130261332D01*
X100922536Y-130099361D01*
X100924693Y-130086046D01*
X100936079Y-130033704D01*
X100937689Y-130027153D01*
X100940427Y-130017173D01*
X100940369Y-130016976D01*
X100936548Y-129999411D01*
X100905682Y-129784732D01*
X100904400Y-129766800D01*
X100904400Y-129748685D01*
X101918400Y-129748685D01*
X101922875Y-129763924D01*
X101924265Y-129765129D01*
X101931948Y-129766800D01*
X103004285Y-129766800D01*
X103019524Y-129762325D01*
X103020729Y-129760935D01*
X103022400Y-129753252D01*
X103022400Y-129748685D01*
X103530400Y-129748685D01*
X103534875Y-129763924D01*
X103536265Y-129765129D01*
X103543948Y-129766800D01*
X104616284Y-129766800D01*
X104631523Y-129762325D01*
X104632728Y-129760935D01*
X104634399Y-129753252D01*
X104634399Y-129002131D01*
X104634029Y-128995303D01*
X104628505Y-128944448D01*
X104624879Y-128929196D01*
X104579724Y-128808746D01*
X104571186Y-128793151D01*
X104494685Y-128691076D01*
X104482124Y-128678515D01*
X104380049Y-128602014D01*
X104364454Y-128593476D01*
X104244006Y-128548322D01*
X104228751Y-128544695D01*
X104177886Y-128539169D01*
X104171072Y-128538800D01*
X103548515Y-128538800D01*
X103533276Y-128543275D01*
X103532071Y-128544665D01*
X103530400Y-128552348D01*
X103530400Y-129748685D01*
X103022400Y-129748685D01*
X103022400Y-128556916D01*
X103017925Y-128541677D01*
X103016535Y-128540472D01*
X103008852Y-128538801D01*
X102381731Y-128538801D01*
X102374910Y-128539171D01*
X102324048Y-128544695D01*
X102308796Y-128548321D01*
X102188346Y-128593476D01*
X102172751Y-128602014D01*
X102070676Y-128678515D01*
X102058115Y-128691076D01*
X101981614Y-128793151D01*
X101973076Y-128808746D01*
X101927922Y-128929194D01*
X101924295Y-128944449D01*
X101918770Y-128995303D01*
X101918400Y-129002128D01*
X101918400Y-129748685D01*
X100904400Y-129748685D01*
X100904400Y-128998711D01*
X100904446Y-128995303D01*
X100905561Y-128954094D01*
X100905699Y-128950688D01*
X100906436Y-128937080D01*
X100906667Y-128933678D01*
X100910009Y-128892594D01*
X100910331Y-128889202D01*
X100917079Y-128827084D01*
X100918176Y-128819274D01*
X100934386Y-128725300D01*
X100935969Y-128717572D01*
X100943250Y-128686950D01*
X100945315Y-128679336D01*
X100973138Y-128588119D01*
X100975674Y-128580649D01*
X101026754Y-128444394D01*
X101030196Y-128436121D01*
X101075326Y-128337665D01*
X101079346Y-128329658D01*
X101083908Y-128321326D01*
X101080657Y-128315389D01*
X101072723Y-128307455D01*
X99993677Y-129386501D01*
X98559666Y-129386501D01*
X97480620Y-128307455D01*
X96401574Y-129386501D01*
X93882352Y-129386501D01*
X93880396Y-127301576D01*
X94894397Y-127301576D01*
X94894939Y-127879866D01*
X95684569Y-128669496D01*
X96763615Y-127590450D01*
X98197625Y-127590450D01*
X99276671Y-128669496D01*
X100355717Y-127590450D01*
X99276671Y-126511404D01*
X98197625Y-127590450D01*
X96763615Y-127590450D01*
X95684569Y-126511404D01*
X94894397Y-127301576D01*
X93880396Y-127301576D01*
X93878982Y-125794399D01*
X96401574Y-125794399D01*
X97480620Y-126873445D01*
X98559666Y-125794399D01*
X97878964Y-125113697D01*
X97828934Y-125137026D01*
X97808297Y-125144538D01*
X97602775Y-125199608D01*
X97581144Y-125203422D01*
X97369181Y-125221966D01*
X97347219Y-125221966D01*
X97135256Y-125203422D01*
X97113626Y-125199608D01*
X97021145Y-125174828D01*
X96401574Y-125794399D01*
X93878982Y-125794399D01*
X93877317Y-124018799D01*
X93877030Y-123712841D01*
X94891030Y-123712841D01*
X94891567Y-124284392D01*
X95684569Y-125077394D01*
X96200222Y-124561741D01*
X96197877Y-124558393D01*
X96186895Y-124539372D01*
X96120384Y-124396739D01*
X98596016Y-124396739D01*
X99276671Y-125077394D01*
X100015489Y-124338576D01*
X100015489Y-123658120D01*
X99276671Y-122919302D01*
X98657228Y-123538745D01*
X98682008Y-123631226D01*
X98685822Y-123652856D01*
X98704366Y-123864819D01*
X98704366Y-123886781D01*
X98685822Y-124098744D01*
X98682008Y-124120375D01*
X98626938Y-124325897D01*
X98619426Y-124346535D01*
X98596016Y-124396739D01*
X96120384Y-124396739D01*
X96096974Y-124346535D01*
X96089462Y-124325897D01*
X96034392Y-124120375D01*
X96030578Y-124098744D01*
X96012034Y-123886781D01*
X96012034Y-123864819D01*
X96030578Y-123652856D01*
X96034392Y-123631225D01*
X96089462Y-123425703D01*
X96096974Y-123405066D01*
X96120303Y-123355036D01*
X95684569Y-122919302D01*
X94891030Y-123712841D01*
X93877030Y-123712841D01*
X93875613Y-122202296D01*
X96401574Y-122202296D01*
X96837262Y-122637984D01*
X96887465Y-122614574D01*
X96908103Y-122607062D01*
X97113625Y-122551992D01*
X97135256Y-122548178D01*
X97347219Y-122529634D01*
X97369181Y-122529634D01*
X97581144Y-122548178D01*
X97602775Y-122551992D01*
X97808297Y-122607062D01*
X97828934Y-122614574D01*
X98021772Y-122704495D01*
X98040794Y-122715477D01*
X98044141Y-122717821D01*
X98559666Y-122202296D01*
X97480620Y-121123251D01*
X96401574Y-122202296D01*
X93875613Y-122202296D01*
X93873663Y-120124104D01*
X94887664Y-120124104D01*
X94888194Y-120688916D01*
X95684569Y-121485291D01*
X96763615Y-120406245D01*
X98197625Y-120406245D01*
X99276671Y-121485291D01*
X100015489Y-120746473D01*
X100015489Y-120066017D01*
X99276671Y-119327199D01*
X98197625Y-120406245D01*
X96763615Y-120406245D01*
X95684569Y-119327199D01*
X94887664Y-120124104D01*
X93873663Y-120124104D01*
X93872243Y-118610194D01*
X96401574Y-118610194D01*
X97480620Y-119689240D01*
X98559666Y-118610194D01*
X97480620Y-117531148D01*
X96401574Y-118610194D01*
X93872243Y-118610194D01*
X93870558Y-116814143D01*
X98197625Y-116814143D01*
X99276671Y-117893189D01*
X100015489Y-117154371D01*
X100015489Y-116473915D01*
X99276671Y-115735097D01*
X98197625Y-116814143D01*
X93870558Y-116814143D01*
X93870147Y-116376333D01*
X93890085Y-116308195D01*
X93943697Y-116261652D01*
X94013962Y-116251482D01*
X94077978Y-116280404D01*
X94102504Y-116301352D01*
X94106727Y-116303940D01*
X94106730Y-116303942D01*
X94132651Y-116319826D01*
X94311668Y-116429527D01*
X94456367Y-116489464D01*
X94533735Y-116521511D01*
X94533737Y-116521512D01*
X94538308Y-116523405D01*
X94558052Y-116528145D01*
X94772030Y-116579517D01*
X94772036Y-116579518D01*
X94776843Y-116580672D01*
X95021400Y-116599919D01*
X95265957Y-116580672D01*
X95270764Y-116579518D01*
X95270770Y-116579517D01*
X95484748Y-116528145D01*
X95504492Y-116523405D01*
X95509063Y-116521512D01*
X95509065Y-116521511D01*
X95586433Y-116489464D01*
X95731132Y-116429527D01*
X95910149Y-116319826D01*
X95936070Y-116303942D01*
X95936073Y-116303940D01*
X95940296Y-116301352D01*
X95986779Y-116261652D01*
X96123077Y-116145241D01*
X96126833Y-116142033D01*
X96178669Y-116081341D01*
X96282935Y-115959263D01*
X96282937Y-115959260D01*
X96286152Y-115955496D01*
X96301706Y-115930115D01*
X96339865Y-115867843D01*
X96414327Y-115746332D01*
X96508205Y-115519692D01*
X96565472Y-115281157D01*
X96584719Y-115036600D01*
X96565472Y-114792043D01*
X96508205Y-114553508D01*
X96414327Y-114326868D01*
X96318244Y-114170073D01*
X96288742Y-114121930D01*
X96288740Y-114121927D01*
X96286152Y-114117704D01*
X96273846Y-114103295D01*
X96211704Y-114030537D01*
X97389129Y-114030537D01*
X97445019Y-114165466D01*
X97446822Y-114170073D01*
X97467529Y-114226201D01*
X97469150Y-114230875D01*
X97475260Y-114249679D01*
X97476696Y-114254414D01*
X97492939Y-114312007D01*
X97494189Y-114316795D01*
X97551456Y-114555330D01*
X97552516Y-114560163D01*
X97564188Y-114618842D01*
X97565058Y-114623712D01*
X97568151Y-114643240D01*
X97568829Y-114648141D01*
X97575862Y-114707561D01*
X97576347Y-114712485D01*
X97595594Y-114957042D01*
X97595885Y-114961981D01*
X97598234Y-115021767D01*
X97598331Y-115026714D01*
X97598331Y-115046486D01*
X97598234Y-115051433D01*
X97595885Y-115111219D01*
X97595594Y-115116158D01*
X97576347Y-115360715D01*
X97575862Y-115365639D01*
X97568829Y-115425059D01*
X97568151Y-115429960D01*
X97565058Y-115449488D01*
X97564188Y-115454358D01*
X97552516Y-115513037D01*
X97551456Y-115517870D01*
X97494189Y-115756405D01*
X97492939Y-115761193D01*
X97476696Y-115818786D01*
X97475260Y-115823521D01*
X97469150Y-115842325D01*
X97467529Y-115846999D01*
X97446822Y-115903127D01*
X97445019Y-115907734D01*
X97399971Y-116016488D01*
X97480620Y-116097137D01*
X98559666Y-115018092D01*
X97480620Y-113939046D01*
X97389129Y-114030537D01*
X96211704Y-114030537D01*
X96130041Y-113934923D01*
X96126833Y-113931167D01*
X96093106Y-113902361D01*
X96046331Y-113862411D01*
X96007522Y-113802960D01*
X96007016Y-113731965D01*
X96046331Y-113670789D01*
X96123077Y-113605241D01*
X96126833Y-113602033D01*
X96137684Y-113589328D01*
X96282935Y-113419263D01*
X96282937Y-113419260D01*
X96286152Y-113415496D01*
X96304004Y-113386365D01*
X96341492Y-113325189D01*
X96404701Y-113222040D01*
X98197625Y-113222040D01*
X99276671Y-114301086D01*
X100015489Y-113562268D01*
X100015489Y-112881812D01*
X99276671Y-112142994D01*
X98197625Y-113222040D01*
X96404701Y-113222040D01*
X96414327Y-113206332D01*
X96489821Y-113024074D01*
X96506311Y-112984265D01*
X96506312Y-112984263D01*
X96508205Y-112979692D01*
X96534077Y-112871926D01*
X96564317Y-112745970D01*
X96564318Y-112745964D01*
X96565472Y-112741157D01*
X96584719Y-112496600D01*
X96565472Y-112252043D01*
X96558820Y-112224332D01*
X96524222Y-112080222D01*
X96508205Y-112013508D01*
X96501137Y-111996443D01*
X96457829Y-111891890D01*
X96414327Y-111786868D01*
X96286152Y-111577704D01*
X96147640Y-111415528D01*
X96130041Y-111394923D01*
X96126833Y-111391167D01*
X96046331Y-111322411D01*
X96007522Y-111262960D01*
X96007016Y-111191965D01*
X96046331Y-111130789D01*
X96123077Y-111065241D01*
X96126833Y-111062033D01*
X96137684Y-111049328D01*
X96282935Y-110879263D01*
X96282937Y-110879260D01*
X96286152Y-110875496D01*
X96304004Y-110846365D01*
X96411738Y-110670557D01*
X96411738Y-110670556D01*
X96414327Y-110666332D01*
X96416223Y-110661754D01*
X96417679Y-110658897D01*
X96466427Y-110607282D01*
X96529946Y-110590100D01*
X98757524Y-110590100D01*
X98768707Y-110590627D01*
X98776200Y-110592302D01*
X98784126Y-110592053D01*
X98784127Y-110592053D01*
X98844277Y-110590162D01*
X98848236Y-110590100D01*
X98876147Y-110590100D01*
X98880082Y-110589603D01*
X98880147Y-110589595D01*
X98891984Y-110588662D01*
X98924242Y-110587648D01*
X98928261Y-110587522D01*
X98936180Y-110587273D01*
X98955634Y-110581621D01*
X98974991Y-110577613D01*
X98987221Y-110576068D01*
X98987222Y-110576068D01*
X98995088Y-110575074D01*
X99002459Y-110572155D01*
X99002461Y-110572155D01*
X99036203Y-110558796D01*
X99047433Y-110554951D01*
X99082274Y-110544829D01*
X99082275Y-110544829D01*
X99089884Y-110542618D01*
X99096703Y-110538585D01*
X99096708Y-110538583D01*
X99107319Y-110532307D01*
X99125067Y-110523612D01*
X99143908Y-110516152D01*
X99179678Y-110490164D01*
X99189598Y-110483648D01*
X99220826Y-110465180D01*
X99220829Y-110465178D01*
X99227653Y-110461142D01*
X99241974Y-110446821D01*
X99257008Y-110433980D01*
X99266985Y-110426731D01*
X99273398Y-110422072D01*
X99301589Y-110387995D01*
X99309579Y-110379216D01*
X100814394Y-108874401D01*
X100876706Y-108840375D01*
X100947521Y-108845440D01*
X101004357Y-108887987D01*
X101029168Y-108954507D01*
X101029489Y-108963496D01*
X101029489Y-125081022D01*
X101028962Y-125092205D01*
X101027287Y-125099698D01*
X101027536Y-125107624D01*
X101027536Y-125107625D01*
X101029427Y-125167775D01*
X101029489Y-125171734D01*
X101029489Y-125199645D01*
X101029986Y-125203579D01*
X101029986Y-125203580D01*
X101029994Y-125203645D01*
X101030927Y-125215482D01*
X101032316Y-125259678D01*
X101037552Y-125277700D01*
X101037967Y-125279128D01*
X101041976Y-125298489D01*
X101044515Y-125318586D01*
X101047434Y-125325957D01*
X101047434Y-125325959D01*
X101060793Y-125359701D01*
X101064638Y-125370931D01*
X101076971Y-125413382D01*
X101081004Y-125420201D01*
X101081006Y-125420206D01*
X101087282Y-125430817D01*
X101095977Y-125448565D01*
X101103437Y-125467406D01*
X101108099Y-125473822D01*
X101108099Y-125473823D01*
X101129425Y-125503176D01*
X101135941Y-125513096D01*
X101153660Y-125543056D01*
X101158447Y-125551151D01*
X101172768Y-125565472D01*
X101185608Y-125580505D01*
X101197517Y-125596896D01*
X101228514Y-125622539D01*
X101231594Y-125625087D01*
X101240373Y-125633077D01*
X101880995Y-126273699D01*
X101915021Y-126336011D01*
X101917900Y-126362794D01*
X101917900Y-127642934D01*
X101924655Y-127705116D01*
X101975785Y-127841505D01*
X102063139Y-127958061D01*
X102179695Y-128045415D01*
X102316084Y-128096545D01*
X102378266Y-128103300D01*
X104174534Y-128103300D01*
X104236716Y-128096545D01*
X104373105Y-128045415D01*
X104489661Y-127958061D01*
X104577015Y-127841505D01*
X104628145Y-127705116D01*
X104634900Y-127642934D01*
X104634900Y-125598666D01*
X104628145Y-125536484D01*
X104577015Y-125400095D01*
X104489661Y-125283539D01*
X104373105Y-125196185D01*
X104236716Y-125145055D01*
X104174534Y-125138300D01*
X102589595Y-125138300D01*
X102521474Y-125118298D01*
X102500500Y-125101395D01*
X102333394Y-124934289D01*
X102299368Y-124871977D01*
X102296489Y-124845194D01*
X102296489Y-124072500D01*
X105455982Y-124072500D01*
X106086668Y-124703186D01*
X106101803Y-124684987D01*
X106105485Y-124680755D01*
X106253675Y-124517897D01*
X106257540Y-124513835D01*
X106305348Y-124465776D01*
X106309388Y-124461891D01*
X106325877Y-124446728D01*
X106330089Y-124443025D01*
X106382003Y-124399386D01*
X106386375Y-124395873D01*
X106561062Y-124261831D01*
X106565585Y-124258518D01*
X106621166Y-124219672D01*
X106625834Y-124216562D01*
X106644748Y-124204559D01*
X106649547Y-124201661D01*
X106708349Y-124167917D01*
X106713273Y-124165235D01*
X106892942Y-124072500D01*
X105455982Y-124072500D01*
X102296489Y-124072500D01*
X102296489Y-122598134D01*
X104516500Y-122598134D01*
X104523255Y-122660316D01*
X104574385Y-122796705D01*
X104661739Y-122913261D01*
X104778295Y-123000615D01*
X104914684Y-123051745D01*
X104976866Y-123058500D01*
X108873134Y-123058500D01*
X108935316Y-123051745D01*
X109071705Y-123000615D01*
X109188261Y-122913261D01*
X109275615Y-122796705D01*
X109326745Y-122660316D01*
X109333500Y-122598134D01*
X109333500Y-120301866D01*
X109326745Y-120239684D01*
X109275615Y-120103295D01*
X109188261Y-119986739D01*
X109071705Y-119899385D01*
X108935316Y-119848255D01*
X108873134Y-119841500D01*
X104976866Y-119841500D01*
X104914684Y-119848255D01*
X104778295Y-119899385D01*
X104661739Y-119986739D01*
X104574385Y-120103295D01*
X104523255Y-120239684D01*
X104516500Y-120301866D01*
X104516500Y-122598134D01*
X102296489Y-122598134D01*
X102296489Y-119379699D01*
X110000479Y-119379699D01*
X110087025Y-119495176D01*
X110092140Y-119502531D01*
X110150762Y-119593580D01*
X110155341Y-119601280D01*
X110172497Y-119632615D01*
X110176517Y-119640623D01*
X110221647Y-119739080D01*
X110225089Y-119747352D01*
X110276219Y-119883741D01*
X110278755Y-119891210D01*
X110306578Y-119982426D01*
X110308643Y-119990041D01*
X110315924Y-120020663D01*
X110317507Y-120028391D01*
X110333717Y-120122364D01*
X110334814Y-120130174D01*
X110341569Y-120192356D01*
X110341891Y-120195748D01*
X110345233Y-120236833D01*
X110345464Y-120240235D01*
X110346201Y-120253843D01*
X110346339Y-120257249D01*
X110347454Y-120298458D01*
X110347500Y-120301866D01*
X110347500Y-121190770D01*
X111132025Y-120406245D01*
X110052979Y-119327199D01*
X110000479Y-119379699D01*
X102296489Y-119379699D01*
X102296489Y-118672510D01*
X103648095Y-118672510D01*
X104109234Y-119133649D01*
X104170176Y-119087975D01*
X104177531Y-119082860D01*
X104268580Y-119024238D01*
X104276280Y-119019659D01*
X104307615Y-119002503D01*
X104315623Y-118998483D01*
X104414080Y-118953353D01*
X104422352Y-118949911D01*
X104558741Y-118898781D01*
X104566210Y-118896245D01*
X104657426Y-118868422D01*
X104665041Y-118866357D01*
X104695663Y-118859076D01*
X104703391Y-118857493D01*
X104797364Y-118841283D01*
X104805174Y-118840186D01*
X104867356Y-118833431D01*
X104870748Y-118833109D01*
X104911833Y-118829767D01*
X104915235Y-118829536D01*
X104928843Y-118828799D01*
X104932249Y-118828661D01*
X104973458Y-118827546D01*
X104976866Y-118827500D01*
X105526565Y-118827500D01*
X105681555Y-118672510D01*
X110832300Y-118672510D01*
X111849030Y-119689240D01*
X112865760Y-118672510D01*
X110832300Y-118672510D01*
X105681555Y-118672510D01*
X103648095Y-118672510D01*
X102296489Y-118672510D01*
X102296489Y-118610194D01*
X121546291Y-118610194D01*
X122625337Y-119689240D01*
X123704383Y-118610194D01*
X122625337Y-117531148D01*
X121546291Y-118610194D01*
X102296489Y-118610194D01*
X102296489Y-117092996D01*
X102316491Y-117024875D01*
X102370147Y-116978382D01*
X102440421Y-116968278D01*
X102505001Y-116997772D01*
X102511580Y-117003896D01*
X102776729Y-117269046D01*
X102924951Y-117417268D01*
X102932485Y-117425547D01*
X102936598Y-117432028D01*
X102957352Y-117451517D01*
X102986249Y-117478653D01*
X102989091Y-117481408D01*
X103008828Y-117501145D01*
X103012025Y-117503625D01*
X103021045Y-117511328D01*
X103053277Y-117541596D01*
X103060223Y-117545415D01*
X103060226Y-117545417D01*
X103071032Y-117551358D01*
X103087551Y-117562209D01*
X103103557Y-117574624D01*
X103110826Y-117577769D01*
X103110830Y-117577772D01*
X103144135Y-117592184D01*
X103154785Y-117597401D01*
X103193538Y-117618705D01*
X103201213Y-117620676D01*
X103201214Y-117620676D01*
X103213160Y-117623743D01*
X103231865Y-117630147D01*
X103250453Y-117638191D01*
X103258276Y-117639430D01*
X103258286Y-117639433D01*
X103294122Y-117645109D01*
X103305742Y-117647515D01*
X103337557Y-117655683D01*
X103348568Y-117658510D01*
X103368822Y-117658510D01*
X103388532Y-117660061D01*
X103408541Y-117663230D01*
X103416433Y-117662484D01*
X103435178Y-117660712D01*
X103452560Y-117659069D01*
X103464417Y-117658510D01*
X117456223Y-117658510D01*
X117467406Y-117659037D01*
X117474899Y-117660712D01*
X117482825Y-117660463D01*
X117482826Y-117660463D01*
X117542976Y-117658572D01*
X117546935Y-117658510D01*
X117574846Y-117658510D01*
X117578781Y-117658013D01*
X117578846Y-117658005D01*
X117590683Y-117657072D01*
X117622941Y-117656058D01*
X117626960Y-117655932D01*
X117634879Y-117655683D01*
X117654333Y-117650031D01*
X117673690Y-117646023D01*
X117685920Y-117644478D01*
X117685921Y-117644478D01*
X117693787Y-117643484D01*
X117701158Y-117640565D01*
X117701160Y-117640565D01*
X117734902Y-117627206D01*
X117746132Y-117623361D01*
X117780973Y-117613239D01*
X117780974Y-117613239D01*
X117788583Y-117611028D01*
X117795402Y-117606995D01*
X117795407Y-117606993D01*
X117806018Y-117600717D01*
X117823766Y-117592022D01*
X117842607Y-117584562D01*
X117878377Y-117558574D01*
X117888297Y-117552058D01*
X117919525Y-117533590D01*
X117919528Y-117533588D01*
X117926352Y-117529552D01*
X117940673Y-117515231D01*
X117955707Y-117502390D01*
X117965684Y-117495141D01*
X117970890Y-117491359D01*
X120427456Y-117491359D01*
X120829286Y-117893189D01*
X121908332Y-116814143D01*
X123342343Y-116814143D01*
X124421388Y-117893189D01*
X125377900Y-116936677D01*
X125377900Y-116691609D01*
X124421388Y-115735097D01*
X123342343Y-116814143D01*
X121908332Y-116814143D01*
X121323888Y-116229699D01*
X121321891Y-116254252D01*
X121321569Y-116257644D01*
X121314814Y-116319826D01*
X121313717Y-116327636D01*
X121297507Y-116421609D01*
X121295924Y-116429337D01*
X121288643Y-116459959D01*
X121286578Y-116467574D01*
X121258755Y-116558790D01*
X121256219Y-116566259D01*
X121205089Y-116702648D01*
X121201647Y-116710920D01*
X121156517Y-116809377D01*
X121152497Y-116817385D01*
X121135341Y-116848720D01*
X121130762Y-116856420D01*
X121072140Y-116947469D01*
X121067025Y-116954824D01*
X120979671Y-117071380D01*
X120974046Y-117078354D01*
X120903103Y-117160180D01*
X120896997Y-117166736D01*
X120871736Y-117191997D01*
X120865180Y-117198103D01*
X120783354Y-117269046D01*
X120776380Y-117274671D01*
X120659824Y-117362025D01*
X120652469Y-117367140D01*
X120561420Y-117425762D01*
X120553720Y-117430341D01*
X120522385Y-117447497D01*
X120514377Y-117451517D01*
X120427456Y-117491359D01*
X117970890Y-117491359D01*
X117972097Y-117490482D01*
X118000288Y-117456405D01*
X118008278Y-117447626D01*
X118602247Y-116853657D01*
X118610537Y-116846113D01*
X118617018Y-116842000D01*
X118663659Y-116792332D01*
X118666413Y-116789491D01*
X118686134Y-116769770D01*
X118688612Y-116766575D01*
X118696318Y-116757553D01*
X118721158Y-116731101D01*
X118726586Y-116725321D01*
X118736346Y-116707568D01*
X118747199Y-116691045D01*
X118754753Y-116681306D01*
X118759613Y-116675041D01*
X118777176Y-116634457D01*
X118782389Y-116623816D01*
X118784733Y-116619552D01*
X118835077Y-116569492D01*
X118904493Y-116554597D01*
X118939378Y-116562268D01*
X119037282Y-116598971D01*
X119037288Y-116598973D01*
X119044684Y-116601745D01*
X119106866Y-116608500D01*
X119853134Y-116608500D01*
X119915316Y-116601745D01*
X120051705Y-116550615D01*
X120168261Y-116463261D01*
X120255615Y-116346705D01*
X120306745Y-116210316D01*
X120313500Y-116148134D01*
X120313500Y-115018092D01*
X121546291Y-115018092D01*
X122625337Y-116097137D01*
X123704383Y-115018092D01*
X122625337Y-113939046D01*
X121546291Y-115018092D01*
X120313500Y-115018092D01*
X120313500Y-114301866D01*
X120306745Y-114239684D01*
X120255615Y-114103295D01*
X120168261Y-113986739D01*
X120161081Y-113981358D01*
X120154731Y-113975008D01*
X120156366Y-113973373D01*
X120121421Y-113926641D01*
X120113500Y-113882671D01*
X120113500Y-113222040D01*
X123342343Y-113222040D01*
X124421388Y-114301086D01*
X125377900Y-113344574D01*
X125377900Y-113099506D01*
X124435404Y-112157010D01*
X124027217Y-112565197D01*
X124025708Y-112567021D01*
X124020471Y-112572961D01*
X123954952Y-112642729D01*
X123949355Y-112648326D01*
X123926331Y-112669946D01*
X123920395Y-112675179D01*
X123878692Y-112709679D01*
X123838133Y-112745437D01*
X123832035Y-112750482D01*
X123807080Y-112769840D01*
X123800676Y-112774492D01*
X123767011Y-112797372D01*
X123342343Y-113222040D01*
X120113500Y-113222040D01*
X120113500Y-113092195D01*
X120133502Y-113024074D01*
X120150405Y-113003099D01*
X120665401Y-112488104D01*
X120727713Y-112454079D01*
X120754496Y-112451200D01*
X121272912Y-112451199D01*
X121308630Y-112451199D01*
X121413529Y-112440316D01*
X121420060Y-112438137D01*
X121420065Y-112438136D01*
X121572978Y-112387120D01*
X121579926Y-112384802D01*
X121729089Y-112292497D01*
X121853017Y-112168353D01*
X121865202Y-112148585D01*
X121917974Y-112101091D01*
X121972462Y-112088700D01*
X122728533Y-112088700D01*
X122739716Y-112089227D01*
X122747209Y-112090902D01*
X122755135Y-112090653D01*
X122755136Y-112090653D01*
X122815286Y-112088762D01*
X122819245Y-112088700D01*
X122847156Y-112088700D01*
X122851091Y-112088203D01*
X122851156Y-112088195D01*
X122862993Y-112087262D01*
X122895251Y-112086248D01*
X122899270Y-112086122D01*
X122907189Y-112085873D01*
X122926643Y-112080221D01*
X122946000Y-112076213D01*
X122958230Y-112074668D01*
X122958231Y-112074668D01*
X122966097Y-112073674D01*
X122973468Y-112070755D01*
X122973470Y-112070755D01*
X123007212Y-112057396D01*
X123018442Y-112053551D01*
X123053283Y-112043429D01*
X123053284Y-112043429D01*
X123060893Y-112041218D01*
X123067712Y-112037185D01*
X123067717Y-112037183D01*
X123078328Y-112030907D01*
X123096076Y-112022212D01*
X123114917Y-112014752D01*
X123150687Y-111988764D01*
X123160607Y-111982248D01*
X123191835Y-111963780D01*
X123191838Y-111963778D01*
X123198662Y-111959742D01*
X123212983Y-111945421D01*
X123228017Y-111932580D01*
X123237994Y-111925331D01*
X123244407Y-111920672D01*
X123272598Y-111886595D01*
X123280588Y-111877816D01*
X124704747Y-110453657D01*
X124713037Y-110446113D01*
X124719518Y-110442000D01*
X124730251Y-110430571D01*
X124766158Y-110392333D01*
X124768913Y-110389491D01*
X124788634Y-110369770D01*
X124791112Y-110366575D01*
X124798818Y-110357553D01*
X124823658Y-110331101D01*
X124829086Y-110325321D01*
X124838846Y-110307568D01*
X124849699Y-110291045D01*
X124857253Y-110281306D01*
X124862113Y-110275041D01*
X124879676Y-110234457D01*
X124884883Y-110223827D01*
X124906195Y-110185060D01*
X124908166Y-110177383D01*
X124908168Y-110177378D01*
X124911232Y-110165442D01*
X124917638Y-110146730D01*
X124922533Y-110135419D01*
X124925681Y-110128145D01*
X124926921Y-110120317D01*
X124926923Y-110120310D01*
X124932599Y-110084476D01*
X124935005Y-110072856D01*
X124944028Y-110037711D01*
X124944028Y-110037710D01*
X124946000Y-110030030D01*
X124946000Y-110009776D01*
X124947551Y-109990065D01*
X124949480Y-109977886D01*
X124950720Y-109970057D01*
X124946559Y-109926038D01*
X124946000Y-109914181D01*
X124946000Y-107341267D01*
X124946527Y-107330084D01*
X124948202Y-107322591D01*
X124947317Y-107294419D01*
X124946062Y-107254514D01*
X124946000Y-107250555D01*
X124946000Y-107222644D01*
X124945495Y-107218644D01*
X124944562Y-107206801D01*
X124944529Y-107205732D01*
X124943173Y-107162610D01*
X124937522Y-107143158D01*
X124933514Y-107123806D01*
X124931967Y-107111563D01*
X124930974Y-107103703D01*
X124921400Y-107079521D01*
X124914700Y-107062597D01*
X124910855Y-107051370D01*
X124910221Y-107049187D01*
X124898518Y-107008907D01*
X124894484Y-107002085D01*
X124894481Y-107002079D01*
X124888206Y-106991468D01*
X124879510Y-106973718D01*
X124874972Y-106962256D01*
X124874969Y-106962251D01*
X124872052Y-106954883D01*
X124859401Y-106937470D01*
X124846073Y-106919125D01*
X124839557Y-106909207D01*
X124821075Y-106877957D01*
X124817042Y-106871137D01*
X124802718Y-106856813D01*
X124789876Y-106841778D01*
X124788646Y-106840085D01*
X124777972Y-106825393D01*
X124743906Y-106797211D01*
X124735127Y-106789222D01*
X124022122Y-106076217D01*
X123988096Y-106013905D01*
X123985907Y-106000292D01*
X123982926Y-105971924D01*
X123968542Y-105835072D01*
X123909527Y-105653444D01*
X123877177Y-105597412D01*
X123860440Y-105528417D01*
X123883661Y-105461325D01*
X123939468Y-105417438D01*
X124010144Y-105410690D01*
X124075391Y-105445317D01*
G37*
%TD.AperFunction*%
%TA.AperFunction,Conductor*%
G36*
X114758575Y-120796970D02*
G01*
X114813911Y-120841450D01*
X114836500Y-120913438D01*
X114836500Y-121648134D01*
X114843255Y-121710316D01*
X114894385Y-121846705D01*
X114981739Y-121963261D01*
X115098295Y-122050615D01*
X115234684Y-122101745D01*
X115296866Y-122108500D01*
X116043134Y-122108500D01*
X116105316Y-122101745D01*
X116171915Y-122076778D01*
X116242722Y-122071595D01*
X116305091Y-122105516D01*
X116339221Y-122167771D01*
X116334274Y-122238595D01*
X116305240Y-122283855D01*
X114291500Y-124297595D01*
X114229188Y-124331621D01*
X114202405Y-124334500D01*
X112854705Y-124334500D01*
X112843522Y-124333973D01*
X112836029Y-124332298D01*
X112828103Y-124332547D01*
X112828102Y-124332547D01*
X112767952Y-124334438D01*
X112763993Y-124334500D01*
X112736082Y-124334500D01*
X112732148Y-124334997D01*
X112732147Y-124334997D01*
X112732082Y-124335005D01*
X112720245Y-124335938D01*
X112688428Y-124336938D01*
X112683967Y-124337078D01*
X112676048Y-124337327D01*
X112658392Y-124342456D01*
X112656596Y-124342978D01*
X112637244Y-124346986D01*
X112630173Y-124347880D01*
X112617141Y-124349526D01*
X112609772Y-124352443D01*
X112609770Y-124352444D01*
X112576035Y-124365800D01*
X112564807Y-124369645D01*
X112522345Y-124381982D01*
X112515523Y-124386016D01*
X112515517Y-124386019D01*
X112504906Y-124392294D01*
X112487156Y-124400990D01*
X112475694Y-124405528D01*
X112475689Y-124405531D01*
X112468321Y-124408448D01*
X112461906Y-124413109D01*
X112432563Y-124434427D01*
X112422646Y-124440942D01*
X112406093Y-124450732D01*
X112337277Y-124468193D01*
X112269945Y-124445678D01*
X112225475Y-124390335D01*
X112215953Y-124342923D01*
X112215931Y-124338576D01*
X112209767Y-123130492D01*
X112229421Y-123062271D01*
X112249793Y-123037737D01*
X112295338Y-122995229D01*
X114311293Y-121113677D01*
X114624528Y-120821325D01*
X114687976Y-120789468D01*
X114758575Y-120796970D01*
G37*
%TD.AperFunction*%
%TA.AperFunction,Conductor*%
G36*
X106229794Y-112382196D02*
G01*
X106278173Y-112434159D01*
X106291500Y-112490558D01*
X106291500Y-113415500D01*
X106271498Y-113483621D01*
X106217842Y-113530114D01*
X106165500Y-113541500D01*
X106126866Y-113541500D01*
X106064684Y-113548255D01*
X105928295Y-113599385D01*
X105855468Y-113653966D01*
X105850148Y-113657953D01*
X105783642Y-113682801D01*
X105714259Y-113667748D01*
X105699018Y-113657953D01*
X105628648Y-113605214D01*
X105613049Y-113596673D01*
X105605332Y-113593780D01*
X105548569Y-113551137D01*
X105523872Y-113484575D01*
X105540447Y-113412800D01*
X105631623Y-113254879D01*
X105631624Y-113254878D01*
X105634927Y-113249156D01*
X105693942Y-113067528D01*
X105713904Y-112877600D01*
X105713716Y-112875815D01*
X105733216Y-112809405D01*
X105750118Y-112788431D01*
X105896140Y-112642408D01*
X105908532Y-112631540D01*
X105927347Y-112617103D01*
X105927348Y-112617102D01*
X105933898Y-112612076D01*
X105938924Y-112605526D01*
X105938927Y-112605523D01*
X106009952Y-112512961D01*
X106009953Y-112512960D01*
X106018724Y-112501530D01*
X106031435Y-112484965D01*
X106049091Y-112442340D01*
X106093640Y-112387059D01*
X106161003Y-112364638D01*
X106229794Y-112382196D01*
G37*
%TD.AperFunction*%
%TA.AperFunction,Conductor*%
G36*
X122434921Y-106678502D02*
G01*
X122454147Y-106694843D01*
X122454420Y-106694540D01*
X122459332Y-106698963D01*
X122463747Y-106703866D01*
X122469086Y-106707745D01*
X122593340Y-106798021D01*
X122618248Y-106816118D01*
X122624276Y-106818802D01*
X122624278Y-106818803D01*
X122734948Y-106868076D01*
X122792712Y-106893794D01*
X122886112Y-106913647D01*
X122973056Y-106932128D01*
X122973061Y-106932128D01*
X122979513Y-106933500D01*
X123035406Y-106933500D01*
X123103527Y-106953502D01*
X123124501Y-106970405D01*
X123642095Y-107487999D01*
X123676121Y-107550311D01*
X123679000Y-107577094D01*
X123679000Y-109635405D01*
X123658998Y-109703526D01*
X123642095Y-109724500D01*
X122581800Y-110784795D01*
X122519488Y-110818821D01*
X122492705Y-110821700D01*
X121972331Y-110821700D01*
X121904210Y-110801698D01*
X121865188Y-110762004D01*
X121852197Y-110741011D01*
X121728053Y-110617083D01*
X121724813Y-110615086D01*
X121684586Y-110558348D01*
X121681353Y-110487425D01*
X121716978Y-110426013D01*
X121725478Y-110418634D01*
X121733952Y-110411918D01*
X121847451Y-110298221D01*
X121856463Y-110286810D01*
X121940765Y-110150046D01*
X121946909Y-110136868D01*
X121997627Y-109983960D01*
X122000493Y-109970594D01*
X122010072Y-109877099D01*
X122010400Y-109870684D01*
X122010400Y-109852315D01*
X122005925Y-109837076D01*
X122004535Y-109835871D01*
X121996852Y-109834200D01*
X119612516Y-109834200D01*
X119597277Y-109838675D01*
X119596072Y-109840065D01*
X119594401Y-109847748D01*
X119594401Y-109870633D01*
X119594738Y-109877152D01*
X119604566Y-109971870D01*
X119607458Y-109985264D01*
X119658436Y-110138065D01*
X119664610Y-110151243D01*
X119749144Y-110287849D01*
X119758180Y-110299250D01*
X119871879Y-110412751D01*
X119879151Y-110418494D01*
X119920214Y-110476411D01*
X119923446Y-110547334D01*
X119887821Y-110608746D01*
X119881146Y-110614540D01*
X119875711Y-110617903D01*
X119751783Y-110742047D01*
X119747943Y-110748277D01*
X119747942Y-110748278D01*
X119708284Y-110812616D01*
X119655512Y-110860109D01*
X119601024Y-110872500D01*
X118314731Y-110872500D01*
X118246610Y-110852498D01*
X118207588Y-110812804D01*
X118194597Y-110791811D01*
X118070453Y-110667883D01*
X118067213Y-110665886D01*
X118026986Y-110609148D01*
X118023753Y-110538225D01*
X118059378Y-110476813D01*
X118067878Y-110469434D01*
X118076352Y-110462718D01*
X118189851Y-110349021D01*
X118198863Y-110337610D01*
X118283165Y-110200846D01*
X118289309Y-110187668D01*
X118340027Y-110034760D01*
X118342893Y-110021394D01*
X118352472Y-109927899D01*
X118352800Y-109921484D01*
X118352800Y-109903115D01*
X118348325Y-109887876D01*
X118346935Y-109886671D01*
X118339252Y-109885000D01*
X115954916Y-109885000D01*
X115939677Y-109889475D01*
X115938472Y-109890865D01*
X115936801Y-109898548D01*
X115936801Y-109921433D01*
X115937138Y-109927952D01*
X115946966Y-110022670D01*
X115949858Y-110036064D01*
X116000836Y-110188865D01*
X116007010Y-110202043D01*
X116091544Y-110338649D01*
X116100580Y-110350050D01*
X116214279Y-110463551D01*
X116221551Y-110469294D01*
X116262614Y-110527211D01*
X116265846Y-110598134D01*
X116230221Y-110659546D01*
X116223546Y-110665340D01*
X116218111Y-110668703D01*
X116212939Y-110673884D01*
X116170464Y-110716433D01*
X116094183Y-110792847D01*
X116090343Y-110799077D01*
X116090342Y-110799078D01*
X116035027Y-110888816D01*
X115982255Y-110936309D01*
X115927767Y-110948700D01*
X115732798Y-110948700D01*
X115724887Y-110948451D01*
X115717880Y-110948010D01*
X115710094Y-110946525D01*
X115679481Y-110948451D01*
X115671569Y-110948700D01*
X113844331Y-110948700D01*
X113776210Y-110928698D01*
X113737188Y-110889004D01*
X113724197Y-110868011D01*
X113600053Y-110744083D01*
X113596813Y-110742086D01*
X113556586Y-110685348D01*
X113553353Y-110614425D01*
X113588978Y-110553013D01*
X113597478Y-110545634D01*
X113605952Y-110538918D01*
X113719451Y-110425221D01*
X113728463Y-110413810D01*
X113812765Y-110277046D01*
X113818909Y-110263868D01*
X113869627Y-110110960D01*
X113872493Y-110097594D01*
X113882072Y-110004099D01*
X113882400Y-109997684D01*
X113882400Y-109979315D01*
X113877925Y-109964076D01*
X113876535Y-109962871D01*
X113868852Y-109961200D01*
X111997749Y-109961200D01*
X111929628Y-109941198D01*
X111912377Y-109927739D01*
X111911724Y-109927264D01*
X111905941Y-109921834D01*
X111898995Y-109918015D01*
X111898992Y-109918013D01*
X111888186Y-109912072D01*
X111871667Y-109901221D01*
X111868221Y-109898548D01*
X111855661Y-109888806D01*
X111848392Y-109885661D01*
X111848388Y-109885658D01*
X111815083Y-109871246D01*
X111804433Y-109866029D01*
X111765680Y-109844725D01*
X111746057Y-109839687D01*
X111727354Y-109833283D01*
X111716040Y-109828387D01*
X111716039Y-109828387D01*
X111708765Y-109825239D01*
X111700942Y-109824000D01*
X111700932Y-109823997D01*
X111665096Y-109818321D01*
X111653476Y-109815915D01*
X111618331Y-109806892D01*
X111618330Y-109806892D01*
X111610650Y-109804920D01*
X111590396Y-109804920D01*
X111570685Y-109803369D01*
X111558506Y-109801440D01*
X111550677Y-109800200D01*
X111542785Y-109800946D01*
X111506659Y-109804361D01*
X111494801Y-109804920D01*
X108990400Y-109804920D01*
X108922279Y-109784918D01*
X108875786Y-109731262D01*
X108864400Y-109678920D01*
X108864400Y-109435085D01*
X111466400Y-109435085D01*
X111470875Y-109450324D01*
X111472265Y-109451529D01*
X111479948Y-109453200D01*
X112402285Y-109453200D01*
X112417524Y-109448725D01*
X112418729Y-109447335D01*
X112420400Y-109439652D01*
X112420400Y-109435085D01*
X112928400Y-109435085D01*
X112932875Y-109450324D01*
X112934265Y-109451529D01*
X112941948Y-109453200D01*
X113864284Y-109453200D01*
X113879523Y-109448725D01*
X113880728Y-109447335D01*
X113882399Y-109439652D01*
X113882399Y-109416767D01*
X113882062Y-109410248D01*
X113876733Y-109358885D01*
X115936800Y-109358885D01*
X115941275Y-109374124D01*
X115942665Y-109375329D01*
X115950348Y-109377000D01*
X116872685Y-109377000D01*
X116887924Y-109372525D01*
X116889129Y-109371135D01*
X116890800Y-109363452D01*
X116890800Y-109358885D01*
X117398800Y-109358885D01*
X117403275Y-109374124D01*
X117404665Y-109375329D01*
X117412348Y-109377000D01*
X118334684Y-109377000D01*
X118349923Y-109372525D01*
X118351128Y-109371135D01*
X118352799Y-109363452D01*
X118352799Y-109340567D01*
X118352462Y-109334048D01*
X118349768Y-109308085D01*
X119594400Y-109308085D01*
X119598875Y-109323324D01*
X119600265Y-109324529D01*
X119607948Y-109326200D01*
X120530285Y-109326200D01*
X120545524Y-109321725D01*
X120546729Y-109320335D01*
X120548400Y-109312652D01*
X120548400Y-109308085D01*
X121056400Y-109308085D01*
X121060875Y-109323324D01*
X121062265Y-109324529D01*
X121069948Y-109326200D01*
X121992284Y-109326200D01*
X122007523Y-109321725D01*
X122008728Y-109320335D01*
X122010399Y-109312652D01*
X122010399Y-109289767D01*
X122010062Y-109283248D01*
X122000234Y-109188530D01*
X121997342Y-109175136D01*
X121946364Y-109022335D01*
X121940190Y-109009157D01*
X121855656Y-108872551D01*
X121846620Y-108861150D01*
X121732921Y-108747649D01*
X121721510Y-108738637D01*
X121584746Y-108654335D01*
X121571568Y-108648191D01*
X121418660Y-108597473D01*
X121405294Y-108594607D01*
X121311799Y-108585028D01*
X121305384Y-108584700D01*
X121074515Y-108584700D01*
X121059276Y-108589175D01*
X121058071Y-108590565D01*
X121056400Y-108598248D01*
X121056400Y-109308085D01*
X120548400Y-109308085D01*
X120548400Y-108602816D01*
X120543925Y-108587577D01*
X120542535Y-108586372D01*
X120534852Y-108584701D01*
X120299467Y-108584701D01*
X120292948Y-108585038D01*
X120198230Y-108594866D01*
X120184836Y-108597758D01*
X120032035Y-108648736D01*
X120018857Y-108654910D01*
X119882251Y-108739444D01*
X119870850Y-108748480D01*
X119757349Y-108862179D01*
X119748337Y-108873590D01*
X119664035Y-109010354D01*
X119657891Y-109023532D01*
X119607173Y-109176440D01*
X119604307Y-109189806D01*
X119594728Y-109283301D01*
X119594400Y-109289716D01*
X119594400Y-109308085D01*
X118349768Y-109308085D01*
X118342634Y-109239330D01*
X118339742Y-109225936D01*
X118288764Y-109073135D01*
X118282590Y-109059957D01*
X118198056Y-108923351D01*
X118189020Y-108911950D01*
X118075321Y-108798449D01*
X118063910Y-108789437D01*
X117927146Y-108705135D01*
X117913968Y-108698991D01*
X117761060Y-108648273D01*
X117747694Y-108645407D01*
X117654199Y-108635828D01*
X117647784Y-108635500D01*
X117416915Y-108635500D01*
X117401676Y-108639975D01*
X117400471Y-108641365D01*
X117398800Y-108649048D01*
X117398800Y-109358885D01*
X116890800Y-109358885D01*
X116890800Y-108653616D01*
X116886325Y-108638377D01*
X116884935Y-108637172D01*
X116877252Y-108635501D01*
X116641867Y-108635501D01*
X116635348Y-108635838D01*
X116540630Y-108645666D01*
X116527236Y-108648558D01*
X116374435Y-108699536D01*
X116361257Y-108705710D01*
X116224651Y-108790244D01*
X116213250Y-108799280D01*
X116099749Y-108912979D01*
X116090737Y-108924390D01*
X116006435Y-109061154D01*
X116000291Y-109074332D01*
X115949573Y-109227240D01*
X115946707Y-109240606D01*
X115937128Y-109334101D01*
X115936800Y-109340516D01*
X115936800Y-109358885D01*
X113876733Y-109358885D01*
X113872234Y-109315530D01*
X113869342Y-109302136D01*
X113818364Y-109149335D01*
X113812190Y-109136157D01*
X113727656Y-108999551D01*
X113718620Y-108988150D01*
X113604921Y-108874649D01*
X113593510Y-108865637D01*
X113456746Y-108781335D01*
X113443568Y-108775191D01*
X113290660Y-108724473D01*
X113277294Y-108721607D01*
X113183799Y-108712028D01*
X113177384Y-108711700D01*
X112946515Y-108711700D01*
X112931276Y-108716175D01*
X112930071Y-108717565D01*
X112928400Y-108725248D01*
X112928400Y-109435085D01*
X112420400Y-109435085D01*
X112420400Y-108729816D01*
X112415925Y-108714577D01*
X112414535Y-108713372D01*
X112406852Y-108711701D01*
X112171467Y-108711701D01*
X112164948Y-108712038D01*
X112070230Y-108721866D01*
X112056836Y-108724758D01*
X111904035Y-108775736D01*
X111890857Y-108781910D01*
X111754251Y-108866444D01*
X111742850Y-108875480D01*
X111629349Y-108989179D01*
X111620337Y-109000590D01*
X111536035Y-109137354D01*
X111529891Y-109150532D01*
X111479173Y-109303440D01*
X111476307Y-109316806D01*
X111466728Y-109410301D01*
X111466400Y-109416716D01*
X111466400Y-109435085D01*
X108864400Y-109435085D01*
X108864400Y-109354285D01*
X109372400Y-109354285D01*
X109376875Y-109369524D01*
X109378265Y-109370729D01*
X109385948Y-109372400D01*
X110308284Y-109372400D01*
X110323523Y-109367925D01*
X110324728Y-109366535D01*
X110326399Y-109358852D01*
X110326399Y-109335967D01*
X110326062Y-109329448D01*
X110316234Y-109234730D01*
X110313342Y-109221336D01*
X110262364Y-109068535D01*
X110256190Y-109055357D01*
X110171656Y-108918751D01*
X110162620Y-108907350D01*
X110048921Y-108793849D01*
X110037510Y-108784837D01*
X109900746Y-108700535D01*
X109887568Y-108694391D01*
X109734660Y-108643673D01*
X109721294Y-108640807D01*
X109627799Y-108631228D01*
X109621384Y-108630900D01*
X109390515Y-108630900D01*
X109375276Y-108635375D01*
X109374071Y-108636765D01*
X109372400Y-108644448D01*
X109372400Y-109354285D01*
X108864400Y-109354285D01*
X108864400Y-108649016D01*
X108859925Y-108633777D01*
X108858535Y-108632572D01*
X108850852Y-108630901D01*
X108811860Y-108630901D01*
X108743739Y-108610899D01*
X108697246Y-108557243D01*
X108687142Y-108486969D01*
X108688614Y-108478703D01*
X108689103Y-108476405D01*
X108691142Y-108470128D01*
X108701074Y-108375635D01*
X108710414Y-108286765D01*
X108711104Y-108280200D01*
X108699803Y-108172677D01*
X108691832Y-108096835D01*
X108691832Y-108096833D01*
X108691142Y-108090272D01*
X108632127Y-107908644D01*
X108619476Y-107886731D01*
X108577494Y-107814017D01*
X108536640Y-107743256D01*
X108408853Y-107601334D01*
X108254352Y-107489082D01*
X108248324Y-107486398D01*
X108248322Y-107486397D01*
X108161988Y-107447959D01*
X108107892Y-107401979D01*
X108087243Y-107334052D01*
X108106595Y-107265744D01*
X108146934Y-107225707D01*
X108179213Y-107205732D01*
X108190608Y-107196701D01*
X108305139Y-107081971D01*
X108314151Y-107070560D01*
X108374287Y-106973001D01*
X108427059Y-106925508D01*
X108497131Y-106914084D01*
X108562255Y-106942358D01*
X108588690Y-106972812D01*
X108651522Y-107074348D01*
X108776697Y-107199305D01*
X108782927Y-107203145D01*
X108782928Y-107203146D01*
X108920090Y-107287694D01*
X108927262Y-107292115D01*
X108995246Y-107314664D01*
X109088611Y-107345632D01*
X109088613Y-107345632D01*
X109095139Y-107347797D01*
X109101975Y-107348497D01*
X109101978Y-107348498D01*
X109145031Y-107352909D01*
X109199600Y-107358500D01*
X110550400Y-107358500D01*
X110553646Y-107358163D01*
X110553650Y-107358163D01*
X110649308Y-107348238D01*
X110649312Y-107348237D01*
X110656166Y-107347526D01*
X110662702Y-107345345D01*
X110662704Y-107345345D01*
X110809007Y-107296534D01*
X110823946Y-107291550D01*
X110974348Y-107198478D01*
X111099305Y-107073303D01*
X111163979Y-106968383D01*
X111216750Y-106920891D01*
X111271238Y-106908500D01*
X114867416Y-106908500D01*
X114935537Y-106928502D01*
X114982030Y-106982158D01*
X114986940Y-106994625D01*
X114990050Y-107003946D01*
X115083122Y-107154348D01*
X115208297Y-107279305D01*
X115214527Y-107283145D01*
X115214528Y-107283146D01*
X115351690Y-107367694D01*
X115358862Y-107372115D01*
X115428899Y-107395345D01*
X115520211Y-107425632D01*
X115520213Y-107425632D01*
X115526739Y-107427797D01*
X115533575Y-107428497D01*
X115533578Y-107428498D01*
X115576631Y-107432909D01*
X115631200Y-107438500D01*
X116982000Y-107438500D01*
X116985246Y-107438163D01*
X116985250Y-107438163D01*
X117080908Y-107428238D01*
X117080912Y-107428237D01*
X117087766Y-107427526D01*
X117094302Y-107425345D01*
X117094304Y-107425345D01*
X117226406Y-107381272D01*
X117255546Y-107371550D01*
X117405948Y-107278478D01*
X117530905Y-107153303D01*
X117536112Y-107144856D01*
X117619875Y-107008968D01*
X117619876Y-107008966D01*
X117623715Y-107002738D01*
X117626338Y-106994831D01*
X117626733Y-106994261D01*
X117629113Y-106989156D01*
X117629987Y-106989564D01*
X117666768Y-106936473D01*
X117732332Y-106909236D01*
X117745930Y-106908500D01*
X118248613Y-106908500D01*
X118316734Y-106928502D01*
X118357184Y-106974730D01*
X118358450Y-106973946D01*
X118451522Y-107124348D01*
X118456704Y-107129521D01*
X118481574Y-107154348D01*
X118576697Y-107249305D01*
X118582927Y-107253145D01*
X118582928Y-107253146D01*
X118720090Y-107337694D01*
X118727262Y-107342115D01*
X118775646Y-107358163D01*
X118888611Y-107395632D01*
X118888613Y-107395632D01*
X118895139Y-107397797D01*
X118901975Y-107398497D01*
X118901978Y-107398498D01*
X118935955Y-107401979D01*
X118999600Y-107408500D01*
X120350400Y-107408500D01*
X120353646Y-107408163D01*
X120353650Y-107408163D01*
X120449308Y-107398238D01*
X120449312Y-107398237D01*
X120456166Y-107397526D01*
X120462702Y-107395345D01*
X120462704Y-107395345D01*
X120603900Y-107348238D01*
X120623946Y-107341550D01*
X120774348Y-107248478D01*
X120899305Y-107123303D01*
X120926933Y-107078483D01*
X120988275Y-106978968D01*
X120988276Y-106978966D01*
X120992115Y-106972738D01*
X121047797Y-106804861D01*
X121048969Y-106793428D01*
X121051199Y-106771658D01*
X121078040Y-106705930D01*
X121136155Y-106665148D01*
X121176543Y-106658500D01*
X122366800Y-106658500D01*
X122434921Y-106678502D01*
G37*
%TD.AperFunction*%
%TA.AperFunction,Conductor*%
G36*
X105621432Y-105707524D02*
G01*
X105678268Y-105750071D01*
X105703079Y-105816591D01*
X105703400Y-105825580D01*
X105703400Y-105956685D01*
X105707875Y-105971924D01*
X105709265Y-105973129D01*
X105716948Y-105974800D01*
X107214400Y-105974800D01*
X107282521Y-105994802D01*
X107329014Y-106048458D01*
X107340400Y-106100800D01*
X107340400Y-106356800D01*
X107320398Y-106424921D01*
X107266742Y-106471414D01*
X107214400Y-106482800D01*
X105721516Y-106482800D01*
X105706277Y-106487275D01*
X105705072Y-106488665D01*
X105703401Y-106496348D01*
X105703401Y-106650895D01*
X105703738Y-106657414D01*
X105713657Y-106753006D01*
X105716549Y-106766400D01*
X105767988Y-106920584D01*
X105774161Y-106933762D01*
X105859463Y-107071607D01*
X105865358Y-107079045D01*
X105891994Y-107144856D01*
X105878822Y-107214620D01*
X105840672Y-107259244D01*
X105789347Y-107296534D01*
X105784926Y-107301444D01*
X105784925Y-107301445D01*
X105721294Y-107372115D01*
X105661560Y-107438456D01*
X105566073Y-107603844D01*
X105507058Y-107785472D01*
X105487096Y-107975400D01*
X105487786Y-107981965D01*
X105498510Y-108083994D01*
X105507058Y-108165328D01*
X105566073Y-108346956D01*
X105661560Y-108512344D01*
X105665978Y-108517251D01*
X105665979Y-108517252D01*
X105759736Y-108621380D01*
X105790454Y-108685387D01*
X105792100Y-108705690D01*
X105792100Y-108839561D01*
X105772098Y-108907682D01*
X105755195Y-108928656D01*
X104404166Y-110279685D01*
X104391775Y-110290552D01*
X104366413Y-110310013D01*
X104341926Y-110341925D01*
X104341923Y-110341928D01*
X104341917Y-110341936D01*
X104278010Y-110425221D01*
X104268876Y-110437124D01*
X104249605Y-110483648D01*
X104211187Y-110576398D01*
X104207562Y-110585149D01*
X104207282Y-110587275D01*
X104203358Y-110617083D01*
X104194264Y-110686161D01*
X104191900Y-110704115D01*
X104191900Y-110704120D01*
X104190253Y-110716634D01*
X104161533Y-110781559D01*
X104102269Y-110820652D01*
X104031277Y-110821499D01*
X103991270Y-110802124D01*
X103937094Y-110762763D01*
X103937093Y-110762762D01*
X103931752Y-110758882D01*
X103925724Y-110756198D01*
X103925722Y-110756197D01*
X103763319Y-110683891D01*
X103763318Y-110683891D01*
X103757288Y-110681206D01*
X103656106Y-110659699D01*
X103576944Y-110642872D01*
X103576939Y-110642872D01*
X103570487Y-110641500D01*
X103379513Y-110641500D01*
X103373061Y-110642872D01*
X103373056Y-110642872D01*
X103199169Y-110679833D01*
X103199164Y-110679834D01*
X103192712Y-110681206D01*
X103186681Y-110683891D01*
X103185937Y-110684133D01*
X103114970Y-110686161D01*
X103054171Y-110649499D01*
X103022846Y-110585787D01*
X103021000Y-110564300D01*
X103021000Y-109668524D01*
X103041002Y-109600403D01*
X103053358Y-109584221D01*
X103126540Y-109502944D01*
X103203570Y-109369524D01*
X103218723Y-109343279D01*
X103218724Y-109343278D01*
X103222027Y-109337556D01*
X103281042Y-109155928D01*
X103297369Y-109000590D01*
X103300314Y-108972565D01*
X103301004Y-108966000D01*
X103296631Y-108924390D01*
X103281732Y-108782635D01*
X103281732Y-108782633D01*
X103281042Y-108776072D01*
X103222027Y-108594444D01*
X103218063Y-108587577D01*
X103150253Y-108470128D01*
X103126540Y-108429056D01*
X103049812Y-108343841D01*
X103019095Y-108279833D01*
X103027860Y-108209380D01*
X103054354Y-108170436D01*
X105488305Y-105736485D01*
X105550617Y-105702459D01*
X105621432Y-105707524D01*
G37*
%TD.AperFunction*%
%TA.AperFunction,Conductor*%
G36*
X103970421Y-102948602D02*
G01*
X103989647Y-102964943D01*
X103989920Y-102964640D01*
X103994832Y-102969063D01*
X103999247Y-102973966D01*
X104004586Y-102977845D01*
X104107776Y-103052817D01*
X104153748Y-103086218D01*
X104159776Y-103088902D01*
X104159778Y-103088903D01*
X104234219Y-103122046D01*
X104328212Y-103163894D01*
X104334673Y-103165267D01*
X104334678Y-103165269D01*
X104435127Y-103186621D01*
X104497601Y-103220349D01*
X104531922Y-103282499D01*
X104527194Y-103353338D01*
X104498025Y-103398962D01*
X101540781Y-106356205D01*
X98610791Y-109286195D01*
X98548479Y-109320221D01*
X98521696Y-109323100D01*
X96529946Y-109323100D01*
X96461825Y-109303098D01*
X96417679Y-109254303D01*
X96416223Y-109251446D01*
X96414327Y-109246868D01*
X96370370Y-109175136D01*
X96288742Y-109041930D01*
X96288740Y-109041927D01*
X96286152Y-109037704D01*
X96261771Y-109009157D01*
X96130041Y-108854923D01*
X96126833Y-108851167D01*
X96046331Y-108782411D01*
X96007522Y-108722960D01*
X96007016Y-108651965D01*
X96046331Y-108590789D01*
X96123077Y-108525241D01*
X96126833Y-108522033D01*
X96137684Y-108509328D01*
X96282935Y-108339263D01*
X96282937Y-108339260D01*
X96286152Y-108335496D01*
X96304004Y-108306365D01*
X96411738Y-108130557D01*
X96411738Y-108130556D01*
X96414327Y-108126332D01*
X96416223Y-108121754D01*
X96417679Y-108118897D01*
X96466427Y-108067282D01*
X96529946Y-108050100D01*
X96669833Y-108050100D01*
X96681016Y-108050627D01*
X96688509Y-108052302D01*
X96696435Y-108052053D01*
X96696436Y-108052053D01*
X96756586Y-108050162D01*
X96760545Y-108050100D01*
X96788456Y-108050100D01*
X96792391Y-108049603D01*
X96792456Y-108049595D01*
X96804293Y-108048662D01*
X96836551Y-108047648D01*
X96840570Y-108047522D01*
X96848489Y-108047273D01*
X96867943Y-108041621D01*
X96887300Y-108037613D01*
X96899530Y-108036068D01*
X96899531Y-108036068D01*
X96907397Y-108035074D01*
X96914768Y-108032155D01*
X96914770Y-108032155D01*
X96948512Y-108018796D01*
X96959742Y-108014951D01*
X96994583Y-108004829D01*
X96994584Y-108004829D01*
X97002193Y-108002618D01*
X97009012Y-107998585D01*
X97009017Y-107998583D01*
X97019628Y-107992307D01*
X97037376Y-107983612D01*
X97056217Y-107976152D01*
X97091987Y-107950164D01*
X97101907Y-107943648D01*
X97133135Y-107925180D01*
X97133138Y-107925178D01*
X97139962Y-107921142D01*
X97154283Y-107906821D01*
X97169317Y-107893980D01*
X97179294Y-107886731D01*
X97185707Y-107882072D01*
X97213898Y-107847995D01*
X97221888Y-107839216D01*
X102095600Y-102965505D01*
X102157912Y-102931479D01*
X102184695Y-102928600D01*
X103902300Y-102928600D01*
X103970421Y-102948602D01*
G37*
%TD.AperFunction*%
%TA.AperFunction,Conductor*%
G36*
X123736327Y-100328502D02*
G01*
X123757301Y-100345405D01*
X127454877Y-104042982D01*
X127488903Y-104105294D01*
X127488301Y-104161489D01*
X127462528Y-104268843D01*
X127443281Y-104513400D01*
X127462528Y-104757957D01*
X127463682Y-104762764D01*
X127463683Y-104762770D01*
X127475246Y-104810933D01*
X127519795Y-104996492D01*
X127613673Y-105223132D01*
X127679587Y-105330695D01*
X127735243Y-105421517D01*
X127741848Y-105432296D01*
X127745063Y-105436060D01*
X127745065Y-105436063D01*
X127822957Y-105527262D01*
X127901167Y-105618833D01*
X127964194Y-105672663D01*
X127991973Y-105696389D01*
X128030782Y-105755840D01*
X128031288Y-105826834D01*
X127991973Y-105888010D01*
X127901167Y-105965567D01*
X127897959Y-105969323D01*
X127777364Y-106110521D01*
X127741848Y-106152104D01*
X127739260Y-106156327D01*
X127739258Y-106156330D01*
X127696862Y-106225515D01*
X127613673Y-106361268D01*
X127519795Y-106587908D01*
X127480159Y-106753006D01*
X127473581Y-106780404D01*
X127438229Y-106841973D01*
X127375202Y-106874656D01*
X127304511Y-106868076D01*
X127261967Y-106840085D01*
X121270478Y-100848595D01*
X121236452Y-100786283D01*
X121241517Y-100715468D01*
X121284064Y-100658632D01*
X121350584Y-100633821D01*
X121359573Y-100633500D01*
X121848134Y-100633500D01*
X121910316Y-100626745D01*
X122046705Y-100575615D01*
X122163261Y-100488261D01*
X122250615Y-100371705D01*
X122250861Y-100371049D01*
X122298175Y-100323843D01*
X122358433Y-100308500D01*
X123668206Y-100308500D01*
X123736327Y-100328502D01*
G37*
%TD.AperFunction*%
%TA.AperFunction,Conductor*%
G36*
X101923107Y-69895474D02*
G01*
X101969607Y-69949124D01*
X101981000Y-70001481D01*
X101981000Y-75962698D01*
X101980998Y-75963468D01*
X101980524Y-76041052D01*
X101982990Y-76049681D01*
X101982991Y-76049686D01*
X101988639Y-76069448D01*
X101992217Y-76086209D01*
X101995130Y-76106552D01*
X101995133Y-76106562D01*
X101996405Y-76115445D01*
X102007021Y-76138795D01*
X102013464Y-76156307D01*
X102020512Y-76180965D01*
X102036274Y-76205948D01*
X102044404Y-76221014D01*
X102056633Y-76247910D01*
X102073374Y-76267339D01*
X102084479Y-76282347D01*
X102098160Y-76304031D01*
X102104888Y-76309973D01*
X102120296Y-76323581D01*
X102132340Y-76335773D01*
X102151619Y-76358147D01*
X102159147Y-76363026D01*
X102159150Y-76363029D01*
X102173139Y-76372096D01*
X102188013Y-76383386D01*
X102207228Y-76400356D01*
X102215354Y-76404171D01*
X102215355Y-76404172D01*
X102221021Y-76406832D01*
X102233966Y-76412910D01*
X102248935Y-76421224D01*
X102262381Y-76429939D01*
X102308664Y-76483775D01*
X102318494Y-76554088D01*
X102311829Y-76579900D01*
X102301522Y-76607394D01*
X102297895Y-76622649D01*
X102292369Y-76673514D01*
X102292000Y-76680328D01*
X102292000Y-76902885D01*
X102296475Y-76918124D01*
X102297865Y-76919329D01*
X102305548Y-76921000D01*
X104789884Y-76921000D01*
X104805123Y-76916525D01*
X104806328Y-76915135D01*
X104807999Y-76907452D01*
X104807999Y-76680331D01*
X104807630Y-76673512D01*
X104801709Y-76619006D01*
X104814238Y-76549124D01*
X104862559Y-76497109D01*
X104926972Y-76479400D01*
X119673027Y-76479400D01*
X119741148Y-76499402D01*
X119787641Y-76553058D01*
X119798290Y-76619007D01*
X119792369Y-76673512D01*
X119792000Y-76680328D01*
X119792000Y-76902885D01*
X119796475Y-76918124D01*
X119797865Y-76919329D01*
X119805548Y-76921000D01*
X121178000Y-76921000D01*
X121246121Y-76941002D01*
X121292614Y-76994658D01*
X121304000Y-77047000D01*
X121304000Y-77303000D01*
X121283998Y-77371121D01*
X121230342Y-77417614D01*
X121178000Y-77429000D01*
X119810116Y-77429000D01*
X119794877Y-77433475D01*
X119793672Y-77434865D01*
X119792001Y-77442548D01*
X119792001Y-77669669D01*
X119792371Y-77676490D01*
X119797895Y-77727352D01*
X119801521Y-77742604D01*
X119846679Y-77863061D01*
X119847174Y-77863966D01*
X119847393Y-77864966D01*
X119849828Y-77871462D01*
X119848890Y-77871814D01*
X119862343Y-77933323D01*
X119849162Y-77978212D01*
X119849385Y-77978295D01*
X119848244Y-77981337D01*
X119848242Y-77981344D01*
X119846236Y-77986696D01*
X119846234Y-77986699D01*
X119832663Y-78022900D01*
X119798255Y-78114684D01*
X119791500Y-78176866D01*
X119791500Y-79173134D01*
X119798255Y-79235316D01*
X119814726Y-79279252D01*
X119839309Y-79344826D01*
X119849222Y-79371270D01*
X119849385Y-79371705D01*
X119848534Y-79372024D01*
X119862055Y-79433849D01*
X119849042Y-79478166D01*
X119849385Y-79478295D01*
X119846236Y-79486696D01*
X119846234Y-79486699D01*
X119825690Y-79541500D01*
X119798255Y-79614684D01*
X119791500Y-79676866D01*
X119791500Y-80136383D01*
X119771498Y-80204504D01*
X119754595Y-80225478D01*
X119583236Y-80396837D01*
X119574950Y-80404377D01*
X119568471Y-80408489D01*
X119563046Y-80414266D01*
X119521846Y-80458140D01*
X119519091Y-80460982D01*
X119499354Y-80480719D01*
X119496874Y-80483916D01*
X119489171Y-80492936D01*
X119458903Y-80525168D01*
X119455084Y-80532114D01*
X119455082Y-80532117D01*
X119449141Y-80542923D01*
X119438290Y-80559442D01*
X119425875Y-80575448D01*
X119422730Y-80582717D01*
X119422727Y-80582721D01*
X119408315Y-80616026D01*
X119403098Y-80626676D01*
X119381794Y-80665429D01*
X119379823Y-80673104D01*
X119379823Y-80673105D01*
X119376756Y-80685051D01*
X119370352Y-80703755D01*
X119362308Y-80722344D01*
X119361069Y-80730167D01*
X119361066Y-80730177D01*
X119355390Y-80766013D01*
X119352984Y-80777633D01*
X119345059Y-80808500D01*
X119341989Y-80820459D01*
X119341989Y-80840713D01*
X119340438Y-80860423D01*
X119337269Y-80880432D01*
X119338015Y-80888324D01*
X119341430Y-80924450D01*
X119341989Y-80936308D01*
X119341989Y-99040500D01*
X119321987Y-99108621D01*
X119268331Y-99155114D01*
X119215989Y-99166500D01*
X118551866Y-99166500D01*
X118489684Y-99173255D01*
X118470230Y-99180548D01*
X118361699Y-99221234D01*
X118361696Y-99221236D01*
X118353295Y-99224385D01*
X118352976Y-99223534D01*
X118291151Y-99237055D01*
X118246834Y-99224042D01*
X118246705Y-99224385D01*
X118242019Y-99222628D01*
X118242015Y-99222627D01*
X118238304Y-99221236D01*
X118238301Y-99221234D01*
X118129770Y-99180548D01*
X118110316Y-99173255D01*
X118048134Y-99166500D01*
X117051866Y-99166500D01*
X116989684Y-99173255D01*
X116970230Y-99180548D01*
X116861699Y-99221234D01*
X116861696Y-99221236D01*
X116853295Y-99224385D01*
X116852976Y-99223534D01*
X116791151Y-99237055D01*
X116746834Y-99224042D01*
X116746705Y-99224385D01*
X116742019Y-99222628D01*
X116742015Y-99222627D01*
X116738304Y-99221236D01*
X116738301Y-99221234D01*
X116629770Y-99180548D01*
X116610316Y-99173255D01*
X116548134Y-99166500D01*
X115551866Y-99166500D01*
X115489684Y-99173255D01*
X115470230Y-99180548D01*
X115361699Y-99221234D01*
X115361696Y-99221236D01*
X115353295Y-99224385D01*
X115352976Y-99223534D01*
X115291151Y-99237055D01*
X115246834Y-99224042D01*
X115246705Y-99224385D01*
X115242019Y-99222628D01*
X115242015Y-99222627D01*
X115238304Y-99221236D01*
X115238301Y-99221234D01*
X115129770Y-99180548D01*
X115110316Y-99173255D01*
X115048134Y-99166500D01*
X114051866Y-99166500D01*
X113989684Y-99173255D01*
X113970230Y-99180548D01*
X113861699Y-99221234D01*
X113861696Y-99221236D01*
X113853295Y-99224385D01*
X113852976Y-99223534D01*
X113791151Y-99237055D01*
X113746834Y-99224042D01*
X113746705Y-99224385D01*
X113742019Y-99222628D01*
X113742015Y-99222627D01*
X113738304Y-99221236D01*
X113738301Y-99221234D01*
X113629770Y-99180548D01*
X113610316Y-99173255D01*
X113548134Y-99166500D01*
X112551866Y-99166500D01*
X112489684Y-99173255D01*
X112470230Y-99180548D01*
X112361699Y-99221234D01*
X112361696Y-99221236D01*
X112353295Y-99224385D01*
X112352976Y-99223534D01*
X112291151Y-99237055D01*
X112246834Y-99224042D01*
X112246705Y-99224385D01*
X112242019Y-99222628D01*
X112242015Y-99222627D01*
X112238304Y-99221236D01*
X112238301Y-99221234D01*
X112129770Y-99180548D01*
X112110316Y-99173255D01*
X112048134Y-99166500D01*
X111051866Y-99166500D01*
X110989684Y-99173255D01*
X110970230Y-99180548D01*
X110861699Y-99221234D01*
X110861696Y-99221236D01*
X110853295Y-99224385D01*
X110852976Y-99223534D01*
X110791151Y-99237055D01*
X110746834Y-99224042D01*
X110746705Y-99224385D01*
X110742019Y-99222628D01*
X110742015Y-99222627D01*
X110738304Y-99221236D01*
X110738301Y-99221234D01*
X110629770Y-99180548D01*
X110610316Y-99173255D01*
X110548134Y-99166500D01*
X109551866Y-99166500D01*
X109489684Y-99173255D01*
X109470230Y-99180548D01*
X109361699Y-99221234D01*
X109361696Y-99221236D01*
X109353295Y-99224385D01*
X109352976Y-99223534D01*
X109291151Y-99237055D01*
X109246834Y-99224042D01*
X109246705Y-99224385D01*
X109242019Y-99222628D01*
X109242015Y-99222627D01*
X109238304Y-99221236D01*
X109238301Y-99221234D01*
X109129770Y-99180548D01*
X109110316Y-99173255D01*
X109048134Y-99166500D01*
X108051866Y-99166500D01*
X107989684Y-99173255D01*
X107970230Y-99180548D01*
X107861699Y-99221234D01*
X107861696Y-99221236D01*
X107853295Y-99224385D01*
X107852976Y-99223534D01*
X107791151Y-99237055D01*
X107746834Y-99224042D01*
X107746705Y-99224385D01*
X107742019Y-99222628D01*
X107742015Y-99222627D01*
X107738304Y-99221236D01*
X107738301Y-99221234D01*
X107629770Y-99180548D01*
X107610316Y-99173255D01*
X107548134Y-99166500D01*
X106551866Y-99166500D01*
X106489684Y-99173255D01*
X106470230Y-99180548D01*
X106361699Y-99221234D01*
X106361696Y-99221236D01*
X106353295Y-99224385D01*
X106353036Y-99223693D01*
X106290626Y-99237343D01*
X106246615Y-99224420D01*
X106246462Y-99224828D01*
X106240888Y-99222738D01*
X106238966Y-99222174D01*
X106238061Y-99221679D01*
X106117606Y-99176522D01*
X106102351Y-99172895D01*
X106051486Y-99167369D01*
X106044672Y-99167000D01*
X105822115Y-99167000D01*
X105806876Y-99171475D01*
X105805671Y-99172865D01*
X105804000Y-99180548D01*
X105804000Y-100553000D01*
X105783998Y-100621121D01*
X105730342Y-100667614D01*
X105678000Y-100679000D01*
X105534989Y-100679000D01*
X105466868Y-100658998D01*
X105420375Y-100605342D01*
X105408989Y-100553000D01*
X105408989Y-97057579D01*
X107177882Y-97057579D01*
X108256927Y-98136625D01*
X109335973Y-97057579D01*
X110769984Y-97057579D01*
X111849030Y-98136625D01*
X112928076Y-97057579D01*
X114362086Y-97057579D01*
X115441132Y-98136625D01*
X116520178Y-97057579D01*
X115441132Y-95978533D01*
X114362086Y-97057579D01*
X112928076Y-97057579D01*
X111849030Y-95978533D01*
X110769984Y-97057579D01*
X109335973Y-97057579D01*
X108256927Y-95978533D01*
X107177882Y-97057579D01*
X105408989Y-97057579D01*
X105408989Y-96302687D01*
X106422989Y-96302687D01*
X106460876Y-96340574D01*
X107539922Y-95261528D01*
X108973933Y-95261528D01*
X110052979Y-96340574D01*
X111132025Y-95261528D01*
X112566035Y-95261528D01*
X113645081Y-96340574D01*
X114724127Y-95261528D01*
X116158138Y-95261528D01*
X117237184Y-96340574D01*
X118316229Y-95261528D01*
X117237184Y-94182482D01*
X116158138Y-95261528D01*
X114724127Y-95261528D01*
X113645081Y-94182482D01*
X112566035Y-95261528D01*
X111132025Y-95261528D01*
X110052979Y-94182482D01*
X108973933Y-95261528D01*
X107539922Y-95261528D01*
X106460876Y-94182482D01*
X106422989Y-94220369D01*
X106422989Y-96302687D01*
X105408989Y-96302687D01*
X105408989Y-93465477D01*
X107177882Y-93465477D01*
X108256927Y-94544523D01*
X109335973Y-93465477D01*
X110769984Y-93465477D01*
X111849030Y-94544523D01*
X112928076Y-93465477D01*
X114362086Y-93465477D01*
X115441132Y-94544523D01*
X116520178Y-93465477D01*
X115441132Y-92386431D01*
X114362086Y-93465477D01*
X112928076Y-93465477D01*
X111849030Y-92386431D01*
X110769984Y-93465477D01*
X109335973Y-93465477D01*
X108256927Y-92386431D01*
X107177882Y-93465477D01*
X105408989Y-93465477D01*
X105408989Y-92710585D01*
X106422989Y-92710585D01*
X106460876Y-92748472D01*
X107539922Y-91669426D01*
X108973933Y-91669426D01*
X110052979Y-92748472D01*
X111132025Y-91669426D01*
X112566035Y-91669426D01*
X113645081Y-92748472D01*
X114724127Y-91669426D01*
X116158138Y-91669426D01*
X117237184Y-92748472D01*
X118316229Y-91669426D01*
X117237184Y-90590380D01*
X116158138Y-91669426D01*
X114724127Y-91669426D01*
X113645081Y-90590380D01*
X112566035Y-91669426D01*
X111132025Y-91669426D01*
X110052979Y-90590380D01*
X108973933Y-91669426D01*
X107539922Y-91669426D01*
X106460876Y-90590380D01*
X106422989Y-90628267D01*
X106422989Y-92710585D01*
X105408989Y-92710585D01*
X105408989Y-89873374D01*
X107177882Y-89873374D01*
X108256927Y-90952420D01*
X109335973Y-89873374D01*
X110769984Y-89873374D01*
X111849030Y-90952420D01*
X112928076Y-89873374D01*
X114362086Y-89873374D01*
X115441132Y-90952420D01*
X116520178Y-89873374D01*
X115443802Y-88796999D01*
X115438462Y-88796999D01*
X114362086Y-89873374D01*
X112928076Y-89873374D01*
X111849030Y-88794329D01*
X110769984Y-89873374D01*
X109335973Y-89873374D01*
X108256927Y-88794329D01*
X107177882Y-89873374D01*
X105408989Y-89873374D01*
X105408989Y-89118482D01*
X106422989Y-89118482D01*
X106460876Y-89156369D01*
X107539922Y-88077323D01*
X108973933Y-88077323D01*
X110052979Y-89156369D01*
X110638324Y-88571024D01*
X110592777Y-88541699D01*
X110585421Y-88536584D01*
X110468979Y-88449316D01*
X110462005Y-88443691D01*
X110458517Y-88440667D01*
X116521482Y-88440667D01*
X117237184Y-89156369D01*
X118316229Y-88077323D01*
X117237184Y-86998277D01*
X117062000Y-87173461D01*
X117062000Y-87323089D01*
X117061954Y-87326497D01*
X117060839Y-87367706D01*
X117060701Y-87371112D01*
X117059964Y-87384720D01*
X117059733Y-87388122D01*
X117056391Y-87429206D01*
X117056069Y-87432598D01*
X117049321Y-87494716D01*
X117048224Y-87502526D01*
X117032014Y-87596500D01*
X117030431Y-87604228D01*
X117023150Y-87634850D01*
X117021085Y-87642464D01*
X116993262Y-87733681D01*
X116990726Y-87741151D01*
X116939646Y-87877406D01*
X116936204Y-87885679D01*
X116891074Y-87984135D01*
X116887054Y-87992142D01*
X116869898Y-88023477D01*
X116865319Y-88031176D01*
X116806699Y-88122223D01*
X116801584Y-88129579D01*
X116714316Y-88246021D01*
X116708691Y-88252995D01*
X116637746Y-88334823D01*
X116631640Y-88341379D01*
X116606379Y-88366640D01*
X116599823Y-88372746D01*
X116521482Y-88440667D01*
X110458517Y-88440667D01*
X110380177Y-88372746D01*
X110373621Y-88366640D01*
X110348360Y-88341379D01*
X110342254Y-88334823D01*
X110271309Y-88252995D01*
X110265684Y-88246021D01*
X110178416Y-88129579D01*
X110173301Y-88122223D01*
X110114681Y-88031176D01*
X110110102Y-88023477D01*
X110092946Y-87992142D01*
X110088926Y-87984135D01*
X110043796Y-87885679D01*
X110040354Y-87877406D01*
X109989274Y-87741151D01*
X109986737Y-87733679D01*
X109958911Y-87642445D01*
X109956847Y-87634831D01*
X109949566Y-87604206D01*
X109947983Y-87596480D01*
X109931774Y-87502510D01*
X109930677Y-87494697D01*
X109923930Y-87432578D01*
X109923608Y-87429185D01*
X109920269Y-87388123D01*
X109920038Y-87384727D01*
X109919301Y-87371122D01*
X109919163Y-87367716D01*
X109918047Y-87326498D01*
X109918001Y-87323088D01*
X109918001Y-87319669D01*
X110932001Y-87319669D01*
X110932371Y-87326490D01*
X110937895Y-87377352D01*
X110941521Y-87392604D01*
X110986676Y-87513054D01*
X110995214Y-87528649D01*
X111071715Y-87630724D01*
X111084276Y-87643285D01*
X111186351Y-87719786D01*
X111201946Y-87728324D01*
X111322394Y-87773478D01*
X111337649Y-87777105D01*
X111388514Y-87782631D01*
X111395328Y-87783000D01*
X111717885Y-87783000D01*
X111733124Y-87778525D01*
X111734329Y-87777135D01*
X111736000Y-87769452D01*
X111736000Y-87764884D01*
X112244000Y-87764884D01*
X112248475Y-87780123D01*
X112249865Y-87781328D01*
X112257548Y-87782999D01*
X112584669Y-87782999D01*
X112591490Y-87782629D01*
X112642352Y-87777105D01*
X112657603Y-87773479D01*
X112695770Y-87759171D01*
X112766577Y-87753988D01*
X112784230Y-87759171D01*
X112822394Y-87773478D01*
X112837649Y-87777105D01*
X112888514Y-87782631D01*
X112895328Y-87783000D01*
X113217885Y-87783000D01*
X113233124Y-87778525D01*
X113234329Y-87777135D01*
X113236000Y-87769452D01*
X113236000Y-87764884D01*
X113744000Y-87764884D01*
X113748475Y-87780123D01*
X113749865Y-87781328D01*
X113757548Y-87782999D01*
X114084669Y-87782999D01*
X114091490Y-87782629D01*
X114142352Y-87777105D01*
X114157603Y-87773479D01*
X114195770Y-87759171D01*
X114266577Y-87753988D01*
X114284230Y-87759171D01*
X114322394Y-87773478D01*
X114337649Y-87777105D01*
X114388514Y-87782631D01*
X114395328Y-87783000D01*
X114717885Y-87783000D01*
X114733124Y-87778525D01*
X114734329Y-87777135D01*
X114736000Y-87769452D01*
X114736000Y-87764884D01*
X115244000Y-87764884D01*
X115248475Y-87780123D01*
X115249865Y-87781328D01*
X115257548Y-87782999D01*
X115584669Y-87782999D01*
X115591490Y-87782629D01*
X115642352Y-87777105D01*
X115657604Y-87773479D01*
X115778054Y-87728324D01*
X115793649Y-87719786D01*
X115895724Y-87643285D01*
X115908285Y-87630724D01*
X115984786Y-87528649D01*
X115993324Y-87513054D01*
X116038478Y-87392606D01*
X116042105Y-87377351D01*
X116047631Y-87326486D01*
X116048000Y-87319672D01*
X116048000Y-86997115D01*
X116043525Y-86981876D01*
X116042135Y-86980671D01*
X116034452Y-86979000D01*
X115262115Y-86979000D01*
X115246876Y-86983475D01*
X115245671Y-86984865D01*
X115244000Y-86992548D01*
X115244000Y-87764884D01*
X114736000Y-87764884D01*
X114736000Y-86997115D01*
X114731525Y-86981876D01*
X114730135Y-86980671D01*
X114722452Y-86979000D01*
X113762115Y-86979000D01*
X113746876Y-86983475D01*
X113745671Y-86984865D01*
X113744000Y-86992548D01*
X113744000Y-87764884D01*
X113236000Y-87764884D01*
X113236000Y-86997115D01*
X113231525Y-86981876D01*
X113230135Y-86980671D01*
X113222452Y-86979000D01*
X112262115Y-86979000D01*
X112246876Y-86983475D01*
X112245671Y-86984865D01*
X112244000Y-86992548D01*
X112244000Y-87764884D01*
X111736000Y-87764884D01*
X111736000Y-86997115D01*
X111731525Y-86981876D01*
X111730135Y-86980671D01*
X111722452Y-86979000D01*
X110950116Y-86979000D01*
X110934877Y-86983475D01*
X110933672Y-86984865D01*
X110932001Y-86992548D01*
X110932001Y-87319669D01*
X109918001Y-87319669D01*
X109918001Y-87133255D01*
X108973933Y-88077323D01*
X107539922Y-88077323D01*
X106460876Y-86998277D01*
X106422989Y-87036164D01*
X106422989Y-89118482D01*
X105408989Y-89118482D01*
X105408989Y-86281272D01*
X107177882Y-86281272D01*
X108256927Y-87360318D01*
X109164360Y-86452885D01*
X110932000Y-86452885D01*
X110936475Y-86468124D01*
X110937865Y-86469329D01*
X110945548Y-86471000D01*
X111717885Y-86471000D01*
X111733124Y-86466525D01*
X111734329Y-86465135D01*
X111736000Y-86457452D01*
X111736000Y-86452885D01*
X112244000Y-86452885D01*
X112248475Y-86468124D01*
X112249865Y-86469329D01*
X112257548Y-86471000D01*
X113217885Y-86471000D01*
X113233124Y-86466525D01*
X113234329Y-86465135D01*
X113236000Y-86457452D01*
X113236000Y-86452885D01*
X113744000Y-86452885D01*
X113748475Y-86468124D01*
X113749865Y-86469329D01*
X113757548Y-86471000D01*
X114717885Y-86471000D01*
X114733124Y-86466525D01*
X114734329Y-86465135D01*
X114736000Y-86457452D01*
X114736000Y-86452885D01*
X115244000Y-86452885D01*
X115248475Y-86468124D01*
X115249865Y-86469329D01*
X115257548Y-86471000D01*
X116029884Y-86471000D01*
X116045123Y-86466525D01*
X116046328Y-86465135D01*
X116047999Y-86457452D01*
X116047999Y-86130331D01*
X116047629Y-86123510D01*
X116042105Y-86072648D01*
X116038479Y-86057397D01*
X116024171Y-86019230D01*
X116018988Y-85948423D01*
X116024171Y-85930770D01*
X116038478Y-85892606D01*
X116042105Y-85877351D01*
X116047631Y-85826486D01*
X116048000Y-85819672D01*
X116048000Y-85497115D01*
X116043525Y-85481876D01*
X116042135Y-85480671D01*
X116034452Y-85479000D01*
X115262115Y-85479000D01*
X115246876Y-85483475D01*
X115245671Y-85484865D01*
X115244000Y-85492548D01*
X115244000Y-86452885D01*
X114736000Y-86452885D01*
X114736000Y-85497115D01*
X114731525Y-85481876D01*
X114730135Y-85480671D01*
X114722452Y-85479000D01*
X113762115Y-85479000D01*
X113746876Y-85483475D01*
X113745671Y-85484865D01*
X113744000Y-85492548D01*
X113744000Y-86452885D01*
X113236000Y-86452885D01*
X113236000Y-85497115D01*
X113231525Y-85481876D01*
X113230135Y-85480671D01*
X113222452Y-85479000D01*
X112262115Y-85479000D01*
X112246876Y-85483475D01*
X112245671Y-85484865D01*
X112244000Y-85492548D01*
X112244000Y-86452885D01*
X111736000Y-86452885D01*
X111736000Y-85497115D01*
X111731525Y-85481876D01*
X111730135Y-85480671D01*
X111722452Y-85479000D01*
X110950116Y-85479000D01*
X110934877Y-85483475D01*
X110933672Y-85484865D01*
X110932001Y-85492548D01*
X110932001Y-85819669D01*
X110932371Y-85826490D01*
X110937895Y-85877352D01*
X110941521Y-85892603D01*
X110955829Y-85930770D01*
X110961012Y-86001577D01*
X110955829Y-86019230D01*
X110941522Y-86057394D01*
X110937895Y-86072649D01*
X110932369Y-86123514D01*
X110932000Y-86130328D01*
X110932000Y-86452885D01*
X109164360Y-86452885D01*
X109335973Y-86281272D01*
X108256927Y-85202226D01*
X107177882Y-86281272D01*
X105408989Y-86281272D01*
X105408989Y-85526380D01*
X106422989Y-85526380D01*
X106460876Y-85564267D01*
X107539922Y-84485221D01*
X108973933Y-84485221D01*
X109922171Y-85433459D01*
X109936136Y-85303561D01*
X109938293Y-85290246D01*
X109949679Y-85237904D01*
X109951289Y-85231353D01*
X109952037Y-85228627D01*
X117025973Y-85228627D01*
X117026031Y-85228824D01*
X117029852Y-85246389D01*
X117048415Y-85375498D01*
X117237184Y-85564267D01*
X118316229Y-84485221D01*
X117237184Y-83406175D01*
X117043273Y-83600086D01*
X117041707Y-83609754D01*
X117030321Y-83662096D01*
X117028711Y-83668647D01*
X117025973Y-83678627D01*
X117026031Y-83678824D01*
X117029852Y-83696389D01*
X117060718Y-83911068D01*
X117062000Y-83929000D01*
X117062000Y-84273089D01*
X117061954Y-84276497D01*
X117060839Y-84317706D01*
X117060701Y-84321112D01*
X117059964Y-84334720D01*
X117059733Y-84338122D01*
X117056391Y-84379206D01*
X117056069Y-84382598D01*
X117049321Y-84444716D01*
X117048579Y-84449998D01*
X117049323Y-84455303D01*
X117056070Y-84517422D01*
X117056392Y-84520815D01*
X117059731Y-84561877D01*
X117059962Y-84565273D01*
X117060699Y-84578878D01*
X117060837Y-84582284D01*
X117061953Y-84623502D01*
X117061999Y-84626912D01*
X117061999Y-84971000D01*
X117061277Y-84984468D01*
X117043864Y-85146439D01*
X117041707Y-85159754D01*
X117030321Y-85212096D01*
X117028711Y-85218647D01*
X117025973Y-85228627D01*
X109952037Y-85228627D01*
X109954027Y-85221373D01*
X109953969Y-85221176D01*
X109950148Y-85203611D01*
X109919282Y-84988932D01*
X109918000Y-84971000D01*
X109918000Y-84952885D01*
X110932000Y-84952885D01*
X110936475Y-84968124D01*
X110937865Y-84969329D01*
X110945548Y-84971000D01*
X111717885Y-84971000D01*
X111733124Y-84966525D01*
X111734329Y-84965135D01*
X111736000Y-84957452D01*
X111736000Y-84952885D01*
X112244000Y-84952885D01*
X112248475Y-84968124D01*
X112249865Y-84969329D01*
X112257548Y-84971000D01*
X113217885Y-84971000D01*
X113233124Y-84966525D01*
X113234329Y-84965135D01*
X113236000Y-84957452D01*
X113236000Y-84952885D01*
X113744000Y-84952885D01*
X113748475Y-84968124D01*
X113749865Y-84969329D01*
X113757548Y-84971000D01*
X114717885Y-84971000D01*
X114733124Y-84966525D01*
X114734329Y-84965135D01*
X114736000Y-84957452D01*
X114736000Y-84952885D01*
X115244000Y-84952885D01*
X115248475Y-84968124D01*
X115249865Y-84969329D01*
X115257548Y-84971000D01*
X116029884Y-84971000D01*
X116045123Y-84966525D01*
X116046328Y-84965135D01*
X116047999Y-84957452D01*
X116047999Y-84630331D01*
X116047629Y-84623502D01*
X116042105Y-84572648D01*
X116038479Y-84557396D01*
X116014799Y-84494230D01*
X116009616Y-84423422D01*
X116014799Y-84405770D01*
X116038478Y-84342606D01*
X116042105Y-84327351D01*
X116047631Y-84276486D01*
X116048000Y-84269672D01*
X116048000Y-83947115D01*
X116043525Y-83931876D01*
X116042135Y-83930671D01*
X116034452Y-83929000D01*
X115262115Y-83929000D01*
X115246876Y-83933475D01*
X115245671Y-83934865D01*
X115244000Y-83942548D01*
X115244000Y-84952885D01*
X114736000Y-84952885D01*
X114736000Y-83947115D01*
X114731525Y-83931876D01*
X114730135Y-83930671D01*
X114722452Y-83929000D01*
X113762115Y-83929000D01*
X113746876Y-83933475D01*
X113745671Y-83934865D01*
X113744000Y-83942548D01*
X113744000Y-84952885D01*
X113236000Y-84952885D01*
X113236000Y-83947115D01*
X113231525Y-83931876D01*
X113230135Y-83930671D01*
X113222452Y-83929000D01*
X112262115Y-83929000D01*
X112246876Y-83933475D01*
X112245671Y-83934865D01*
X112244000Y-83942548D01*
X112244000Y-84952885D01*
X111736000Y-84952885D01*
X111736000Y-83947115D01*
X111731525Y-83931876D01*
X111730135Y-83930671D01*
X111722452Y-83929000D01*
X110950116Y-83929000D01*
X110934877Y-83933475D01*
X110933672Y-83934865D01*
X110932001Y-83942548D01*
X110932001Y-84269669D01*
X110932371Y-84276490D01*
X110937895Y-84327352D01*
X110941521Y-84342604D01*
X110965201Y-84405770D01*
X110970384Y-84476578D01*
X110965201Y-84494230D01*
X110941522Y-84557394D01*
X110937895Y-84572649D01*
X110932370Y-84623502D01*
X110932000Y-84630328D01*
X110932000Y-84952885D01*
X109918000Y-84952885D01*
X109918000Y-84626911D01*
X109918046Y-84623503D01*
X109919161Y-84582294D01*
X109919299Y-84578888D01*
X109920036Y-84565280D01*
X109920267Y-84561878D01*
X109923609Y-84520794D01*
X109923931Y-84517402D01*
X109930679Y-84455284D01*
X109931421Y-84449999D01*
X109930677Y-84444697D01*
X109923930Y-84382578D01*
X109923608Y-84379185D01*
X109920269Y-84338123D01*
X109920038Y-84334727D01*
X109919301Y-84321122D01*
X109919163Y-84317716D01*
X109918047Y-84276498D01*
X109918001Y-84273088D01*
X109918001Y-83929000D01*
X109918723Y-83915532D01*
X109936136Y-83753561D01*
X109938293Y-83740246D01*
X109949679Y-83687904D01*
X109951289Y-83681353D01*
X109954027Y-83671373D01*
X109953969Y-83671176D01*
X109950148Y-83653611D01*
X109931971Y-83527183D01*
X108973933Y-84485221D01*
X107539922Y-84485221D01*
X106460876Y-83406175D01*
X106422989Y-83444062D01*
X106422989Y-85526380D01*
X105408989Y-85526380D01*
X105408989Y-82689170D01*
X107177882Y-82689170D01*
X108256927Y-83768215D01*
X108622257Y-83402885D01*
X110932000Y-83402885D01*
X110936475Y-83418124D01*
X110937865Y-83419329D01*
X110945548Y-83421000D01*
X111717885Y-83421000D01*
X111733124Y-83416525D01*
X111734329Y-83415135D01*
X111736000Y-83407452D01*
X111736000Y-83402885D01*
X112244000Y-83402885D01*
X112248475Y-83418124D01*
X112249865Y-83419329D01*
X112257548Y-83421000D01*
X113217885Y-83421000D01*
X113233124Y-83416525D01*
X113234329Y-83415135D01*
X113236000Y-83407452D01*
X113236000Y-83402885D01*
X113744000Y-83402885D01*
X113748475Y-83418124D01*
X113749865Y-83419329D01*
X113757548Y-83421000D01*
X114717885Y-83421000D01*
X114733124Y-83416525D01*
X114734329Y-83415135D01*
X114736000Y-83407452D01*
X114736000Y-83402885D01*
X115244000Y-83402885D01*
X115248475Y-83418124D01*
X115249865Y-83419329D01*
X115257548Y-83421000D01*
X116029884Y-83421000D01*
X116045123Y-83416525D01*
X116046328Y-83415135D01*
X116047999Y-83407452D01*
X116047999Y-83080331D01*
X116047629Y-83073510D01*
X116042105Y-83022648D01*
X116038479Y-83007396D01*
X115993324Y-82886946D01*
X115984786Y-82871351D01*
X115908285Y-82769276D01*
X115895724Y-82756715D01*
X115793649Y-82680214D01*
X115778054Y-82671676D01*
X115657606Y-82626522D01*
X115642351Y-82622895D01*
X115591486Y-82617369D01*
X115584672Y-82617000D01*
X115262115Y-82617000D01*
X115246876Y-82621475D01*
X115245671Y-82622865D01*
X115244000Y-82630548D01*
X115244000Y-83402885D01*
X114736000Y-83402885D01*
X114736000Y-82635116D01*
X114731525Y-82619877D01*
X114730135Y-82618672D01*
X114722452Y-82617001D01*
X114395331Y-82617001D01*
X114388510Y-82617371D01*
X114337648Y-82622895D01*
X114322397Y-82626521D01*
X114284230Y-82640829D01*
X114213423Y-82646012D01*
X114195770Y-82640829D01*
X114157606Y-82626522D01*
X114142351Y-82622895D01*
X114091486Y-82617369D01*
X114084672Y-82617000D01*
X113762115Y-82617000D01*
X113746876Y-82621475D01*
X113745671Y-82622865D01*
X113744000Y-82630548D01*
X113744000Y-83402885D01*
X113236000Y-83402885D01*
X113236000Y-82635116D01*
X113231525Y-82619877D01*
X113230135Y-82618672D01*
X113222452Y-82617001D01*
X112895331Y-82617001D01*
X112888510Y-82617371D01*
X112837648Y-82622895D01*
X112822397Y-82626521D01*
X112784230Y-82640829D01*
X112713423Y-82646012D01*
X112695770Y-82640829D01*
X112657606Y-82626522D01*
X112642351Y-82622895D01*
X112591486Y-82617369D01*
X112584672Y-82617000D01*
X112262115Y-82617000D01*
X112246876Y-82621475D01*
X112245671Y-82622865D01*
X112244000Y-82630548D01*
X112244000Y-83402885D01*
X111736000Y-83402885D01*
X111736000Y-82635116D01*
X111731525Y-82619877D01*
X111730135Y-82618672D01*
X111722452Y-82617001D01*
X111395331Y-82617001D01*
X111388510Y-82617371D01*
X111337648Y-82622895D01*
X111322396Y-82626521D01*
X111201946Y-82671676D01*
X111186351Y-82680214D01*
X111084276Y-82756715D01*
X111071715Y-82769276D01*
X110995214Y-82871351D01*
X110986676Y-82886946D01*
X110941522Y-83007394D01*
X110937895Y-83022649D01*
X110932369Y-83073514D01*
X110932000Y-83080328D01*
X110932000Y-83402885D01*
X108622257Y-83402885D01*
X109335973Y-82689170D01*
X108256927Y-81610124D01*
X107177882Y-82689170D01*
X105408989Y-82689170D01*
X105408989Y-81934277D01*
X106422989Y-81934277D01*
X106460876Y-81972164D01*
X107539922Y-80893118D01*
X108973933Y-80893118D01*
X110052979Y-81972164D01*
X111132025Y-80893118D01*
X112566035Y-80893118D01*
X113279913Y-81606996D01*
X113411439Y-81621136D01*
X113424754Y-81623293D01*
X113477096Y-81634679D01*
X113483647Y-81636289D01*
X113493627Y-81639027D01*
X113493824Y-81638969D01*
X113511389Y-81635148D01*
X113726068Y-81604282D01*
X113744000Y-81603000D01*
X114014245Y-81603000D01*
X114724127Y-80893118D01*
X116158138Y-80893118D01*
X117237184Y-81972164D01*
X118316229Y-80893118D01*
X117237184Y-79814072D01*
X116158138Y-80893118D01*
X114724127Y-80893118D01*
X113645081Y-79814072D01*
X112566035Y-80893118D01*
X111132025Y-80893118D01*
X110052979Y-79814072D01*
X108973933Y-80893118D01*
X107539922Y-80893118D01*
X106460876Y-79814072D01*
X106422989Y-79851959D01*
X106422989Y-81934277D01*
X105408989Y-81934277D01*
X105408989Y-79097067D01*
X107177882Y-79097067D01*
X108256927Y-80176113D01*
X109335973Y-79097067D01*
X110769984Y-79097067D01*
X111849030Y-80176113D01*
X112928076Y-79097067D01*
X114362086Y-79097067D01*
X115441132Y-80176113D01*
X116520178Y-79097067D01*
X117954189Y-79097067D01*
X118705260Y-79848138D01*
X118714495Y-79836974D01*
X118719730Y-79831036D01*
X118734913Y-79814868D01*
X118744166Y-79804373D01*
X118746830Y-79801445D01*
X118777500Y-79768786D01*
X118777500Y-79676866D01*
X118777546Y-79673458D01*
X118778661Y-79632249D01*
X118778799Y-79628843D01*
X118779536Y-79615235D01*
X118779767Y-79611833D01*
X118783109Y-79570748D01*
X118783431Y-79567356D01*
X118790186Y-79505174D01*
X118791283Y-79497364D01*
X118803765Y-79425000D01*
X118791283Y-79352636D01*
X118790186Y-79344826D01*
X118783431Y-79282644D01*
X118783109Y-79279252D01*
X118779767Y-79238167D01*
X118779536Y-79234765D01*
X118778799Y-79221157D01*
X118778661Y-79217751D01*
X118777546Y-79176542D01*
X118777500Y-79173134D01*
X118777500Y-78273756D01*
X117954189Y-79097067D01*
X116520178Y-79097067D01*
X115441132Y-78018021D01*
X114362086Y-79097067D01*
X112928076Y-79097067D01*
X111849030Y-78018021D01*
X110769984Y-79097067D01*
X109335973Y-79097067D01*
X108256927Y-78018021D01*
X107177882Y-79097067D01*
X105408989Y-79097067D01*
X105408989Y-78979257D01*
X105409516Y-78968074D01*
X105411191Y-78960581D01*
X105409051Y-78892490D01*
X105408989Y-78888533D01*
X105408989Y-78860633D01*
X105408485Y-78856642D01*
X105407552Y-78844800D01*
X105406412Y-78808525D01*
X105406163Y-78800600D01*
X105403950Y-78792982D01*
X105400510Y-78781141D01*
X105396501Y-78761782D01*
X105396335Y-78760472D01*
X105393963Y-78741692D01*
X105391047Y-78734326D01*
X105391045Y-78734320D01*
X105377689Y-78700587D01*
X105373844Y-78689357D01*
X105363719Y-78654506D01*
X105363719Y-78654505D01*
X105361508Y-78646896D01*
X105351194Y-78629455D01*
X105342497Y-78611702D01*
X105337961Y-78600247D01*
X105335041Y-78592872D01*
X105309052Y-78557101D01*
X105302536Y-78547181D01*
X105284067Y-78515952D01*
X105280031Y-78509127D01*
X105265707Y-78494803D01*
X105252872Y-78479776D01*
X105240961Y-78463382D01*
X105206892Y-78435197D01*
X105198114Y-78427209D01*
X105053648Y-78282744D01*
X105046112Y-78274462D01*
X105042000Y-78267982D01*
X104992347Y-78221355D01*
X104989506Y-78218601D01*
X104969770Y-78198865D01*
X104966573Y-78196385D01*
X104957551Y-78188680D01*
X104931100Y-78163841D01*
X104925321Y-78158414D01*
X104918375Y-78154595D01*
X104918372Y-78154593D01*
X104907566Y-78148652D01*
X104891047Y-78137801D01*
X104890583Y-78137441D01*
X104875041Y-78125386D01*
X104841485Y-78110865D01*
X104786911Y-78065454D01*
X104773544Y-78039458D01*
X104753766Y-77986699D01*
X104753765Y-77986696D01*
X104750615Y-77978295D01*
X104751307Y-77978036D01*
X104737657Y-77915626D01*
X104750580Y-77871615D01*
X104750172Y-77871462D01*
X104752262Y-77865888D01*
X104752826Y-77863966D01*
X104753321Y-77863061D01*
X104798478Y-77742606D01*
X104802105Y-77727351D01*
X104807631Y-77676486D01*
X104808000Y-77669672D01*
X104808000Y-77617083D01*
X105822000Y-77617083D01*
X105885514Y-77680596D01*
X105887321Y-77682091D01*
X105893257Y-77687325D01*
X105963031Y-77752850D01*
X105968630Y-77758449D01*
X105990249Y-77781473D01*
X105995482Y-77787410D01*
X106029969Y-77829100D01*
X106065736Y-77869670D01*
X106070781Y-77875768D01*
X106090139Y-77900724D01*
X106094791Y-77907127D01*
X106148577Y-77986268D01*
X106152819Y-77992951D01*
X106154015Y-77994973D01*
X106155388Y-77996863D01*
X106159836Y-78003409D01*
X106211102Y-78084191D01*
X106215131Y-78091002D01*
X106230346Y-78118677D01*
X106233939Y-78125730D01*
X106256978Y-78174689D01*
X106258511Y-78177697D01*
X106460876Y-78380062D01*
X107347538Y-77493400D01*
X109166317Y-77493400D01*
X110052979Y-78380062D01*
X110939641Y-77493400D01*
X112758419Y-77493400D01*
X113645081Y-78380062D01*
X114531743Y-77493400D01*
X116350522Y-77493400D01*
X117237184Y-78380062D01*
X118123845Y-77493400D01*
X116350522Y-77493400D01*
X114531743Y-77493400D01*
X112758419Y-77493400D01*
X110939641Y-77493400D01*
X109166317Y-77493400D01*
X107347538Y-77493400D01*
X105822000Y-77493400D01*
X105822000Y-77617083D01*
X104808000Y-77617083D01*
X104808000Y-77447115D01*
X104803525Y-77431876D01*
X104802135Y-77430671D01*
X104794452Y-77429000D01*
X102310116Y-77429000D01*
X102294877Y-77433475D01*
X102293672Y-77434865D01*
X102292001Y-77442548D01*
X102292001Y-77669669D01*
X102292371Y-77676490D01*
X102297895Y-77727352D01*
X102301521Y-77742604D01*
X102346679Y-77863061D01*
X102347174Y-77863966D01*
X102347393Y-77864966D01*
X102349828Y-77871462D01*
X102348890Y-77871814D01*
X102362343Y-77933323D01*
X102349162Y-77978212D01*
X102349385Y-77978295D01*
X102348244Y-77981337D01*
X102348242Y-77981344D01*
X102346236Y-77986696D01*
X102346234Y-77986699D01*
X102332663Y-78022900D01*
X102298255Y-78114684D01*
X102291500Y-78176866D01*
X102291500Y-79173134D01*
X102298255Y-79235316D01*
X102346681Y-79364491D01*
X102349222Y-79371270D01*
X102354405Y-79442078D01*
X102320484Y-79504447D01*
X102258229Y-79538576D01*
X102231240Y-79541500D01*
X98489595Y-79541500D01*
X98421474Y-79521498D01*
X98400500Y-79504595D01*
X96564656Y-77668751D01*
X96530630Y-77606439D01*
X96533919Y-77540716D01*
X96534910Y-77537668D01*
X96536805Y-77533092D01*
X96537959Y-77528285D01*
X96537961Y-77528279D01*
X96592522Y-77301016D01*
X98197625Y-77301016D01*
X99276671Y-78380062D01*
X100355717Y-77301016D01*
X99276671Y-76221970D01*
X98197625Y-77301016D01*
X96592522Y-77301016D01*
X96592917Y-77299370D01*
X96592918Y-77299364D01*
X96594072Y-77294557D01*
X96613319Y-77050000D01*
X96594072Y-76805443D01*
X96582549Y-76757443D01*
X96549313Y-76619007D01*
X96536805Y-76566908D01*
X96442927Y-76340268D01*
X96349955Y-76188551D01*
X96317342Y-76135330D01*
X96317340Y-76135327D01*
X96314752Y-76131104D01*
X96306643Y-76121609D01*
X96158641Y-75948323D01*
X96155433Y-75944567D01*
X96105299Y-75901748D01*
X95972663Y-75788465D01*
X95972660Y-75788463D01*
X95968896Y-75785248D01*
X95967692Y-75784510D01*
X97291606Y-75784510D01*
X97307506Y-75810457D01*
X97310007Y-75814725D01*
X97339238Y-75866920D01*
X97341570Y-75871283D01*
X97350546Y-75888899D01*
X97352706Y-75893351D01*
X97377758Y-75947692D01*
X97379741Y-75952226D01*
X97473619Y-76178866D01*
X97475422Y-76183473D01*
X97496129Y-76239601D01*
X97497750Y-76244275D01*
X97503860Y-76263079D01*
X97505296Y-76267814D01*
X97521539Y-76325407D01*
X97522789Y-76330195D01*
X97563764Y-76500867D01*
X98559666Y-75504965D01*
X99993677Y-75504965D01*
X101072723Y-76584010D01*
X101085818Y-76570915D01*
X101085406Y-76569898D01*
X101059066Y-76497628D01*
X101032220Y-76425346D01*
X101029402Y-76416844D01*
X101019375Y-76382557D01*
X101017168Y-76373873D01*
X101004512Y-76315464D01*
X101003406Y-76311000D01*
X100998850Y-76289331D01*
X100994232Y-76268021D01*
X100993426Y-76263536D01*
X100981123Y-76205030D01*
X100979592Y-76196202D01*
X100974743Y-76160806D01*
X100973843Y-76151892D01*
X100966806Y-76043814D01*
X100966542Y-76034857D01*
X100967000Y-75959892D01*
X100967000Y-74531642D01*
X99993677Y-75504965D01*
X98559666Y-75504965D01*
X97622059Y-74567358D01*
X97620784Y-74599819D01*
X97620493Y-74604758D01*
X97601252Y-74849237D01*
X97600767Y-74854161D01*
X97593734Y-74913581D01*
X97593056Y-74918482D01*
X97589963Y-74938010D01*
X97589093Y-74942880D01*
X97577421Y-75001560D01*
X97576361Y-75006393D01*
X97519112Y-75244851D01*
X97517862Y-75249639D01*
X97501619Y-75307231D01*
X97500183Y-75311966D01*
X97494073Y-75330770D01*
X97492452Y-75335444D01*
X97471746Y-75391569D01*
X97469943Y-75396176D01*
X97376096Y-75622744D01*
X97374112Y-75627279D01*
X97349051Y-75681638D01*
X97346891Y-75686091D01*
X97337914Y-75703708D01*
X97335582Y-75708071D01*
X97306356Y-75760255D01*
X97303855Y-75764522D01*
X97291606Y-75784510D01*
X95967692Y-75784510D01*
X95964673Y-75782660D01*
X95964670Y-75782658D01*
X95926709Y-75759396D01*
X95903448Y-75741058D01*
X94776685Y-74614295D01*
X94742659Y-74551983D01*
X94747724Y-74481168D01*
X94776685Y-74436105D01*
X94957705Y-74255085D01*
X95020017Y-74221059D01*
X95090832Y-74226124D01*
X95135895Y-74255085D01*
X96303450Y-75422640D01*
X96315830Y-75429400D01*
X96323480Y-75423673D01*
X96436693Y-75238928D01*
X96441175Y-75230133D01*
X96531234Y-75012710D01*
X96534283Y-75003325D01*
X96589222Y-74774492D01*
X96590765Y-74764745D01*
X96609230Y-74530130D01*
X96609230Y-74520270D01*
X96590765Y-74285655D01*
X96589222Y-74275908D01*
X96534283Y-74047075D01*
X96531234Y-74037690D01*
X96441175Y-73820267D01*
X96436693Y-73811472D01*
X96373844Y-73708913D01*
X98197625Y-73708913D01*
X99276671Y-74787959D01*
X100355717Y-73708913D01*
X99276671Y-72629868D01*
X98197625Y-73708913D01*
X96373844Y-73708913D01*
X96330566Y-73638290D01*
X96312027Y-73569757D01*
X96333483Y-73502080D01*
X96362433Y-73471629D01*
X96452881Y-73403842D01*
X96460061Y-73398461D01*
X96547415Y-73281905D01*
X96598545Y-73145516D01*
X96605300Y-73083334D01*
X96605300Y-70972496D01*
X97619300Y-70972496D01*
X97619300Y-72853228D01*
X98559666Y-71912862D01*
X99993677Y-71912862D01*
X100967000Y-72886185D01*
X100967000Y-70939539D01*
X99993677Y-71912862D01*
X98559666Y-71912862D01*
X97619300Y-70972496D01*
X96605300Y-70972496D01*
X96605300Y-70887066D01*
X96598545Y-70824884D01*
X96547415Y-70688495D01*
X96460061Y-70571939D01*
X96343505Y-70484585D01*
X96207116Y-70433455D01*
X96144934Y-70426700D01*
X94244612Y-70426700D01*
X94176491Y-70406698D01*
X94129998Y-70353042D01*
X94119894Y-70282768D01*
X94149388Y-70218188D01*
X94154840Y-70212286D01*
X94230883Y-70135075D01*
X94247426Y-70120954D01*
X94394247Y-70016097D01*
X94412972Y-70005030D01*
X94575637Y-69926987D01*
X94595987Y-69919306D01*
X94731635Y-69881107D01*
X94765773Y-69876390D01*
X99038388Y-69875842D01*
X101854985Y-69875481D01*
X101923107Y-69895474D01*
G37*
%TD.AperFunction*%
%TD*%
M02*
