M48
; DRILL file {KiCad (6.0.1)} date Tue Apr 26 22:40:27 2022
; FORMAT={-:-/ absolute / inch / decimal}
; #@! TF.CreationDate,2022-04-26T22:40:27-05:00
; #@! TF.GenerationSoftware,Kicad,Pcbnew,(6.0.1)
; #@! TF.FileFunction,Plated,1,2,PTH
FMAT,2
INCH
; #@! TA.AperFunction,Plated,PTH,ViaDrill
T1C0.0157
; #@! TA.AperFunction,Plated,PTH,ComponentDrill
T2C0.0217
; #@! TA.AperFunction,Plated,PTH,ComponentDrill
T3C0.0335
; #@! TA.AperFunction,Plated,PTH,ComponentDrill
T4C0.0394
; #@! TA.AperFunction,Plated,PTH,ComponentDrill
T5C0.0402
; #@! TA.AperFunction,Plated,PTH,ComponentDrill
T6C0.0433
%
G90
G05
T1
X3.833Y-4.877
X3.9823Y-3.2736
X4.02Y-3.33
X4.031Y-4.29
X4.0738Y-4.3917
X4.09Y-4.072
X4.1185Y-4.0274
X4.126Y-4.392
X4.126Y-4.444
X4.141Y-4.216
X4.1579Y-4.0622
X4.168Y-3.887
X4.189Y-4.251
X4.214Y-3.94
X4.244Y-4.263
X4.274Y-3.94
X4.3002Y-4.4458
X4.333Y-3.94
X4.3445Y-4.8691
X4.392Y-3.94
X4.4537Y-4.8661
X4.51Y-3.944
X4.569Y-3.944
X4.628Y-3.943
X4.685Y-4.914
X4.687Y-3.945
X4.761Y-5.13
X4.801Y-4.219
X4.845Y-3.036
X4.8455Y-4.1742
X4.931Y-4.216
X4.937Y-4.08
T4
X4.9528Y-4.801
X5.0528Y-4.801
T5
X3.7421Y-3.2313
X3.7421Y-3.3313
X3.7421Y-3.4313
X3.7421Y-3.5313
T6
X3.7402Y-3.6309
X3.7402Y-3.7293
X3.7402Y-3.8278
X3.7402Y-3.9272
X3.7402Y-4.0256
X3.7402Y-4.124
X3.741Y-4.229
X3.741Y-4.329
X3.741Y-4.429
X3.741Y-4.529
X3.742Y-2.8341
X3.742Y-2.9341
X3.7421Y-3.0335
X3.7421Y-3.1319
X5.077Y-2.8347
X5.077Y-2.9331
X5.077Y-3.0316
X5.077Y-3.13
X5.078Y-3.229
X5.078Y-3.3274
X5.078Y-3.4259
X5.078Y-3.5243
X5.078Y-3.6227
X5.079Y-3.721
X5.079Y-3.8194
X5.079Y-3.9179
X5.079Y-4.0163
X5.079Y-4.1147
X5.079Y-4.2154
X5.079Y-4.3154
X5.079Y-4.4154
X5.079Y-4.5154
T2
G00X4.2398Y-5.1383
M15
G01X4.2398Y-5.1127
M16
G05
G00X4.545Y-5.1383
M15
G01X4.545Y-5.1127
M16
G05
T3
G00X4.2457Y-4.9867
M15
G01X4.2457Y-4.965
M16
G05
G00X4.5391Y-4.9867
M15
G01X4.5391Y-4.965
M16
G05
T0
M30
