%TF.GenerationSoftware,KiCad,Pcbnew,(6.0.1)*%
%TF.CreationDate,2022-04-26T22:40:30-05:00*%
%TF.ProjectId,LEDStripBoards,4c454453-7472-4697-9042-6f617264732e,rev?*%
%TF.SameCoordinates,Original*%
%TF.FileFunction,Soldermask,Bot*%
%TF.FilePolarity,Negative*%
%FSLAX46Y46*%
G04 Gerber Fmt 4.6, Leading zero omitted, Abs format (unit mm)*
G04 Created by KiCad (PCBNEW (6.0.1)) date 2022-04-26 22:40:30*
%MOMM*%
%LPD*%
G01*
G04 APERTURE LIST*
G04 Aperture macros list*
%AMRoundRect*
0 Rectangle with rounded corners*
0 $1 Rounding radius*
0 $2 $3 $4 $5 $6 $7 $8 $9 X,Y pos of 4 corners*
0 Add a 4 corners polygon primitive as box body*
4,1,4,$2,$3,$4,$5,$6,$7,$8,$9,$2,$3,0*
0 Add four circle primitives for the rounded corners*
1,1,$1+$1,$2,$3*
1,1,$1+$1,$4,$5*
1,1,$1+$1,$6,$7*
1,1,$1+$1,$8,$9*
0 Add four rect primitives between the rounded corners*
20,1,$1+$1,$2,$3,$4,$5,0*
20,1,$1+$1,$4,$5,$6,$7,0*
20,1,$1+$1,$6,$7,$8,$9,0*
20,1,$1+$1,$8,$9,$2,$3,0*%
G04 Aperture macros list end*
%ADD10C,2.100000*%
%ADD11R,2.100000X2.100000*%
%ADD12O,1.700000X1.700000*%
%ADD13R,1.700000X1.700000*%
%ADD14RoundRect,0.243750X0.456250X-0.243750X0.456250X0.243750X-0.456250X0.243750X-0.456250X-0.243750X0*%
%ADD15RoundRect,0.250000X0.625000X-0.375000X0.625000X0.375000X-0.625000X0.375000X-0.625000X-0.375000X0*%
%ADD16C,2.020000*%
%ADD17RoundRect,0.250000X-0.625000X0.375000X-0.625000X-0.375000X0.625000X-0.375000X0.625000X0.375000X0*%
%ADD18R,1.100000X1.100000*%
%ADD19R,1.500000X0.900000*%
%ADD20R,0.900000X1.500000*%
%ADD21R,3.800000X2.200000*%
%ADD22R,1.500000X2.200000*%
%ADD23RoundRect,0.070000X0.325000X0.875000X-0.325000X0.875000X-0.325000X-0.875000X0.325000X-0.875000X0*%
%ADD24R,1.250000X2.500000*%
%ADD25C,0.900000*%
%ADD26O,1.450000X2.000000*%
%ADD27O,1.150000X1.800000*%
%ADD28R,0.450000X1.300000*%
%ADD29O,0.800000X0.800000*%
%ADD30R,1.700000X1.948000*%
G04 APERTURE END LIST*
D10*
%TO.C,J1*%
X95046800Y-74525200D03*
D11*
X95046800Y-71985200D03*
%TD*%
D10*
%TO.C,J4*%
X128955800Y-79502000D03*
X128955800Y-77002000D03*
X128955800Y-74502000D03*
X128955800Y-72002000D03*
%TD*%
%TO.C,J5*%
X128981200Y-92016600D03*
X128981200Y-89516600D03*
X128981200Y-87016600D03*
X128981200Y-84516600D03*
X128981200Y-82016600D03*
%TD*%
%TO.C,J6*%
X129006600Y-104513400D03*
X129006600Y-102013400D03*
X129006600Y-99513400D03*
X129006600Y-97013400D03*
X129006600Y-94513400D03*
%TD*%
%TO.C,J7*%
X95050000Y-79550000D03*
X95050000Y-77050000D03*
%TD*%
%TO.C,J8*%
X95000000Y-97225000D03*
X95000000Y-94725000D03*
X95000000Y-92225000D03*
%TD*%
%TO.C,J9*%
X95000000Y-104750000D03*
X95000000Y-102250000D03*
X95000000Y-99750000D03*
%TD*%
D12*
%TO.C,J11*%
X128341200Y-121945400D03*
D13*
X125801200Y-121945400D03*
%TD*%
D10*
%TO.C,J12*%
X95021400Y-115036600D03*
X95021400Y-112496600D03*
X95021400Y-109956600D03*
X95021400Y-107416600D03*
%TD*%
%TO.C,J10*%
X129006600Y-114691000D03*
X129006600Y-112151000D03*
X129006600Y-109611000D03*
X129006600Y-107071000D03*
%TD*%
D14*
%TO.C,0.1uF*%
X120802400Y-109580200D03*
X120802400Y-111455200D03*
%TD*%
%TO.C,22uF*%
X117144800Y-109631000D03*
X117144800Y-111506000D03*
%TD*%
D15*
%TO.C,Pwr*%
X107086400Y-103428800D03*
X107086400Y-106228800D03*
%TD*%
D16*
%TO.C,J2*%
X95050000Y-89695000D03*
X95050000Y-87155000D03*
X95050000Y-84615000D03*
X95050000Y-82075000D03*
%TD*%
D15*
%TO.C,1k*%
X109875000Y-103425000D03*
X109875000Y-106225000D03*
%TD*%
%TO.C,1k*%
X116306600Y-103505000D03*
X116306600Y-106305000D03*
%TD*%
D17*
%TO.C,10k*%
X119675000Y-106275000D03*
X119675000Y-103475000D03*
%TD*%
D18*
%TO.C,U2*%
X111990000Y-85225000D03*
X114990000Y-83675000D03*
X111990000Y-86725000D03*
X111990000Y-83675000D03*
X113490000Y-86725000D03*
X113490000Y-85225000D03*
X114990000Y-85225000D03*
X113490000Y-83675000D03*
X114990000Y-86725000D03*
D19*
X103550000Y-77175000D03*
X103550000Y-78675000D03*
X103550000Y-80175000D03*
X103550000Y-81675000D03*
X103550000Y-83175000D03*
X103550000Y-84675000D03*
X103550000Y-86175000D03*
X103550000Y-87675000D03*
X103550000Y-89175000D03*
X103550000Y-90675000D03*
X103550000Y-92175000D03*
X103550000Y-93675000D03*
X103550000Y-95175000D03*
X103550000Y-96675000D03*
X103550000Y-98175000D03*
X103550000Y-99675000D03*
D20*
X105550000Y-100425000D03*
X107050000Y-100425000D03*
X108550000Y-100425000D03*
X110050000Y-100425000D03*
X111550000Y-100425000D03*
X113050000Y-100425000D03*
X114550000Y-100425000D03*
X116050000Y-100425000D03*
X117550000Y-100425000D03*
X119050000Y-100425000D03*
D19*
X121050000Y-99675000D03*
X121050000Y-98175000D03*
X121050000Y-96675000D03*
X121050000Y-95175000D03*
X121050000Y-93675000D03*
X121050000Y-92175000D03*
X121050000Y-90675000D03*
X121050000Y-89175000D03*
X121050000Y-87675000D03*
X121050000Y-86175000D03*
X121050000Y-84675000D03*
X121050000Y-83175000D03*
X121050000Y-81675000D03*
X121050000Y-80175000D03*
X121050000Y-78675000D03*
X121050000Y-77175000D03*
%TD*%
D14*
%TO.C,470uF*%
X112674400Y-109707200D03*
X112674400Y-111582200D03*
%TD*%
D21*
%TO.C,TLV1117-33*%
X106925000Y-121450000D03*
D22*
X109225000Y-115150000D03*
X106925000Y-115150000D03*
X104625000Y-115150000D03*
%TD*%
D23*
%TO.C,CH330N*%
X119480000Y-115225000D03*
X118210000Y-115225000D03*
X116940000Y-115225000D03*
X115670000Y-115225000D03*
X115670000Y-120725000D03*
X116940000Y-120725000D03*
X118210000Y-120725000D03*
X119480000Y-120725000D03*
%TD*%
D14*
%TO.C,1uF*%
X109118400Y-109626400D03*
X109118400Y-111501400D03*
%TD*%
D24*
%TO.C,0/1*%
X119115200Y-126790000D03*
X121615200Y-126790000D03*
X124115200Y-126790000D03*
D25*
X118215200Y-129540000D03*
X125015200Y-129540000D03*
%TD*%
D26*
%TO.C,J3*%
X115291960Y-126386980D03*
D27*
X107691960Y-130186980D03*
X115441960Y-130186980D03*
D26*
X107841960Y-126386980D03*
D28*
X110266960Y-126336980D03*
X110916960Y-126336980D03*
X111566960Y-126336980D03*
X112216960Y-126336980D03*
X112866960Y-126336980D03*
D29*
X114066960Y-127436980D03*
X109066960Y-127436980D03*
%TD*%
D30*
%TO.C,Reset*%
X103276400Y-126620800D03*
X103276400Y-130020800D03*
%TD*%
%TO.C,Boot*%
X128447800Y-126798600D03*
X128447800Y-130198600D03*
%TD*%
M02*
