%TF.GenerationSoftware,KiCad,Pcbnew,(6.0.1)*%
%TF.CreationDate,2022-04-26T22:40:30-05:00*%
%TF.ProjectId,LEDStripBoards,4c454453-7472-4697-9042-6f617264732e,rev?*%
%TF.SameCoordinates,Original*%
%TF.FileFunction,Legend,Bot*%
%TF.FilePolarity,Positive*%
%FSLAX46Y46*%
G04 Gerber Fmt 4.6, Leading zero omitted, Abs format (unit mm)*
G04 Created by KiCad (PCBNEW (6.0.1)) date 2022-04-26 22:40:30*
%MOMM*%
%LPD*%
G01*
G04 APERTURE LIST*
%ADD10C,0.120000*%
%ADD11C,0.150000*%
%ADD12C,0.100000*%
G04 APERTURE END LIST*
D10*
X120094327Y-121920000D02*
G75*
G03*
X120094327Y-121920000I-104727J0D01*
G01*
D11*
%TO.C,0.1uF*%
X122032780Y-109024942D02*
X122032780Y-109120180D01*
X122080400Y-109215419D01*
X122128019Y-109263038D01*
X122223257Y-109310657D01*
X122413733Y-109358276D01*
X122651828Y-109358276D01*
X122842304Y-109310657D01*
X122937542Y-109263038D01*
X122985161Y-109215419D01*
X123032780Y-109120180D01*
X123032780Y-109024942D01*
X122985161Y-108929704D01*
X122937542Y-108882085D01*
X122842304Y-108834466D01*
X122651828Y-108786847D01*
X122413733Y-108786847D01*
X122223257Y-108834466D01*
X122128019Y-108882085D01*
X122080400Y-108929704D01*
X122032780Y-109024942D01*
X122937542Y-109786847D02*
X122985161Y-109834466D01*
X123032780Y-109786847D01*
X122985161Y-109739228D01*
X122937542Y-109786847D01*
X123032780Y-109786847D01*
X123032780Y-110786847D02*
X123032780Y-110215419D01*
X123032780Y-110501133D02*
X122032780Y-110501133D01*
X122175638Y-110405895D01*
X122270876Y-110310657D01*
X122318495Y-110215419D01*
X122366114Y-111643990D02*
X123032780Y-111643990D01*
X122366114Y-111215419D02*
X122889923Y-111215419D01*
X122985161Y-111263038D01*
X123032780Y-111358276D01*
X123032780Y-111501133D01*
X122985161Y-111596371D01*
X122937542Y-111643990D01*
X122508971Y-112453514D02*
X122508971Y-112120180D01*
X123032780Y-112120180D02*
X122032780Y-112120180D01*
X122032780Y-112596371D01*
%TO.C,22uF*%
X118343419Y-109126542D02*
X118295800Y-109174161D01*
X118248180Y-109269400D01*
X118248180Y-109507495D01*
X118295800Y-109602733D01*
X118343419Y-109650352D01*
X118438657Y-109697971D01*
X118533895Y-109697971D01*
X118676752Y-109650352D01*
X119248180Y-109078923D01*
X119248180Y-109697971D01*
X118343419Y-110078923D02*
X118295800Y-110126542D01*
X118248180Y-110221780D01*
X118248180Y-110459876D01*
X118295800Y-110555114D01*
X118343419Y-110602733D01*
X118438657Y-110650352D01*
X118533895Y-110650352D01*
X118676752Y-110602733D01*
X119248180Y-110031304D01*
X119248180Y-110650352D01*
X118581514Y-111507495D02*
X119248180Y-111507495D01*
X118581514Y-111078923D02*
X119105323Y-111078923D01*
X119200561Y-111126542D01*
X119248180Y-111221780D01*
X119248180Y-111364638D01*
X119200561Y-111459876D01*
X119152942Y-111507495D01*
X118724371Y-112317019D02*
X118724371Y-111983685D01*
X119248180Y-111983685D02*
X118248180Y-111983685D01*
X118248180Y-112459876D01*
%TO.C,Pwr*%
X105506780Y-103603561D02*
X104506780Y-103603561D01*
X104506780Y-103984514D01*
X104554400Y-104079752D01*
X104602019Y-104127371D01*
X104697257Y-104174990D01*
X104840114Y-104174990D01*
X104935352Y-104127371D01*
X104982971Y-104079752D01*
X105030590Y-103984514D01*
X105030590Y-103603561D01*
X104840114Y-104508323D02*
X105506780Y-104698800D01*
X105030590Y-104889276D01*
X105506780Y-105079752D01*
X104840114Y-105270228D01*
X105506780Y-105651180D02*
X104840114Y-105651180D01*
X105030590Y-105651180D02*
X104935352Y-105698800D01*
X104887733Y-105746419D01*
X104840114Y-105841657D01*
X104840114Y-105936895D01*
%TO.C,1k*%
X110024847Y-108224580D02*
X110596276Y-108224580D01*
X110310561Y-108224580D02*
X110310561Y-107224580D01*
X110405800Y-107367438D01*
X110501038Y-107462676D01*
X110596276Y-107510295D01*
X109596276Y-108224580D02*
X109596276Y-107224580D01*
X109501038Y-107843628D02*
X109215323Y-108224580D01*
X109215323Y-107557914D02*
X109596276Y-107938866D01*
X116654247Y-108275380D02*
X117225676Y-108275380D01*
X116939961Y-108275380D02*
X116939961Y-107275380D01*
X117035200Y-107418238D01*
X117130438Y-107513476D01*
X117225676Y-107561095D01*
X116225676Y-108275380D02*
X116225676Y-107275380D01*
X116130438Y-107894428D02*
X115844723Y-108275380D01*
X115844723Y-107608714D02*
X116225676Y-107989666D01*
%TO.C,10k*%
X120178438Y-108351580D02*
X120749866Y-108351580D01*
X120464152Y-108351580D02*
X120464152Y-107351580D01*
X120559390Y-107494438D01*
X120654628Y-107589676D01*
X120749866Y-107637295D01*
X119559390Y-107351580D02*
X119464152Y-107351580D01*
X119368914Y-107399200D01*
X119321295Y-107446819D01*
X119273676Y-107542057D01*
X119226057Y-107732533D01*
X119226057Y-107970628D01*
X119273676Y-108161104D01*
X119321295Y-108256342D01*
X119368914Y-108303961D01*
X119464152Y-108351580D01*
X119559390Y-108351580D01*
X119654628Y-108303961D01*
X119702247Y-108256342D01*
X119749866Y-108161104D01*
X119797485Y-107970628D01*
X119797485Y-107732533D01*
X119749866Y-107542057D01*
X119702247Y-107446819D01*
X119654628Y-107399200D01*
X119559390Y-107351580D01*
X118797485Y-108351580D02*
X118797485Y-107351580D01*
X118702247Y-107970628D02*
X118416533Y-108351580D01*
X118416533Y-107684914D02*
X118797485Y-108065866D01*
%TO.C,U2*%
X113061904Y-67777380D02*
X113061904Y-68586904D01*
X113014285Y-68682142D01*
X112966666Y-68729761D01*
X112871428Y-68777380D01*
X112680952Y-68777380D01*
X112585714Y-68729761D01*
X112538095Y-68682142D01*
X112490476Y-68586904D01*
X112490476Y-67777380D01*
X112061904Y-67872619D02*
X112014285Y-67825000D01*
X111919047Y-67777380D01*
X111680952Y-67777380D01*
X111585714Y-67825000D01*
X111538095Y-67872619D01*
X111490476Y-67967857D01*
X111490476Y-68063095D01*
X111538095Y-68205952D01*
X112109523Y-68777380D01*
X111490476Y-68777380D01*
X120136323Y-101960371D02*
X119802990Y-101960371D01*
X119660133Y-102484180D02*
X120136323Y-102484180D01*
X120136323Y-101484180D01*
X119660133Y-101484180D01*
X119279180Y-102436561D02*
X119136323Y-102484180D01*
X118898228Y-102484180D01*
X118802990Y-102436561D01*
X118755371Y-102388942D01*
X118707752Y-102293704D01*
X118707752Y-102198466D01*
X118755371Y-102103228D01*
X118802990Y-102055609D01*
X118898228Y-102007990D01*
X119088704Y-101960371D01*
X119183942Y-101912752D01*
X119231561Y-101865133D01*
X119279180Y-101769895D01*
X119279180Y-101674657D01*
X119231561Y-101579419D01*
X119183942Y-101531800D01*
X119088704Y-101484180D01*
X118850609Y-101484180D01*
X118707752Y-101531800D01*
X118279180Y-102484180D02*
X118279180Y-101484180D01*
X117898228Y-101484180D01*
X117802990Y-101531800D01*
X117755371Y-101579419D01*
X117707752Y-101674657D01*
X117707752Y-101817514D01*
X117755371Y-101912752D01*
X117802990Y-101960371D01*
X117898228Y-102007990D01*
X118279180Y-102007990D01*
X117374419Y-101484180D02*
X116755371Y-101484180D01*
X117088704Y-101865133D01*
X116945847Y-101865133D01*
X116850609Y-101912752D01*
X116802990Y-101960371D01*
X116755371Y-102055609D01*
X116755371Y-102293704D01*
X116802990Y-102388942D01*
X116850609Y-102436561D01*
X116945847Y-102484180D01*
X117231561Y-102484180D01*
X117326800Y-102436561D01*
X117374419Y-102388942D01*
X116374419Y-101579419D02*
X116326800Y-101531800D01*
X116231561Y-101484180D01*
X115993466Y-101484180D01*
X115898228Y-101531800D01*
X115850609Y-101579419D01*
X115802990Y-101674657D01*
X115802990Y-101769895D01*
X115850609Y-101912752D01*
X116422038Y-102484180D01*
X115802990Y-102484180D01*
X115374419Y-102103228D02*
X114612514Y-102103228D01*
X114183942Y-102436561D02*
X114041085Y-102484180D01*
X113802990Y-102484180D01*
X113707752Y-102436561D01*
X113660133Y-102388942D01*
X113612514Y-102293704D01*
X113612514Y-102198466D01*
X113660133Y-102103228D01*
X113707752Y-102055609D01*
X113802990Y-102007990D01*
X113993466Y-101960371D01*
X114088704Y-101912752D01*
X114136323Y-101865133D01*
X114183942Y-101769895D01*
X114183942Y-101674657D01*
X114136323Y-101579419D01*
X114088704Y-101531800D01*
X113993466Y-101484180D01*
X113755371Y-101484180D01*
X113612514Y-101531800D01*
X113231561Y-101579419D02*
X113183942Y-101531800D01*
X113088704Y-101484180D01*
X112850609Y-101484180D01*
X112755371Y-101531800D01*
X112707752Y-101579419D01*
X112660133Y-101674657D01*
X112660133Y-101769895D01*
X112707752Y-101912752D01*
X113279180Y-102484180D01*
X112660133Y-102484180D01*
X112231561Y-102103228D02*
X111469657Y-102103228D01*
X111088704Y-101484180D02*
X110850609Y-102484180D01*
X110660133Y-101769895D01*
X110469657Y-102484180D01*
X110231561Y-101484180D01*
X109279180Y-102484180D02*
X109612514Y-102007990D01*
X109850609Y-102484180D02*
X109850609Y-101484180D01*
X109469657Y-101484180D01*
X109374419Y-101531800D01*
X109326800Y-101579419D01*
X109279180Y-101674657D01*
X109279180Y-101817514D01*
X109326800Y-101912752D01*
X109374419Y-101960371D01*
X109469657Y-102007990D01*
X109850609Y-102007990D01*
X108660133Y-101484180D02*
X108469657Y-101484180D01*
X108374419Y-101531800D01*
X108279180Y-101627038D01*
X108231561Y-101817514D01*
X108231561Y-102150847D01*
X108279180Y-102341323D01*
X108374419Y-102436561D01*
X108469657Y-102484180D01*
X108660133Y-102484180D01*
X108755371Y-102436561D01*
X108850609Y-102341323D01*
X108898228Y-102150847D01*
X108898228Y-101817514D01*
X108850609Y-101627038D01*
X108755371Y-101531800D01*
X108660133Y-101484180D01*
X107945847Y-101484180D02*
X107612514Y-102484180D01*
X107279180Y-101484180D01*
X106945847Y-101960371D02*
X106612514Y-101960371D01*
X106469657Y-102484180D02*
X106945847Y-102484180D01*
X106945847Y-101484180D01*
X106469657Y-101484180D01*
X105469657Y-102484180D02*
X105802990Y-102007990D01*
X106041085Y-102484180D02*
X106041085Y-101484180D01*
X105660133Y-101484180D01*
X105564895Y-101531800D01*
X105517276Y-101579419D01*
X105469657Y-101674657D01*
X105469657Y-101817514D01*
X105517276Y-101912752D01*
X105564895Y-101960371D01*
X105660133Y-102007990D01*
X106041085Y-102007990D01*
X117061904Y-72841666D02*
X116585714Y-72841666D01*
X117157142Y-73127380D02*
X116823809Y-72127380D01*
X116490476Y-73127380D01*
X116157142Y-72460714D02*
X116157142Y-73127380D01*
X116157142Y-72555952D02*
X116109523Y-72508333D01*
X116014285Y-72460714D01*
X115871428Y-72460714D01*
X115776190Y-72508333D01*
X115728571Y-72603571D01*
X115728571Y-73127380D01*
X115395238Y-72460714D02*
X115014285Y-72460714D01*
X115252380Y-72127380D02*
X115252380Y-72984523D01*
X115204761Y-73079761D01*
X115109523Y-73127380D01*
X115014285Y-73127380D01*
X114300000Y-73079761D02*
X114395238Y-73127380D01*
X114585714Y-73127380D01*
X114680952Y-73079761D01*
X114728571Y-72984523D01*
X114728571Y-72603571D01*
X114680952Y-72508333D01*
X114585714Y-72460714D01*
X114395238Y-72460714D01*
X114300000Y-72508333D01*
X114252380Y-72603571D01*
X114252380Y-72698809D01*
X114728571Y-72794047D01*
X113823809Y-72460714D02*
X113823809Y-73127380D01*
X113823809Y-72555952D02*
X113776190Y-72508333D01*
X113680952Y-72460714D01*
X113538095Y-72460714D01*
X113442857Y-72508333D01*
X113395238Y-72603571D01*
X113395238Y-73127380D01*
X112919047Y-72460714D02*
X112919047Y-73127380D01*
X112919047Y-72555952D02*
X112871428Y-72508333D01*
X112776190Y-72460714D01*
X112633333Y-72460714D01*
X112538095Y-72508333D01*
X112490476Y-72603571D01*
X112490476Y-73127380D01*
X111585714Y-73127380D02*
X111585714Y-72603571D01*
X111633333Y-72508333D01*
X111728571Y-72460714D01*
X111919047Y-72460714D01*
X112014285Y-72508333D01*
X111585714Y-73079761D02*
X111680952Y-73127380D01*
X111919047Y-73127380D01*
X112014285Y-73079761D01*
X112061904Y-72984523D01*
X112061904Y-72889285D01*
X112014285Y-72794047D01*
X111919047Y-72746428D01*
X111680952Y-72746428D01*
X111585714Y-72698809D01*
X110395238Y-72841666D02*
X109919047Y-72841666D01*
X110490476Y-73127380D02*
X110157142Y-72127380D01*
X109823809Y-73127380D01*
X109490476Y-73127380D02*
X109490476Y-72460714D01*
X109490476Y-72651190D02*
X109442857Y-72555952D01*
X109395238Y-72508333D01*
X109300000Y-72460714D01*
X109204761Y-72460714D01*
X108490476Y-73079761D02*
X108585714Y-73127380D01*
X108776190Y-73127380D01*
X108871428Y-73079761D01*
X108919047Y-72984523D01*
X108919047Y-72603571D01*
X108871428Y-72508333D01*
X108776190Y-72460714D01*
X108585714Y-72460714D01*
X108490476Y-72508333D01*
X108442857Y-72603571D01*
X108442857Y-72698809D01*
X108919047Y-72794047D01*
X107585714Y-73127380D02*
X107585714Y-72603571D01*
X107633333Y-72508333D01*
X107728571Y-72460714D01*
X107919047Y-72460714D01*
X108014285Y-72508333D01*
X107585714Y-73079761D02*
X107680952Y-73127380D01*
X107919047Y-73127380D01*
X108014285Y-73079761D01*
X108061904Y-72984523D01*
X108061904Y-72889285D01*
X108014285Y-72794047D01*
X107919047Y-72746428D01*
X107680952Y-72746428D01*
X107585714Y-72698809D01*
%TO.C,470uF*%
X114085714Y-108847142D02*
X114752380Y-108847142D01*
X113704761Y-108609047D02*
X114419047Y-108370952D01*
X114419047Y-108990000D01*
X113752380Y-109275714D02*
X113752380Y-109942380D01*
X114752380Y-109513809D01*
X113752380Y-110513809D02*
X113752380Y-110609047D01*
X113800000Y-110704285D01*
X113847619Y-110751904D01*
X113942857Y-110799523D01*
X114133333Y-110847142D01*
X114371428Y-110847142D01*
X114561904Y-110799523D01*
X114657142Y-110751904D01*
X114704761Y-110704285D01*
X114752380Y-110609047D01*
X114752380Y-110513809D01*
X114704761Y-110418571D01*
X114657142Y-110370952D01*
X114561904Y-110323333D01*
X114371428Y-110275714D01*
X114133333Y-110275714D01*
X113942857Y-110323333D01*
X113847619Y-110370952D01*
X113800000Y-110418571D01*
X113752380Y-110513809D01*
X114085714Y-111704285D02*
X114752380Y-111704285D01*
X114085714Y-111275714D02*
X114609523Y-111275714D01*
X114704761Y-111323333D01*
X114752380Y-111418571D01*
X114752380Y-111561428D01*
X114704761Y-111656666D01*
X114657142Y-111704285D01*
X114228571Y-112513809D02*
X114228571Y-112180476D01*
X114752380Y-112180476D02*
X113752380Y-112180476D01*
X113752380Y-112656666D01*
%TO.C,TLV1117-33*%
X110932980Y-113921161D02*
X110932980Y-114492590D01*
X111932980Y-114206876D02*
X110932980Y-114206876D01*
X111932980Y-115302114D02*
X111932980Y-114825923D01*
X110932980Y-114825923D01*
X110932980Y-115492590D02*
X111932980Y-115825923D01*
X110932980Y-116159257D01*
X111932980Y-117016400D02*
X111932980Y-116444971D01*
X111932980Y-116730685D02*
X110932980Y-116730685D01*
X111075838Y-116635447D01*
X111171076Y-116540209D01*
X111218695Y-116444971D01*
X111932980Y-117968780D02*
X111932980Y-117397352D01*
X111932980Y-117683066D02*
X110932980Y-117683066D01*
X111075838Y-117587828D01*
X111171076Y-117492590D01*
X111218695Y-117397352D01*
X111932980Y-118921161D02*
X111932980Y-118349733D01*
X111932980Y-118635447D02*
X110932980Y-118635447D01*
X111075838Y-118540209D01*
X111171076Y-118444971D01*
X111218695Y-118349733D01*
X110932980Y-119254495D02*
X110932980Y-119921161D01*
X111932980Y-119492590D01*
X111552028Y-120302114D02*
X111552028Y-121064019D01*
X110932980Y-121444971D02*
X110932980Y-122064019D01*
X111313933Y-121730685D01*
X111313933Y-121873542D01*
X111361552Y-121968780D01*
X111409171Y-122016400D01*
X111504409Y-122064019D01*
X111742504Y-122064019D01*
X111837742Y-122016400D01*
X111885361Y-121968780D01*
X111932980Y-121873542D01*
X111932980Y-121587828D01*
X111885361Y-121492590D01*
X111837742Y-121444971D01*
X110932980Y-122397352D02*
X110932980Y-123016400D01*
X111313933Y-122683066D01*
X111313933Y-122825923D01*
X111361552Y-122921161D01*
X111409171Y-122968780D01*
X111504409Y-123016400D01*
X111742504Y-123016400D01*
X111837742Y-122968780D01*
X111885361Y-122921161D01*
X111932980Y-122825923D01*
X111932980Y-122540209D01*
X111885361Y-122444971D01*
X111837742Y-122397352D01*
%TO.C,CH330N*%
X119667066Y-123369342D02*
X119714685Y-123416961D01*
X119857542Y-123464580D01*
X119952780Y-123464580D01*
X120095638Y-123416961D01*
X120190876Y-123321723D01*
X120238495Y-123226485D01*
X120286114Y-123036009D01*
X120286114Y-122893152D01*
X120238495Y-122702676D01*
X120190876Y-122607438D01*
X120095638Y-122512200D01*
X119952780Y-122464580D01*
X119857542Y-122464580D01*
X119714685Y-122512200D01*
X119667066Y-122559819D01*
X119238495Y-123464580D02*
X119238495Y-122464580D01*
X119238495Y-122940771D02*
X118667066Y-122940771D01*
X118667066Y-123464580D02*
X118667066Y-122464580D01*
X118286114Y-122464580D02*
X117667066Y-122464580D01*
X118000400Y-122845533D01*
X117857542Y-122845533D01*
X117762304Y-122893152D01*
X117714685Y-122940771D01*
X117667066Y-123036009D01*
X117667066Y-123274104D01*
X117714685Y-123369342D01*
X117762304Y-123416961D01*
X117857542Y-123464580D01*
X118143257Y-123464580D01*
X118238495Y-123416961D01*
X118286114Y-123369342D01*
X117333733Y-122464580D02*
X116714685Y-122464580D01*
X117048019Y-122845533D01*
X116905161Y-122845533D01*
X116809923Y-122893152D01*
X116762304Y-122940771D01*
X116714685Y-123036009D01*
X116714685Y-123274104D01*
X116762304Y-123369342D01*
X116809923Y-123416961D01*
X116905161Y-123464580D01*
X117190876Y-123464580D01*
X117286114Y-123416961D01*
X117333733Y-123369342D01*
X116095638Y-122464580D02*
X116000400Y-122464580D01*
X115905161Y-122512200D01*
X115857542Y-122559819D01*
X115809923Y-122655057D01*
X115762304Y-122845533D01*
X115762304Y-123083628D01*
X115809923Y-123274104D01*
X115857542Y-123369342D01*
X115905161Y-123416961D01*
X116000400Y-123464580D01*
X116095638Y-123464580D01*
X116190876Y-123416961D01*
X116238495Y-123369342D01*
X116286114Y-123274104D01*
X116333733Y-123083628D01*
X116333733Y-122845533D01*
X116286114Y-122655057D01*
X116238495Y-122559819D01*
X116190876Y-122512200D01*
X116095638Y-122464580D01*
X115333733Y-123464580D02*
X115333733Y-122464580D01*
X114762304Y-123464580D01*
X114762304Y-122464580D01*
%TO.C,1uF*%
X111247180Y-109843961D02*
X111247180Y-109272533D01*
X111247180Y-109558247D02*
X110247180Y-109558247D01*
X110390038Y-109463009D01*
X110485276Y-109367771D01*
X110532895Y-109272533D01*
X110580514Y-110701104D02*
X111247180Y-110701104D01*
X110580514Y-110272533D02*
X111104323Y-110272533D01*
X111199561Y-110320152D01*
X111247180Y-110415390D01*
X111247180Y-110558247D01*
X111199561Y-110653485D01*
X111151942Y-110701104D01*
X110723371Y-111510628D02*
X110723371Y-111177295D01*
X111247180Y-111177295D02*
X110247180Y-111177295D01*
X110247180Y-111653485D01*
%TO.C,0/1*%
X122662819Y-124192380D02*
X122567580Y-124192380D01*
X122472342Y-124240000D01*
X122424723Y-124287619D01*
X122377104Y-124382857D01*
X122329485Y-124573333D01*
X122329485Y-124811428D01*
X122377104Y-125001904D01*
X122424723Y-125097142D01*
X122472342Y-125144761D01*
X122567580Y-125192380D01*
X122662819Y-125192380D01*
X122758057Y-125144761D01*
X122805676Y-125097142D01*
X122853295Y-125001904D01*
X122900914Y-124811428D01*
X122900914Y-124573333D01*
X122853295Y-124382857D01*
X122805676Y-124287619D01*
X122758057Y-124240000D01*
X122662819Y-124192380D01*
X121186628Y-124144761D02*
X122043771Y-125430476D01*
X120329485Y-125192380D02*
X120900914Y-125192380D01*
X120615200Y-125192380D02*
X120615200Y-124192380D01*
X120710438Y-124335238D01*
X120805676Y-124430476D01*
X120900914Y-124478095D01*
%TO.C,J3*%
X111900293Y-128738380D02*
X111900293Y-129452666D01*
X111947912Y-129595523D01*
X112043150Y-129690761D01*
X112186007Y-129738380D01*
X112281245Y-129738380D01*
X111519340Y-128738380D02*
X110900293Y-128738380D01*
X111233626Y-129119333D01*
X111090769Y-129119333D01*
X110995531Y-129166952D01*
X110947912Y-129214571D01*
X110900293Y-129309809D01*
X110900293Y-129547904D01*
X110947912Y-129643142D01*
X110995531Y-129690761D01*
X111090769Y-129738380D01*
X111376483Y-129738380D01*
X111471721Y-129690761D01*
X111519340Y-129643142D01*
%TO.C,Reset*%
X104666895Y-124836180D02*
X105000228Y-124359990D01*
X105238323Y-124836180D02*
X105238323Y-123836180D01*
X104857371Y-123836180D01*
X104762133Y-123883800D01*
X104714514Y-123931419D01*
X104666895Y-124026657D01*
X104666895Y-124169514D01*
X104714514Y-124264752D01*
X104762133Y-124312371D01*
X104857371Y-124359990D01*
X105238323Y-124359990D01*
X103857371Y-124788561D02*
X103952609Y-124836180D01*
X104143085Y-124836180D01*
X104238323Y-124788561D01*
X104285942Y-124693323D01*
X104285942Y-124312371D01*
X104238323Y-124217133D01*
X104143085Y-124169514D01*
X103952609Y-124169514D01*
X103857371Y-124217133D01*
X103809752Y-124312371D01*
X103809752Y-124407609D01*
X104285942Y-124502847D01*
X103428800Y-124788561D02*
X103333561Y-124836180D01*
X103143085Y-124836180D01*
X103047847Y-124788561D01*
X103000228Y-124693323D01*
X103000228Y-124645704D01*
X103047847Y-124550466D01*
X103143085Y-124502847D01*
X103285942Y-124502847D01*
X103381180Y-124455228D01*
X103428800Y-124359990D01*
X103428800Y-124312371D01*
X103381180Y-124217133D01*
X103285942Y-124169514D01*
X103143085Y-124169514D01*
X103047847Y-124217133D01*
X102190704Y-124788561D02*
X102285942Y-124836180D01*
X102476419Y-124836180D01*
X102571657Y-124788561D01*
X102619276Y-124693323D01*
X102619276Y-124312371D01*
X102571657Y-124217133D01*
X102476419Y-124169514D01*
X102285942Y-124169514D01*
X102190704Y-124217133D01*
X102143085Y-124312371D01*
X102143085Y-124407609D01*
X102619276Y-124502847D01*
X101857371Y-124169514D02*
X101476419Y-124169514D01*
X101714514Y-123836180D02*
X101714514Y-124693323D01*
X101666895Y-124788561D01*
X101571657Y-124836180D01*
X101476419Y-124836180D01*
%TO.C,Boot*%
X129719247Y-124490171D02*
X129576390Y-124537790D01*
X129528771Y-124585409D01*
X129481152Y-124680647D01*
X129481152Y-124823504D01*
X129528771Y-124918742D01*
X129576390Y-124966361D01*
X129671628Y-125013980D01*
X130052580Y-125013980D01*
X130052580Y-124013980D01*
X129719247Y-124013980D01*
X129624009Y-124061600D01*
X129576390Y-124109219D01*
X129528771Y-124204457D01*
X129528771Y-124299695D01*
X129576390Y-124394933D01*
X129624009Y-124442552D01*
X129719247Y-124490171D01*
X130052580Y-124490171D01*
X128909723Y-125013980D02*
X129004961Y-124966361D01*
X129052580Y-124918742D01*
X129100200Y-124823504D01*
X129100200Y-124537790D01*
X129052580Y-124442552D01*
X129004961Y-124394933D01*
X128909723Y-124347314D01*
X128766866Y-124347314D01*
X128671628Y-124394933D01*
X128624009Y-124442552D01*
X128576390Y-124537790D01*
X128576390Y-124823504D01*
X128624009Y-124918742D01*
X128671628Y-124966361D01*
X128766866Y-125013980D01*
X128909723Y-125013980D01*
X128004961Y-125013980D02*
X128100200Y-124966361D01*
X128147819Y-124918742D01*
X128195438Y-124823504D01*
X128195438Y-124537790D01*
X128147819Y-124442552D01*
X128100200Y-124394933D01*
X128004961Y-124347314D01*
X127862104Y-124347314D01*
X127766866Y-124394933D01*
X127719247Y-124442552D01*
X127671628Y-124537790D01*
X127671628Y-124823504D01*
X127719247Y-124918742D01*
X127766866Y-124966361D01*
X127862104Y-125013980D01*
X128004961Y-125013980D01*
X127385914Y-124347314D02*
X127004961Y-124347314D01*
X127243057Y-124013980D02*
X127243057Y-124871123D01*
X127195438Y-124966361D01*
X127100200Y-125013980D01*
X127004961Y-125013980D01*
%TO.C,kibuzzard-6268B47B*%
G36*
X93773945Y-122675490D02*
G01*
X93798242Y-122511691D01*
X93838478Y-122351062D01*
X93894264Y-122195150D01*
X93965064Y-122045457D01*
X94050195Y-121903424D01*
X94148837Y-121770420D01*
X94260042Y-121647724D01*
X94382737Y-121536520D01*
X94515742Y-121437877D01*
X94657774Y-121352746D01*
X94807468Y-121281946D01*
X94963379Y-121226160D01*
X95124008Y-121185925D01*
X95287808Y-121161627D01*
X95453200Y-121153502D01*
X95618592Y-121161627D01*
X95782392Y-121185925D01*
X95943021Y-121226160D01*
X96098932Y-121281946D01*
X96248626Y-121352746D01*
X96390658Y-121437877D01*
X96523663Y-121536520D01*
X96646358Y-121647724D01*
X96757563Y-121770420D01*
X96856205Y-121903424D01*
X96941336Y-122045457D01*
X97012136Y-122195150D01*
X97067922Y-122351062D01*
X97108158Y-122511691D01*
X97132455Y-122675490D01*
X97140580Y-122840882D01*
X97140580Y-129889118D01*
X97132455Y-130054510D01*
X97108158Y-130218309D01*
X97067922Y-130378938D01*
X97012136Y-130534850D01*
X96941336Y-130684543D01*
X96856205Y-130826576D01*
X96757563Y-130959580D01*
X96646358Y-131082276D01*
X96523663Y-131193480D01*
X96390658Y-131292123D01*
X96248625Y-131377254D01*
X96098932Y-131448054D01*
X95943021Y-131503840D01*
X95782392Y-131544075D01*
X95618592Y-131568373D01*
X95453200Y-131576498D01*
X95287808Y-131568373D01*
X95124008Y-131544075D01*
X94963379Y-131503840D01*
X94807468Y-131448054D01*
X94657775Y-131377254D01*
X94515742Y-131292123D01*
X94382737Y-131193480D01*
X94260042Y-131082276D01*
X94148837Y-130959580D01*
X94050195Y-130826576D01*
X93965064Y-130684543D01*
X93894264Y-130534850D01*
X93838478Y-130378938D01*
X93798242Y-130218309D01*
X93773945Y-130054510D01*
X93765820Y-129889118D01*
X93765820Y-129312988D01*
X94278450Y-129312988D01*
X94551500Y-129312988D01*
X94551500Y-128604963D01*
X95192850Y-128582738D01*
X95192850Y-128589088D01*
X95133319Y-128717675D01*
X95113475Y-128868488D01*
X95143320Y-129051368D01*
X95232855Y-129193608D01*
X95382080Y-129295208D01*
X95590995Y-129356168D01*
X95859600Y-129376488D01*
X96108661Y-129358143D01*
X96305511Y-129303110D01*
X96450150Y-129211388D01*
X96548928Y-129079801D01*
X96608194Y-128905176D01*
X96627950Y-128687513D01*
X96604138Y-128451769D01*
X96532700Y-128233488D01*
X96231075Y-128233488D01*
X96321563Y-128450181D01*
X96351725Y-128662113D01*
X96324341Y-128824038D01*
X96242188Y-128935163D01*
X96091772Y-128999456D01*
X95859600Y-129020888D01*
X95639334Y-129005806D01*
X95492888Y-128960563D01*
X95383350Y-128773238D01*
X95415100Y-128651794D01*
X95510350Y-128541463D01*
X95510350Y-128249363D01*
X94278450Y-128281113D01*
X94278450Y-129312988D01*
X93765820Y-129312988D01*
X93765820Y-127455613D01*
X96056450Y-127455613D01*
X96596200Y-127455613D01*
X96596200Y-126947613D01*
X96056450Y-126947613D01*
X96056450Y-127455613D01*
X93765820Y-127455613D01*
X93765820Y-125953838D01*
X94278450Y-125953838D01*
X96596200Y-125953838D01*
X96596200Y-125598238D01*
X94611825Y-125598238D01*
X94608650Y-125591888D01*
X94913450Y-125045788D01*
X94602300Y-125045788D01*
X94278450Y-125601413D01*
X94278450Y-125953838D01*
X93765820Y-125953838D01*
X93765820Y-123715463D01*
X94945200Y-123715463D01*
X96342200Y-124023438D01*
X96342200Y-124029788D01*
X94945200Y-124337763D01*
X94945200Y-124687013D01*
X96596200Y-124242513D01*
X96596200Y-123798013D01*
X94945200Y-123353513D01*
X94945200Y-123715463D01*
X93765820Y-123715463D01*
X93765820Y-122840882D01*
X93773945Y-122675490D01*
G37*
D10*
%TO.C,0.1uF*%
X120092400Y-110776278D02*
X120092400Y-110259122D01*
X121512400Y-110776278D02*
X121512400Y-110259122D01*
%TO.C,22uF*%
X116434800Y-110827078D02*
X116434800Y-110309922D01*
X117854800Y-110827078D02*
X117854800Y-110309922D01*
%TO.C,Pwr*%
X107996400Y-105430864D02*
X107996400Y-104226736D01*
X106176400Y-105430864D02*
X106176400Y-104226736D01*
%TO.C,1k*%
X110785000Y-105427064D02*
X110785000Y-104222936D01*
X108965000Y-105427064D02*
X108965000Y-104222936D01*
X117216600Y-105507064D02*
X117216600Y-104302936D01*
X115396600Y-105507064D02*
X115396600Y-104302936D01*
%TO.C,10k*%
X118765000Y-104272936D02*
X118765000Y-105477064D01*
X120585000Y-104272936D02*
X120585000Y-105477064D01*
%TO.C,U2*%
X103300000Y-69675000D02*
X103300000Y-76425000D01*
X121300000Y-69675000D02*
X121300000Y-76425000D01*
X103300000Y-100675000D02*
X104800000Y-100675000D01*
X121300000Y-100675000D02*
X119800000Y-100675000D01*
X103300000Y-75975000D02*
X121300000Y-75975000D01*
X121300000Y-69675000D02*
X103300000Y-69675000D01*
X121300000Y-100675000D02*
X121300000Y-100425000D01*
X103300000Y-100675000D02*
X103300000Y-100425000D01*
%TO.C,470uF*%
X111964400Y-110903278D02*
X111964400Y-110386122D01*
X113384400Y-110903278D02*
X113384400Y-110386122D01*
D12*
%TO.C,TLV1117-33*%
X103950000Y-116525000D02*
X103950000Y-116330000D01*
X103650000Y-116850000D02*
X103950000Y-116525000D01*
X110200000Y-120075000D02*
X110200000Y-119775000D01*
X103650000Y-120075000D02*
X103650000Y-119675000D01*
X110200000Y-117000000D02*
X110200000Y-116525000D01*
X109825000Y-120075000D02*
X110200000Y-120075000D01*
X104150000Y-120075000D02*
X103650000Y-120075000D01*
X110200000Y-116525000D02*
X109750000Y-116525000D01*
X103650000Y-117325000D02*
X103650000Y-116850000D01*
%TO.C,CH330N*%
X114975000Y-120075000D02*
X115275000Y-120075000D01*
X119935000Y-119815000D02*
X119935000Y-121585000D01*
X114975000Y-115875000D02*
X114975000Y-116175000D01*
X114975000Y-119775000D02*
X114975000Y-120075000D01*
X119875000Y-115875000D02*
X120175000Y-115875000D01*
X114975000Y-115875000D02*
X115275000Y-115875000D01*
X120175000Y-115875000D02*
X120175000Y-116175000D01*
X120125000Y-119425000D02*
X120125000Y-119625000D01*
X120125000Y-119625000D02*
X119935000Y-119815000D01*
D10*
%TO.C,1uF*%
X108408400Y-110822478D02*
X108408400Y-110305322D01*
X109828400Y-110822478D02*
X109828400Y-110305322D01*
%TO.C,0/1*%
X120915200Y-133340000D02*
X120915200Y-133340000D01*
X122015200Y-133340000D02*
X122015200Y-133340000D01*
X126215200Y-127640000D02*
X124815200Y-127640000D01*
X121215200Y-131440000D02*
X121215200Y-131740000D01*
X118715200Y-131440000D02*
X118715200Y-131740000D01*
X119815200Y-127640000D02*
X120915200Y-127640000D01*
X120415200Y-133340000D02*
X120915200Y-133340000D01*
X118415200Y-127640000D02*
X117015200Y-127640000D01*
X119515200Y-131740000D02*
X119515200Y-131440000D01*
X123615200Y-132040000D02*
X123615200Y-132040000D01*
X119615200Y-133340000D02*
X120115200Y-133340000D01*
X123615200Y-133340000D02*
X123615200Y-132840000D01*
X123615200Y-133340000D02*
X123115200Y-133340000D01*
X123715200Y-131740000D02*
X124515200Y-131740000D01*
X122315200Y-133340000D02*
X122315200Y-133340000D01*
X119615200Y-132840000D02*
X119615200Y-132840000D01*
X118715200Y-131740000D02*
X119515200Y-131740000D01*
X123115200Y-133340000D02*
X123115200Y-133340000D01*
X121215200Y-131740000D02*
X122015200Y-131740000D01*
X120915200Y-127640000D02*
X120915200Y-127640000D01*
X117015200Y-127640000D02*
X117015200Y-131440000D01*
X117015200Y-131440000D02*
X118715200Y-131440000D01*
X119615200Y-132040000D02*
X119615200Y-132040000D01*
X123715200Y-131440000D02*
X123715200Y-131740000D01*
X120115200Y-133340000D02*
X120115200Y-133340000D01*
X119615200Y-132540000D02*
X119615200Y-132040000D01*
X122015200Y-131440000D02*
X123715200Y-131440000D01*
X119615200Y-133340000D02*
X119615200Y-132840000D01*
X126215200Y-131440000D02*
X126215200Y-127640000D01*
X123615200Y-132840000D02*
X123615200Y-132840000D01*
X124515200Y-131440000D02*
X126215200Y-131440000D01*
X122015200Y-131740000D02*
X122015200Y-131440000D01*
X126215200Y-131440000D02*
X126215200Y-131440000D01*
X123415200Y-127640000D02*
X123415200Y-127640000D01*
X124515200Y-131740000D02*
X124515200Y-131440000D01*
X123615200Y-132540000D02*
X123615200Y-132040000D01*
X122815200Y-133340000D02*
X122315200Y-133340000D01*
X119515200Y-131440000D02*
X121215200Y-131440000D01*
X122315200Y-127640000D02*
X123415200Y-127640000D01*
X121215200Y-133340000D02*
X122015200Y-133340000D01*
D11*
%TO.C,J3*%
X115716960Y-131386980D02*
X115716960Y-131536980D01*
X107416960Y-128986980D02*
X107416960Y-127586980D01*
X113366960Y-125411980D02*
X113366960Y-125836980D01*
X113366960Y-125836980D02*
X114366960Y-125836980D01*
X115716960Y-131536980D02*
X115416960Y-131536980D01*
X107716960Y-131986980D02*
X107716960Y-131536980D01*
X107716960Y-131536980D02*
X107416960Y-131536980D01*
X109766960Y-125836980D02*
X108766960Y-125836980D01*
X112641960Y-125411980D02*
X113366960Y-125411980D01*
X107416960Y-131536980D02*
X107416960Y-131386980D01*
X115716960Y-127586980D02*
X115716960Y-128986980D01*
X115416960Y-131536980D02*
X115416960Y-131986980D01*
D12*
%TO.C,Reset*%
X104876400Y-129920800D02*
X104376400Y-129920800D01*
X104876400Y-126720800D02*
X104376400Y-126720800D01*
X104876400Y-129920800D02*
X104876400Y-129420800D01*
X104876400Y-126720800D02*
X104876400Y-127220800D01*
X101676400Y-129920800D02*
X101676400Y-129420800D01*
X101676400Y-129920800D02*
X102176400Y-129920800D01*
X104376400Y-129920800D02*
X104376400Y-130320800D01*
X101676400Y-126720800D02*
X102176400Y-126720800D01*
X101676400Y-126720800D02*
X101676400Y-127120800D01*
%TO.C,Boot*%
X126847800Y-130098600D02*
X126847800Y-129598600D01*
X129547800Y-130098600D02*
X129547800Y-130498600D01*
X130047800Y-126898600D02*
X130047800Y-127398600D01*
X126847800Y-126898600D02*
X127347800Y-126898600D01*
X126847800Y-130098600D02*
X127347800Y-130098600D01*
X126847800Y-126898600D02*
X126847800Y-127298600D01*
X130047800Y-130098600D02*
X130047800Y-129598600D01*
X130047800Y-126898600D02*
X129547800Y-126898600D01*
X130047800Y-130098600D02*
X129547800Y-130098600D01*
%TD*%
M02*
